<svg width="32" height="32" viewBox="0 0 32 32" fill="none" xmlns="http://www.w3.org/2000/svg">
<path d="M14.9751 9.5H24.6351C25.9803 9.5 27.1885 10.2925 27.7373 11.5C27.7373 11.5 27.9242 14.5965 28.0001 16L29.8428 17.486C29.8469 17.4907 29.851 17.4953 29.8551 17.5C29.9451 17.99 29.9951 18.5 29.9951 19.01V19.5L29.5001 21L29.9951 22.5V23.5L15.9951 24.5L1.99512 23.5L2.00012 22.5L3.00012 21L2.12512 19.5C2.49512 18.34 3.58514 17.5 4.87512 17.5H7.9751L12.5001 15L12.0027 11.5L12.3451 10.99C12.9351 10.11 13.9151 9.54 14.9751 9.5Z" fill="url(#paint0_linear_18_10534)"/>
<path d="M14.9751 9.5H24.6351C25.9803 9.5 27.1885 10.2925 27.7373 11.5C27.7373 11.5 27.9242 14.5965 28.0001 16L29.8428 17.486C29.8469 17.4907 29.851 17.4953 29.8551 17.5C29.9451 17.99 29.9951 18.5 29.9951 19.01V19.5L29.5001 21L29.9951 22.5V23.5L15.9951 24.5L1.99512 23.5L2.00012 22.5L3.00012 21L2.12512 19.5C2.49512 18.34 3.58514 17.5 4.87512 17.5H7.9751L12.5001 15L12.0027 11.5L12.3451 10.99C12.9351 10.11 13.9151 9.54 14.9751 9.5Z" fill="url(#paint1_radial_18_10534)"/>
<path d="M14.9751 9.5H24.6351C25.9803 9.5 27.1885 10.2925 27.7373 11.5C27.7373 11.5 27.9242 14.5965 28.0001 16L29.8428 17.486C29.8469 17.4907 29.851 17.4953 29.8551 17.5C29.9451 17.99 29.9951 18.5 29.9951 19.01V19.5L29.5001 21L29.9951 22.5V23.5L15.9951 24.5L1.99512 23.5L2.00012 22.5L3.00012 21L2.12512 19.5C2.49512 18.34 3.58514 17.5 4.87512 17.5H7.9751L12.5001 15L12.0027 11.5L12.3451 10.99C12.9351 10.11 13.9151 9.54 14.9751 9.5Z" fill="url(#paint2_radial_18_10534)"/>
<path d="M14.9751 9.5H24.6351C25.9803 9.5 27.1885 10.2925 27.7373 11.5C27.7373 11.5 27.9242 14.5965 28.0001 16L29.8428 17.486C29.8469 17.4907 29.851 17.4953 29.8551 17.5C29.9451 17.99 29.9951 18.5 29.9951 19.01V19.5L29.5001 21L29.9951 22.5V23.5L15.9951 24.5L1.99512 23.5L2.00012 22.5L3.00012 21L2.12512 19.5C2.49512 18.34 3.58514 17.5 4.87512 17.5H7.9751L12.5001 15L12.0027 11.5L12.3451 10.99C12.9351 10.11 13.9151 9.54 14.9751 9.5Z" fill="url(#paint3_linear_18_10534)"/>
<path d="M14.9751 9.5H24.6351C25.9803 9.5 27.1885 10.2925 27.7373 11.5C27.7373 11.5 27.9242 14.5965 28.0001 16L29.8428 17.486C29.8469 17.4907 29.851 17.4953 29.8551 17.5C29.9451 17.99 29.9951 18.5 29.9951 19.01V19.5L29.5001 21L29.9951 22.5V23.5L15.9951 24.5L1.99512 23.5L2.00012 22.5L3.00012 21L2.12512 19.5C2.49512 18.34 3.58514 17.5 4.87512 17.5H7.9751L12.5001 15L12.0027 11.5L12.3451 10.99C12.9351 10.11 13.9151 9.54 14.9751 9.5Z" fill="url(#paint4_linear_18_10534)"/>
<path d="M11.9951 11.5L7.96533 17.5H15.0251C15.5551 17.5 15.9851 17.07 15.9851 16.54V12.46C15.9851 11.93 15.5551 11.5 15.0251 11.5H11.9951Z" fill="url(#paint5_linear_18_10534)"/>
<path d="M11.9951 11.5L7.96533 17.5H15.0251C15.5551 17.5 15.9851 17.07 15.9851 16.54V12.46C15.9851 11.93 15.5551 11.5 15.0251 11.5H11.9951Z" fill="url(#paint6_linear_18_10534)"/>
<path d="M11.9951 11.5L7.96533 17.5H15.0251C15.5551 17.5 15.9851 17.07 15.9851 16.54V12.46C15.9851 11.93 15.5551 11.5 15.0251 11.5H11.9951Z" fill="url(#paint7_linear_18_10534)"/>
<path d="M11.9951 11.5L7.96533 17.5H15.0251C15.5551 17.5 15.9851 17.07 15.9851 16.54V12.46C15.9851 11.93 15.5551 11.5 15.0251 11.5H11.9951Z" fill="url(#paint8_linear_18_10534)"/>
<path d="M28.6051 25.5H27.295L23.5145 24.3516L19.734 25.5H12.2598L8.4731 24.3516L4.73604 25.5H3.38512C2.61512 25.5 1.99512 24.88 1.99512 24.11V23.5H29.9951V24.11C29.9951 24.88 29.3751 25.5 28.6051 25.5Z" fill="#9989AA"/>
<path d="M28.6051 25.5H27.295L23.5145 24.3516L19.734 25.5H12.2598L8.4731 24.3516L4.73604 25.5H3.38512C2.61512 25.5 1.99512 24.88 1.99512 24.11V23.5H29.9951V24.11C29.9951 24.88 29.3751 25.5 28.6051 25.5Z" fill="url(#paint9_linear_18_10534)"/>
<path d="M28.6051 25.5H27.295L23.5145 24.3516L19.734 25.5H12.2598L8.4731 24.3516L4.73604 25.5H3.38512C2.61512 25.5 1.99512 24.88 1.99512 24.11V23.5H29.9951V24.11C29.9951 24.88 29.3751 25.5 28.6051 25.5Z" fill="url(#paint10_linear_18_10534)"/>
<path d="M28.6051 25.5H27.295L23.5145 24.3516L19.734 25.5H12.2598L8.4731 24.3516L4.73604 25.5H3.38512C2.61512 25.5 1.99512 24.88 1.99512 24.11V23.5H29.9951V24.11C29.9951 24.88 29.3751 25.5 28.6051 25.5Z" fill="url(#paint11_linear_18_10534)"/>
<path d="M23.0049 17.5H18.9649C18.4349 17.5 18.0049 17.07 18.0049 16.54V12.46C18.0049 11.93 18.4349 11.5 18.9649 11.5H23.0049C23.5349 11.5 23.9649 11.93 23.9649 12.46V16.54C23.9649 17.07 23.5349 17.5 23.0049 17.5Z" fill="url(#paint12_linear_18_10534)"/>
<path d="M23.0049 17.5H18.9649C18.4349 17.5 18.0049 17.07 18.0049 16.54V12.46C18.0049 11.93 18.4349 11.5 18.9649 11.5H23.0049C23.5349 11.5 23.9649 11.93 23.9649 12.46V16.54C23.9649 17.07 23.5349 17.5 23.0049 17.5Z" fill="url(#paint13_linear_18_10534)"/>
<path d="M23.0049 17.5H18.9649C18.4349 17.5 18.0049 17.07 18.0049 16.54V12.46C18.0049 11.93 18.4349 11.5 18.9649 11.5H23.0049C23.5349 11.5 23.9649 11.93 23.9649 12.46V16.54C23.9649 17.07 23.5349 17.5 23.0049 17.5Z" fill="url(#paint14_linear_18_10534)"/>
<path d="M29.4651 16.08L27.8251 11.71C27.8051 11.65 27.7351 11.5 27.7351 11.5H27.0151C26.4451 11.5 25.9751 11.97 25.9751 12.54V16.54C25.9751 17.07 26.4051 17.5 26.9351 17.5H29.8451C29.7651 17.02 29.6351 16.54 29.4651 16.08Z" fill="url(#paint15_linear_18_10534)"/>
<path d="M29.4651 16.08L27.8251 11.71C27.8051 11.65 27.7351 11.5 27.7351 11.5H27.0151C26.4451 11.5 25.9751 11.97 25.9751 12.54V16.54C25.9751 17.07 26.4051 17.5 26.9351 17.5H29.8451C29.7651 17.02 29.6351 16.54 29.4651 16.08Z" fill="url(#paint16_linear_18_10534)"/>
<path d="M29.4651 16.08L27.8251 11.71C27.8051 11.65 27.7351 11.5 27.7351 11.5H27.0151C26.4451 11.5 25.9751 11.97 25.9751 12.54V16.54C25.9751 17.07 26.4051 17.5 26.9351 17.5H29.8451C29.7651 17.02 29.6351 16.54 29.4651 16.08Z" fill="url(#paint17_linear_18_10534)"/>
<path fill-rule="evenodd" clip-rule="evenodd" d="M12.3158 25.5C12.3464 25.304 12.3623 25.1031 12.3623 24.8984C12.3623 22.7626 10.6309 21.0312 8.49512 21.0312C6.35933 21.0312 4.62793 22.7626 4.62793 24.8984C4.62793 25.1031 4.64382 25.304 4.67444 25.5H12.3158Z" fill="url(#paint18_linear_18_10534)"/>
<path fill-rule="evenodd" clip-rule="evenodd" d="M27.3158 25.5C27.3464 25.304 27.3623 25.1031 27.3623 24.8984C27.3623 22.7626 25.6309 21.0312 23.4951 21.0312C21.3593 21.0312 19.6279 22.7626 19.6279 24.8984C19.6279 25.1031 19.6438 25.304 19.6744 25.5H27.3158Z" fill="url(#paint19_linear_18_10534)"/>
<path d="M3.98512 21.5V20.5C3.98512 19.95 3.53512 19.5 2.98512 19.5H2.13512C2.03512 19.79 1.99512 20.1 1.99512 20.77V22.5H2.98512C3.53512 22.5 3.98512 22.05 3.98512 21.5Z" fill="#F7DA4C"/>
<path d="M23.4951 28.5C25.4281 28.5 26.9951 26.933 26.9951 25C26.9951 23.067 25.4281 21.5 23.4951 21.5C21.5621 21.5 19.9951 23.067 19.9951 25C19.9951 26.933 21.5621 28.5 23.4951 28.5Z" fill="url(#paint20_linear_18_10534)"/>
<path d="M23.4951 28.5C25.4281 28.5 26.9951 26.933 26.9951 25C26.9951 23.067 25.4281 21.5 23.4951 21.5C21.5621 21.5 19.9951 23.067 19.9951 25C19.9951 26.933 21.5621 28.5 23.4951 28.5Z" fill="url(#paint21_radial_18_10534)"/>
<path d="M23.4951 28.5C25.4281 28.5 26.9951 26.933 26.9951 25C26.9951 23.067 25.4281 21.5 23.4951 21.5C21.5621 21.5 19.9951 23.067 19.9951 25C19.9951 26.933 21.5621 28.5 23.4951 28.5Z" fill="url(#paint22_radial_18_10534)"/>
<path d="M23.4951 28.5C25.4281 28.5 26.9951 26.933 26.9951 25C26.9951 23.067 25.4281 21.5 23.4951 21.5C21.5621 21.5 19.9951 23.067 19.9951 25C19.9951 26.933 21.5621 28.5 23.4951 28.5Z" fill="url(#paint23_radial_18_10534)"/>
<path d="M23.4951 28.5C25.4281 28.5 26.9951 26.933 26.9951 25C26.9951 23.067 25.4281 21.5 23.4951 21.5C21.5621 21.5 19.9951 23.067 19.9951 25C19.9951 26.933 21.5621 28.5 23.4951 28.5Z" fill="url(#paint24_radial_18_10534)" fill-opacity="0.8"/>
<path d="M23.4951 26.5C24.3235 26.5 24.9951 25.8284 24.9951 25C24.9951 24.1716 24.3235 23.5 23.4951 23.5C22.6667 23.5 21.9951 24.1716 21.9951 25C21.9951 25.8284 22.6667 26.5 23.4951 26.5Z" fill="#D9C3F0"/>
<path d="M23.4951 26.5C24.3235 26.5 24.9951 25.8284 24.9951 25C24.9951 24.1716 24.3235 23.5 23.4951 23.5C22.6667 23.5 21.9951 24.1716 21.9951 25C21.9951 25.8284 22.6667 26.5 23.4951 26.5Z" fill="url(#paint25_radial_18_10534)"/>
<path d="M29.9851 19.5H29.4851C28.6351 19.5 27.9451 20.21 27.9851 21.07C28.0251 21.88 28.7251 22.5 29.5351 22.5H29.9851V19.5Z" fill="url(#paint26_radial_18_10534)"/>
<path d="M8.51514 28.5C10.4481 28.5 12.0151 26.933 12.0151 25C12.0151 23.067 10.4481 21.5 8.51514 21.5C6.58214 21.5 5.01514 23.067 5.01514 25C5.01514 26.933 6.58214 28.5 8.51514 28.5Z" fill="url(#paint27_linear_18_10534)"/>
<path d="M8.51514 28.5C10.4481 28.5 12.0151 26.933 12.0151 25C12.0151 23.067 10.4481 21.5 8.51514 21.5C6.58214 21.5 5.01514 23.067 5.01514 25C5.01514 26.933 6.58214 28.5 8.51514 28.5Z" fill="url(#paint28_radial_18_10534)"/>
<path d="M8.51514 28.5C10.4481 28.5 12.0151 26.933 12.0151 25C12.0151 23.067 10.4481 21.5 8.51514 21.5C6.58214 21.5 5.01514 23.067 5.01514 25C5.01514 26.933 6.58214 28.5 8.51514 28.5Z" fill="url(#paint29_radial_18_10534)"/>
<path d="M8.51514 28.5C10.4481 28.5 12.0151 26.933 12.0151 25C12.0151 23.067 10.4481 21.5 8.51514 21.5C6.58214 21.5 5.01514 23.067 5.01514 25C5.01514 26.933 6.58214 28.5 8.51514 28.5Z" fill="url(#paint30_radial_18_10534)"/>
<path d="M8.51514 28.5C10.4481 28.5 12.0151 26.933 12.0151 25C12.0151 23.067 10.4481 21.5 8.51514 21.5C6.58214 21.5 5.01514 23.067 5.01514 25C5.01514 26.933 6.58214 28.5 8.51514 28.5Z" fill="url(#paint31_radial_18_10534)" fill-opacity="0.8"/>
<path d="M8.49512 26.5C9.32354 26.5 9.99512 25.8284 9.99512 25C9.99512 24.1716 9.32354 23.5 8.49512 23.5C7.66669 23.5 6.99512 24.1716 6.99512 25C6.99512 25.8284 7.66669 26.5 8.49512 26.5Z" fill="#D9C3F0"/>
<path d="M8.49512 26.5C9.32354 26.5 9.99512 25.8284 9.99512 25C9.99512 24.1716 9.32354 23.5 8.49512 23.5C7.66669 23.5 6.99512 24.1716 6.99512 25C6.99512 25.8284 7.66669 26.5 8.49512 26.5Z" fill="url(#paint32_radial_18_10534)"/>
<path fill-rule="evenodd" clip-rule="evenodd" d="M10.1519 16.9938C10.1566 16.7017 10.2221 16.0442 10.6436 15.6965C10.9156 15.472 11.3475 15.4222 11.7015 15.4504C11.9966 15.474 12.1748 15.7366 12.1748 16.0235V16.9938V17.9641C12.1748 18.251 11.9966 18.5136 11.7015 18.5372C11.3475 18.5654 10.9156 18.5156 10.6436 18.2911C10.2221 17.9434 10.1566 17.2859 10.1519 16.9938Z" fill="url(#paint33_radial_18_10534)"/>
<path fill-rule="evenodd" clip-rule="evenodd" d="M10.1519 16.9938C10.1566 16.7017 10.2221 16.0442 10.6436 15.6965C10.9156 15.472 11.3475 15.4222 11.7015 15.4504C11.9966 15.474 12.1748 15.7366 12.1748 16.0235V16.9938V17.9641C12.1748 18.251 11.9966 18.5136 11.7015 18.5372C11.3475 18.5654 10.9156 18.5156 10.6436 18.2911C10.2221 17.9434 10.1566 17.2859 10.1519 16.9938Z" fill="url(#paint34_linear_18_10534)"/>
<path fill-rule="evenodd" clip-rule="evenodd" d="M10.1519 16.9938C10.1566 16.7017 10.2221 16.0442 10.6436 15.6965C10.9156 15.472 11.3475 15.4222 11.7015 15.4504C11.9966 15.474 12.1748 15.7366 12.1748 16.0235V16.9938V17.9641C12.1748 18.251 11.9966 18.5136 11.7015 18.5372C11.3475 18.5654 10.9156 18.5156 10.6436 18.2911C10.2221 17.9434 10.1566 17.2859 10.1519 16.9938Z" fill="url(#paint35_radial_18_10534)"/>
<path fill-rule="evenodd" clip-rule="evenodd" d="M10.1519 16.9938C10.1566 16.7017 10.2221 16.0442 10.6436 15.6965C10.9156 15.472 11.3475 15.4222 11.7015 15.4504C11.9966 15.474 12.1748 15.7366 12.1748 16.0235V16.9938V17.9641C12.1748 18.251 11.9966 18.5136 11.7015 18.5372C11.3475 18.5654 10.9156 18.5156 10.6436 18.2911C10.2221 17.9434 10.1566 17.2859 10.1519 16.9938Z" fill="url(#paint36_radial_18_10534)" fill-opacity="0.8"/>
<defs>
<linearGradient id="paint0_linear_18_10534" x1="2.58252" y1="18.6128" x2="17.27" y2="18.6128" gradientUnits="userSpaceOnUse">
<stop stop-color="#DF378A"/>
<stop offset="1" stop-color="#ED334E"/>
</linearGradient>
<radialGradient id="paint1_radial_18_10534" cx="0" cy="0" r="1" gradientUnits="userSpaceOnUse" gradientTransform="translate(27.3632 10.3054) rotate(136.332) scale(2.18138 3.8357)">
<stop stop-color="#FF4D5A"/>
<stop offset="1" stop-color="#FF4D5A" stop-opacity="0"/>
</radialGradient>
<radialGradient id="paint2_radial_18_10534" cx="0" cy="0" r="1" gradientUnits="userSpaceOnUse" gradientTransform="translate(11.0001 18) rotate(-90) scale(2.5 3.21222)">
<stop offset="0.2125" stop-color="#9E194F"/>
<stop offset="0.3625" stop-color="#9E194F" stop-opacity="0"/>
</radialGradient>
<linearGradient id="paint3_linear_18_10534" x1="30.0001" y1="17.142" x2="29.0001" y2="17.142" gradientUnits="userSpaceOnUse">
<stop stop-color="#BF2332"/>
<stop offset="1" stop-color="#BF2332" stop-opacity="0"/>
</linearGradient>
<linearGradient id="paint4_linear_18_10534" x1="15.9951" y1="8.91834" x2="15.9951" y2="11.5329" gradientUnits="userSpaceOnUse">
<stop offset="0.176588" stop-color="#FF6A71"/>
<stop offset="0.48089" stop-color="#FF4856"/>
<stop offset="1" stop-color="#EE3550"/>
</linearGradient>
<linearGradient id="paint5_linear_18_10534" x1="14.7075" y1="12.9428" x2="9.14502" y2="17.5" gradientUnits="userSpaceOnUse">
<stop stop-color="#3398F0"/>
<stop offset="1" stop-color="#57E8FF"/>
</linearGradient>
<linearGradient id="paint6_linear_18_10534" x1="15.9851" y1="16.6928" x2="14.145" y2="16.6928" gradientUnits="userSpaceOnUse">
<stop stop-color="#2372D7"/>
<stop offset="1" stop-color="#2372D7" stop-opacity="0"/>
</linearGradient>
<linearGradient id="paint7_linear_18_10534" x1="14.145" y1="10.9428" x2="14.145" y2="16.7553" gradientUnits="userSpaceOnUse">
<stop offset="0.225806" stop-color="#2372D7"/>
<stop offset="1" stop-color="#2372D7" stop-opacity="0"/>
</linearGradient>
<linearGradient id="paint8_linear_18_10534" x1="7.96533" y1="17.5" x2="11.9752" y2="17.5" gradientUnits="userSpaceOnUse">
<stop stop-color="#5EEEFF"/>
<stop offset="0.652683" stop-color="#40ACF4"/>
<stop offset="1" stop-color="#40ACF4" stop-opacity="0"/>
</linearGradient>
<linearGradient id="paint9_linear_18_10534" x1="1.99512" y1="24.5" x2="2.88494" y2="24.5" gradientUnits="userSpaceOnUse">
<stop stop-color="#847F89"/>
<stop offset="1" stop-color="#847F89" stop-opacity="0"/>
</linearGradient>
<linearGradient id="paint10_linear_18_10534" x1="29.9951" y1="24.5" x2="28.4304" y2="24.5" gradientUnits="userSpaceOnUse">
<stop stop-color="#847F89"/>
<stop offset="1" stop-color="#847F89" stop-opacity="0"/>
</linearGradient>
<linearGradient id="paint11_linear_18_10534" x1="15.9951" y1="25.5" x2="15.9951" y2="24.6616" gradientUnits="userSpaceOnUse">
<stop stop-color="#734995"/>
<stop offset="1" stop-color="#734995" stop-opacity="0"/>
</linearGradient>
<linearGradient id="paint12_linear_18_10534" x1="21.9573" y1="13.4428" x2="18.0049" y2="18.0678" gradientUnits="userSpaceOnUse">
<stop stop-color="#40A4FF"/>
<stop offset="1" stop-color="#5BF6FF"/>
</linearGradient>
<linearGradient id="paint13_linear_18_10534" x1="23.9554" y1="13.9961" x2="20.9849" y2="13.9961" gradientUnits="userSpaceOnUse">
<stop offset="0.0429181" stop-color="#2C76F6"/>
<stop offset="0.569698" stop-color="#2C76F6" stop-opacity="0"/>
</linearGradient>
<linearGradient id="paint14_linear_18_10534" x1="20.9801" y1="11.1706" x2="20.9816" y2="13.9961" gradientUnits="userSpaceOnUse">
<stop offset="0.149221" stop-color="#2C76F6"/>
<stop offset="0.821504" stop-color="#2C76F6" stop-opacity="0"/>
</linearGradient>
<linearGradient id="paint15_linear_18_10534" x1="28.7075" y1="14.5" x2="25.645" y2="17.5" gradientUnits="userSpaceOnUse">
<stop stop-color="#3DA7FF"/>
<stop offset="1" stop-color="#4CF0F8"/>
</linearGradient>
<linearGradient id="paint16_linear_18_10534" x1="26.4106" y1="12.0522" x2="27.0981" y2="12.8178" gradientUnits="userSpaceOnUse">
<stop stop-color="#2588DA"/>
<stop offset="1" stop-color="#2588DA" stop-opacity="0"/>
</linearGradient>
<linearGradient id="paint17_linear_18_10534" x1="30.2388" y1="17.5" x2="29.0825" y2="16.4116" gradientUnits="userSpaceOnUse">
<stop stop-color="#2588DA"/>
<stop offset="1" stop-color="#2588DA" stop-opacity="0"/>
</linearGradient>
<linearGradient id="paint18_linear_18_10534" x1="8.49512" y1="21.0312" x2="8.49512" y2="25.3712" gradientUnits="userSpaceOnUse">
<stop stop-color="#64023B"/>
<stop offset="1" stop-color="#7E0B55"/>
</linearGradient>
<linearGradient id="paint19_linear_18_10534" x1="23.4951" y1="21.0312" x2="23.4951" y2="25.3712" gradientUnits="userSpaceOnUse">
<stop stop-color="#64023B"/>
<stop offset="1" stop-color="#7E0B55"/>
</linearGradient>
<linearGradient id="paint20_linear_18_10534" x1="21.8812" y1="24.1199" x2="27.1383" y2="24.1199" gradientUnits="userSpaceOnUse">
<stop offset="0.239044" stop-color="#34214F"/>
<stop offset="1" stop-color="#241337"/>
</linearGradient>
<radialGradient id="paint21_radial_18_10534" cx="0" cy="0" r="1" gradientUnits="userSpaceOnUse" gradientTransform="translate(23.4951 24.6868) rotate(-65.5366) scale(1.9097 1.99461)">
<stop offset="0.523134" stop-color="#2D114D"/>
<stop offset="1" stop-color="#2B1249" stop-opacity="0"/>
</radialGradient>
<radialGradient id="paint22_radial_18_10534" cx="0" cy="0" r="1" gradientUnits="userSpaceOnUse" gradientTransform="translate(23.4951 24.6868) rotate(-65.5366) scale(1.9097 1.99461)">
<stop offset="0.523134" stop-color="#2D114D"/>
<stop offset="1" stop-color="#2B1249" stop-opacity="0"/>
</radialGradient>
<radialGradient id="paint23_radial_18_10534" cx="0" cy="0" r="1" gradientUnits="userSpaceOnUse" gradientTransform="translate(23.499 25.047) rotate(-74.0546) scale(3.6482 3.81042)">
<stop offset="0.382076" stop-color="#585064" stop-opacity="0"/>
<stop offset="0.540094" stop-color="#585064" stop-opacity="0.5"/>
<stop offset="0.647406" stop-color="#585064"/>
<stop offset="0.767689" stop-color="#585064" stop-opacity="0.5"/>
<stop offset="0.898585" stop-color="#585064" stop-opacity="0"/>
</radialGradient>
<radialGradient id="paint24_radial_18_10534" cx="0" cy="0" r="1" gradientUnits="userSpaceOnUse" gradientTransform="translate(23.4951 24.6868) rotate(-58.5373) scale(1.92771 5.06776)">
<stop offset="0.523134" stop-color="#331F4E"/>
<stop offset="1" stop-color="#331F4E" stop-opacity="0"/>
</radialGradient>
<radialGradient id="paint25_radial_18_10534" cx="0" cy="0" r="1" gradientUnits="userSpaceOnUse" gradientTransform="translate(24.1199 24.2084) rotate(119.578) scale(2.85191 3.06763)">
<stop offset="0.759833" stop-color="#AC6BE4" stop-opacity="0"/>
<stop offset="1" stop-color="#AC6BE4"/>
</radialGradient>
<radialGradient id="paint26_radial_18_10534" cx="0" cy="0" r="1" gradientUnits="userSpaceOnUse" gradientTransform="translate(29.9851 22.1693) rotate(-120.532) scale(2.61197)">
<stop offset="0.418213" stop-color="#D32374"/>
<stop offset="1" stop-color="#B60160"/>
</radialGradient>
<linearGradient id="paint27_linear_18_10534" x1="6.90123" y1="24.1199" x2="12.1583" y2="24.1199" gradientUnits="userSpaceOnUse">
<stop offset="0.239044" stop-color="#34214F"/>
<stop offset="1" stop-color="#241337"/>
</linearGradient>
<radialGradient id="paint28_radial_18_10534" cx="0" cy="0" r="1" gradientUnits="userSpaceOnUse" gradientTransform="translate(8.51514 24.6868) rotate(-65.5366) scale(1.9097 1.99461)">
<stop offset="0.523134" stop-color="#2D114D"/>
<stop offset="1" stop-color="#2B1249" stop-opacity="0"/>
</radialGradient>
<radialGradient id="paint29_radial_18_10534" cx="0" cy="0" r="1" gradientUnits="userSpaceOnUse" gradientTransform="translate(8.51514 24.6868) rotate(-65.5366) scale(1.9097 1.99461)">
<stop offset="0.523134" stop-color="#2D114D"/>
<stop offset="1" stop-color="#2B1249" stop-opacity="0"/>
</radialGradient>
<radialGradient id="paint30_radial_18_10534" cx="0" cy="0" r="1" gradientUnits="userSpaceOnUse" gradientTransform="translate(8.51905 25.047) rotate(-74.0546) scale(3.6482 3.81042)">
<stop offset="0.382076" stop-color="#585064" stop-opacity="0"/>
<stop offset="0.540094" stop-color="#585064" stop-opacity="0.5"/>
<stop offset="0.647406" stop-color="#585064"/>
<stop offset="0.767689" stop-color="#585064" stop-opacity="0.5"/>
<stop offset="0.898585" stop-color="#585064" stop-opacity="0"/>
</radialGradient>
<radialGradient id="paint31_radial_18_10534" cx="0" cy="0" r="1" gradientUnits="userSpaceOnUse" gradientTransform="translate(8.51514 24.6868) rotate(-58.5373) scale(1.92771 5.06776)">
<stop offset="0.523134" stop-color="#331F4E"/>
<stop offset="1" stop-color="#331F4E" stop-opacity="0"/>
</radialGradient>
<radialGradient id="paint32_radial_18_10534" cx="0" cy="0" r="1" gradientUnits="userSpaceOnUse" gradientTransform="translate(9.11991 24.2084) rotate(119.578) scale(2.85191 3.06763)">
<stop offset="0.759833" stop-color="#AC6BE4" stop-opacity="0"/>
<stop offset="1" stop-color="#AC6BE4"/>
</radialGradient>
<radialGradient id="paint33_radial_18_10534" cx="0" cy="0" r="1" gradientUnits="userSpaceOnUse" gradientTransform="translate(10.981 17.9272) rotate(-46.2263) scale(1.80685 4.82263)">
<stop stop-color="#3A2557"/>
<stop offset="1" stop-color="#281F4A"/>
</radialGradient>
<linearGradient id="paint34_linear_18_10534" x1="11.8585" y1="17.2376" x2="12.1748" y2="17.2376" gradientUnits="userSpaceOnUse">
<stop stop-color="#281F4A" stop-opacity="0"/>
<stop offset="1" stop-color="#281F4A"/>
</linearGradient>
<radialGradient id="paint35_radial_18_10534" cx="0" cy="0" r="1" gradientUnits="userSpaceOnUse" gradientTransform="translate(11.6594 16.9631) rotate(-51.0687) scale(3.15764 3.5685)">
<stop offset="0.392363" stop-color="#362454" stop-opacity="0"/>
<stop offset="0.515256" stop-color="#362454"/>
</radialGradient>
<radialGradient id="paint36_radial_18_10534" cx="0" cy="0" r="1" gradientUnits="userSpaceOnUse" gradientTransform="translate(11.5001 16.5) rotate(180) scale(1 2.65365)">
<stop stop-color="#605778"/>
<stop offset="0.565841" stop-color="#605778" stop-opacity="0"/>
</radialGradient>
</defs>
</svg>
