<svg width="32" height="32" viewBox="0 0 32 32" fill="none" xmlns="http://www.w3.org/2000/svg">
<path fill-rule="evenodd" clip-rule="evenodd" d="M24.3592 2.3916C22.7299 2.3916 21.4092 3.71236 21.4092 5.3416V7.71718H22.3092V5.3416C22.3092 4.20942 23.227 3.2916 24.3592 3.2916H25.3396C26.4718 3.2916 27.3896 4.20942 27.3896 5.3416V7.71718H28.2896V5.3416C28.2896 3.71236 26.9689 2.3916 25.3396 2.3916H24.3592ZM28.2896 27.9607H27.3896V28.9275H28.2896V27.9607Z" fill="url(#paint0_linear_18_25664)"/>
<path fill-rule="evenodd" clip-rule="evenodd" d="M24.3592 2.3916C22.7299 2.3916 21.4092 3.71236 21.4092 5.3416V7.71718H22.3092V5.3416C22.3092 4.20942 23.227 3.2916 24.3592 3.2916H25.3396C26.4718 3.2916 27.3896 4.20942 27.3896 5.3416V7.71718H28.2896V5.3416C28.2896 3.71236 26.9689 2.3916 25.3396 2.3916H24.3592ZM28.2896 27.9607H27.3896V28.9275H28.2896V27.9607Z" fill="url(#paint1_linear_18_25664)"/>
<path fill-rule="evenodd" clip-rule="evenodd" d="M27.3612 4.99617C27.197 4.02847 26.3546 3.2916 25.3401 3.2916H24.3597C23.3452 3.2916 22.5029 4.02847 22.3387 4.99617H21.4297C21.6007 3.5297 22.8473 2.3916 24.3597 2.3916H25.3401C26.8525 2.3916 28.0991 3.5297 28.2701 4.99617H27.3612ZM27.3901 27.9607V28.9275H28.2901V27.9607H27.3901Z" fill="url(#paint2_radial_18_25664)"/>
<path fill-rule="evenodd" clip-rule="evenodd" d="M27.3612 4.99617C27.197 4.02847 26.3546 3.2916 25.3401 3.2916H24.3597C23.3452 3.2916 22.5029 4.02847 22.3387 4.99617H21.4297C21.6007 3.5297 22.8473 2.3916 24.3597 2.3916H25.3401C26.8525 2.3916 28.0991 3.5297 28.2701 4.99617H27.3612ZM27.3901 27.9607V28.9275H28.2901V27.9607H27.3901Z" fill="url(#paint3_radial_18_25664)"/>
<path d="M27.3164 4.79517H28.2395C28.2727 4.97224 28.29 5.15488 28.29 5.34157V28.9275H27.39V5.34157C27.39 5.15235 27.3644 4.96912 27.3164 4.79517Z" fill="url(#paint4_linear_18_25664)"/>
<path d="M27.3164 4.79517H28.2395C28.2727 4.97224 28.29 5.15488 28.29 5.34157V28.9275H27.39V5.34157C27.39 5.15235 27.3644 4.96912 27.3164 4.79517Z" fill="url(#paint5_linear_18_25664)"/>
<rect x="22.3984" y="28.6151" width="2.00781" height="1.67578" fill="url(#paint6_radial_18_25664)"/>
<rect x="3.46094" y="28.6151" width="2.00781" height="1.67578" fill="url(#paint7_radial_18_25664)"/>
<path d="M4.625 18.537C4.625 17.8466 5.18464 17.287 5.875 17.287H12.7031C13.3935 17.287 13.9531 17.8466 13.9531 18.537V25.2714H4.625V18.537Z" fill="#447AC9"/>
<path d="M4.625 18.537C4.625 17.8466 5.18464 17.287 5.875 17.287H12.7031C13.3935 17.287 13.9531 17.8466 13.9531 18.537V25.2714H4.625V18.537Z" fill="url(#paint8_radial_18_25664)"/>
<path d="M4.625 18.537C4.625 17.8466 5.18464 17.287 5.875 17.287H12.7031C13.3935 17.287 13.9531 17.8466 13.9531 18.537V25.2714H4.625V18.537Z" fill="url(#paint9_radial_18_25664)"/>
<path d="M4.625 18.537C4.625 17.8466 5.18464 17.287 5.875 17.287H12.7031C13.3935 17.287 13.9531 17.8466 13.9531 18.537V25.2714H4.625V18.537Z" fill="url(#paint10_linear_18_25664)"/>
<path d="M4.625 18.537C4.625 17.8466 5.18464 17.287 5.875 17.287H12.7031C13.3935 17.287 13.9531 17.8466 13.9531 18.537V25.2714H4.625V18.537Z" fill="url(#paint11_linear_18_25664)"/>
<path d="M4.625 18.537C4.625 17.8466 5.18464 17.287 5.875 17.287H12.7031C13.3935 17.287 13.9531 17.8466 13.9531 18.537V25.2714H4.625V18.537Z" fill="url(#paint12_linear_18_25664)"/>
<path d="M4.625 18.537C4.625 17.8466 5.18464 17.287 5.875 17.287H12.7031C13.3935 17.287 13.9531 17.8466 13.9531 18.537V25.2714H4.625V18.537Z" fill="url(#paint13_linear_18_25664)"/>
<path d="M4.625 18.537C4.625 17.8466 5.18464 17.287 5.875 17.287H12.7031C13.3935 17.287 13.9531 17.8466 13.9531 18.537V25.2714H4.625V18.537Z" fill="url(#paint14_linear_18_25664)"/>
<path d="M4.625 18.537C4.625 17.8466 5.18464 17.287 5.875 17.287H12.7031C13.3935 17.287 13.9531 17.8466 13.9531 18.537V25.2714H4.625V18.537Z" fill="url(#paint15_linear_18_25664)"/>
<path d="M4.625 18.537C4.625 17.8466 5.18464 17.287 5.875 17.287H12.7031C13.3935 17.287 13.9531 17.8466 13.9531 18.537V25.2714H4.625V18.537Z" fill="url(#paint16_linear_18_25664)"/>
<path d="M23.2812 18.537C23.2812 17.8466 22.7216 17.287 22.0312 17.287H15.2031C14.5128 17.287 13.9531 17.8466 13.9531 18.537V25.2714H23.2812V18.537Z" fill="#447AC9"/>
<path d="M23.2812 18.537C23.2812 17.8466 22.7216 17.287 22.0312 17.287H15.2031C14.5128 17.287 13.9531 17.8466 13.9531 18.537V25.2714H23.2812V18.537Z" fill="url(#paint17_linear_18_25664)"/>
<path d="M23.2812 18.537C23.2812 17.8466 22.7216 17.287 22.0312 17.287H15.2031C14.5128 17.287 13.9531 17.8466 13.9531 18.537V25.2714H23.2812V18.537Z" fill="url(#paint18_linear_18_25664)"/>
<path d="M23.2812 18.537C23.2812 17.8466 22.7216 17.287 22.0312 17.287H15.2031C14.5128 17.287 13.9531 17.8466 13.9531 18.537V25.2714H23.2812V18.537Z" fill="url(#paint19_linear_18_25664)"/>
<path d="M23.2812 18.537C23.2812 17.8466 22.7216 17.287 22.0312 17.287H15.2031C14.5128 17.287 13.9531 17.8466 13.9531 18.537V25.2714H23.2812V18.537Z" fill="url(#paint20_linear_18_25664)"/>
<path d="M23.2812 18.537C23.2812 17.8466 22.7216 17.287 22.0312 17.287H15.2031C14.5128 17.287 13.9531 17.8466 13.9531 18.537V25.2714H23.2812V18.537Z" fill="url(#paint21_linear_18_25664)"/>
<path d="M23.2812 18.537C23.2812 17.8466 22.7216 17.287 22.0312 17.287H15.2031C14.5128 17.287 13.9531 17.8466 13.9531 18.537V25.2714H23.2812V18.537Z" fill="url(#paint22_radial_18_25664)"/>
<path d="M23.2812 18.537C23.2812 17.8466 22.7216 17.287 22.0312 17.287H15.2031C14.5128 17.287 13.9531 17.8466 13.9531 18.537V25.2714H23.2812V18.537Z" fill="url(#paint23_radial_18_25664)"/>
<path d="M23.2812 18.537C23.2812 17.8466 22.7216 17.287 22.0312 17.287H15.2031C14.5128 17.287 13.9531 17.8466 13.9531 18.537V25.2714H23.2812V18.537Z" fill="url(#paint24_radial_18_25664)"/>
<path d="M23.2812 18.537C23.2812 17.8466 22.7216 17.287 22.0312 17.287H15.2031C14.5128 17.287 13.9531 17.8466 13.9531 18.537V25.2714H23.2812V18.537Z" fill="url(#paint25_linear_18_25664)"/>
<path d="M23.2812 18.537C23.2812 17.8466 22.7216 17.287 22.0312 17.287H15.2031C14.5128 17.287 13.9531 17.8466 13.9531 18.537V25.2714H23.2812V18.537Z" fill="url(#paint26_linear_18_25664)"/>
<path d="M23.2812 18.537C23.2812 17.8466 22.7216 17.287 22.0312 17.287H15.2031C14.5128 17.287 13.9531 17.8466 13.9531 18.537V25.2714H23.2812V18.537Z" fill="url(#paint27_linear_18_25664)"/>
<path d="M23.2812 18.537C23.2812 17.8466 22.7216 17.287 22.0312 17.287H15.2031C14.5128 17.287 13.9531 17.8466 13.9531 18.537V25.2714H23.2812V18.537Z" fill="url(#paint28_linear_18_25664)"/>
<path d="M23.2812 18.537C23.2812 17.8466 22.7216 17.287 22.0312 17.287H15.2031C14.5128 17.287 13.9531 17.8466 13.9531 18.537V25.2714H23.2812V18.537Z" fill="url(#paint29_linear_18_25664)"/>
<path d="M4.77344 24.6385H23.0938V28.2323C23.0938 28.7846 22.646 29.2323 22.0938 29.2323H5.77344C5.22115 29.2323 4.77344 28.7846 4.77344 28.2323V24.6385Z" fill="#4A7ED9"/>
<path d="M4.77344 24.6385H23.0938V28.2323C23.0938 28.7846 22.646 29.2323 22.0938 29.2323H5.77344C5.22115 29.2323 4.77344 28.7846 4.77344 28.2323V24.6385Z" fill="url(#paint30_linear_18_25664)"/>
<path d="M4.77344 24.6385H23.0938V28.2323C23.0938 28.7846 22.646 29.2323 22.0938 29.2323H5.77344C5.22115 29.2323 4.77344 28.7846 4.77344 28.2323V24.6385Z" fill="url(#paint31_linear_18_25664)"/>
<path d="M4.77344 24.6385H23.0938V28.2323C23.0938 28.7846 22.646 29.2323 22.0938 29.2323H5.77344C5.22115 29.2323 4.77344 28.7846 4.77344 28.2323V24.6385Z" fill="url(#paint32_linear_18_25664)"/>
<path d="M4.77344 24.6385H23.0938V28.2323C23.0938 28.7846 22.646 29.2323 22.0938 29.2323H5.77344C5.22115 29.2323 4.77344 28.7846 4.77344 28.2323V24.6385Z" fill="url(#paint33_linear_18_25664)"/>
<path d="M2.4375 22.2714C2.4375 21.3308 3.20002 20.5682 4.14062 20.5682C5.08123 20.5682 5.84375 21.3308 5.84375 22.2714V28.2323C5.84375 28.7846 5.39603 29.2323 4.84375 29.2323H3.4375C2.88522 29.2323 2.4375 28.7846 2.4375 28.2323V22.2714Z" fill="#307ACE"/>
<path d="M2.4375 22.2714C2.4375 21.3308 3.20002 20.5682 4.14062 20.5682C5.08123 20.5682 5.84375 21.3308 5.84375 22.2714V28.2323C5.84375 28.7846 5.39603 29.2323 4.84375 29.2323H3.4375C2.88522 29.2323 2.4375 28.7846 2.4375 28.2323V22.2714Z" fill="url(#paint34_linear_18_25664)"/>
<path d="M2.4375 22.2714C2.4375 21.3308 3.20002 20.5682 4.14062 20.5682C5.08123 20.5682 5.84375 21.3308 5.84375 22.2714V28.2323C5.84375 28.7846 5.39603 29.2323 4.84375 29.2323H3.4375C2.88522 29.2323 2.4375 28.7846 2.4375 28.2323V22.2714Z" fill="url(#paint35_radial_18_25664)"/>
<path d="M2.4375 22.2714C2.4375 21.3308 3.20002 20.5682 4.14062 20.5682C5.08123 20.5682 5.84375 21.3308 5.84375 22.2714V28.2323C5.84375 28.7846 5.39603 29.2323 4.84375 29.2323H3.4375C2.88522 29.2323 2.4375 28.7846 2.4375 28.2323V22.2714Z" fill="url(#paint36_radial_18_25664)" fill-opacity="0.21"/>
<path d="M2.4375 22.2714C2.4375 21.3308 3.20002 20.5682 4.14062 20.5682C5.08123 20.5682 5.84375 21.3308 5.84375 22.2714V28.2323C5.84375 28.7846 5.39603 29.2323 4.84375 29.2323H3.4375C2.88522 29.2323 2.4375 28.7846 2.4375 28.2323V22.2714Z" fill="url(#paint37_radial_18_25664)"/>
<path d="M2.4375 22.2714C2.4375 21.3308 3.20002 20.5682 4.14062 20.5682C5.08123 20.5682 5.84375 21.3308 5.84375 22.2714V28.2323C5.84375 28.7846 5.39603 29.2323 4.84375 29.2323H3.4375C2.88522 29.2323 2.4375 28.7846 2.4375 28.2323V22.2714Z" fill="url(#paint38_linear_18_25664)"/>
<path d="M2.4375 22.2714C2.4375 21.3308 3.20002 20.5682 4.14062 20.5682C5.08123 20.5682 5.84375 21.3308 5.84375 22.2714V28.2323C5.84375 28.7846 5.39603 29.2323 4.84375 29.2323H3.4375C2.88522 29.2323 2.4375 28.7846 2.4375 28.2323V22.2714Z" fill="url(#paint39_linear_18_25664)"/>
<path d="M2.4375 22.2714C2.4375 21.3308 3.20002 20.5682 4.14062 20.5682C5.08123 20.5682 5.84375 21.3308 5.84375 22.2714V28.2323C5.84375 28.7846 5.39603 29.2323 4.84375 29.2323H3.4375C2.88522 29.2323 2.4375 28.7846 2.4375 28.2323V22.2714Z" fill="url(#paint40_linear_18_25664)"/>
<path d="M21.8672 6.31824C19.9385 6.31824 18.375 7.88174 18.375 9.81042V12.5682C18.375 12.9825 18.7108 13.3182 19.125 13.3182H24.6094C25.0236 13.3182 25.3594 12.9825 25.3594 12.5682V9.81042C25.3594 7.88174 23.7959 6.31824 21.8672 6.31824Z" fill="url(#paint41_linear_18_25664)"/>
<path d="M21.8672 6.31824C19.9385 6.31824 18.375 7.88174 18.375 9.81042V12.5682C18.375 12.9825 18.7108 13.3182 19.125 13.3182H24.6094C25.0236 13.3182 25.3594 12.9825 25.3594 12.5682V9.81042C25.3594 7.88174 23.7959 6.31824 21.8672 6.31824Z" fill="url(#paint42_linear_18_25664)"/>
<path d="M21.8672 6.31824C19.9385 6.31824 18.375 7.88174 18.375 9.81042V12.5682C18.375 12.9825 18.7108 13.3182 19.125 13.3182H24.6094C25.0236 13.3182 25.3594 12.9825 25.3594 12.5682V9.81042C25.3594 7.88174 23.7959 6.31824 21.8672 6.31824Z" fill="url(#paint43_radial_18_25664)"/>
<path d="M21.8672 6.31824C19.9385 6.31824 18.375 7.88174 18.375 9.81042V12.5682C18.375 12.9825 18.7108 13.3182 19.125 13.3182H24.6094C25.0236 13.3182 25.3594 12.9825 25.3594 12.5682V9.81042C25.3594 7.88174 23.7959 6.31824 21.8672 6.31824Z" fill="url(#paint44_radial_18_25664)"/>
<path d="M21.8672 6.31824C19.9385 6.31824 18.375 7.88174 18.375 9.81042V12.5682C18.375 12.9825 18.7108 13.3182 19.125 13.3182H24.6094C25.0236 13.3182 25.3594 12.9825 25.3594 12.5682V9.81042C25.3594 7.88174 23.7959 6.31824 21.8672 6.31824Z" fill="url(#paint45_linear_18_25664)"/>
<path d="M25.3487 29.7831C25.2912 30.0578 25.5214 30.2909 25.8021 30.2909H29.9205C30.2012 30.2909 30.4314 30.0578 30.3738 29.7831C30.1192 28.5703 29.0765 27.662 27.8593 27.662C26.6421 27.662 25.6025 28.5703 25.3487 29.7831Z" fill="url(#paint46_radial_18_25664)"/>
<path d="M25.3487 29.7831C25.2912 30.0578 25.5214 30.2909 25.8021 30.2909H29.9205C30.2012 30.2909 30.4314 30.0578 30.3738 29.7831C30.1192 28.5703 29.0765 27.662 27.8593 27.662C26.6421 27.662 25.6025 28.5703 25.3487 29.7831Z" fill="url(#paint47_radial_18_25664)"/>
<path d="M25.3487 29.7831C25.2912 30.0578 25.5214 30.2909 25.8021 30.2909H29.9205C30.2012 30.2909 30.4314 30.0578 30.3738 29.7831C30.1192 28.5703 29.0765 27.662 27.8593 27.662C26.6421 27.662 25.6025 28.5703 25.3487 29.7831Z" fill="url(#paint48_linear_18_25664)"/>
<path d="M25.3487 29.7831C25.2912 30.0578 25.5214 30.2909 25.8021 30.2909H29.9205C30.2012 30.2909 30.4314 30.0578 30.3738 29.7831C30.1192 28.5703 29.0765 27.662 27.8593 27.662C26.6421 27.662 25.6025 28.5703 25.3487 29.7831Z" fill="url(#paint49_radial_18_25664)"/>
<path d="M25.3487 29.7831C25.2912 30.0578 25.5214 30.2909 25.8021 30.2909H29.9205C30.2012 30.2909 30.4314 30.0578 30.3738 29.7831C30.1192 28.5703 29.0765 27.662 27.8593 27.662C26.6421 27.662 25.6025 28.5703 25.3487 29.7831Z" fill="url(#paint50_linear_18_25664)"/>
<path d="M21.8672 22.2714C21.8672 21.3308 22.6297 20.5682 23.5703 20.5682C24.5109 20.5682 25.2734 21.3308 25.2734 22.2714V28.2323C25.2734 28.7846 24.8257 29.2323 24.2734 29.2323H22.8672C22.3149 29.2323 21.8672 28.7846 21.8672 28.2323V22.2714Z" fill="#307ACE"/>
<path d="M21.8672 22.2714C21.8672 21.3308 22.6297 20.5682 23.5703 20.5682C24.5109 20.5682 25.2734 21.3308 25.2734 22.2714V28.2323C25.2734 28.7846 24.8257 29.2323 24.2734 29.2323H22.8672C22.3149 29.2323 21.8672 28.7846 21.8672 28.2323V22.2714Z" fill="url(#paint51_linear_18_25664)"/>
<path d="M21.8672 22.2714C21.8672 21.3308 22.6297 20.5682 23.5703 20.5682C24.5109 20.5682 25.2734 21.3308 25.2734 22.2714V28.2323C25.2734 28.7846 24.8257 29.2323 24.2734 29.2323H22.8672C22.3149 29.2323 21.8672 28.7846 21.8672 28.2323V22.2714Z" fill="url(#paint52_radial_18_25664)"/>
<path d="M21.8672 22.2714C21.8672 21.3308 22.6297 20.5682 23.5703 20.5682C24.5109 20.5682 25.2734 21.3308 25.2734 22.2714V28.2323C25.2734 28.7846 24.8257 29.2323 24.2734 29.2323H22.8672C22.3149 29.2323 21.8672 28.7846 21.8672 28.2323V22.2714Z" fill="url(#paint53_radial_18_25664)" fill-opacity="0.21"/>
<path d="M21.8672 22.2714C21.8672 21.3308 22.6297 20.5682 23.5703 20.5682C24.5109 20.5682 25.2734 21.3308 25.2734 22.2714V28.2323C25.2734 28.7846 24.8257 29.2323 24.2734 29.2323H22.8672C22.3149 29.2323 21.8672 28.7846 21.8672 28.2323V22.2714Z" fill="url(#paint54_radial_18_25664)"/>
<path d="M21.8672 22.2714C21.8672 21.3308 22.6297 20.5682 23.5703 20.5682C24.5109 20.5682 25.2734 21.3308 25.2734 22.2714V28.2323C25.2734 28.7846 24.8257 29.2323 24.2734 29.2323H22.8672C22.3149 29.2323 21.8672 28.7846 21.8672 28.2323V22.2714Z" fill="url(#paint55_linear_18_25664)"/>
<path d="M21.8672 22.2714C21.8672 21.3308 22.6297 20.5682 23.5703 20.5682C24.5109 20.5682 25.2734 21.3308 25.2734 22.2714V28.2323C25.2734 28.7846 24.8257 29.2323 24.2734 29.2323H22.8672C22.3149 29.2323 21.8672 28.7846 21.8672 28.2323V22.2714Z" fill="url(#paint56_linear_18_25664)"/>
<path d="M21.8672 22.2714C21.8672 21.3308 22.6297 20.5682 23.5703 20.5682C24.5109 20.5682 25.2734 21.3308 25.2734 22.2714V28.2323C25.2734 28.7846 24.8257 29.2323 24.2734 29.2323H22.8672C22.3149 29.2323 21.8672 28.7846 21.8672 28.2323V22.2714Z" fill="url(#paint57_linear_18_25664)"/>
<defs>
<linearGradient id="paint0_linear_18_25664" x1="-20.3339" y1="6.26156" x2="-14.3896" y2="6.26157" gradientUnits="userSpaceOnUse">
<stop stop-color="#9696A0"/>
<stop offset="0.348958" stop-color="#AAA6AF"/>
<stop offset="0.666667" stop-color="#CCC9CF"/>
<stop offset="0.973958" stop-color="#CDCCCF"/>
</linearGradient>
<linearGradient id="paint1_linear_18_25664" x1="21.4092" y1="8.72755" x2="22.3115" y2="8.72755" gradientUnits="userSpaceOnUse">
<stop stop-color="#9696A0"/>
<stop offset="0.348958" stop-color="#A6A6A7"/>
<stop offset="0.656528" stop-color="#CCC9CF"/>
<stop offset="0.858765" stop-color="#CDCCCF"/>
<stop offset="1" stop-color="#AEAAB3"/>
</linearGradient>
<radialGradient id="paint2_radial_18_25664" cx="0" cy="0" r="1" gradientUnits="userSpaceOnUse" gradientTransform="translate(25.046 5.53019) rotate(-99.9147) scale(3.18617 3.4038)">
<stop offset="0.7669" stop-color="#9A99A3"/>
<stop offset="0.837249" stop-color="#ADA9B2"/>
<stop offset="0.898682" stop-color="#CDCAD0"/>
<stop offset="0.935646" stop-color="#CDCCD0"/>
<stop offset="1" stop-color="#A5A5A6"/>
</radialGradient>
<radialGradient id="paint3_radial_18_25664" cx="0" cy="0" r="1" gradientUnits="userSpaceOnUse" gradientTransform="translate(25.1807 5.36634) rotate(-143.74) scale(3.49809 5.77253)">
<stop offset="0.935055" stop-color="#B0AFB0" stop-opacity="0"/>
<stop offset="1" stop-color="#B0AFB0"/>
</radialGradient>
<linearGradient id="paint4_linear_18_25664" x1="21.4095" y1="8.31459" x2="22.2507" y2="8.31459" gradientUnits="userSpaceOnUse">
<stop stop-color="#9696A0"/>
<stop offset="0.348958" stop-color="#AAA6AF"/>
<stop offset="0.666667" stop-color="#CCC9CF"/>
<stop offset="0.973958" stop-color="#CDCCCF"/>
</linearGradient>
<linearGradient id="paint5_linear_18_25664" x1="27.3877" y1="15.4837" x2="28.29" y2="15.4837" gradientUnits="userSpaceOnUse">
<stop stop-color="#9696A0"/>
<stop offset="0.348958" stop-color="#AAA6AF"/>
<stop offset="0.666667" stop-color="#CCC9CF"/>
<stop offset="0.973958" stop-color="#CDCCCF"/>
</linearGradient>
<radialGradient id="paint6_radial_18_25664" cx="0" cy="0" r="1" gradientUnits="userSpaceOnUse" gradientTransform="translate(24.0156 30.2909) rotate(-90) scale(1.50391 1.80188)">
<stop stop-color="#978BFF"/>
<stop offset="1" stop-color="#7F72FF"/>
</radialGradient>
<radialGradient id="paint7_radial_18_25664" cx="0" cy="0" r="1" gradientUnits="userSpaceOnUse" gradientTransform="translate(5.07812 30.2909) rotate(-90) scale(1.50391 1.80188)">
<stop stop-color="#978BFF"/>
<stop offset="1" stop-color="#7F72FF"/>
</radialGradient>
<radialGradient id="paint8_radial_18_25664" cx="0" cy="0" r="1" gradientUnits="userSpaceOnUse" gradientTransform="translate(12.1975 21.2792) rotate(91.3968) scale(3.99337 0.979318)">
<stop stop-color="#4D80C5"/>
<stop offset="1" stop-color="#4D80C5" stop-opacity="0"/>
</radialGradient>
<radialGradient id="paint9_radial_18_25664" cx="0" cy="0" r="1" gradientUnits="userSpaceOnUse" gradientTransform="translate(10.5913 19.4411) rotate(180) scale(3.21233 0.787779)">
<stop stop-color="#4D80C5"/>
<stop offset="1" stop-color="#4D80C5" stop-opacity="0"/>
</radialGradient>
<linearGradient id="paint10_linear_18_25664" x1="9.28906" y1="17.287" x2="9.28906" y2="19.1464" gradientUnits="userSpaceOnUse">
<stop offset="0.0322581" stop-color="#3B77BB"/>
<stop offset="1" stop-color="#3B77BB" stop-opacity="0"/>
</linearGradient>
<linearGradient id="paint11_linear_18_25664" x1="4.625" y1="20.3651" x2="6.5" y2="20.3651" gradientUnits="userSpaceOnUse">
<stop stop-color="#3261A8"/>
<stop offset="1" stop-color="#3261A8" stop-opacity="0"/>
</linearGradient>
<linearGradient id="paint12_linear_18_25664" x1="7.25" y1="24.8964" x2="7.25" y2="23.8339" gradientUnits="userSpaceOnUse">
<stop stop-color="#3261A8"/>
<stop offset="1" stop-color="#457BCA" stop-opacity="0"/>
</linearGradient>
<linearGradient id="paint13_linear_18_25664" x1="14.375" y1="24.5214" x2="12.5313" y2="24.5214" gradientUnits="userSpaceOnUse">
<stop stop-color="#1859A4"/>
<stop offset="1" stop-color="#1859A4" stop-opacity="0"/>
</linearGradient>
<linearGradient id="paint14_linear_18_25664" x1="14.0234" y1="22.5839" x2="13.5078" y2="22.5839" gradientUnits="userSpaceOnUse">
<stop stop-color="#022F89"/>
<stop offset="1" stop-color="#2A67B4" stop-opacity="0"/>
</linearGradient>
<linearGradient id="paint15_linear_18_25664" x1="14.3659" y1="21.5367" x2="9.59418" y2="21.5367" gradientUnits="userSpaceOnUse">
<stop stop-color="#03318D"/>
<stop offset="0.234891" stop-color="#03318D" stop-opacity="0"/>
<stop offset="0.684463" stop-color="#03318D" stop-opacity="0"/>
</linearGradient>
<linearGradient id="paint16_linear_18_25664" x1="9.28906" y1="17.287" x2="9.28906" y2="18.4012" gradientUnits="userSpaceOnUse">
<stop stop-color="#3972B4"/>
<stop offset="1" stop-color="#3972B4" stop-opacity="0"/>
</linearGradient>
<linearGradient id="paint17_linear_18_25664" x1="18.6172" y1="17.287" x2="18.6172" y2="19.1464" gradientUnits="userSpaceOnUse">
<stop offset="0.0322581" stop-color="#3B77BB"/>
<stop offset="1" stop-color="#3B77BB" stop-opacity="0"/>
</linearGradient>
<linearGradient id="paint18_linear_18_25664" x1="20.6562" y1="24.8964" x2="20.6562" y2="23.8339" gradientUnits="userSpaceOnUse">
<stop stop-color="#3261A8"/>
<stop offset="1" stop-color="#457BCA" stop-opacity="0"/>
</linearGradient>
<linearGradient id="paint19_linear_18_25664" x1="13.5312" y1="24.5214" x2="15.375" y2="24.5214" gradientUnits="userSpaceOnUse">
<stop stop-color="#1859A4"/>
<stop offset="1" stop-color="#1859A4" stop-opacity="0"/>
</linearGradient>
<linearGradient id="paint20_linear_18_25664" x1="13.8828" y1="22.5839" x2="14.3984" y2="22.5839" gradientUnits="userSpaceOnUse">
<stop stop-color="#022F89"/>
<stop offset="1" stop-color="#2A67B4" stop-opacity="0"/>
</linearGradient>
<linearGradient id="paint21_linear_18_25664" x1="23.2812" y1="26.0839" x2="19.5" y2="23.0839" gradientUnits="userSpaceOnUse">
<stop offset="0.330595" stop-color="#163883"/>
<stop offset="1" stop-color="#2A5AA1" stop-opacity="0"/>
</linearGradient>
<radialGradient id="paint22_radial_18_25664" cx="0" cy="0" r="1" gradientUnits="userSpaceOnUse" gradientTransform="translate(21.8125 19.875) rotate(90) scale(2.5 0.613089)">
<stop stop-color="#4D80C5"/>
<stop offset="1" stop-color="#4D80C5" stop-opacity="0"/>
</radialGradient>
<radialGradient id="paint23_radial_18_25664" cx="0" cy="0" r="1" gradientUnits="userSpaceOnUse" gradientTransform="translate(20.1563 18.5938) rotate(180) scale(2.78125 0.682062)">
<stop stop-color="#4D80C5"/>
<stop offset="1" stop-color="#4D80C5" stop-opacity="0"/>
</radialGradient>
<radialGradient id="paint24_radial_18_25664" cx="0" cy="0" r="1" gradientUnits="userSpaceOnUse" gradientTransform="translate(21.9375 18.5313) rotate(112.714) scale(1.45673 0.980764)">
<stop stop-color="#538ACA"/>
<stop offset="1" stop-color="#538ACA" stop-opacity="0"/>
</radialGradient>
<linearGradient id="paint25_linear_18_25664" x1="18.6172" y1="17.287" x2="19.1499" y2="25.6082" gradientUnits="userSpaceOnUse">
<stop offset="0.751314" stop-color="#315EA2" stop-opacity="0"/>
<stop offset="1" stop-color="#315EA2"/>
</linearGradient>
<linearGradient id="paint26_linear_18_25664" x1="12.624" y1="21.6829" x2="16.4873" y2="21.6829" gradientUnits="userSpaceOnUse">
<stop offset="0.146493" stop-color="#022F8B"/>
<stop offset="0.531924" stop-color="#022F8B" stop-opacity="0"/>
<stop offset="0.69863" stop-color="#022F8B" stop-opacity="0"/>
<stop offset="0.921943" stop-color="#022F8B" stop-opacity="0"/>
</linearGradient>
<linearGradient id="paint27_linear_18_25664" x1="13.9146" y1="22.3594" x2="14.0616" y2="22.3594" gradientUnits="userSpaceOnUse">
<stop stop-color="#022D86"/>
<stop offset="1" stop-color="#022D86" stop-opacity="0"/>
</linearGradient>
<linearGradient id="paint28_linear_18_25664" x1="21.8646" y1="25.2714" x2="17.8385" y2="20.5193" gradientUnits="userSpaceOnUse">
<stop stop-color="#0E3384"/>
<stop offset="0.484502" stop-color="#0E3384" stop-opacity="0.1"/>
<stop offset="0.701475" stop-color="#0E3384" stop-opacity="0"/>
</linearGradient>
<linearGradient id="paint29_linear_18_25664" x1="18.6172" y1="17.287" x2="18.6172" y2="18.4012" gradientUnits="userSpaceOnUse">
<stop stop-color="#3972B4"/>
<stop offset="1" stop-color="#3972B4" stop-opacity="0"/>
</linearGradient>
<linearGradient id="paint30_linear_18_25664" x1="13.9336" y1="24.6385" x2="13.9336" y2="25.7089" gradientUnits="userSpaceOnUse">
<stop offset="0.240876" stop-color="#397AC5"/>
<stop offset="1" stop-color="#397AC5" stop-opacity="0"/>
</linearGradient>
<linearGradient id="paint31_linear_18_25664" x1="13.9336" y1="24.6385" x2="13.9336" y2="29.2323" gradientUnits="userSpaceOnUse">
<stop offset="0.0126421" stop-color="#4D83D2" stop-opacity="0"/>
<stop offset="0.176736" stop-color="#4E84D3"/>
<stop offset="0.296816" stop-color="#4D83D2" stop-opacity="0"/>
</linearGradient>
<linearGradient id="paint32_linear_18_25664" x1="13.9336" y1="24.6385" x2="13.9336" y2="29.2323" gradientUnits="userSpaceOnUse">
<stop offset="0.438128" stop-color="#3753C4" stop-opacity="0"/>
<stop offset="1" stop-color="#3654C5"/>
</linearGradient>
<linearGradient id="paint33_linear_18_25664" x1="19.5708" y1="26.9354" x2="22.2133" y2="26.9354" gradientUnits="userSpaceOnUse">
<stop offset="0.438128" stop-color="#3753C4" stop-opacity="0"/>
<stop offset="1" stop-color="#3753C4"/>
</linearGradient>
<linearGradient id="paint34_linear_18_25664" x1="5.84375" y1="27.8365" x2="2.4375" y2="27.8365" gradientUnits="userSpaceOnUse">
<stop stop-color="#2B74CF"/>
<stop offset="0.0885417" stop-color="#4481D8"/>
<stop offset="0.3125" stop-color="#548ADE"/>
<stop offset="0.505208" stop-color="#4E83D7"/>
<stop offset="0.802083" stop-color="#376ABD"/>
<stop offset="1" stop-color="#5D78B0"/>
</linearGradient>
<radialGradient id="paint35_radial_18_25664" cx="0" cy="0" r="1" gradientUnits="userSpaceOnUse" gradientTransform="translate(3.93475 21.2673) rotate(75.1529) scale(2.67199 1.54896)">
<stop stop-color="#3977BD"/>
<stop offset="1" stop-color="#3977BD" stop-opacity="0"/>
</radialGradient>
<radialGradient id="paint36_radial_18_25664" cx="0" cy="0" r="1" gradientUnits="userSpaceOnUse" gradientTransform="translate(4.64952 29.4764) rotate(-90.3065) scale(5.62634 3.26161)">
<stop stop-color="#3456C5"/>
<stop offset="1" stop-color="#3977BD" stop-opacity="0"/>
</radialGradient>
<radialGradient id="paint37_radial_18_25664" cx="0" cy="0" r="1" gradientUnits="userSpaceOnUse" gradientTransform="translate(4.7035 22.4591) rotate(93.2705) scale(3.20253 1.89898)">
<stop stop-color="#5B92DB"/>
<stop offset="0.588686" stop-color="#5B92DB" stop-opacity="0"/>
</radialGradient>
<linearGradient id="paint38_linear_18_25664" x1="4.14062" y1="20.5682" x2="4.14062" y2="29.2323" gradientUnits="userSpaceOnUse">
<stop offset="0.905957" stop-color="#3552C0" stop-opacity="0"/>
<stop offset="0.990943" stop-color="#3552C0"/>
</linearGradient>
<linearGradient id="paint39_linear_18_25664" x1="5.31215" y1="29.6235" x2="4.29891" y2="28.5829" gradientUnits="userSpaceOnUse">
<stop stop-color="#5D6BC9"/>
<stop offset="1" stop-color="#5D6BC9" stop-opacity="0"/>
</linearGradient>
<linearGradient id="paint40_linear_18_25664" x1="5.84375" y1="26.6512" x2="5.08657" y2="26.6512" gradientUnits="userSpaceOnUse">
<stop stop-color="#2A73CE"/>
<stop offset="1" stop-color="#2A73CE" stop-opacity="0"/>
</linearGradient>
<linearGradient id="paint41_linear_18_25664" x1="18.2068" y1="11.1061" x2="24.9119" y2="11.1061" gradientUnits="userSpaceOnUse">
<stop offset="0.253458" stop-color="#F89B2F"/>
<stop offset="0.789427" stop-color="#FFDB4E"/>
</linearGradient>
<linearGradient id="paint42_linear_18_25664" x1="23.4062" y1="13.3182" x2="23.4062" y2="12.8495" gradientUnits="userSpaceOnUse">
<stop stop-color="#AA665B"/>
<stop offset="1" stop-color="#EB9434" stop-opacity="0"/>
</linearGradient>
<radialGradient id="paint43_radial_18_25664" cx="0" cy="0" r="1" gradientUnits="userSpaceOnUse" gradientTransform="translate(23.3622 8.38663) rotate(93.8451) scale(2.13955 3.71394)">
<stop stop-color="#FFE96C"/>
<stop offset="1" stop-color="#FFD64C" stop-opacity="0"/>
</radialGradient>
<radialGradient id="paint44_radial_18_25664" cx="0" cy="0" r="1" gradientUnits="userSpaceOnUse" gradientTransform="translate(22.6562 10.4688) rotate(97.7721) scale(5.83485 5.82183)">
<stop offset="0.629505" stop-color="#D08F62" stop-opacity="0"/>
<stop offset="1" stop-color="#D08F62"/>
</radialGradient>
<linearGradient id="paint45_linear_18_25664" x1="18.375" y1="11.2511" x2="19.8623" y2="11.2511" gradientUnits="userSpaceOnUse">
<stop stop-color="#D18E5F"/>
<stop offset="1" stop-color="#D38E5C" stop-opacity="0"/>
</linearGradient>
<radialGradient id="paint46_radial_18_25664" cx="0" cy="0" r="1" gradientUnits="userSpaceOnUse" gradientTransform="translate(29.8437 29.5839) rotate(-180) scale(3.3125 3.28621)">
<stop stop-color="#FFE258"/>
<stop offset="1" stop-color="#FFAF33"/>
</radialGradient>
<radialGradient id="paint47_radial_18_25664" cx="0" cy="0" r="1" gradientUnits="userSpaceOnUse" gradientTransform="translate(29.2969 30.0682) rotate(-90) scale(1.0918 1.28125)">
<stop stop-color="#FFD96D"/>
<stop offset="1" stop-color="#FFD96D" stop-opacity="0"/>
</radialGradient>
<linearGradient id="paint48_linear_18_25664" x1="28.8125" y1="30.2909" x2="28.8125" y2="29.9276" gradientUnits="userSpaceOnUse">
<stop stop-color="#E68945"/>
<stop offset="1" stop-color="#E68945" stop-opacity="0"/>
</linearGradient>
<radialGradient id="paint49_radial_18_25664" cx="0" cy="0" r="1" gradientUnits="userSpaceOnUse" gradientTransform="translate(28.8125 29.9589) rotate(-162.909) scale(3.34281)">
<stop offset="0.614597" stop-color="#D2852C" stop-opacity="0"/>
<stop offset="0.980961" stop-color="#884B45"/>
</radialGradient>
<linearGradient id="paint50_linear_18_25664" x1="27.8613" y1="27.662" x2="27.8613" y2="30.4454" gradientUnits="userSpaceOnUse">
<stop offset="0.866322" stop-color="#B96F5B" stop-opacity="0"/>
<stop offset="1" stop-color="#B96F5B"/>
</linearGradient>
<linearGradient id="paint51_linear_18_25664" x1="25.2734" y1="27.8365" x2="21.8672" y2="27.8365" gradientUnits="userSpaceOnUse">
<stop stop-color="#2B74CF"/>
<stop offset="0.0885417" stop-color="#4481D8"/>
<stop offset="0.3125" stop-color="#548ADE"/>
<stop offset="0.505208" stop-color="#4E83D7"/>
<stop offset="0.802083" stop-color="#2A5DB8"/>
<stop offset="1" stop-color="#1A4CA8"/>
</linearGradient>
<radialGradient id="paint52_radial_18_25664" cx="0" cy="0" r="1" gradientUnits="userSpaceOnUse" gradientTransform="translate(23.3644 21.2673) rotate(75.1529) scale(2.67199 1.54896)">
<stop stop-color="#3977BD"/>
<stop offset="1" stop-color="#3977BD" stop-opacity="0"/>
</radialGradient>
<radialGradient id="paint53_radial_18_25664" cx="0" cy="0" r="1" gradientUnits="userSpaceOnUse" gradientTransform="translate(24.0792 29.4764) rotate(-90.3065) scale(5.62634 3.26161)">
<stop stop-color="#3456C5"/>
<stop offset="1" stop-color="#3977BD" stop-opacity="0"/>
</radialGradient>
<radialGradient id="paint54_radial_18_25664" cx="0" cy="0" r="1" gradientUnits="userSpaceOnUse" gradientTransform="translate(24.1332 22.4591) rotate(93.2705) scale(3.20253 1.89898)">
<stop stop-color="#5B92DB"/>
<stop offset="0.588686" stop-color="#5B92DB" stop-opacity="0"/>
</radialGradient>
<linearGradient id="paint55_linear_18_25664" x1="23.5703" y1="20.5682" x2="23.5703" y2="29.2323" gradientUnits="userSpaceOnUse">
<stop offset="0.905957" stop-color="#3552C0" stop-opacity="0"/>
<stop offset="0.990943" stop-color="#3552C0"/>
</linearGradient>
<linearGradient id="paint56_linear_18_25664" x1="24.7418" y1="29.6235" x2="23.7286" y2="28.5829" gradientUnits="userSpaceOnUse">
<stop stop-color="#5D6BC9"/>
<stop offset="1" stop-color="#5D6BC9" stop-opacity="0"/>
</linearGradient>
<linearGradient id="paint57_linear_18_25664" x1="25.2734" y1="26.6512" x2="24.5163" y2="26.6512" gradientUnits="userSpaceOnUse">
<stop stop-color="#2A73CE"/>
<stop offset="1" stop-color="#2A73CE" stop-opacity="0"/>
</linearGradient>
</defs>
</svg>
