<svg width="32" height="32" viewBox="0 0 32 32" fill="none" xmlns="http://www.w3.org/2000/svg">
<path d="M21.0084 5.3171C18.1675 5.81911 15.9969 9.17258 15.9969 9.17258C15.9969 9.17258 13.8162 5.81911 10.9854 5.3171C3.97328 4.08214 1.08242 10.2469 2.25277 14.8353C3.98329 21.6126 12.3058 27.687 15.0866 29.5645C15.6367 29.936 16.357 29.936 16.9171 29.5645C19.708 27.687 28.0304 21.6126 29.7509 14.8353C30.9113 10.2469 28.0204 4.08214 21.0084 5.3171Z" fill="#F83BA1"/>
<path d="M21.0084 5.3171C18.1675 5.81911 15.9969 9.17258 15.9969 9.17258C15.9969 9.17258 13.8162 5.81911 10.9854 5.3171C3.97328 4.08214 1.08242 10.2469 2.25277 14.8353C3.98329 21.6126 12.3058 27.687 15.0866 29.5645C15.6367 29.936 16.357 29.936 16.9171 29.5645C19.708 27.687 28.0304 21.6126 29.7509 14.8353C30.9113 10.2469 28.0204 4.08214 21.0084 5.3171Z" fill="#FF3F67"/>
<path d="M21.0084 5.3171C18.1675 5.81911 15.9969 9.17258 15.9969 9.17258C15.9969 9.17258 13.8162 5.81911 10.9854 5.3171C3.97328 4.08214 1.08242 10.2469 2.25277 14.8353C3.98329 21.6126 12.3058 27.687 15.0866 29.5645C15.6367 29.936 16.357 29.936 16.9171 29.5645C19.708 27.687 28.0304 21.6126 29.7509 14.8353C30.9113 10.2469 28.0204 4.08214 21.0084 5.3171Z" fill="url(#paint0_radial_18_4033)"/>
<path d="M21.0084 5.3171C18.1675 5.81911 15.9969 9.17258 15.9969 9.17258C15.9969 9.17258 13.8162 5.81911 10.9854 5.3171C3.97328 4.08214 1.08242 10.2469 2.25277 14.8353C3.98329 21.6126 12.3058 27.687 15.0866 29.5645C15.6367 29.936 16.357 29.936 16.9171 29.5645C19.708 27.687 28.0304 21.6126 29.7509 14.8353C30.9113 10.2469 28.0204 4.08214 21.0084 5.3171Z" fill="url(#paint1_radial_18_4033)"/>
<path d="M21.0084 5.3171C18.1675 5.81911 15.9969 9.17258 15.9969 9.17258C15.9969 9.17258 13.8162 5.81911 10.9854 5.3171C3.97328 4.08214 1.08242 10.2469 2.25277 14.8353C3.98329 21.6126 12.3058 27.687 15.0866 29.5645C15.6367 29.936 16.357 29.936 16.9171 29.5645C19.708 27.687 28.0304 21.6126 29.7509 14.8353C30.9113 10.2469 28.0204 4.08214 21.0084 5.3171Z" fill="url(#paint2_radial_18_4033)"/>
<path d="M21.0084 5.3171C18.1675 5.81911 15.9969 9.17258 15.9969 9.17258C15.9969 9.17258 13.8162 5.81911 10.9854 5.3171C3.97328 4.08214 1.08242 10.2469 2.25277 14.8353C3.98329 21.6126 12.3058 27.687 15.0866 29.5645C15.6367 29.936 16.357 29.936 16.9171 29.5645C19.708 27.687 28.0304 21.6126 29.7509 14.8353C30.9113 10.2469 28.0204 4.08214 21.0084 5.3171Z" fill="url(#paint3_linear_18_4033)"/>
<path d="M21.0084 5.3171C18.1675 5.81911 15.9969 9.17258 15.9969 9.17258C15.9969 9.17258 13.8162 5.81911 10.9854 5.3171C3.97328 4.08214 1.08242 10.2469 2.25277 14.8353C3.98329 21.6126 12.3058 27.687 15.0866 29.5645C15.6367 29.936 16.357 29.936 16.9171 29.5645C19.708 27.687 28.0304 21.6126 29.7509 14.8353C30.9113 10.2469 28.0204 4.08214 21.0084 5.3171Z" fill="url(#paint4_radial_18_4033)"/>
<path d="M21.0084 5.3171C18.1675 5.81911 15.9969 9.17258 15.9969 9.17258C15.9969 9.17258 13.8162 5.81911 10.9854 5.3171C3.97328 4.08214 1.08242 10.2469 2.25277 14.8353C3.98329 21.6126 12.3058 27.687 15.0866 29.5645C15.6367 29.936 16.357 29.936 16.9171 29.5645C19.708 27.687 28.0304 21.6126 29.7509 14.8353C30.9113 10.2469 28.0204 4.08214 21.0084 5.3171Z" fill="url(#paint5_radial_18_4033)"/>
<path d="M15.9565 14.7617V9.48569C16.6851 8.58122 18.8144 7.32922 19.7879 6.81628C17.4514 8.95182 16.2601 13.003 15.9565 14.7617Z" fill="url(#paint6_linear_18_4033)"/>
<path d="M15.9565 14.7617V9.48569C15.2279 8.58122 13.0987 7.32922 12.1251 6.81628C14.4617 8.95182 15.653 13.003 15.9565 14.7617Z" fill="url(#paint7_linear_18_4033)"/>
<defs>
<radialGradient id="paint0_radial_18_4033" cx="0" cy="0" r="1" gradientUnits="userSpaceOnUse" gradientTransform="translate(16 6.8125) scale(28.4375 8.82991)">
<stop offset="0.195604" stop-color="#D0335A"/>
<stop offset="1" stop-color="#D0335A" stop-opacity="0"/>
</radialGradient>
<radialGradient id="paint1_radial_18_4033" cx="0" cy="0" r="1" gradientUnits="userSpaceOnUse" gradientTransform="translate(9.25 12.375) rotate(90) scale(7.1875)">
<stop offset="0.775701" stop-color="#FF3F67"/>
<stop offset="1" stop-color="#FF3F67" stop-opacity="0"/>
</radialGradient>
<radialGradient id="paint2_radial_18_4033" cx="0" cy="0" r="1" gradientUnits="userSpaceOnUse" gradientTransform="translate(22.875 12.1875) rotate(90) scale(7.125)">
<stop offset="0.775701" stop-color="#FF3F67"/>
<stop offset="1" stop-color="#FF3F67" stop-opacity="0"/>
</radialGradient>
<linearGradient id="paint3_linear_18_4033" x1="16" y1="5.15686" x2="16" y2="29.8431" gradientUnits="userSpaceOnUse">
<stop offset="0.236696" stop-color="#F83BA1" stop-opacity="0"/>
<stop offset="0.768368" stop-color="#F83BA1"/>
</linearGradient>
<radialGradient id="paint4_radial_18_4033" cx="0" cy="0" r="1" gradientUnits="userSpaceOnUse" gradientTransform="translate(17.25 11.25) rotate(65.4375) scale(19.9971 15.1618)">
<stop offset="0.871675" stop-color="#D0335A" stop-opacity="0"/>
<stop offset="1" stop-color="#D0335A"/>
</radialGradient>
<radialGradient id="paint5_radial_18_4033" cx="0" cy="0" r="1" gradientUnits="userSpaceOnUse" gradientTransform="translate(16 13.75) rotate(126.17) scale(18.4264 13.9709)">
<stop offset="0.871675" stop-color="#D0335A" stop-opacity="0"/>
<stop offset="1" stop-color="#D0335A"/>
</radialGradient>
<linearGradient id="paint6_linear_18_4033" x1="16.3437" y1="13.8437" x2="17.25" y2="8.95313" gradientUnits="userSpaceOnUse">
<stop stop-color="#FE375C"/>
<stop offset="1" stop-color="#FE375C" stop-opacity="0"/>
</linearGradient>
<linearGradient id="paint7_linear_18_4033" x1="15.9565" y1="14.2344" x2="15.2344" y2="8.90625" gradientUnits="userSpaceOnUse">
<stop offset="0.160784" stop-color="#FF5573"/>
<stop offset="1" stop-color="#FF5573" stop-opacity="0"/>
</linearGradient>
</defs>
</svg>
