<svg width="32" height="32" viewBox="0 0 32 32" fill="none" xmlns="http://www.w3.org/2000/svg">
<path d="M16.3551 29.9978C25.6895 29.9978 30.354 23.7303 30.354 15.9989C30.354 8.26751 25.6895 2 16.3551 2C7.02064 2 2.3562 8.26751 2.3562 15.9989C2.3562 23.7303 7.02064 29.9978 16.3551 29.9978Z" fill="url(#paint0_radial_6806_5229)"/>
<path d="M16.3551 29.9978C25.6895 29.9978 30.354 23.7303 30.354 15.9989C30.354 8.26751 25.6895 2 16.3551 2C7.02064 2 2.3562 8.26751 2.3562 15.9989C2.3562 23.7303 7.02064 29.9978 16.3551 29.9978Z" fill="url(#paint1_radial_6806_5229)"/>
<path d="M16.3551 29.9978C25.6895 29.9978 30.354 23.7303 30.354 15.9989C30.354 8.26751 25.6895 2 16.3551 2C7.02064 2 2.3562 8.26751 2.3562 15.9989C2.3562 23.7303 7.02064 29.9978 16.3551 29.9978Z" fill="url(#paint2_radial_6806_5229)" fill-opacity="0.6"/>
<path d="M16.3551 29.9978C25.6895 29.9978 30.354 23.7303 30.354 15.9989C30.354 8.26751 25.6895 2 16.3551 2C7.02064 2 2.3562 8.26751 2.3562 15.9989C2.3562 23.7303 7.02064 29.9978 16.3551 29.9978Z" fill="url(#paint3_radial_6806_5229)"/>
<path d="M16.3551 29.9978C25.6895 29.9978 30.354 23.7303 30.354 15.9989C30.354 8.26751 25.6895 2 16.3551 2C7.02064 2 2.3562 8.26751 2.3562 15.9989C2.3562 23.7303 7.02064 29.9978 16.3551 29.9978Z" fill="url(#paint4_radial_6806_5229)"/>
<path d="M16.3551 29.9978C25.6895 29.9978 30.354 23.7303 30.354 15.9989C30.354 8.26751 25.6895 2 16.3551 2C7.02064 2 2.3562 8.26751 2.3562 15.9989C2.3562 23.7303 7.02064 29.9978 16.3551 29.9978Z" fill="url(#paint5_radial_6806_5229)"/>
<path d="M16.3551 29.9978C25.6895 29.9978 30.354 23.7303 30.354 15.9989C30.354 8.26751 25.6895 2 16.3551 2C7.02064 2 2.3562 8.26751 2.3562 15.9989C2.3562 23.7303 7.02064 29.9978 16.3551 29.9978Z" fill="url(#paint6_radial_6806_5229)"/>
<path d="M16.3551 29.9978C25.6895 29.9978 30.354 23.7303 30.354 15.9989C30.354 8.26751 25.6895 2 16.3551 2C7.02064 2 2.3562 8.26751 2.3562 15.9989C2.3562 23.7303 7.02064 29.9978 16.3551 29.9978Z" fill="url(#paint7_radial_6806_5229)"/>
<path d="M16.3551 29.9978C25.6895 29.9978 30.354 23.7303 30.354 15.9989C30.354 8.26751 25.6895 2 16.3551 2C7.02064 2 2.3562 8.26751 2.3562 15.9989C2.3562 23.7303 7.02064 29.9978 16.3551 29.9978Z" fill="url(#paint8_radial_6806_5229)"/>
<path d="M16.3551 29.9978C25.6895 29.9978 30.354 23.7303 30.354 15.9989C30.354 8.26751 25.6895 2 16.3551 2C7.02064 2 2.3562 8.26751 2.3562 15.9989C2.3562 23.7303 7.02064 29.9978 16.3551 29.9978Z" fill="url(#paint9_radial_6806_5229)"/>
<path d="M16.3551 29.9978C25.6895 29.9978 30.354 23.7303 30.354 15.9989C30.354 8.26751 25.6895 2 16.3551 2C7.02064 2 2.3562 8.26751 2.3562 15.9989C2.3562 23.7303 7.02064 29.9978 16.3551 29.9978Z" fill="url(#paint10_radial_6806_5229)"/>
<path d="M16.3551 29.9978C25.6895 29.9978 30.354 23.7303 30.354 15.9989C30.354 8.26751 25.6895 2 16.3551 2C7.02064 2 2.3562 8.26751 2.3562 15.9989C2.3562 23.7303 7.02064 29.9978 16.3551 29.9978Z" fill="url(#paint11_radial_6806_5229)"/>
<path d="M16.3551 29.9978C25.6895 29.9978 30.354 23.7303 30.354 15.9989C30.354 8.26751 25.6895 2 16.3551 2C7.02064 2 2.3562 8.26751 2.3562 15.9989C2.3562 23.7303 7.02064 29.9978 16.3551 29.9978Z" fill="url(#paint12_radial_6806_5229)"/>
<path d="M16.3551 29.9978C25.6895 29.9978 30.354 23.7303 30.354 15.9989C30.354 8.26751 25.6895 2 16.3551 2C7.02064 2 2.3562 8.26751 2.3562 15.9989C2.3562 23.7303 7.02064 29.9978 16.3551 29.9978Z" fill="url(#paint13_radial_6806_5229)"/>
<path d="M16.3551 29.9978C25.6895 29.9978 30.354 23.7303 30.354 15.9989C30.354 8.26751 25.6895 2 16.3551 2C7.02064 2 2.3562 8.26751 2.3562 15.9989C2.3562 23.7303 7.02064 29.9978 16.3551 29.9978Z" fill="url(#paint14_radial_6806_5229)"/>
<path d="M16.3551 29.9978C25.6895 29.9978 30.354 23.7303 30.354 15.9989C30.354 8.26751 25.6895 2 16.3551 2C7.02064 2 2.3562 8.26751 2.3562 15.9989C2.3562 23.7303 7.02064 29.9978 16.3551 29.9978Z" fill="url(#paint15_radial_6806_5229)"/>
<path d="M16.3551 29.9978C25.6895 29.9978 30.354 23.7303 30.354 15.9989C30.354 8.26751 25.6895 2 16.3551 2C7.02064 2 2.3562 8.26751 2.3562 15.9989C2.3562 23.7303 7.02064 29.9978 16.3551 29.9978Z" fill="url(#paint16_radial_6806_5229)"/>
<path d="M16.3551 29.9978C25.6895 29.9978 30.354 23.7303 30.354 15.9989C30.354 8.26751 25.6895 2 16.3551 2C7.02064 2 2.3562 8.26751 2.3562 15.9989C2.3562 23.7303 7.02064 29.9978 16.3551 29.9978Z" fill="url(#paint17_radial_6806_5229)"/>
<path d="M16.3551 29.9978C25.6895 29.9978 30.354 23.7303 30.354 15.9989C30.354 8.26751 25.6895 2 16.3551 2C7.02064 2 2.3562 8.26751 2.3562 15.9989C2.3562 23.7303 7.02064 29.9978 16.3551 29.9978Z" fill="url(#paint18_radial_6806_5229)"/>
<path d="M16.3551 29.9978C25.6895 29.9978 30.354 23.7303 30.354 15.9989C30.354 8.26751 25.6895 2 16.3551 2C7.02064 2 2.3562 8.26751 2.3562 15.9989C2.3562 23.7303 7.02064 29.9978 16.3551 29.9978Z" fill="url(#paint19_radial_6806_5229)"/>
<path d="M16.3551 29.9978C25.6895 29.9978 30.354 23.7303 30.354 15.9989C30.354 8.26751 25.6895 2 16.3551 2C7.02064 2 2.3562 8.26751 2.3562 15.9989C2.3562 23.7303 7.02064 29.9978 16.3551 29.9978Z" fill="url(#paint20_radial_6806_5229)"/>
<path d="M16.3551 29.9978C25.6895 29.9978 30.354 23.7303 30.354 15.9989C30.354 8.26751 25.6895 2 16.3551 2C7.02064 2 2.3562 8.26751 2.3562 15.9989C2.3562 23.7303 7.02064 29.9978 16.3551 29.9978Z" fill="url(#paint21_radial_6806_5229)"/>
<path d="M16.3551 29.9978C25.6895 29.9978 30.354 23.7303 30.354 15.9989C30.354 8.26751 25.6895 2 16.3551 2C7.02064 2 2.3562 8.26751 2.3562 15.9989C2.3562 23.7303 7.02064 29.9978 16.3551 29.9978Z" fill="url(#paint22_radial_6806_5229)"/>
<path d="M16.3551 29.9978C25.6895 29.9978 30.354 23.7303 30.354 15.9989C30.354 8.26751 25.6895 2 16.3551 2C7.02064 2 2.3562 8.26751 2.3562 15.9989C2.3562 23.7303 7.02064 29.9978 16.3551 29.9978Z" fill="url(#paint23_radial_6806_5229)"/>
<path d="M16.3551 29.9978C25.6895 29.9978 30.354 23.7303 30.354 15.9989C30.354 8.26751 25.6895 2 16.3551 2C7.02064 2 2.3562 8.26751 2.3562 15.9989C2.3562 23.7303 7.02064 29.9978 16.3551 29.9978Z" fill="url(#paint24_radial_6806_5229)"/>
<path d="M16.3551 29.9978C25.6895 29.9978 30.354 23.7303 30.354 15.9989C30.354 8.26751 25.6895 2 16.3551 2C7.02064 2 2.3562 8.26751 2.3562 15.9989C2.3562 23.7303 7.02064 29.9978 16.3551 29.9978Z" fill="url(#paint25_radial_6806_5229)"/>
<path d="M16.3551 29.9978C25.6895 29.9978 30.354 23.7303 30.354 15.9989C30.354 8.26751 25.6895 2 16.3551 2C7.02064 2 2.3562 8.26751 2.3562 15.9989C2.3562 23.7303 7.02064 29.9978 16.3551 29.9978Z" fill="url(#paint26_radial_6806_5229)"/>
<path d="M16.3551 29.9978C25.6895 29.9978 30.354 23.7303 30.354 15.9989C30.354 8.26751 25.6895 2 16.3551 2C7.02064 2 2.3562 8.26751 2.3562 15.9989C2.3562 23.7303 7.02064 29.9978 16.3551 29.9978Z" fill="url(#paint27_radial_6806_5229)"/>
<path d="M16.3551 29.9978C25.6895 29.9978 30.354 23.7303 30.354 15.9989C30.354 8.26751 25.6895 2 16.3551 2C7.02064 2 2.3562 8.26751 2.3562 15.9989C2.3562 23.7303 7.02064 29.9978 16.3551 29.9978Z" fill="url(#paint28_radial_6806_5229)"/>
<path d="M16.3551 29.9978C25.6895 29.9978 30.354 23.7303 30.354 15.9989C30.354 8.26751 25.6895 2 16.3551 2C7.02064 2 2.3562 8.26751 2.3562 15.9989C2.3562 23.7303 7.02064 29.9978 16.3551 29.9978Z" fill="url(#paint29_radial_6806_5229)"/>
<path d="M16.3551 29.9978C25.6895 29.9978 30.354 23.7303 30.354 15.9989C30.354 8.26751 25.6895 2 16.3551 2C7.02064 2 2.3562 8.26751 2.3562 15.9989C2.3562 23.7303 7.02064 29.9978 16.3551 29.9978Z" fill="url(#paint30_radial_6806_5229)"/>
<path d="M16.3551 29.9978C25.6895 29.9978 30.354 23.7303 30.354 15.9989C30.354 8.26751 25.6895 2 16.3551 2C7.02064 2 2.3562 8.26751 2.3562 15.9989C2.3562 23.7303 7.02064 29.9978 16.3551 29.9978Z" fill="url(#paint31_radial_6806_5229)"/>
<path fill-rule="evenodd" clip-rule="evenodd" d="M9.88393 14.1185C10.3708 13.8577 10.9768 14.0409 11.2376 14.5277C11.5332 15.0795 12.9472 17 16.3562 17C19.7651 17 21.1791 15.0795 21.4747 14.5277C21.7355 14.0409 22.3415 13.8577 22.8284 14.1185C23.3152 14.3793 23.4984 14.9853 23.2376 15.4722C22.6761 16.5204 20.6615 19 16.3562 19C12.0508 19 10.0362 16.5204 9.47467 15.4722C9.21387 14.9853 9.3971 14.3793 9.88393 14.1185Z" fill="url(#paint32_radial_6806_5229)"/>
<path d="M9.33776 11.1895C9.38584 10.9422 9.49591 10.6392 9.70516 10.4112C9.88449 10.2158 10.2032 9.99866 10.8561 9.99866C11.4979 9.99866 11.8247 10.2203 12.0134 10.4274C12.2315 10.6669 12.3366 10.9723 12.3709 11.1697C12.4654 11.7139 12.9831 12.0784 13.5272 11.9839C14.0714 11.8894 14.4359 11.3717 14.3414 10.8276C14.2624 10.3726 14.0361 9.67805 13.4919 9.08062C12.9182 8.45084 12.0517 7.99866 10.8561 7.99866C9.67184 7.99866 8.80889 8.42995 8.23172 9.05879C7.68447 9.65503 7.46317 10.3519 7.37453 10.8078C7.26911 11.3499 7.62314 11.8749 8.16527 11.9803C8.70741 12.0857 9.23235 11.7317 9.33776 11.1895Z" fill="#583F51"/>
<path d="M9.33776 11.1895C9.38584 10.9422 9.49591 10.6392 9.70516 10.4112C9.88449 10.2158 10.2032 9.99866 10.8561 9.99866C11.4979 9.99866 11.8247 10.2203 12.0134 10.4274C12.2315 10.6669 12.3366 10.9723 12.3709 11.1697C12.4654 11.7139 12.9831 12.0784 13.5272 11.9839C14.0714 11.8894 14.4359 11.3717 14.3414 10.8276C14.2624 10.3726 14.0361 9.67805 13.4919 9.08062C12.9182 8.45084 12.0517 7.99866 10.8561 7.99866C9.67184 7.99866 8.80889 8.42995 8.23172 9.05879C7.68447 9.65503 7.46317 10.3519 7.37453 10.8078C7.26911 11.3499 7.62314 11.8749 8.16527 11.9803C8.70741 12.0857 9.23235 11.7317 9.33776 11.1895Z" fill="url(#paint33_radial_6806_5229)"/>
<path d="M9.33776 11.1895C9.38584 10.9422 9.49591 10.6392 9.70516 10.4112C9.88449 10.2158 10.2032 9.99866 10.8561 9.99866C11.4979 9.99866 11.8247 10.2203 12.0134 10.4274C12.2315 10.6669 12.3366 10.9723 12.3709 11.1697C12.4654 11.7139 12.9831 12.0784 13.5272 11.9839C14.0714 11.8894 14.4359 11.3717 14.3414 10.8276C14.2624 10.3726 14.0361 9.67805 13.4919 9.08062C12.9182 8.45084 12.0517 7.99866 10.8561 7.99866C9.67184 7.99866 8.80889 8.42995 8.23172 9.05879C7.68447 9.65503 7.46317 10.3519 7.37453 10.8078C7.26911 11.3499 7.62314 11.8749 8.16527 11.9803C8.70741 12.0857 9.23235 11.7317 9.33776 11.1895Z" fill="url(#paint34_radial_6806_5229)"/>
<path d="M9.33776 11.1895C9.38584 10.9422 9.49591 10.6392 9.70516 10.4112C9.88449 10.2158 10.2032 9.99866 10.8561 9.99866C11.4979 9.99866 11.8247 10.2203 12.0134 10.4274C12.2315 10.6669 12.3366 10.9723 12.3709 11.1697C12.4654 11.7139 12.9831 12.0784 13.5272 11.9839C14.0714 11.8894 14.4359 11.3717 14.3414 10.8276C14.2624 10.3726 14.0361 9.67805 13.4919 9.08062C12.9182 8.45084 12.0517 7.99866 10.8561 7.99866C9.67184 7.99866 8.80889 8.42995 8.23172 9.05879C7.68447 9.65503 7.46317 10.3519 7.37453 10.8078C7.26911 11.3499 7.62314 11.8749 8.16527 11.9803C8.70741 12.0857 9.23235 11.7317 9.33776 11.1895Z" fill="url(#paint35_radial_6806_5229)"/>
<path d="M20.3378 11.1895C20.3858 10.9422 20.4959 10.6392 20.7052 10.4112C20.8845 10.2158 21.2032 9.99866 21.8561 9.99866C22.4979 9.99866 22.8247 10.2203 23.0134 10.4274C23.2315 10.6669 23.3366 10.9723 23.3709 11.1697C23.4654 11.7139 23.9831 12.0784 24.5272 11.9839C25.0714 11.8894 25.4359 11.3717 25.3414 10.8276C25.2624 10.3726 25.0361 9.67805 24.4919 9.08062C23.9182 8.45084 23.0517 7.99866 21.8561 7.99866C20.6718 7.99866 19.8089 8.42995 19.2317 9.05879C18.6845 9.65503 18.4632 10.3519 18.3745 10.8078C18.2691 11.3499 18.6231 11.8749 19.1653 11.9803C19.7074 12.0857 20.2323 11.7317 20.3378 11.1895Z" fill="#583F51"/>
<path d="M20.3378 11.1895C20.3858 10.9422 20.4959 10.6392 20.7052 10.4112C20.8845 10.2158 21.2032 9.99866 21.8561 9.99866C22.4979 9.99866 22.8247 10.2203 23.0134 10.4274C23.2315 10.6669 23.3366 10.9723 23.3709 11.1697C23.4654 11.7139 23.9831 12.0784 24.5272 11.9839C25.0714 11.8894 25.4359 11.3717 25.3414 10.8276C25.2624 10.3726 25.0361 9.67805 24.4919 9.08062C23.9182 8.45084 23.0517 7.99866 21.8561 7.99866C20.6718 7.99866 19.8089 8.42995 19.2317 9.05879C18.6845 9.65503 18.4632 10.3519 18.3745 10.8078C18.2691 11.3499 18.6231 11.8749 19.1653 11.9803C19.7074 12.0857 20.2323 11.7317 20.3378 11.1895Z" fill="url(#paint36_radial_6806_5229)"/>
<path d="M20.3378 11.1895C20.3858 10.9422 20.4959 10.6392 20.7052 10.4112C20.8845 10.2158 21.2032 9.99866 21.8561 9.99866C22.4979 9.99866 22.8247 10.2203 23.0134 10.4274C23.2315 10.6669 23.3366 10.9723 23.3709 11.1697C23.4654 11.7139 23.9831 12.0784 24.5272 11.9839C25.0714 11.8894 25.4359 11.3717 25.3414 10.8276C25.2624 10.3726 25.0361 9.67805 24.4919 9.08062C23.9182 8.45084 23.0517 7.99866 21.8561 7.99866C20.6718 7.99866 19.8089 8.42995 19.2317 9.05879C18.6845 9.65503 18.4632 10.3519 18.3745 10.8078C18.2691 11.3499 18.6231 11.8749 19.1653 11.9803C19.7074 12.0857 20.2323 11.7317 20.3378 11.1895Z" fill="url(#paint37_radial_6806_5229)"/>
<path d="M20.3378 11.1895C20.3858 10.9422 20.4959 10.6392 20.7052 10.4112C20.8845 10.2158 21.2032 9.99866 21.8561 9.99866C22.4979 9.99866 22.8247 10.2203 23.0134 10.4274C23.2315 10.6669 23.3366 10.9723 23.3709 11.1697C23.4654 11.7139 23.9831 12.0784 24.5272 11.9839C25.0714 11.8894 25.4359 11.3717 25.3414 10.8276C25.2624 10.3726 25.0361 9.67805 24.4919 9.08062C23.9182 8.45084 23.0517 7.99866 21.8561 7.99866C20.6718 7.99866 19.8089 8.42995 19.2317 9.05879C18.6845 9.65503 18.4632 10.3519 18.3745 10.8078C18.2691 11.3499 18.6231 11.8749 19.1653 11.9803C19.7074 12.0857 20.2323 11.7317 20.3378 11.1895Z" fill="url(#paint38_radial_6806_5229)"/>
<path d="M4.44912 19.3621C4.84835 18.8863 5.5577 18.8242 6.03349 19.2235L9.00547 21.7172L8.75493 20.8202C8.58108 20.1977 8.94476 19.5522 9.56722 19.3783C10.193 19.2035 10.8414 19.5721 11.0114 20.1992L11.6999 22.739L12.5363 24.7511C12.5517 24.7881 12.5653 24.8256 12.5771 24.8635C12.875 25.4384 13.0437 26.094 13.0437 26.7898C13.0437 29.0658 11.2386 30.9109 9.01187 30.9109C8.03231 30.9109 7.13433 30.5539 6.43573 29.9601L1.95313 26.6627C1.42742 26.2759 1.32191 25.5328 1.71921 25.0151C1.89221 24.7896 2.13148 24.6449 2.3887 24.5875L1.96273 24.23C1.46482 23.8122 1.39987 23.0699 1.81767 22.572C1.99518 22.3604 2.23128 22.227 2.48233 22.1756L2.35149 22.0658C1.85358 21.6481 1.78864 20.9057 2.20643 20.4078C2.62423 19.9099 3.36656 19.845 3.86447 20.2628L4.34984 20.67C4.10574 20.2693 4.1308 19.7414 4.44912 19.3621Z" fill="url(#paint39_radial_6806_5229)"/>
<path d="M4.44912 19.3621C4.84835 18.8863 5.5577 18.8242 6.03349 19.2235L9.00547 21.7172L8.75493 20.8202C8.58108 20.1977 8.94476 19.5522 9.56722 19.3783C10.193 19.2035 10.8414 19.5721 11.0114 20.1992L11.6999 22.739L12.5363 24.7511C12.5517 24.7881 12.5653 24.8256 12.5771 24.8635C12.875 25.4384 13.0437 26.094 13.0437 26.7898C13.0437 29.0658 11.2386 30.9109 9.01187 30.9109C8.03231 30.9109 7.13433 30.5539 6.43573 29.9601L1.95313 26.6627C1.42742 26.2759 1.32191 25.5328 1.71921 25.0151C1.89221 24.7896 2.13148 24.6449 2.3887 24.5875L1.96273 24.23C1.46482 23.8122 1.39987 23.0699 1.81767 22.572C1.99518 22.3604 2.23128 22.227 2.48233 22.1756L2.35149 22.0658C1.85358 21.6481 1.78864 20.9057 2.20643 20.4078C2.62423 19.9099 3.36656 19.845 3.86447 20.2628L4.34984 20.67C4.10574 20.2693 4.1308 19.7414 4.44912 19.3621Z" fill="url(#paint40_radial_6806_5229)"/>
<path d="M4.44912 19.3621C4.84835 18.8863 5.5577 18.8242 6.03349 19.2235L9.00547 21.7172L8.75493 20.8202C8.58108 20.1977 8.94476 19.5522 9.56722 19.3783C10.193 19.2035 10.8414 19.5721 11.0114 20.1992L11.6999 22.739L12.5363 24.7511C12.5517 24.7881 12.5653 24.8256 12.5771 24.8635C12.875 25.4384 13.0437 26.094 13.0437 26.7898C13.0437 29.0658 11.2386 30.9109 9.01187 30.9109C8.03231 30.9109 7.13433 30.5539 6.43573 29.9601L1.95313 26.6627C1.42742 26.2759 1.32191 25.5328 1.71921 25.0151C1.89221 24.7896 2.13148 24.6449 2.3887 24.5875L1.96273 24.23C1.46482 23.8122 1.39987 23.0699 1.81767 22.572C1.99518 22.3604 2.23128 22.227 2.48233 22.1756L2.35149 22.0658C1.85358 21.6481 1.78864 20.9057 2.20643 20.4078C2.62423 19.9099 3.36656 19.845 3.86447 20.2628L4.34984 20.67C4.10574 20.2693 4.1308 19.7414 4.44912 19.3621Z" fill="url(#paint41_radial_6806_5229)"/>
<path d="M4.44912 19.3621C4.84835 18.8863 5.5577 18.8242 6.03349 19.2235L9.00547 21.7172L8.75493 20.8202C8.58108 20.1977 8.94476 19.5522 9.56722 19.3783C10.193 19.2035 10.8414 19.5721 11.0114 20.1992L11.6999 22.739L12.5363 24.7511C12.5517 24.7881 12.5653 24.8256 12.5771 24.8635C12.875 25.4384 13.0437 26.094 13.0437 26.7898C13.0437 29.0658 11.2386 30.9109 9.01187 30.9109C8.03231 30.9109 7.13433 30.5539 6.43573 29.9601L1.95313 26.6627C1.42742 26.2759 1.32191 25.5328 1.71921 25.0151C1.89221 24.7896 2.13148 24.6449 2.3887 24.5875L1.96273 24.23C1.46482 23.8122 1.39987 23.0699 1.81767 22.572C1.99518 22.3604 2.23128 22.227 2.48233 22.1756L2.35149 22.0658C1.85358 21.6481 1.78864 20.9057 2.20643 20.4078C2.62423 19.9099 3.36656 19.845 3.86447 20.2628L4.34984 20.67C4.10574 20.2693 4.1308 19.7414 4.44912 19.3621Z" fill="url(#paint42_radial_6806_5229)"/>
<path d="M4.44912 19.3621C4.84835 18.8863 5.5577 18.8242 6.03349 19.2235L9.00547 21.7172L8.75493 20.8202C8.58108 20.1977 8.94476 19.5522 9.56722 19.3783C10.193 19.2035 10.8414 19.5721 11.0114 20.1992L11.6999 22.739L12.5363 24.7511C12.5517 24.7881 12.5653 24.8256 12.5771 24.8635C12.875 25.4384 13.0437 26.094 13.0437 26.7898C13.0437 29.0658 11.2386 30.9109 9.01187 30.9109C8.03231 30.9109 7.13433 30.5539 6.43573 29.9601L1.95313 26.6627C1.42742 26.2759 1.32191 25.5328 1.71921 25.0151C1.89221 24.7896 2.13148 24.6449 2.3887 24.5875L1.96273 24.23C1.46482 23.8122 1.39987 23.0699 1.81767 22.572C1.99518 22.3604 2.23128 22.227 2.48233 22.1756L2.35149 22.0658C1.85358 21.6481 1.78864 20.9057 2.20643 20.4078C2.62423 19.9099 3.36656 19.845 3.86447 20.2628L4.34984 20.67C4.10574 20.2693 4.1308 19.7414 4.44912 19.3621Z" fill="url(#paint43_radial_6806_5229)"/>
<path d="M4.44912 19.3621C4.84835 18.8863 5.5577 18.8242 6.03349 19.2235L9.00547 21.7172L8.75493 20.8202C8.58108 20.1977 8.94476 19.5522 9.56722 19.3783C10.193 19.2035 10.8414 19.5721 11.0114 20.1992L11.6999 22.739L12.5363 24.7511C12.5517 24.7881 12.5653 24.8256 12.5771 24.8635C12.875 25.4384 13.0437 26.094 13.0437 26.7898C13.0437 29.0658 11.2386 30.9109 9.01187 30.9109C8.03231 30.9109 7.13433 30.5539 6.43573 29.9601L1.95313 26.6627C1.42742 26.2759 1.32191 25.5328 1.71921 25.0151C1.89221 24.7896 2.13148 24.6449 2.3887 24.5875L1.96273 24.23C1.46482 23.8122 1.39987 23.0699 1.81767 22.572C1.99518 22.3604 2.23128 22.227 2.48233 22.1756L2.35149 22.0658C1.85358 21.6481 1.78864 20.9057 2.20643 20.4078C2.62423 19.9099 3.36656 19.845 3.86447 20.2628L4.34984 20.67C4.10574 20.2693 4.1308 19.7414 4.44912 19.3621Z" fill="url(#paint44_radial_6806_5229)"/>
<path d="M2.36841 24.5806C2.36841 24.5806 1.84301 24.7516 1.62665 25.16C1.23329 25.9026 1.83725 26.5769 1.83725 26.5769L3.16073 27.547C4.20665 28.3136 5.66737 28.1408 6.50549 27.1512L2.36841 24.5806Z" fill="url(#paint45_radial_6806_5229)"/>
<path d="M2.36841 24.5806C2.36841 24.5806 1.84301 24.7516 1.62665 25.16C1.23329 25.9026 1.83725 26.5769 1.83725 26.5769L3.16073 27.547C4.20665 28.3136 5.66737 28.1408 6.50549 27.1512L2.36841 24.5806Z" fill="url(#paint46_radial_6806_5229)"/>
<path d="M6.01758 25.0813L5.44128 26.4883C5.44128 26.4883 3.04285 25.0078 2.3866 24.5898C2.21082 24.4414 2.22253 24.4688 1.8905 24.1602C1.55847 23.8516 1.36164 23.2372 1.75889 22.6478C1.92957 22.3945 2.24235 22.2169 2.4934 22.1655L6.01758 25.0813Z" fill="url(#paint47_radial_6806_5229)"/>
<path d="M6.01758 25.0813L5.44128 26.4883C5.44128 26.4883 3.04285 25.0078 2.3866 24.5898C2.21082 24.4414 2.22253 24.4688 1.8905 24.1602C1.55847 23.8516 1.36164 23.2372 1.75889 22.6478C1.92957 22.3945 2.24235 22.2169 2.4934 22.1655L6.01758 25.0813Z" fill="url(#paint48_radial_6806_5229)"/>
<path d="M7.7312 23.7812L6.00105 25.0706L2.37167 22.0658C1.87376 21.648 1.80881 20.9056 2.22661 20.4077C2.6444 19.9098 3.38673 19.8449 3.88464 20.2627L4.34249 20.6624C5.03297 21.3805 6.70077 22.8459 7.7312 23.7812Z" fill="url(#paint49_radial_6806_5229)"/>
<path d="M7.7312 23.7812L6.00105 25.0706L2.37167 22.0658C1.87376 21.648 1.80881 20.9056 2.22661 20.4077C2.6444 19.9098 3.38673 19.8449 3.88464 20.2627L4.34249 20.6624C5.03297 21.3805 6.70077 22.8459 7.7312 23.7812Z" fill="url(#paint50_radial_6806_5229)"/>
<path d="M7.7312 23.7812L6.00105 25.0706L2.37167 22.0658C1.87376 21.648 1.80881 20.9056 2.22661 20.4077C2.6444 19.9098 3.38673 19.8449 3.88464 20.2627L4.34249 20.6624C5.03297 21.3805 6.70077 22.8459 7.7312 23.7812Z" fill="url(#paint51_linear_6806_5229)"/>
<path d="M6.03138 19.2227C5.50911 18.8028 4.8141 18.8915 4.43372 19.3789C4.05877 19.8594 4.17299 20.3469 4.35171 20.6837C5.11344 21.4454 7.61758 23.6737 7.61758 23.6737L9.57508 23.9532L9.00012 21.7148C9.00012 21.7148 7.21941 20.1779 6.03138 19.2227Z" fill="url(#paint52_radial_6806_5229)"/>
<path d="M6.03138 19.2227C5.50911 18.8028 4.8141 18.8915 4.43372 19.3789C4.05877 19.8594 4.17299 20.3469 4.35171 20.6837C5.11344 21.4454 7.61758 23.6737 7.61758 23.6737L9.57508 23.9532L9.00012 21.7148C9.00012 21.7148 7.21941 20.1779 6.03138 19.2227Z" fill="url(#paint53_radial_6806_5229)"/>
<path d="M6.03138 19.2227C5.50911 18.8028 4.8141 18.8915 4.43372 19.3789C4.05877 19.8594 4.17299 20.3469 4.35171 20.6837C5.11344 21.4454 7.61758 23.6737 7.61758 23.6737L9.57508 23.9532L9.00012 21.7148C9.00012 21.7148 7.21941 20.1779 6.03138 19.2227Z" fill="url(#paint54_linear_6806_5229)"/>
<path d="M28.2789 19.3729C27.8797 18.8971 27.1703 18.8351 26.6945 19.2343L23.7226 21.7281L23.9731 20.831C24.1469 20.2086 23.7833 19.563 23.1608 19.3892C22.535 19.2144 21.8866 19.5829 21.7166 20.2101L21.0281 22.7499L20.1917 24.762C20.1764 24.799 20.1628 24.8365 20.151 24.8744C19.8531 25.4493 19.6843 26.1048 19.6843 26.8007C19.6843 29.0767 21.4894 30.9218 23.7162 30.9218C24.6957 30.9218 25.5937 30.5647 26.2923 29.971L30.7749 26.6735C31.3006 26.2868 31.4061 25.5437 31.0088 25.0259C30.8358 24.8005 30.5966 24.6558 30.3393 24.5983L30.7653 24.2409C31.2632 23.8231 31.3282 23.0808 30.9104 22.5829C30.7328 22.3713 30.4967 22.2379 30.2457 22.1865L30.3765 22.0767C30.8744 21.6589 30.9394 20.9166 30.5216 20.4187C30.1038 19.9208 29.3615 19.8558 28.8636 20.2736L28.3782 20.6809C28.6223 20.2802 28.5972 19.7523 28.2789 19.3729Z" fill="url(#paint55_radial_6806_5229)"/>
<path d="M28.2789 19.3729C27.8797 18.8971 27.1703 18.8351 26.6945 19.2343L23.7226 21.7281L23.9731 20.831C24.1469 20.2086 23.7833 19.563 23.1608 19.3892C22.535 19.2144 21.8866 19.5829 21.7166 20.2101L21.0281 22.7499L20.1917 24.762C20.1764 24.799 20.1628 24.8365 20.151 24.8744C19.8531 25.4493 19.6843 26.1048 19.6843 26.8007C19.6843 29.0767 21.4894 30.9218 23.7162 30.9218C24.6957 30.9218 25.5937 30.5647 26.2923 29.971L30.7749 26.6735C31.3006 26.2868 31.4061 25.5437 31.0088 25.0259C30.8358 24.8005 30.5966 24.6558 30.3393 24.5983L30.7653 24.2409C31.2632 23.8231 31.3282 23.0808 30.9104 22.5829C30.7328 22.3713 30.4967 22.2379 30.2457 22.1865L30.3765 22.0767C30.8744 21.6589 30.9394 20.9166 30.5216 20.4187C30.1038 19.9208 29.3615 19.8558 28.8636 20.2736L28.3782 20.6809C28.6223 20.2802 28.5972 19.7523 28.2789 19.3729Z" fill="url(#paint56_radial_6806_5229)"/>
<path d="M28.2789 19.3729C27.8797 18.8971 27.1703 18.8351 26.6945 19.2343L23.7226 21.7281L23.9731 20.831C24.1469 20.2086 23.7833 19.563 23.1608 19.3892C22.535 19.2144 21.8866 19.5829 21.7166 20.2101L21.0281 22.7499L20.1917 24.762C20.1764 24.799 20.1628 24.8365 20.151 24.8744C19.8531 25.4493 19.6843 26.1048 19.6843 26.8007C19.6843 29.0767 21.4894 30.9218 23.7162 30.9218C24.6957 30.9218 25.5937 30.5647 26.2923 29.971L30.7749 26.6735C31.3006 26.2868 31.4061 25.5437 31.0088 25.0259C30.8358 24.8005 30.5966 24.6558 30.3393 24.5983L30.7653 24.2409C31.2632 23.8231 31.3282 23.0808 30.9104 22.5829C30.7328 22.3713 30.4967 22.2379 30.2457 22.1865L30.3765 22.0767C30.8744 21.6589 30.9394 20.9166 30.5216 20.4187C30.1038 19.9208 29.3615 19.8558 28.8636 20.2736L28.3782 20.6809C28.6223 20.2802 28.5972 19.7523 28.2789 19.3729Z" fill="url(#paint57_radial_6806_5229)"/>
<path d="M28.2789 19.3729C27.8797 18.8971 27.1703 18.8351 26.6945 19.2343L23.7226 21.7281L23.9731 20.831C24.1469 20.2086 23.7833 19.563 23.1608 19.3892C22.535 19.2144 21.8866 19.5829 21.7166 20.2101L21.0281 22.7499L20.1917 24.762C20.1764 24.799 20.1628 24.8365 20.151 24.8744C19.8531 25.4493 19.6843 26.1048 19.6843 26.8007C19.6843 29.0767 21.4894 30.9218 23.7162 30.9218C24.6957 30.9218 25.5937 30.5647 26.2923 29.971L30.7749 26.6735C31.3006 26.2868 31.4061 25.5437 31.0088 25.0259C30.8358 24.8005 30.5966 24.6558 30.3393 24.5983L30.7653 24.2409C31.2632 23.8231 31.3282 23.0808 30.9104 22.5829C30.7328 22.3713 30.4967 22.2379 30.2457 22.1865L30.3765 22.0767C30.8744 21.6589 30.9394 20.9166 30.5216 20.4187C30.1038 19.9208 29.3615 19.8558 28.8636 20.2736L28.3782 20.6809C28.6223 20.2802 28.5972 19.7523 28.2789 19.3729Z" fill="url(#paint58_radial_6806_5229)"/>
<path d="M28.2789 19.3729C27.8797 18.8971 27.1703 18.8351 26.6945 19.2343L23.7226 21.7281L23.9731 20.831C24.1469 20.2086 23.7833 19.563 23.1608 19.3892C22.535 19.2144 21.8866 19.5829 21.7166 20.2101L21.0281 22.7499L20.1917 24.762C20.1764 24.799 20.1628 24.8365 20.151 24.8744C19.8531 25.4493 19.6843 26.1048 19.6843 26.8007C19.6843 29.0767 21.4894 30.9218 23.7162 30.9218C24.6957 30.9218 25.5937 30.5647 26.2923 29.971L30.7749 26.6735C31.3006 26.2868 31.4061 25.5437 31.0088 25.0259C30.8358 24.8005 30.5966 24.6558 30.3393 24.5983L30.7653 24.2409C31.2632 23.8231 31.3282 23.0808 30.9104 22.5829C30.7328 22.3713 30.4967 22.2379 30.2457 22.1865L30.3765 22.0767C30.8744 21.6589 30.9394 20.9166 30.5216 20.4187C30.1038 19.9208 29.3615 19.8558 28.8636 20.2736L28.3782 20.6809C28.6223 20.2802 28.5972 19.7523 28.2789 19.3729Z" fill="url(#paint59_radial_6806_5229)"/>
<path d="M28.2789 19.3729C27.8797 18.8971 27.1703 18.8351 26.6945 19.2343L23.7226 21.7281L23.9731 20.831C24.1469 20.2086 23.7833 19.563 23.1608 19.3892C22.535 19.2144 21.8866 19.5829 21.7166 20.2101L21.0281 22.7499L20.1917 24.762C20.1764 24.799 20.1628 24.8365 20.151 24.8744C19.8531 25.4493 19.6843 26.1048 19.6843 26.8007C19.6843 29.0767 21.4894 30.9218 23.7162 30.9218C24.6957 30.9218 25.5937 30.5647 26.2923 29.971L30.7749 26.6735C31.3006 26.2868 31.4061 25.5437 31.0088 25.0259C30.8358 24.8005 30.5966 24.6558 30.3393 24.5983L30.7653 24.2409C31.2632 23.8231 31.3282 23.0808 30.9104 22.5829C30.7328 22.3713 30.4967 22.2379 30.2457 22.1865L30.3765 22.0767C30.8744 21.6589 30.9394 20.9166 30.5216 20.4187C30.1038 19.9208 29.3615 19.8558 28.8636 20.2736L28.3782 20.6809C28.6223 20.2802 28.5972 19.7523 28.2789 19.3729Z" fill="url(#paint60_linear_6806_5229)"/>
<path d="M28.2789 19.3729C27.8797 18.8971 27.1703 18.8351 26.6945 19.2343L23.7226 21.7281L23.9731 20.831C24.1469 20.2086 23.7833 19.563 23.1608 19.3892C22.535 19.2144 21.8866 19.5829 21.7166 20.2101L21.0281 22.7499L20.1917 24.762C20.1764 24.799 20.1628 24.8365 20.151 24.8744C19.8531 25.4493 19.6843 26.1048 19.6843 26.8007C19.6843 29.0767 21.4894 30.9218 23.7162 30.9218C24.6957 30.9218 25.5937 30.5647 26.2923 29.971L30.7749 26.6735C31.3006 26.2868 31.4061 25.5437 31.0088 25.0259C30.8358 24.8005 30.5966 24.6558 30.3393 24.5983L30.7653 24.2409C31.2632 23.8231 31.3282 23.0808 30.9104 22.5829C30.7328 22.3713 30.4967 22.2379 30.2457 22.1865L30.3765 22.0767C30.8744 21.6589 30.9394 20.9166 30.5216 20.4187C30.1038 19.9208 29.3615 19.8558 28.8636 20.2736L28.3782 20.6809C28.6223 20.2802 28.5972 19.7523 28.2789 19.3729Z" fill="url(#paint61_linear_6806_5229)"/>
<path d="M28.2789 19.3729C27.8797 18.8971 27.1703 18.8351 26.6945 19.2343L23.7226 21.7281L23.9731 20.831C24.1469 20.2086 23.7833 19.563 23.1608 19.3892C22.535 19.2144 21.8866 19.5829 21.7166 20.2101L21.0281 22.7499L20.1917 24.762C20.1764 24.799 20.1628 24.8365 20.151 24.8744C19.8531 25.4493 19.6843 26.1048 19.6843 26.8007C19.6843 29.0767 21.4894 30.9218 23.7162 30.9218C24.6957 30.9218 25.5937 30.5647 26.2923 29.971L30.7749 26.6735C31.3006 26.2868 31.4061 25.5437 31.0088 25.0259C30.8358 24.8005 30.5966 24.6558 30.3393 24.5983L30.7653 24.2409C31.2632 23.8231 31.3282 23.0808 30.9104 22.5829C30.7328 22.3713 30.4967 22.2379 30.2457 22.1865L30.3765 22.0767C30.8744 21.6589 30.9394 20.9166 30.5216 20.4187C30.1038 19.9208 29.3615 19.8558 28.8636 20.2736L28.3782 20.6809C28.6223 20.2802 28.5972 19.7523 28.2789 19.3729Z" fill="url(#paint62_linear_6806_5229)"/>
<path d="M28.2789 19.3729C27.8797 18.8971 27.1703 18.8351 26.6945 19.2343L23.7226 21.7281L23.9731 20.831C24.1469 20.2086 23.7833 19.563 23.1608 19.3892C22.535 19.2144 21.8866 19.5829 21.7166 20.2101L21.0281 22.7499L20.1917 24.762C20.1764 24.799 20.1628 24.8365 20.151 24.8744C19.8531 25.4493 19.6843 26.1048 19.6843 26.8007C19.6843 29.0767 21.4894 30.9218 23.7162 30.9218C24.6957 30.9218 25.5937 30.5647 26.2923 29.971L30.7749 26.6735C31.3006 26.2868 31.4061 25.5437 31.0088 25.0259C30.8358 24.8005 30.5966 24.6558 30.3393 24.5983L30.7653 24.2409C31.2632 23.8231 31.3282 23.0808 30.9104 22.5829C30.7328 22.3713 30.4967 22.2379 30.2457 22.1865L30.3765 22.0767C30.8744 21.6589 30.9394 20.9166 30.5216 20.4187C30.1038 19.9208 29.3615 19.8558 28.8636 20.2736L28.3782 20.6809C28.6223 20.2802 28.5972 19.7523 28.2789 19.3729Z" fill="url(#paint63_radial_6806_5229)"/>
<path d="M28.2789 19.3729C27.8797 18.8971 27.1703 18.8351 26.6945 19.2343L23.7226 21.7281L23.9731 20.831C24.1469 20.2086 23.7833 19.563 23.1608 19.3892C22.535 19.2144 21.8866 19.5829 21.7166 20.2101L21.0281 22.7499L20.1917 24.762C20.1764 24.799 20.1628 24.8365 20.151 24.8744C19.8531 25.4493 19.6843 26.1048 19.6843 26.8007C19.6843 29.0767 21.4894 30.9218 23.7162 30.9218C24.6957 30.9218 25.5937 30.5647 26.2923 29.971L30.7749 26.6735C31.3006 26.2868 31.4061 25.5437 31.0088 25.0259C30.8358 24.8005 30.5966 24.6558 30.3393 24.5983L30.7653 24.2409C31.2632 23.8231 31.3282 23.0808 30.9104 22.5829C30.7328 22.3713 30.4967 22.2379 30.2457 22.1865L30.3765 22.0767C30.8744 21.6589 30.9394 20.9166 30.5216 20.4187C30.1038 19.9208 29.3615 19.8558 28.8636 20.2736L28.3782 20.6809C28.6223 20.2802 28.5972 19.7523 28.2789 19.3729Z" fill="url(#paint64_radial_6806_5229)"/>
<path d="M28.2789 19.3729C27.8797 18.8971 27.1703 18.8351 26.6945 19.2343L23.7226 21.7281L23.9731 20.831C24.1469 20.2086 23.7833 19.563 23.1608 19.3892C22.535 19.2144 21.8866 19.5829 21.7166 20.2101L21.0281 22.7499L20.1917 24.762C20.1764 24.799 20.1628 24.8365 20.151 24.8744C19.8531 25.4493 19.6843 26.1048 19.6843 26.8007C19.6843 29.0767 21.4894 30.9218 23.7162 30.9218C24.6957 30.9218 25.5937 30.5647 26.2923 29.971L30.7749 26.6735C31.3006 26.2868 31.4061 25.5437 31.0088 25.0259C30.8358 24.8005 30.5966 24.6558 30.3393 24.5983L30.7653 24.2409C31.2632 23.8231 31.3282 23.0808 30.9104 22.5829C30.7328 22.3713 30.4967 22.2379 30.2457 22.1865L30.3765 22.0767C30.8744 21.6589 30.9394 20.9166 30.5216 20.4187C30.1038 19.9208 29.3615 19.8558 28.8636 20.2736L28.3782 20.6809C28.6223 20.2802 28.5972 19.7523 28.2789 19.3729Z" fill="url(#paint65_radial_6806_5229)"/>
<path d="M28.2789 19.3729C27.8797 18.8971 27.1703 18.8351 26.6945 19.2343L23.7226 21.7281L23.9731 20.831C24.1469 20.2086 23.7833 19.563 23.1608 19.3892C22.535 19.2144 21.8866 19.5829 21.7166 20.2101L21.0281 22.7499L20.1917 24.762C20.1764 24.799 20.1628 24.8365 20.151 24.8744C19.8531 25.4493 19.6843 26.1048 19.6843 26.8007C19.6843 29.0767 21.4894 30.9218 23.7162 30.9218C24.6957 30.9218 25.5937 30.5647 26.2923 29.971L30.7749 26.6735C31.3006 26.2868 31.4061 25.5437 31.0088 25.0259C30.8358 24.8005 30.5966 24.6558 30.3393 24.5983L30.7653 24.2409C31.2632 23.8231 31.3282 23.0808 30.9104 22.5829C30.7328 22.3713 30.4967 22.2379 30.2457 22.1865L30.3765 22.0767C30.8744 21.6589 30.9394 20.9166 30.5216 20.4187C30.1038 19.9208 29.3615 19.8558 28.8636 20.2736L28.3782 20.6809C28.6223 20.2802 28.5972 19.7523 28.2789 19.3729Z" fill="url(#paint66_radial_6806_5229)"/>
<path d="M28.2789 19.3729C27.8797 18.8971 27.1703 18.8351 26.6945 19.2343L23.7226 21.7281L23.9731 20.831C24.1469 20.2086 23.7833 19.563 23.1608 19.3892C22.535 19.2144 21.8866 19.5829 21.7166 20.2101L21.0281 22.7499L20.1917 24.762C20.1764 24.799 20.1628 24.8365 20.151 24.8744C19.8531 25.4493 19.6843 26.1048 19.6843 26.8007C19.6843 29.0767 21.4894 30.9218 23.7162 30.9218C24.6957 30.9218 25.5937 30.5647 26.2923 29.971L30.7749 26.6735C31.3006 26.2868 31.4061 25.5437 31.0088 25.0259C30.8358 24.8005 30.5966 24.6558 30.3393 24.5983L30.7653 24.2409C31.2632 23.8231 31.3282 23.0808 30.9104 22.5829C30.7328 22.3713 30.4967 22.2379 30.2457 22.1865L30.3765 22.0767C30.8744 21.6589 30.9394 20.9166 30.5216 20.4187C30.1038 19.9208 29.3615 19.8558 28.8636 20.2736L28.3782 20.6809C28.6223 20.2802 28.5972 19.7523 28.2789 19.3729Z" fill="url(#paint67_radial_6806_5229)"/>
<path d="M28.2789 19.3729C27.8797 18.8971 27.1703 18.8351 26.6945 19.2343L23.7226 21.7281L23.9731 20.831C24.1469 20.2086 23.7833 19.563 23.1608 19.3892C22.535 19.2144 21.8866 19.5829 21.7166 20.2101L21.0281 22.7499L20.1917 24.762C20.1764 24.799 20.1628 24.8365 20.151 24.8744C19.8531 25.4493 19.6843 26.1048 19.6843 26.8007C19.6843 29.0767 21.4894 30.9218 23.7162 30.9218C24.6957 30.9218 25.5937 30.5647 26.2923 29.971L30.7749 26.6735C31.3006 26.2868 31.4061 25.5437 31.0088 25.0259C30.8358 24.8005 30.5966 24.6558 30.3393 24.5983L30.7653 24.2409C31.2632 23.8231 31.3282 23.0808 30.9104 22.5829C30.7328 22.3713 30.4967 22.2379 30.2457 22.1865L30.3765 22.0767C30.8744 21.6589 30.9394 20.9166 30.5216 20.4187C30.1038 19.9208 29.3615 19.8558 28.8636 20.2736L28.3782 20.6809C28.6223 20.2802 28.5972 19.7523 28.2789 19.3729Z" fill="url(#paint68_radial_6806_5229)"/>
<path d="M30.3475 24.5932C30.3475 24.5932 30.9271 24.7363 31.1437 25.2399C31.4956 26.058 30.849 26.6123 30.849 26.6123L28.3284 28.4599L27.498 26.7841L30.3475 24.5932Z" fill="url(#paint69_radial_6806_5229)"/>
<path d="M30.3475 24.5932C30.3475 24.5932 30.9271 24.7363 31.1437 25.2399C31.4956 26.058 30.849 26.6123 30.849 26.6123L28.3284 28.4599L27.498 26.7841L30.3475 24.5932Z" fill="url(#paint70_radial_6806_5229)"/>
<path d="M27.0892 24.9195C26.7661 25.1981 26.3919 25.8065 26.5694 26.0181C26.9872 26.516 28.0225 26.4359 28.5204 26.0181L30.7014 24.2973C31.313 23.7609 31.2997 23.0643 30.8819 22.5664C30.7044 22.3548 30.4922 22.2395 30.2411 22.1881L27.0892 24.9195Z" fill="url(#paint71_radial_6806_5229)"/>
<path d="M27.0892 24.9195C26.7661 25.1981 26.3919 25.8065 26.5694 26.0181C26.9872 26.516 28.0225 26.4359 28.5204 26.0181L30.7014 24.2973C31.313 23.7609 31.2997 23.0643 30.8819 22.5664C30.7044 22.3548 30.4922 22.2395 30.2411 22.1881L27.0892 24.9195Z" fill="url(#paint72_linear_6806_5229)"/>
<path d="M27.0892 24.9195C26.7661 25.1981 26.3919 25.8065 26.5694 26.0181C26.9872 26.516 28.0225 26.4359 28.5204 26.0181L30.7014 24.2973C31.313 23.7609 31.2997 23.0643 30.8819 22.5664C30.7044 22.3548 30.4922 22.2395 30.2411 22.1881L27.0892 24.9195Z" fill="url(#paint73_radial_6806_5229)"/>
<path d="M25.5263 23.2114C25.0246 23.6407 25.1912 24.3026 25.5263 24.7019C25.9441 25.1998 26.6864 25.2647 27.1843 24.8469L30.3688 22.0819C30.8667 21.6641 30.9192 20.9056 30.5014 20.4077C30.0836 19.9098 29.3413 19.8449 28.8434 20.2627L28.358 20.67C28.2959 20.7718 28.2165 20.8654 28.1201 20.9464L25.5263 23.2114Z" fill="url(#paint74_radial_6806_5229)"/>
<path d="M25.5263 23.2114C25.0246 23.6407 25.1912 24.3026 25.5263 24.7019C25.9441 25.1998 26.6864 25.2647 27.1843 24.8469L30.3688 22.0819C30.8667 21.6641 30.9192 20.9056 30.5014 20.4077C30.0836 19.9098 29.3413 19.8449 28.8434 20.2627L28.358 20.67C28.2959 20.7718 28.2165 20.8654 28.1201 20.9464L25.5263 23.2114Z" fill="url(#paint75_radial_6806_5229)"/>
<path d="M25.5263 23.2114C25.0246 23.6407 25.1912 24.3026 25.5263 24.7019C25.9441 25.1998 26.6864 25.2647 27.1843 24.8469L30.3688 22.0819C30.8667 21.6641 30.9192 20.9056 30.5014 20.4077C30.0836 19.9098 29.3413 19.8449 28.8434 20.2627L28.358 20.67C28.2959 20.7718 28.2165 20.8654 28.1201 20.9464L25.5263 23.2114Z" fill="url(#paint76_linear_6806_5229)"/>
<path d="M26.6659 19.2304C27.1464 18.8273 27.8626 18.89 28.2658 19.3704C28.6634 19.8443 28.6087 20.5492 28.1428 20.956L25.957 22.8645C25.0314 23.6727 23.593 22.9395 23.7032 21.7156L26.6659 19.2304Z" fill="url(#paint77_radial_6806_5229)"/>
<path d="M26.6659 19.2304C27.1464 18.8273 27.8626 18.89 28.2658 19.3704C28.6634 19.8443 28.6087 20.5492 28.1428 20.956L25.957 22.8645C25.0314 23.6727 23.593 22.9395 23.7032 21.7156L26.6659 19.2304Z" fill="url(#paint78_linear_6806_5229)"/>
<path d="M26.6659 19.2304C27.1464 18.8273 27.8626 18.89 28.2658 19.3704C28.6634 19.8443 28.6087 20.5492 28.1428 20.956L25.957 22.8645C25.0314 23.6727 23.593 22.9395 23.7032 21.7156L26.6659 19.2304Z" fill="url(#paint79_radial_6806_5229)"/>
<defs>
<radialGradient id="paint0_radial_6806_5229" cx="0" cy="0" r="1" gradientUnits="userSpaceOnUse" gradientTransform="translate(25.8562 9) rotate(131.878) scale(38.9487)">
<stop stop-color="#FFF478"/>
<stop offset="0.474827" stop-color="#FFB02E"/>
<stop offset="1" stop-color="#F70A8D"/>
</radialGradient>
<radialGradient id="paint1_radial_6806_5229" cx="0" cy="0" r="1" gradientUnits="userSpaceOnUse" gradientTransform="translate(16.3562 12.5) rotate(101.31) scale(17.8466 22.8581)">
<stop offset="0.787821" stop-color="#F59639" stop-opacity="0"/>
<stop offset="0.972509" stop-color="#FF7DCE"/>
</radialGradient>
<radialGradient id="paint2_radial_6806_5229" cx="0" cy="0" r="1" gradientUnits="userSpaceOnUse" gradientTransform="translate(18.3562 14) rotate(135) scale(41.0122)">
<stop offset="0.314853" stop-opacity="0"/>
<stop offset="1"/>
</radialGradient>
<radialGradient id="paint3_radial_6806_5229" cx="0" cy="0" r="1" gradientUnits="userSpaceOnUse" gradientTransform="translate(16.3562 17) rotate(77.692) scale(28.1469)">
<stop offset="0.507903" stop-color="#7D6133" stop-opacity="0"/>
<stop offset="1" stop-color="#715B32"/>
</radialGradient>
<radialGradient id="paint4_radial_6806_5229" cx="0" cy="0" r="1" gradientUnits="userSpaceOnUse" gradientTransform="translate(16.8562 16.5) rotate(55.7131) scale(13.3135 9.65032)">
<stop stop-color="#FFB849"/>
<stop offset="1" stop-color="#FFB847" stop-opacity="0"/>
</radialGradient>
<radialGradient id="paint5_radial_6806_5229" cx="0" cy="0" r="1" gradientUnits="userSpaceOnUse" gradientTransform="translate(20.8562 18) rotate(9.86581) scale(11.6726)">
<stop stop-color="#FFA64B"/>
<stop offset="0.900412" stop-color="#FFAE46" stop-opacity="0"/>
</radialGradient>
<radialGradient id="paint6_radial_6806_5229" cx="0" cy="0" r="1" gradientUnits="userSpaceOnUse" gradientTransform="translate(17.8562 15) rotate(43.9708) scale(59.0529)">
<stop offset="0.185425" stop-opacity="0"/>
<stop offset="1" stop-opacity="0.4"/>
</radialGradient>
<radialGradient id="paint7_radial_6806_5229" cx="0" cy="0" r="1" gradientUnits="userSpaceOnUse" gradientTransform="translate(23.7399 11.4465) rotate(39.8978) scale(1.64251 1.00535)">
<stop stop-color="#D27C1D"/>
<stop offset="1" stop-color="#CB7620" stop-opacity="0"/>
</radialGradient>
<radialGradient id="paint8_radial_6806_5229" cx="0" cy="0" r="1" gradientUnits="userSpaceOnUse" gradientTransform="translate(22.3029 9.68176) rotate(33.6901) scale(2.54509 1.14957)">
<stop stop-color="#D28118"/>
<stop offset="1" stop-color="#D68623" stop-opacity="0"/>
</radialGradient>
<radialGradient id="paint9_radial_6806_5229" cx="0" cy="0" r="1" gradientUnits="userSpaceOnUse" gradientTransform="translate(12.4245 10.8038) rotate(29.6831) scale(1.99945 1.6228)">
<stop stop-color="#BE7227"/>
<stop offset="1" stop-color="#C67A2A" stop-opacity="0"/>
</radialGradient>
<radialGradient id="paint10_radial_6806_5229" cx="0" cy="0" r="1" gradientUnits="userSpaceOnUse" gradientTransform="translate(10.8611 11.0644) rotate(4.8884) scale(2.65 1.95783)">
<stop stop-color="#D07E2D"/>
<stop offset="1" stop-color="#D98833" stop-opacity="0"/>
</radialGradient>
<radialGradient id="paint11_radial_6806_5229" cx="0" cy="0" r="1" gradientUnits="userSpaceOnUse" gradientTransform="translate(7.63014 12.2977) rotate(-30.75) scale(1.59679 1.29237)">
<stop stop-color="#DA8924"/>
<stop offset="1" stop-color="#DC8924" stop-opacity="0"/>
</radialGradient>
<radialGradient id="paint12_radial_6806_5229" cx="0" cy="0" r="1" gradientUnits="userSpaceOnUse" gradientTransform="translate(12.5 11.5) rotate(23.8682) scale(1.83358 1.15663)">
<stop stop-color="#D59A13"/>
<stop offset="1" stop-color="#D59A13" stop-opacity="0"/>
</radialGradient>
<radialGradient id="paint13_radial_6806_5229" cx="0" cy="0" r="1" gradientUnits="userSpaceOnUse" gradientTransform="translate(9.65853 13.0752) rotate(-10.3912) scale(7.07095 5.21865)">
<stop stop-color="#F1A227"/>
<stop offset="1" stop-color="#F5A72C" stop-opacity="0"/>
</radialGradient>
<radialGradient id="paint14_radial_6806_5229" cx="0" cy="0" r="1" gradientUnits="userSpaceOnUse" gradientTransform="translate(19.0765 10.7849) rotate(132.51) scale(1.77592)">
<stop stop-color="#E8942F"/>
<stop offset="1" stop-color="#FAAB4B" stop-opacity="0"/>
</radialGradient>
<radialGradient id="paint15_radial_6806_5229" cx="0" cy="0" r="1" gradientUnits="userSpaceOnUse" gradientTransform="translate(19.4913 27.8275) rotate(39.9448) scale(6.5029)">
<stop stop-color="#F47360"/>
<stop offset="1" stop-color="#F47360" stop-opacity="0"/>
</radialGradient>
<radialGradient id="paint16_radial_6806_5229" cx="0" cy="0" r="1" gradientUnits="userSpaceOnUse" gradientTransform="translate(12.4538 26.9194) rotate(119.445) scale(5.38758)">
<stop stop-color="#F47360"/>
<stop offset="1" stop-color="#F47360" stop-opacity="0"/>
</radialGradient>
<radialGradient id="paint17_radial_6806_5229" cx="0" cy="0" r="1" gradientUnits="userSpaceOnUse" gradientTransform="translate(26.6946 21.3495) rotate(128.804) scale(6.90289)">
<stop stop-color="#FF6501"/>
<stop offset="1" stop-color="#F9883A" stop-opacity="0"/>
</radialGradient>
<radialGradient id="paint18_radial_6806_5229" cx="0" cy="0" r="1" gradientUnits="userSpaceOnUse" gradientTransform="translate(4.12997 21.7738) rotate(48.0848) scale(8.94878)">
<stop stop-color="#BC6526"/>
<stop offset="1" stop-color="#CF7432" stop-opacity="0"/>
</radialGradient>
<radialGradient id="paint19_radial_6806_5229" cx="0" cy="0" r="1" gradientUnits="userSpaceOnUse" gradientTransform="translate(10.9835 25.8271) rotate(-19.4401) scale(2.73933 4.21068)">
<stop offset="0.31649" stop-color="#F16E5C"/>
<stop offset="1" stop-color="#BC642E" stop-opacity="0"/>
</radialGradient>
<radialGradient id="paint20_radial_6806_5229" cx="0" cy="0" r="1" gradientUnits="userSpaceOnUse" gradientTransform="translate(10.345 21.7243) rotate(69.7435) scale(3.22667 1.80109)">
<stop offset="0.297036" stop-color="#BC642E"/>
<stop offset="1" stop-color="#BC642E" stop-opacity="0"/>
</radialGradient>
<radialGradient id="paint21_radial_6806_5229" cx="0" cy="0" r="1" gradientUnits="userSpaceOnUse" gradientTransform="translate(10.979 22.9636) rotate(66.8014) scale(3.76861 1.30642)">
<stop offset="0.297036" stop-color="#8C4A23"/>
<stop offset="1" stop-color="#BC642E" stop-opacity="0"/>
</radialGradient>
<radialGradient id="paint22_radial_6806_5229" cx="0" cy="0" r="1" gradientUnits="userSpaceOnUse" gradientTransform="translate(7.8283 20.9653) rotate(41.9059) scale(3.60825 0.774923)">
<stop offset="0.297036" stop-color="#8C4A23"/>
<stop offset="1" stop-color="#BC642E" stop-opacity="0"/>
</radialGradient>
<radialGradient id="paint23_radial_6806_5229" cx="0" cy="0" r="1" gradientUnits="userSpaceOnUse" gradientTransform="translate(6.41192 21.9718) rotate(30.5925) scale(6.5785 3.54414)">
<stop offset="0.297036" stop-color="#BC5614"/>
<stop offset="1" stop-color="#BC642E" stop-opacity="0"/>
</radialGradient>
<radialGradient id="paint24_radial_6806_5229" cx="0" cy="0" r="1" gradientUnits="userSpaceOnUse" gradientTransform="translate(21.4576 25.675) rotate(102.721) scale(4.43156 3.68319)">
<stop offset="0.0677083" stop-color="#7E281F"/>
<stop offset="1" stop-color="#E96C5E" stop-opacity="0"/>
</radialGradient>
<radialGradient id="paint25_radial_6806_5229" cx="0" cy="0" r="1" gradientUnits="userSpaceOnUse" gradientTransform="translate(21.2734 24.8844) rotate(108.159) scale(3.72696 1.92636)">
<stop offset="0.0677083" stop-color="#B84D2D"/>
<stop offset="0.598958" stop-color="#D5613F"/>
<stop offset="1" stop-color="#D4613F" stop-opacity="0"/>
</radialGradient>
<radialGradient id="paint26_radial_6806_5229" cx="0" cy="0" r="1" gradientUnits="userSpaceOnUse" gradientTransform="translate(21.8263 22.9999) rotate(92.4003) scale(4.4098 2.5445)">
<stop offset="0.0677083" stop-color="#B85B2C"/>
<stop offset="1" stop-color="#B85B2C" stop-opacity="0"/>
</radialGradient>
<radialGradient id="paint27_radial_6806_5229" cx="0" cy="0" r="1" gradientUnits="userSpaceOnUse" gradientTransform="translate(22.0473 23.2838) rotate(95.6196) scale(4.14196 1.58027)">
<stop offset="0.666667" stop-color="#BB5029"/>
<stop offset="1" stop-color="#D4613F" stop-opacity="0"/>
</radialGradient>
<radialGradient id="paint28_radial_6806_5229" cx="0" cy="0" r="1" gradientUnits="userSpaceOnUse" gradientTransform="translate(24.7893 22.6645) rotate(113.318) scale(4.03041 2.32559)">
<stop offset="0.0677083" stop-color="#B85B2C"/>
<stop offset="1" stop-color="#B85B2C" stop-opacity="0"/>
</radialGradient>
<radialGradient id="paint29_radial_6806_5229" cx="0" cy="0" r="1" gradientUnits="userSpaceOnUse" gradientTransform="translate(24.3426 23.1112) rotate(122.242) scale(4.90415 2.12955)">
<stop offset="0.666667" stop-color="#BB5029"/>
<stop offset="1" stop-color="#D4613F" stop-opacity="0"/>
</radialGradient>
<radialGradient id="paint30_radial_6806_5229" cx="0" cy="0" r="1" gradientUnits="userSpaceOnUse" gradientTransform="translate(7.28687 14.4406) rotate(22.1688) scale(4.12966 4.29044)">
<stop stop-color="#F97660"/>
<stop offset="1" stop-color="#F97660" stop-opacity="0"/>
</radialGradient>
<radialGradient id="paint31_radial_6806_5229" cx="0" cy="0" r="1" gradientUnits="userSpaceOnUse" gradientTransform="translate(26.3417 15.1116) rotate(173.658) scale(8.03339)">
<stop stop-color="#FE9671"/>
<stop offset="1" stop-color="#FFD15A" stop-opacity="0"/>
</radialGradient>
<radialGradient id="paint32_radial_6806_5229" cx="0" cy="0" r="1" gradientUnits="userSpaceOnUse" gradientTransform="translate(16.3562 12.6) rotate(90) scale(7.2 7.87189)">
<stop offset="0.517632" stop-color="#4E2553"/>
<stop offset="0.702876" stop-color="#5B4852"/>
<stop offset="1" stop-color="#4E2553"/>
<stop offset="1" stop-color="#4E2553"/>
</radialGradient>
<radialGradient id="paint33_radial_6806_5229" cx="0" cy="0" r="1" gradientUnits="userSpaceOnUse" gradientTransform="translate(10.8561 11.2268) rotate(90) scale(2.78818)">
<stop offset="0.188596" stop-color="#1D1019"/>
<stop offset="1" stop-color="#462B3F" stop-opacity="0"/>
</radialGradient>
<radialGradient id="paint34_radial_6806_5229" cx="0" cy="0" r="1" gradientUnits="userSpaceOnUse" gradientTransform="translate(10.8561 11.2268) rotate(90) scale(3.60751 4.0944)">
<stop offset="0.718644" stop-color="#462B3F" stop-opacity="0"/>
<stop offset="1" stop-color="#1D1019"/>
</radialGradient>
<radialGradient id="paint35_radial_6806_5229" cx="0" cy="0" r="1" gradientUnits="userSpaceOnUse" gradientTransform="translate(10.8561 9.37366) rotate(90) scale(3.3125 6.95835)">
<stop offset="0.429103" stop-color="#462B3F" stop-opacity="0"/>
<stop offset="1" stop-color="#1D1019"/>
</radialGradient>
<radialGradient id="paint36_radial_6806_5229" cx="0" cy="0" r="1" gradientUnits="userSpaceOnUse" gradientTransform="translate(21.8561 11.2268) rotate(90) scale(2.78818)">
<stop offset="0.188596" stop-color="#1D1019"/>
<stop offset="1" stop-color="#462B3F" stop-opacity="0"/>
</radialGradient>
<radialGradient id="paint37_radial_6806_5229" cx="0" cy="0" r="1" gradientUnits="userSpaceOnUse" gradientTransform="translate(21.8561 11.2268) rotate(90) scale(3.60751 4.0944)">
<stop offset="0.718644" stop-color="#462B3F" stop-opacity="0"/>
<stop offset="1" stop-color="#1D1019"/>
</radialGradient>
<radialGradient id="paint38_radial_6806_5229" cx="0" cy="0" r="1" gradientUnits="userSpaceOnUse" gradientTransform="translate(21.8561 9.37366) rotate(90) scale(3.3125 6.95835)">
<stop offset="0.429103" stop-color="#462B3F" stop-opacity="0"/>
<stop offset="1" stop-color="#1D1019"/>
</radialGradient>
<radialGradient id="paint39_radial_6806_5229" cx="0" cy="0" r="1" gradientUnits="userSpaceOnUse" gradientTransform="translate(11.1966 19.4627) rotate(117.586) scale(18.8239 18.7674)">
<stop offset="0.239583" stop-color="#FFCC42"/>
<stop offset="0.562377" stop-color="#FFB02E"/>
<stop offset="1" stop-color="#F70A8D"/>
</radialGradient>
<radialGradient id="paint40_radial_6806_5229" cx="0" cy="0" r="1" gradientUnits="userSpaceOnUse" gradientTransform="translate(10.7264 20.0793) rotate(124.346) scale(11.8919 16.0702)">
<stop offset="0.65203" stop-color="#FFB745" stop-opacity="0"/>
<stop offset="0.855204" stop-color="#F69044"/>
<stop offset="0.930316" stop-color="#DE6A63"/>
</radialGradient>
<radialGradient id="paint41_radial_6806_5229" cx="0" cy="0" r="1" gradientUnits="userSpaceOnUse" gradientTransform="translate(8.93948 20.8905) rotate(70.4012) scale(2.72187 1.43772)">
<stop stop-color="#EE982C"/>
<stop offset="1" stop-color="#EEA02C" stop-opacity="0"/>
</radialGradient>
<radialGradient id="paint42_radial_6806_5229" cx="0" cy="0" r="1" gradientUnits="userSpaceOnUse" gradientTransform="translate(8.66686 19.6093) rotate(47.2906) scale(1.42034)">
<stop stop-color="#DA8C2B"/>
<stop offset="1" stop-color="#EEA02C" stop-opacity="0"/>
</radialGradient>
<radialGradient id="paint43_radial_6806_5229" cx="0" cy="0" r="1" gradientUnits="userSpaceOnUse" gradientTransform="translate(13.0437 25.1294) rotate(90) scale(4.15349 1.87648)">
<stop stop-color="#FFDA3C"/>
<stop offset="1" stop-color="#FFDA3C" stop-opacity="0"/>
</radialGradient>
<radialGradient id="paint44_radial_6806_5229" cx="0" cy="0" r="1" gradientUnits="userSpaceOnUse" gradientTransform="translate(11.5249 22.6761) rotate(75.3188) scale(3.66571 1.4726)">
<stop stop-color="#FFD743"/>
<stop offset="1" stop-color="#FFD743" stop-opacity="0"/>
</radialGradient>
<radialGradient id="paint45_radial_6806_5229" cx="0" cy="0" r="1" gradientUnits="userSpaceOnUse" gradientTransform="translate(3.75812 26.2173) rotate(34.5027) scale(2.37664 0.679176)">
<stop stop-color="#FFCE43"/>
<stop offset="1" stop-color="#FFCE43" stop-opacity="0"/>
</radialGradient>
<radialGradient id="paint46_radial_6806_5229" cx="0" cy="0" r="1" gradientUnits="userSpaceOnUse" gradientTransform="translate(2.94819 24.3459) rotate(38.4319) scale(3.57622 0.885708)">
<stop offset="0.385833" stop-color="#83480A"/>
<stop offset="0.609375" stop-color="#CD7313"/>
<stop offset="1" stop-color="#FA9428" stop-opacity="0"/>
</radialGradient>
<radialGradient id="paint47_radial_6806_5229" cx="0" cy="0" r="1" gradientUnits="userSpaceOnUse" gradientTransform="translate(3.98515 23.4176) rotate(-143.922) scale(3.30287 0.671416)">
<stop stop-color="#A03B04"/>
<stop offset="1" stop-color="#FA9428" stop-opacity="0"/>
</radialGradient>
<radialGradient id="paint48_radial_6806_5229" cx="0" cy="0" r="1" gradientUnits="userSpaceOnUse" gradientTransform="translate(3.38543 24.0573) rotate(37.6781) scale(2.26508 0.594326)">
<stop stop-color="#FFCE43"/>
<stop offset="1" stop-color="#FFCE43" stop-opacity="0"/>
</radialGradient>
<radialGradient id="paint49_radial_6806_5229" cx="0" cy="0" r="1" gradientUnits="userSpaceOnUse" gradientTransform="translate(5.78051 21.8182) rotate(-140.646) scale(3.78293 1.221)">
<stop stop-color="#A03B04"/>
<stop offset="1" stop-color="#FA9428" stop-opacity="0"/>
</radialGradient>
<radialGradient id="paint50_radial_6806_5229" cx="0" cy="0" r="1" gradientUnits="userSpaceOnUse" gradientTransform="translate(4.84122 22.3475) rotate(40.8979) scale(2.956 0.732864)">
<stop stop-color="#FFDB3F"/>
<stop offset="1" stop-color="#FFDB3F" stop-opacity="0"/>
</radialGradient>
<linearGradient id="paint51_linear_6806_5229" x1="2.80484" y1="23.7402" x2="3.90708" y2="22.5254" gradientUnits="userSpaceOnUse">
<stop stop-color="#CD7313"/>
<stop offset="1" stop-color="#FA9428" stop-opacity="0"/>
</linearGradient>
<radialGradient id="paint52_radial_6806_5229" cx="0" cy="0" r="1" gradientUnits="userSpaceOnUse" gradientTransform="translate(6.90643 20.8711) rotate(39.4968) scale(3.34101 0.498932)">
<stop stop-color="#FFF478" stop-opacity="0.3"/>
<stop offset="1" stop-color="#FFF478" stop-opacity="0"/>
</radialGradient>
<radialGradient id="paint53_radial_6806_5229" cx="0" cy="0" r="1" gradientUnits="userSpaceOnUse" gradientTransform="translate(9.33091 20.1176) rotate(146.31) scale(2.07115 4.04139)">
<stop offset="0.532661" stop-color="#83480A"/>
<stop offset="1" stop-color="#FA9428" stop-opacity="0"/>
</radialGradient>
<linearGradient id="paint54_linear_6806_5229" x1="4.48284" y1="21.8099" x2="5.90427" y2="20.8236" gradientUnits="userSpaceOnUse">
<stop offset="0.173754" stop-color="#CD7313"/>
<stop offset="1" stop-color="#FA9428" stop-opacity="0"/>
</linearGradient>
<radialGradient id="paint55_radial_6806_5229" cx="0" cy="0" r="1" gradientUnits="userSpaceOnUse" gradientTransform="translate(33.0957 18.3637) rotate(137.605) scale(27.83 27.7466)">
<stop offset="0.239583" stop-color="#FEB63A"/>
<stop offset="0.537866" stop-color="#FFB02E"/>
<stop offset="1" stop-color="#F70A8D"/>
</radialGradient>
<radialGradient id="paint56_radial_6806_5229" cx="0" cy="0" r="1" gradientUnits="userSpaceOnUse" gradientTransform="translate(20.8672 29.6621) rotate(141.815) scale(12.8007 12.9015)">
<stop offset="0.239583" stop-color="#FFB52F" stop-opacity="0"/>
<stop offset="0.526687" stop-color="#FFD142"/>
<stop offset="0.584428" stop-color="#FFD142"/>
<stop offset="1" stop-color="#FFBB30" stop-opacity="0"/>
</radialGradient>
<radialGradient id="paint57_radial_6806_5229" cx="0" cy="0" r="1" gradientUnits="userSpaceOnUse" gradientTransform="translate(22.1795 22.7794) rotate(68.724) scale(2.67381 2.60964)">
<stop stop-color="#FEB32F"/>
<stop offset="1" stop-color="#FEB32F" stop-opacity="0"/>
</radialGradient>
<radialGradient id="paint58_radial_6806_5229" cx="0" cy="0" r="1" gradientUnits="userSpaceOnUse" gradientTransform="translate(25.645 23.5663) rotate(130.097) scale(2.43357 0.970119)">
<stop stop-color="#FFBB33"/>
<stop offset="1" stop-color="#FFBB33" stop-opacity="0"/>
</radialGradient>
<radialGradient id="paint59_radial_6806_5229" cx="0" cy="0" r="1" gradientUnits="userSpaceOnUse" gradientTransform="translate(27.0809 25.2671) rotate(136.035) scale(2.3164 0.831851)">
<stop stop-color="#FFBB33"/>
<stop offset="1" stop-color="#FFBB33" stop-opacity="0"/>
</radialGradient>
<linearGradient id="paint60_linear_6806_5229" x1="19.9713" y1="22.2636" x2="22.4593" y2="22.9101" gradientUnits="userSpaceOnUse">
<stop stop-color="#D28B23"/>
<stop offset="1" stop-color="#D28B23" stop-opacity="0"/>
</linearGradient>
<linearGradient id="paint61_linear_6806_5229" x1="16.4689" y1="20.865" x2="20.3548" y2="20.0806" gradientUnits="userSpaceOnUse">
<stop offset="0.328125" stop-color="#EE891E"/>
<stop offset="0.864583" stop-color="#FA9428" stop-opacity="0"/>
</linearGradient>
<linearGradient id="paint62_linear_6806_5229" x1="27.2252" y1="27.186" x2="28.4922" y2="28.8071" gradientUnits="userSpaceOnUse">
<stop stop-color="#FFBF45" stop-opacity="0"/>
<stop offset="1" stop-color="#FFAF4A"/>
</linearGradient>
<radialGradient id="paint63_radial_6806_5229" cx="0" cy="0" r="1" gradientUnits="userSpaceOnUse" gradientTransform="translate(25.9498 23.7934) rotate(96.2892) scale(7.95406 8.03815)">
<stop offset="0.65203" stop-color="#FFB745" stop-opacity="0"/>
<stop offset="0.892907" stop-color="#F69044"/>
<stop offset="1" stop-color="#DE6A63"/>
</radialGradient>
<radialGradient id="paint64_radial_6806_5229" cx="0" cy="0" r="1" gradientUnits="userSpaceOnUse" gradientTransform="translate(23.2818 21.1268) rotate(104.916) scale(1.9336 0.793947)">
<stop stop-color="#FFD445"/>
<stop offset="1" stop-color="#FFD345" stop-opacity="0"/>
</radialGradient>
<radialGradient id="paint65_radial_6806_5229" cx="0" cy="0" r="1" gradientUnits="userSpaceOnUse" gradientTransform="translate(27.7684 19.9156) rotate(70.7505) scale(1.1672 0.83586)">
<stop stop-color="#FFDA43"/>
<stop offset="1" stop-color="#FFDA43" stop-opacity="0"/>
</radialGradient>
<radialGradient id="paint66_radial_6806_5229" cx="0" cy="0" r="1" gradientUnits="userSpaceOnUse" gradientTransform="translate(30.0235 20.9467) rotate(71.6912) scale(1.46263 1.04676)">
<stop stop-color="#FFDA43"/>
<stop offset="1" stop-color="#FFDA43" stop-opacity="0"/>
</radialGradient>
<radialGradient id="paint67_radial_6806_5229" cx="0" cy="0" r="1" gradientUnits="userSpaceOnUse" gradientTransform="translate(23.4753 20.133) rotate(78.4422) scale(1.60738 1.16265)">
<stop offset="0.328125" stop-color="#FFDA43"/>
<stop offset="0.723958" stop-color="#FFDA43" stop-opacity="0"/>
</radialGradient>
<radialGradient id="paint68_radial_6806_5229" cx="0" cy="0" r="1" gradientUnits="userSpaceOnUse" gradientTransform="translate(23.74 21.6815) rotate(135.736) scale(1.31377 0.207065)">
<stop stop-color="#B9671B"/>
<stop offset="0.849337" stop-color="#B9671B" stop-opacity="0"/>
</radialGradient>
<radialGradient id="paint69_radial_6806_5229" cx="0" cy="0" r="1" gradientUnits="userSpaceOnUse" gradientTransform="translate(29.0466 25.3355) rotate(-32.8914) scale(2.86777 1.12511)">
<stop stop-color="#A03B04"/>
<stop offset="1" stop-color="#FA9428" stop-opacity="0"/>
</radialGradient>
<radialGradient id="paint70_radial_6806_5229" cx="0" cy="0" r="1" gradientUnits="userSpaceOnUse" gradientTransform="translate(30.7574 25.6796) rotate(81.28) scale(0.802051 0.478022)">
<stop stop-color="#FFD943"/>
<stop offset="1" stop-color="#FFD943" stop-opacity="0"/>
</radialGradient>
<radialGradient id="paint71_radial_6806_5229" cx="0" cy="0" r="1" gradientUnits="userSpaceOnUse" gradientTransform="translate(28.852 23.4157) rotate(-41.1733) scale(3.45928 0.829501)">
<stop stop-color="#A03B04"/>
<stop offset="1" stop-color="#FA9428" stop-opacity="0"/>
</radialGradient>
<linearGradient id="paint72_linear_6806_5229" x1="30.5356" y1="25.1811" x2="29.6751" y2="24.3084" gradientUnits="userSpaceOnUse">
<stop stop-color="#CD7313"/>
<stop offset="1" stop-color="#FA9428" stop-opacity="0"/>
</linearGradient>
<radialGradient id="paint73_radial_6806_5229" cx="0" cy="0" r="1" gradientUnits="userSpaceOnUse" gradientTransform="translate(30.7651 23.1786) rotate(70.7423) scale(0.890778 0.696438)">
<stop stop-color="#FFDB3F"/>
<stop offset="1" stop-color="#FFDB3F" stop-opacity="0"/>
</radialGradient>
<radialGradient id="paint74_radial_6806_5229" cx="0" cy="0" r="1" gradientUnits="userSpaceOnUse" gradientTransform="translate(26.809 22.023) rotate(-39.7323) scale(4.16639 0.891963)">
<stop stop-color="#A03B04"/>
<stop offset="1" stop-color="#FA9428" stop-opacity="0"/>
</radialGradient>
<radialGradient id="paint75_radial_6806_5229" cx="0" cy="0" r="1" gradientUnits="userSpaceOnUse" gradientTransform="translate(30.2612 20.9061) rotate(65.9778) scale(0.837828 0.46594)">
<stop stop-color="#FFDB3F"/>
<stop offset="1" stop-color="#FFDB3F" stop-opacity="0"/>
</radialGradient>
<linearGradient id="paint76_linear_6806_5229" x1="29.959" y1="23.781" x2="28.8409" y2="22.6058" gradientUnits="userSpaceOnUse">
<stop stop-color="#CD7313"/>
<stop offset="1" stop-color="#FA9428" stop-opacity="0"/>
</linearGradient>
<radialGradient id="paint77_radial_6806_5229" cx="0" cy="0" r="1" gradientUnits="userSpaceOnUse" gradientTransform="translate(24.6147 19.7176) rotate(51.5132) scale(1.72924 3.66096)">
<stop offset="0.545035" stop-color="#E1A21C"/>
<stop offset="1" stop-color="#FA9428" stop-opacity="0"/>
</radialGradient>
<linearGradient id="paint78_linear_6806_5229" x1="27.3761" y1="22.659" x2="26.3803" y2="21.8577" gradientUnits="userSpaceOnUse">
<stop stop-color="#CD7313"/>
<stop offset="1" stop-color="#FA9428" stop-opacity="0"/>
</linearGradient>
<radialGradient id="paint79_radial_6806_5229" cx="0" cy="0" r="1" gradientUnits="userSpaceOnUse" gradientTransform="translate(27.8793 19.8284) rotate(72.8947) scale(0.918982 0.475485)">
<stop stop-color="#FFDB3F"/>
<stop offset="1" stop-color="#FFDB3F" stop-opacity="0"/>
</radialGradient>
</defs>
</svg>
