<svg width="32" height="32" viewBox="0 0 32 32" fill="none" xmlns="http://www.w3.org/2000/svg">
<path d="M9.08139 10.7749V8.99414L3.88208 8.99414C3.74401 8.99414 3.63208 9.10607 3.63208 9.24414L3.63208 9.27487C3.63208 10.1033 4.30365 10.7749 5.13208 10.7749H9.08139Z" fill="#CBC8C7"/>
<path d="M9.08139 10.7749V8.99414L3.88208 8.99414C3.74401 8.99414 3.63208 9.10607 3.63208 9.24414L3.63208 9.27487C3.63208 10.1033 4.30365 10.7749 5.13208 10.7749H9.08139Z" fill="url(#paint0_linear_18_21522)"/>
<path d="M9.08139 10.7749V8.99414L3.88208 8.99414C3.74401 8.99414 3.63208 9.10607 3.63208 9.24414L3.63208 9.27487C3.63208 10.1033 4.30365 10.7749 5.13208 10.7749H9.08139Z" fill="url(#paint1_radial_18_21522)"/>
<path d="M9.08147 12.5355V10.7749L5.26123 10.7749C5.12316 10.7749 5.01123 10.8856 5.01123 11.0221L5.01123 11.0525C5.01123 11.8715 5.6828 12.5355 6.51123 12.5355H9.08147Z" fill="#CBC8C7"/>
<path d="M9.08147 12.5355V10.7749L5.26123 10.7749C5.12316 10.7749 5.01123 10.8856 5.01123 11.0221L5.01123 11.0525C5.01123 11.8715 5.6828 12.5355 6.51123 12.5355H9.08147Z" fill="url(#paint2_linear_18_21522)"/>
<path d="M9.08147 12.5355V10.7749L5.26123 10.7749C5.12316 10.7749 5.01123 10.8856 5.01123 11.0221L5.01123 11.0525C5.01123 11.8715 5.6828 12.5355 6.51123 12.5355H9.08147Z" fill="url(#paint3_radial_18_21522)"/>
<path d="M2.58325 7.23352C2.44519 7.23352 2.33325 7.34546 2.33325 7.48352V7.51425C2.33325 8.34268 3.00482 9.01425 3.83325 9.01425H8.13235C8.35326 9.01425 8.53235 9.19334 8.53235 9.41425V12.0356C8.53235 12.3117 8.75623 12.5356 9.03235 12.5356H11.1165C12.5805 12.5356 13.7675 11.3487 13.7675 9.88455C13.7675 8.42044 12.5806 7.23355 11.1165 7.23355L2.58325 7.23352Z" fill="#D6D2D1"/>
<path d="M2.58325 7.23352C2.44519 7.23352 2.33325 7.34546 2.33325 7.48352V7.51425C2.33325 8.34268 3.00482 9.01425 3.83325 9.01425H8.13235C8.35326 9.01425 8.53235 9.19334 8.53235 9.41425V12.0356C8.53235 12.3117 8.75623 12.5356 9.03235 12.5356H11.1165C12.5805 12.5356 13.7675 11.3487 13.7675 9.88455C13.7675 8.42044 12.5806 7.23355 11.1165 7.23355L2.58325 7.23352Z" fill="url(#paint4_radial_18_21522)"/>
<path d="M2.58325 7.23352C2.44519 7.23352 2.33325 7.34546 2.33325 7.48352V7.51425C2.33325 8.34268 3.00482 9.01425 3.83325 9.01425H8.13235C8.35326 9.01425 8.53235 9.19334 8.53235 9.41425V12.0356C8.53235 12.3117 8.75623 12.5356 9.03235 12.5356H11.1165C12.5805 12.5356 13.7675 11.3487 13.7675 9.88455C13.7675 8.42044 12.5806 7.23355 11.1165 7.23355L2.58325 7.23352Z" fill="url(#paint5_radial_18_21522)"/>
<path d="M2.58325 7.23352C2.44519 7.23352 2.33325 7.34546 2.33325 7.48352V7.51425C2.33325 8.34268 3.00482 9.01425 3.83325 9.01425H8.13235C8.35326 9.01425 8.53235 9.19334 8.53235 9.41425V12.0356C8.53235 12.3117 8.75623 12.5356 9.03235 12.5356H11.1165C12.5805 12.5356 13.7675 11.3487 13.7675 9.88455C13.7675 8.42044 12.5806 7.23355 11.1165 7.23355L2.58325 7.23352Z" fill="url(#paint6_radial_18_21522)" fill-opacity="0.3"/>
<path d="M2.58325 7.23352C2.44519 7.23352 2.33325 7.34546 2.33325 7.48352V7.51425C2.33325 8.34268 3.00482 9.01425 3.83325 9.01425H8.13235C8.35326 9.01425 8.53235 9.19334 8.53235 9.41425V12.0356C8.53235 12.3117 8.75623 12.5356 9.03235 12.5356H11.1165C12.5805 12.5356 13.7675 11.3487 13.7675 9.88455C13.7675 8.42044 12.5806 7.23355 11.1165 7.23355L2.58325 7.23352Z" fill="url(#paint7_radial_18_21522)"/>
<path d="M2.58325 7.23352C2.44519 7.23352 2.33325 7.34546 2.33325 7.48352V7.51425C2.33325 8.34268 3.00482 9.01425 3.83325 9.01425H8.13235C8.35326 9.01425 8.53235 9.19334 8.53235 9.41425V12.0356C8.53235 12.3117 8.75623 12.5356 9.03235 12.5356H11.1165C12.5805 12.5356 13.7675 11.3487 13.7675 9.88455C13.7675 8.42044 12.5806 7.23355 11.1165 7.23355L2.58325 7.23352Z" fill="url(#paint8_radial_18_21522)"/>
<path d="M2.58325 7.23352C2.44519 7.23352 2.33325 7.34546 2.33325 7.48352V7.51425C2.33325 8.34268 3.00482 9.01425 3.83325 9.01425H8.13235C8.35326 9.01425 8.53235 9.19334 8.53235 9.41425V12.0356C8.53235 12.3117 8.75623 12.5356 9.03235 12.5356H11.1165C12.5805 12.5356 13.7675 11.3487 13.7675 9.88455C13.7675 8.42044 12.5806 7.23355 11.1165 7.23355L2.58325 7.23352Z" fill="url(#paint9_radial_18_21522)"/>
<rect x="4.73364" y="18.6069" width="21.4702" height="14.0966" rx="2.2" transform="rotate(-45 4.73364 18.6069)" fill="url(#paint10_linear_18_21522)"/>
<rect x="4.73364" y="18.6069" width="21.4702" height="14.0966" rx="2.2" transform="rotate(-45 4.73364 18.6069)" fill="url(#paint11_linear_18_21522)"/>
<rect x="4.73364" y="18.6069" width="21.4702" height="14.0966" rx="2.2" transform="rotate(-45 4.73364 18.6069)" fill="url(#paint12_linear_18_21522)"/>
<rect x="4.73364" y="18.6069" width="21.4702" height="14.0966" rx="2.2" transform="rotate(-45 4.73364 18.6069)" fill="url(#paint13_radial_18_21522)"/>
<rect x="4.73364" y="18.6069" width="21.4702" height="14.0966" rx="2.2" transform="rotate(-45 4.73364 18.6069)" fill="url(#paint14_radial_18_21522)"/>
<rect x="2.77417" y="16.6475" width="21.4702" height="14.0966" rx="2.2" transform="rotate(-45 2.77417 16.6475)" fill="url(#paint15_radial_18_21522)"/>
<rect x="2.77417" y="16.6475" width="21.4702" height="14.0966" rx="2.2" transform="rotate(-45 2.77417 16.6475)" fill="url(#paint16_linear_18_21522)"/>
<path fill-rule="evenodd" clip-rule="evenodd" d="M17.5555 4.18349L5.49194 16.2471C5.26609 16.4729 5.26609 16.8391 5.49194 17.0649L12.3246 23.8976C12.5504 24.1234 12.9166 24.1234 13.1424 23.8976L25.206 11.834C25.4319 11.6081 25.4319 11.242 25.206 11.0161L18.3734 4.18349C18.1475 3.95764 17.7814 3.95764 17.5555 4.18349ZM5.08301 15.8381C4.63131 16.2898 4.63131 17.0222 5.08301 17.4739L11.9156 24.3065C12.3673 24.7582 13.0997 24.7582 13.5514 24.3065L25.6149 12.2429C26.0666 11.7912 26.0666 11.0589 25.6149 10.6072L18.7823 3.77455C18.3306 3.32286 17.5983 3.32286 17.1466 3.77455L5.08301 15.8381Z" fill="url(#paint17_linear_18_21522)"/>
<path fill-rule="evenodd" clip-rule="evenodd" d="M17.5555 4.18349L5.49194 16.2471C5.26609 16.4729 5.26609 16.8391 5.49194 17.0649L12.3246 23.8976C12.5504 24.1234 12.9166 24.1234 13.1424 23.8976L25.206 11.834C25.4319 11.6081 25.4319 11.242 25.206 11.0161L18.3734 4.18349C18.1475 3.95764 17.7814 3.95764 17.5555 4.18349ZM5.08301 15.8381C4.63131 16.2898 4.63131 17.0222 5.08301 17.4739L11.9156 24.3065C12.3673 24.7582 13.0997 24.7582 13.5514 24.3065L25.6149 12.2429C26.0666 11.7912 26.0666 11.0589 25.6149 10.6072L18.7823 3.77455C18.3306 3.32286 17.5983 3.32286 17.1466 3.77455L5.08301 15.8381Z" fill="url(#paint18_linear_18_21522)"/>
<path fill-rule="evenodd" clip-rule="evenodd" d="M17.5555 4.18349L5.49194 16.2471C5.26609 16.4729 5.26609 16.8391 5.49194 17.0649L12.3246 23.8976C12.5504 24.1234 12.9166 24.1234 13.1424 23.8976L25.206 11.834C25.4319 11.6081 25.4319 11.242 25.206 11.0161L18.3734 4.18349C18.1475 3.95764 17.7814 3.95764 17.5555 4.18349ZM5.08301 15.8381C4.63131 16.2898 4.63131 17.0222 5.08301 17.4739L11.9156 24.3065C12.3673 24.7582 13.0997 24.7582 13.5514 24.3065L25.6149 12.2429C26.0666 11.7912 26.0666 11.0589 25.6149 10.6072L18.7823 3.77455C18.3306 3.32286 17.5983 3.32286 17.1466 3.77455L5.08301 15.8381Z" fill="url(#paint19_linear_18_21522)"/>
<path fill-rule="evenodd" clip-rule="evenodd" d="M17.5555 4.18349L5.49194 16.2471C5.26609 16.4729 5.26609 16.8391 5.49194 17.0649L12.3246 23.8976C12.5504 24.1234 12.9166 24.1234 13.1424 23.8976L25.206 11.834C25.4319 11.6081 25.4319 11.242 25.206 11.0161L18.3734 4.18349C18.1475 3.95764 17.7814 3.95764 17.5555 4.18349ZM5.08301 15.8381C4.63131 16.2898 4.63131 17.0222 5.08301 17.4739L11.9156 24.3065C12.3673 24.7582 13.0997 24.7582 13.5514 24.3065L25.6149 12.2429C26.0666 11.7912 26.0666 11.0589 25.6149 10.6072L18.7823 3.77455C18.3306 3.32286 17.5983 3.32286 17.1466 3.77455L5.08301 15.8381Z" fill="url(#paint20_linear_18_21522)"/>
<path fill-rule="evenodd" clip-rule="evenodd" d="M17.5555 4.18349L5.49194 16.2471C5.26609 16.4729 5.26609 16.8391 5.49194 17.0649L12.3246 23.8976C12.5504 24.1234 12.9166 24.1234 13.1424 23.8976L25.206 11.834C25.4319 11.6081 25.4319 11.242 25.206 11.0161L18.3734 4.18349C18.1475 3.95764 17.7814 3.95764 17.5555 4.18349ZM5.08301 15.8381C4.63131 16.2898 4.63131 17.0222 5.08301 17.4739L11.9156 24.3065C12.3673 24.7582 13.0997 24.7582 13.5514 24.3065L25.6149 12.2429C26.0666 11.7912 26.0666 11.0589 25.6149 10.6072L18.7823 3.77455C18.3306 3.32286 17.5983 3.32286 17.1466 3.77455L5.08301 15.8381Z" fill="url(#paint21_linear_18_21522)"/>
<path fill-rule="evenodd" clip-rule="evenodd" d="M17.5555 4.18349L5.49194 16.2471C5.26609 16.4729 5.26609 16.8391 5.49194 17.0649L12.3246 23.8976C12.5504 24.1234 12.9166 24.1234 13.1424 23.8976L25.206 11.834C25.4319 11.6081 25.4319 11.242 25.206 11.0161L18.3734 4.18349C18.1475 3.95764 17.7814 3.95764 17.5555 4.18349ZM5.08301 15.8381C4.63131 16.2898 4.63131 17.0222 5.08301 17.4739L11.9156 24.3065C12.3673 24.7582 13.0997 24.7582 13.5514 24.3065L25.6149 12.2429C26.0666 11.7912 26.0666 11.0589 25.6149 10.6072L18.7823 3.77455C18.3306 3.32286 17.5983 3.32286 17.1466 3.77455L5.08301 15.8381Z" fill="url(#paint22_linear_18_21522)"/>
<ellipse cx="17.9899" cy="11.3995" rx="3.56632" ry="3.2892" transform="rotate(-45 17.9899 11.3995)" fill="#289D5B"/>
<ellipse cx="17.9899" cy="11.3995" rx="3.56632" ry="3.2892" transform="rotate(-45 17.9899 11.3995)" fill="url(#paint23_linear_18_21522)"/>
<ellipse cx="17.9899" cy="11.3995" rx="3.56632" ry="3.2892" transform="rotate(-45 17.9899 11.3995)" fill="url(#paint24_radial_18_21522)"/>
<rect x="9.854" y="9.56775" width="3.37354" height="16.8677" transform="rotate(-45 9.854 9.56775)" fill="url(#paint25_linear_18_21522)"/>
<rect x="9.854" y="9.56775" width="3.37354" height="16.8677" transform="rotate(-45 9.854 9.56775)" fill="url(#paint26_linear_18_21522)"/>
<path d="M9.57489 16.0485C9.39022 15.8638 9.39022 15.5644 9.57489 15.3797C9.75957 15.195 10.059 15.195 10.2437 15.3797L10.6119 15.7479C11.2913 15.3352 11.9838 15.5031 12.3821 15.827C12.609 16.0115 12.636 16.2635 12.4748 16.4617C12.3136 16.66 12.0222 16.69 11.824 16.5288C11.6942 16.4233 11.2894 16.1443 10.7868 16.647C10.0669 17.3669 10.9998 18.3338 11.8347 17.4989C12.1925 17.1411 12.7781 16.97 13.1872 17.0367C13.6129 17.1062 13.9433 17.32 14.1779 17.6318C14.5324 18.1954 14.485 18.7871 14.1638 19.2999L14.5183 19.6543C14.703 19.839 14.703 20.1384 14.5183 20.3231C14.3336 20.5078 14.0342 20.5078 13.8495 20.3231L13.5029 19.9765C12.9364 20.3431 12.2699 20.3406 11.7005 19.8908C11.5 19.7324 11.4496 19.4573 11.608 19.2568C11.7664 19.0563 12.0573 19.0221 12.2578 19.1805C12.3573 19.2592 12.5194 19.3494 12.6937 19.3684C12.8427 19.3846 13.0293 19.3457 13.2574 19.1176C13.5417 18.8333 13.5884 18.5789 13.5429 18.3892C13.4449 17.8482 12.7896 17.7112 12.4034 18.0974C11.8647 18.5934 11.4797 18.7162 11.049 18.6978C10.699 18.6829 10.3454 18.5356 10.0925 18.2827C9.93039 18.1206 9.71517 17.8105 9.67656 17.4164C9.64545 17.0989 9.71179 16.7481 9.93279 16.4064L9.57489 16.0485Z" fill="#18873A"/>
<path d="M9.57489 15.8573C9.39022 15.6726 9.39022 15.3732 9.57489 15.1885C9.75957 15.0039 10.059 15.0039 10.2437 15.1885L10.6119 15.5567C11.2913 15.144 11.9838 15.3119 12.3821 15.6358C12.609 15.8203 12.636 16.0723 12.4748 16.2706C12.3136 16.4688 12.0222 16.4989 11.824 16.3377C11.6942 16.2322 11.2894 15.9532 10.7868 16.4558C10.0669 17.1757 10.9998 18.1427 11.8347 17.3077C12.1925 16.9499 12.7781 16.7788 13.1872 16.8456C13.6129 16.915 13.9433 17.1288 14.1779 17.4406C14.5324 18.0042 14.485 18.596 14.1638 19.1087L14.5183 19.4632C14.703 19.6479 14.703 19.9473 14.5183 20.132C14.3336 20.3166 14.0342 20.3166 13.8495 20.132L13.5029 19.7854C12.9364 20.152 12.2699 20.1494 11.7005 19.6996C11.5 19.5412 11.4496 19.2661 11.608 19.0656C11.7664 18.8651 12.0573 18.831 12.2578 18.9894C12.3573 19.068 12.5194 19.1583 12.6937 19.1772C12.8427 19.1935 13.0293 19.1546 13.2574 18.9264C13.5417 18.6422 13.5884 18.3877 13.5429 18.198C13.4449 17.657 12.7896 17.52 12.4034 17.9062C11.8647 18.4023 11.4797 18.525 11.049 18.5066C10.699 18.4917 10.3454 18.3444 10.0925 18.0915C9.93039 17.9295 9.71517 17.6194 9.67656 17.2252C9.64545 16.9078 9.71179 16.5569 9.93279 16.2152L9.57489 15.8573Z" fill="url(#paint27_linear_18_21522)"/>
<path d="M21.1562 23.2228H22.937V28.4221C22.937 28.5602 22.8251 28.6721 22.687 28.6721H22.6562C21.8278 28.6721 21.1562 28.0005 21.1562 27.1721V23.2228Z" fill="#BCB6B6"/>
<path d="M21.1562 23.2228H22.937V28.4221C22.937 28.5602 22.8251 28.6721 22.687 28.6721H22.6562C21.8278 28.6721 21.1562 28.0005 21.1562 27.1721V23.2228Z" fill="url(#paint28_radial_18_21522)"/>
<path d="M21.1562 23.2228H22.937V28.4221C22.937 28.5602 22.8251 28.6721 22.687 28.6721H22.6562C21.8278 28.6721 21.1562 28.0005 21.1562 27.1721V23.2228Z" fill="url(#paint29_radial_18_21522)" fill-opacity="0.2"/>
<path d="M19.3755 23.2228H21.1562V27.043C21.1562 27.1811 21.0443 27.293 20.9062 27.293H20.8755C20.0471 27.293 19.3755 26.6214 19.3755 25.793V23.2228Z" fill="#BCB6B6"/>
<path d="M19.3755 23.2228H21.1562V27.043C21.1562 27.1811 21.0443 27.293 20.9062 27.293H20.8755C20.0471 27.293 19.3755 26.6214 19.3755 25.793V23.2228Z" fill="url(#paint30_radial_18_21522)"/>
<path d="M19.3755 23.2228H21.1562V27.043C21.1562 27.1811 21.0443 27.293 20.9062 27.293H20.8755C20.0471 27.293 19.3755 26.6214 19.3755 25.793V23.2228Z" fill="url(#paint31_radial_18_21522)" fill-opacity="0.2"/>
<path d="M19.3755 23.2228H21.1562V27.043C21.1562 27.1811 21.0443 27.293 20.9062 27.293H20.8755C20.0471 27.293 19.3755 26.6214 19.3755 25.793V23.2228Z" fill="url(#paint32_radial_18_21522)"/>
<path d="M22.0366 18.5366C20.5669 18.5366 19.3755 19.7235 19.3755 21.1876V23.2717C19.3755 23.5479 19.6002 23.7717 19.8774 23.7717H22.5086C22.7304 23.7717 22.9102 23.9508 22.9102 24.1717V28.4708C22.9102 29.2992 23.5843 29.9708 24.4159 29.9708H24.4467C24.5853 29.9708 24.6977 29.8589 24.6977 29.7208L24.6976 21.1876C24.6976 19.7235 23.5062 18.5366 22.0366 18.5366Z" fill="#DBD7D7"/>
<path d="M22.0366 18.5366C20.5669 18.5366 19.3755 19.7235 19.3755 21.1876V23.2717C19.3755 23.5479 19.6002 23.7717 19.8774 23.7717H22.5086C22.7304 23.7717 22.9102 23.9508 22.9102 24.1717V28.4708C22.9102 29.2992 23.5843 29.9708 24.4159 29.9708H24.4467C24.5853 29.9708 24.6977 29.8589 24.6977 29.7208L24.6976 21.1876C24.6976 19.7235 23.5062 18.5366 22.0366 18.5366Z" fill="url(#paint33_radial_18_21522)"/>
<path d="M22.0366 18.5366C20.5669 18.5366 19.3755 19.7235 19.3755 21.1876V23.2717C19.3755 23.5479 19.6002 23.7717 19.8774 23.7717H22.5086C22.7304 23.7717 22.9102 23.9508 22.9102 24.1717V28.4708C22.9102 29.2992 23.5843 29.9708 24.4159 29.9708H24.4467C24.5853 29.9708 24.6977 29.8589 24.6977 29.7208L24.6976 21.1876C24.6976 19.7235 23.5062 18.5366 22.0366 18.5366Z" fill="url(#paint34_radial_18_21522)"/>
<path d="M22.0366 18.5366C20.5669 18.5366 19.3755 19.7235 19.3755 21.1876V23.2717C19.3755 23.5479 19.6002 23.7717 19.8774 23.7717H22.5086C22.7304 23.7717 22.9102 23.9508 22.9102 24.1717V28.4708C22.9102 29.2992 23.5843 29.9708 24.4159 29.9708H24.4467C24.5853 29.9708 24.6977 29.8589 24.6977 29.7208L24.6976 21.1876C24.6976 19.7235 23.5062 18.5366 22.0366 18.5366Z" fill="url(#paint35_linear_18_21522)"/>
<path d="M22.0366 18.5366C20.5669 18.5366 19.3755 19.7235 19.3755 21.1876V23.2717C19.3755 23.5479 19.6002 23.7717 19.8774 23.7717H22.5086C22.7304 23.7717 22.9102 23.9508 22.9102 24.1717V28.4708C22.9102 29.2992 23.5843 29.9708 24.4159 29.9708H24.4467C24.5853 29.9708 24.6977 29.8589 24.6977 29.7208L24.6976 21.1876C24.6976 19.7235 23.5062 18.5366 22.0366 18.5366Z" fill="url(#paint36_radial_18_21522)"/>
<defs>
<linearGradient id="paint0_linear_18_21522" x1="6.35673" y1="8.99414" x2="6.35673" y2="10.8916" gradientUnits="userSpaceOnUse">
<stop stop-color="#A7A5A3"/>
<stop offset="0.318592" stop-color="#C9C8C7"/>
<stop offset="0.639618" stop-color="#CFCFCF"/>
<stop offset="1" stop-color="#9EA39E"/>
</linearGradient>
<radialGradient id="paint1_radial_18_21522" cx="0" cy="0" r="1" gradientUnits="userSpaceOnUse" gradientTransform="translate(6.35673 9.88451) rotate(90) scale(0.568547)">
<stop stop-color="#D3D3D3"/>
<stop offset="1" stop-color="#CCCAC9" stop-opacity="0"/>
</radialGradient>
<linearGradient id="paint2_linear_18_21522" x1="7.04635" y1="10.7749" x2="7.04635" y2="12.6509" gradientUnits="userSpaceOnUse">
<stop stop-color="#A7A5A3"/>
<stop offset="0.318592" stop-color="#C9C8C7"/>
<stop offset="0.639618" stop-color="#CFCFCF"/>
<stop offset="1" stop-color="#9EA39E"/>
</linearGradient>
<radialGradient id="paint3_radial_18_21522" cx="0" cy="0" r="1" gradientUnits="userSpaceOnUse" gradientTransform="translate(7.04635 11.6552) rotate(90) scale(0.562116 1.1923)">
<stop stop-color="#D3D3D3"/>
<stop offset="1" stop-color="#CCCAC9" stop-opacity="0"/>
</radialGradient>
<radialGradient id="paint4_radial_18_21522" cx="0" cy="0" r="1" gradientUnits="userSpaceOnUse" gradientTransform="translate(3.96619 7.43723) scale(7.79237 1.37865)">
<stop stop-color="#E3E1E1"/>
<stop offset="1" stop-color="#E3E1E1" stop-opacity="0"/>
</radialGradient>
<radialGradient id="paint5_radial_18_21522" cx="0" cy="0" r="1" gradientUnits="userSpaceOnUse" gradientTransform="translate(7.43744 7.70312) rotate(90) scale(1.23438 16.0469)">
<stop stop-color="#EEEEEE"/>
<stop offset="1" stop-color="#C4C4C4"/>
</radialGradient>
<radialGradient id="paint6_radial_18_21522" cx="0" cy="0" r="1" gradientUnits="userSpaceOnUse" gradientTransform="translate(10.2187 8.59375) rotate(104.913) scale(1.33576 4.29577)">
<stop stop-color="white"/>
<stop offset="1" stop-color="white" stop-opacity="0"/>
</radialGradient>
<radialGradient id="paint7_radial_18_21522" cx="0" cy="0" r="1" gradientUnits="userSpaceOnUse" gradientTransform="translate(12.2499 7.23352) rotate(115.087) scale(3.53772 1.16126)">
<stop stop-color="#C0C1BD"/>
<stop offset="1" stop-color="#C0C1BD" stop-opacity="0"/>
</radialGradient>
<radialGradient id="paint8_radial_18_21522" cx="0" cy="0" r="1" gradientUnits="userSpaceOnUse" gradientTransform="translate(8.29241 9.32639) rotate(63.2834) scale(0.871979 1.13268)">
<stop offset="0.301397" stop-color="#B4B3B1"/>
<stop offset="1" stop-color="#CBCAC9" stop-opacity="0"/>
</radialGradient>
<radialGradient id="paint9_radial_18_21522" cx="0" cy="0" r="1" gradientUnits="userSpaceOnUse" gradientTransform="translate(8.40073 10.6469) rotate(36.2539) scale(0.671636 0.872441)">
<stop offset="0.218314" stop-color="#B4B3B1"/>
<stop offset="1" stop-color="#CBCAC9" stop-opacity="0"/>
</radialGradient>
<linearGradient id="paint10_linear_18_21522" x1="24.8062" y1="31.7637" x2="5.48064" y2="31.7637" gradientUnits="userSpaceOnUse">
<stop stop-color="#12724A"/>
<stop offset="1" stop-color="#116245"/>
</linearGradient>
<linearGradient id="paint11_linear_18_21522" x1="26.2038" y1="31.089" x2="24.1556" y2="31.089" gradientUnits="userSpaceOnUse">
<stop stop-color="#1C8F60"/>
<stop offset="1" stop-color="#1C8F60" stop-opacity="0"/>
</linearGradient>
<linearGradient id="paint12_linear_18_21522" x1="4.73364" y1="30.9927" x2="6.85415" y2="30.9927" gradientUnits="userSpaceOnUse">
<stop offset="0.556818" stop-color="#195840"/>
<stop offset="1" stop-color="#195840" stop-opacity="0"/>
</linearGradient>
<radialGradient id="paint13_radial_18_21522" cx="0" cy="0" r="1" gradientUnits="userSpaceOnUse" gradientTransform="translate(14.709 30.9012) rotate(159.806) scale(4.09673 3.88706)">
<stop offset="0.306788" stop-color="#0E593C"/>
<stop offset="1" stop-color="#0E593C" stop-opacity="0"/>
</radialGradient>
<radialGradient id="paint14_radial_18_21522" cx="0" cy="0" r="1" gradientUnits="userSpaceOnUse" gradientTransform="translate(13.7809 31.7409) rotate(-176.751) scale(5.06838 1.07475)">
<stop offset="0.396008" stop-color="#0F4F35"/>
<stop offset="1" stop-color="#0F4F35" stop-opacity="0"/>
</radialGradient>
<radialGradient id="paint15_radial_18_21522" cx="0" cy="0" r="1" gradientUnits="userSpaceOnUse" gradientTransform="translate(3.24406 17.2017) rotate(48.2593) scale(14.9844 19.65)">
<stop stop-color="#31DE74"/>
<stop offset="1" stop-color="#20CF5E"/>
</radialGradient>
<linearGradient id="paint16_linear_18_21522" x1="15.7616" y1="23.9313" x2="11.1302" y2="23.7977" gradientUnits="userSpaceOnUse">
<stop offset="0.411098" stop-color="#199140" stop-opacity="0"/>
<stop offset="0.550735" stop-color="#116131"/>
<stop offset="0.768889" stop-color="#177A3E" stop-opacity="0"/>
</linearGradient>
<linearGradient id="paint17_linear_18_21522" x1="16.5502" y1="4.74577" x2="14.8804" y2="22.4322" gradientUnits="userSpaceOnUse">
<stop stop-color="#24A35B"/>
<stop offset="1" stop-color="#27A05A"/>
</linearGradient>
<linearGradient id="paint18_linear_18_21522" x1="8.49932" y1="20.8902" x2="8.68784" y2="20.7017" gradientUnits="userSpaceOnUse">
<stop stop-color="#188241"/>
<stop offset="1" stop-color="#188241" stop-opacity="0"/>
</linearGradient>
<linearGradient id="paint19_linear_18_21522" x1="14.8731" y1="23.07" x2="14.5624" y2="22.7593" gradientUnits="userSpaceOnUse">
<stop stop-color="#188241"/>
<stop offset="1" stop-color="#188241" stop-opacity="0"/>
</linearGradient>
<linearGradient id="paint20_linear_18_21522" x1="26.1647" y1="11.1569" x2="25.9739" y2="11.3478" gradientUnits="userSpaceOnUse">
<stop stop-color="#188241"/>
<stop offset="1" stop-color="#188241" stop-opacity="0"/>
</linearGradient>
<linearGradient id="paint21_linear_18_21522" x1="17.7736" y1="3.14751" x2="18.0349" y2="3.40876" gradientUnits="userSpaceOnUse">
<stop stop-color="#188241"/>
<stop offset="1" stop-color="#2CB566" stop-opacity="0"/>
</linearGradient>
<linearGradient id="paint22_linear_18_21522" x1="16.9276" y1="12.7449" x2="13.672" y2="15.8028" gradientUnits="userSpaceOnUse">
<stop offset="0.411098" stop-color="#199140" stop-opacity="0"/>
<stop offset="0.599958" stop-color="#116131"/>
<stop offset="0.768889" stop-color="#177A3E" stop-opacity="0"/>
</linearGradient>
<linearGradient id="paint23_linear_18_21522" x1="16.8092" y1="11.7971" x2="18.1827" y2="11.7971" gradientUnits="userSpaceOnUse">
<stop offset="0.22807" stop-color="#269553"/>
<stop offset="1" stop-color="#269553" stop-opacity="0"/>
</linearGradient>
<radialGradient id="paint24_radial_18_21522" cx="0" cy="0" r="1" gradientUnits="userSpaceOnUse" gradientTransform="translate(17.9899 11.9176) rotate(-40.8023) scale(3.72448 3.66082)">
<stop offset="0.587108" stop-color="#249755" stop-opacity="0"/>
<stop offset="0.986856" stop-color="#16793D"/>
</radialGradient>
<linearGradient id="paint25_linear_18_21522" x1="11.5408" y1="10.8449" x2="11.5408" y2="24.1945" gradientUnits="userSpaceOnUse">
<stop stop-color="#FFD425"/>
<stop offset="1" stop-color="#FFAD24"/>
</linearGradient>
<linearGradient id="paint26_linear_18_21522" x1="12.3601" y1="26.4355" x2="12.3601" y2="23.4716" gradientUnits="userSpaceOnUse">
<stop offset="0.893939" stop-color="#CC8139"/>
<stop offset="1" stop-color="#CC8139" stop-opacity="0"/>
</linearGradient>
<linearGradient id="paint27_linear_18_21522" x1="9.57067" y1="15.1928" x2="14.5141" y2="20.1362" gradientUnits="userSpaceOnUse">
<stop stop-color="#EFEAEA"/>
<stop offset="1" stop-color="#EAE3E3"/>
</linearGradient>
<radialGradient id="paint28_radial_18_21522" cx="0" cy="0" r="1" gradientUnits="userSpaceOnUse" gradientTransform="translate(22.0466 25.0235) rotate(90) scale(4.14552 1.50737)">
<stop offset="0.365482" stop-color="#9E9A9A" stop-opacity="0"/>
<stop offset="1" stop-color="#9E9A9A"/>
</radialGradient>
<radialGradient id="paint29_radial_18_21522" cx="0" cy="0" r="1" gradientUnits="userSpaceOnUse" gradientTransform="translate(22.0466 25.0413) rotate(90) scale(2.79333 0.669017)">
<stop stop-color="white"/>
<stop offset="1" stop-color="white" stop-opacity="0"/>
</radialGradient>
<radialGradient id="paint30_radial_18_21522" cx="0" cy="0" r="1" gradientUnits="userSpaceOnUse" gradientTransform="translate(20.2659 24.5678) rotate(90) scale(3.09641 1.50737)">
<stop offset="0.365482" stop-color="#9E9A9A" stop-opacity="0"/>
<stop offset="1" stop-color="#9E9A9A"/>
</radialGradient>
<radialGradient id="paint31_radial_18_21522" cx="0" cy="0" r="1" gradientUnits="userSpaceOnUse" gradientTransform="translate(20.2659 24.5811) rotate(90) scale(2.08642 0.669017)">
<stop stop-color="white"/>
<stop offset="1" stop-color="white" stop-opacity="0"/>
</radialGradient>
<radialGradient id="paint32_radial_18_21522" cx="0" cy="0" r="1" gradientUnits="userSpaceOnUse" gradientTransform="translate(20.2659 24.9459) rotate(90) scale(3.20617 0.95535)">
<stop stop-color="#D6D2D3"/>
<stop offset="1" stop-color="#D6D2D3" stop-opacity="0"/>
</radialGradient>
<radialGradient id="paint33_radial_18_21522" cx="0" cy="0" r="1" gradientUnits="userSpaceOnUse" gradientTransform="translate(23.6045 20.3091) rotate(91.8952) scale(6.94468 3.2325)">
<stop stop-color="white" stop-opacity="0.97"/>
<stop offset="1" stop-color="#C0B8B7"/>
</radialGradient>
<radialGradient id="paint34_radial_18_21522" cx="0" cy="0" r="1" gradientUnits="userSpaceOnUse" gradientTransform="translate(23.9504 24.6657) rotate(90) scale(6.88674 0.721809)">
<stop stop-color="#F7F7F4"/>
<stop offset="1" stop-color="#F7F7F4" stop-opacity="0"/>
</radialGradient>
<linearGradient id="paint35_linear_18_21522" x1="24.6977" y1="25.7875" x2="22.9999" y2="25.7875" gradientUnits="userSpaceOnUse">
<stop offset="0.35579" stop-color="#F7F7F4" stop-opacity="0.9"/>
<stop offset="1" stop-color="#EEEFEE" stop-opacity="0"/>
</linearGradient>
<radialGradient id="paint36_radial_18_21522" cx="0" cy="0" r="1" gradientUnits="userSpaceOnUse" gradientTransform="translate(21.3749 24.9374) rotate(-72.1598) scale(5.71217 6.57861)">
<stop stop-color="#CAC3C2"/>
<stop offset="0.452046" stop-color="#CAC3C2" stop-opacity="0"/>
</radialGradient>
</defs>
</svg>
