<svg width="32" height="32" viewBox="0 0 32 32" fill="none" xmlns="http://www.w3.org/2000/svg">
<path d="M26.8445 1.99365H5.13448C3.39448 1.99365 1.97449 3.40365 1.97449 5.15365V12.5431L27.7453 9.84815L30.0045 9.23474V5.14365C30.0045 3.40365 28.5845 1.99365 26.8445 1.99365Z" fill="#49ACD5"/>
<path d="M26.8445 1.99365H5.13448C3.39448 1.99365 1.97449 3.40365 1.97449 5.15365V12.5431L27.7453 9.84815L30.0045 9.23474V5.14365C30.0045 3.40365 28.5845 1.99365 26.8445 1.99365Z" fill="#4FD3FF"/>
<path d="M26.8445 1.99365H5.13448C3.39448 1.99365 1.97449 3.40365 1.97449 5.15365V12.5431L27.7453 9.84815L30.0045 9.23474V5.14365C30.0045 3.40365 28.5845 1.99365 26.8445 1.99365Z" fill="url(#paint0_radial_18_5296)"/>
<path d="M26.8445 1.99365H5.13448C3.39448 1.99365 1.97449 3.40365 1.97449 5.15365V12.5431L27.7453 9.84815L30.0045 9.23474V5.14365C30.0045 3.40365 28.5845 1.99365 26.8445 1.99365Z" fill="url(#paint1_linear_18_5296)"/>
<path d="M26.8445 1.99365H5.13448C3.39448 1.99365 1.97449 3.40365 1.97449 5.15365V12.5431L27.7453 9.84815L30.0045 9.23474V5.14365C30.0045 3.40365 28.5845 1.99365 26.8445 1.99365Z" fill="url(#paint2_linear_18_5296)"/>
<path d="M26.8445 1.99365H5.13448C3.39448 1.99365 1.97449 3.40365 1.97449 5.15365V12.5431L27.7453 9.84815L30.0045 9.23474V5.14365C30.0045 3.40365 28.5845 1.99365 26.8445 1.99365Z" fill="url(#paint3_linear_18_5296)"/>
<path d="M26.8445 1.99365H5.13448C3.39448 1.99365 1.97449 3.40365 1.97449 5.15365V12.5431L27.7453 9.84815L30.0045 9.23474V5.14365C30.0045 3.40365 28.5845 1.99365 26.8445 1.99365Z" fill="url(#paint4_radial_18_5296)"/>
<path d="M8.78454 13.7537C10.3751 13.7537 11.6645 12.4642 11.6645 10.8737C11.6645 9.28307 10.3751 7.99365 8.78454 7.99365C7.19396 7.99365 5.90454 9.28307 5.90454 10.8737C5.90454 12.4642 7.19396 13.7537 8.78454 13.7537Z" fill="url(#paint5_radial_18_5296)"/>
<path d="M8.78454 13.7537C10.3751 13.7537 11.6645 12.4642 11.6645 10.8737C11.6645 9.28307 10.3751 7.99365 8.78454 7.99365C7.19396 7.99365 5.90454 9.28307 5.90454 10.8737C5.90454 12.4642 7.19396 13.7537 8.78454 13.7537Z" fill="url(#paint6_radial_18_5296)"/>
<path d="M9.47278 9.54547C10.4697 7.61952 12.9097 5.98812 15.0145 5.98812C18.4681 5.64824 22.8185 9.13762 22.8185 13.3037C22.8185 16.5937 18.3045 19.2637 15.0145 19.2637H5.98449C4.26948 19.2637 2.77438 16.5545 1.97424 15.1715V12.3157C2.77438 10.9327 4.26948 10.0037 5.98449 10.0037C6.80003 10.0037 7.56976 10.2174 8.23708 10.5907C9.00518 11.0204 8.98989 10.2947 9.47278 9.54547Z" fill="#D1D0D2"/>
<path d="M9.47278 9.54547C10.4697 7.61952 12.9097 5.98812 15.0145 5.98812C18.4681 5.64824 22.8185 9.13762 22.8185 13.3037C22.8185 16.5937 18.3045 19.2637 15.0145 19.2637H5.98449C4.26948 19.2637 2.77438 16.5545 1.97424 15.1715V12.3157C2.77438 10.9327 4.26948 10.0037 5.98449 10.0037C6.80003 10.0037 7.56976 10.2174 8.23708 10.5907C9.00518 11.0204 8.98989 10.2947 9.47278 9.54547Z" fill="url(#paint7_radial_18_5296)"/>
<path d="M9.47278 9.54547C10.4697 7.61952 12.9097 5.98812 15.0145 5.98812C18.4681 5.64824 22.8185 9.13762 22.8185 13.3037C22.8185 16.5937 18.3045 19.2637 15.0145 19.2637H5.98449C4.26948 19.2637 2.77438 16.5545 1.97424 15.1715V12.3157C2.77438 10.9327 4.26948 10.0037 5.98449 10.0037C6.80003 10.0037 7.56976 10.2174 8.23708 10.5907C9.00518 11.0204 8.98989 10.2947 9.47278 9.54547Z" fill="url(#paint8_radial_18_5296)"/>
<path d="M9.47278 9.54547C10.4697 7.61952 12.9097 5.98812 15.0145 5.98812C18.4681 5.64824 22.8185 9.13762 22.8185 13.3037C22.8185 16.5937 18.3045 19.2637 15.0145 19.2637H5.98449C4.26948 19.2637 2.77438 16.5545 1.97424 15.1715V12.3157C2.77438 10.9327 4.26948 10.0037 5.98449 10.0037C6.80003 10.0037 7.56976 10.2174 8.23708 10.5907C9.00518 11.0204 8.98989 10.2947 9.47278 9.54547Z" fill="url(#paint9_radial_18_5296)"/>
<path d="M9.47278 9.54547C10.4697 7.61952 12.9097 5.98812 15.0145 5.98812C18.4681 5.64824 22.8185 9.13762 22.8185 13.3037C22.8185 16.5937 18.3045 19.2637 15.0145 19.2637H5.98449C4.26948 19.2637 2.77438 16.5545 1.97424 15.1715V12.3157C2.77438 10.9327 4.26948 10.0037 5.98449 10.0037C6.80003 10.0037 7.56976 10.2174 8.23708 10.5907C9.00518 11.0204 8.98989 10.2947 9.47278 9.54547Z" fill="url(#paint10_linear_18_5296)"/>
<path d="M9.47278 9.54547C10.4697 7.61952 12.9097 5.98812 15.0145 5.98812C18.4681 5.64824 22.8185 9.13762 22.8185 13.3037C22.8185 16.5937 18.3045 19.2637 15.0145 19.2637H5.98449C4.26948 19.2637 2.77438 16.5545 1.97424 15.1715V12.3157C2.77438 10.9327 4.26948 10.0037 5.98449 10.0037C6.80003 10.0037 7.56976 10.2174 8.23708 10.5907C9.00518 11.0204 8.98989 10.2947 9.47278 9.54547Z" fill="url(#paint11_radial_18_5296)"/>
<path d="M9.47278 9.54547C10.4697 7.61952 12.9097 5.98812 15.0145 5.98812C18.4681 5.64824 22.8185 9.13762 22.8185 13.3037C22.8185 16.5937 18.3045 19.2637 15.0145 19.2637H5.98449C4.26948 19.2637 2.77438 16.5545 1.97424 15.1715V12.3157C2.77438 10.9327 4.26948 10.0037 5.98449 10.0037C6.80003 10.0037 7.56976 10.2174 8.23708 10.5907C9.00518 11.0204 8.98989 10.2947 9.47278 9.54547Z" fill="url(#paint12_radial_18_5296)"/>
<path d="M30.0045 9.05568C29.8975 9.0479 29.7893 9.04395 29.6802 9.04395C27.402 9.04395 25.5552 10.7686 25.5552 12.8962C25.5552 15.0237 27.402 16.7484 29.6802 16.7484C29.7893 16.7484 29.8975 16.7444 30.0045 16.7367V9.05568Z" fill="url(#paint13_radial_18_5296)"/>
<path d="M17.0845 8.99353H16.9645C16.3245 8.99353 15.7145 9.28353 15.3045 9.77353L10.9545 14.9935L5.31449 21.6635C4.53449 22.4435 4.53449 23.7235 5.31449 24.5035L29.958 17.0195H30.0045C30.0045 7.59627 20.8954 10.8467 17.0845 8.99353Z" fill="url(#paint14_linear_18_5296)"/>
<path d="M17.0845 8.99353H16.9645C16.3245 8.99353 15.7145 9.28353 15.3045 9.77353L10.9545 14.9935L5.31449 21.6635C4.53449 22.4435 4.53449 23.7235 5.31449 24.5035L29.958 17.0195H30.0045C30.0045 7.59627 20.8954 10.8467 17.0845 8.99353Z" fill="url(#paint15_radial_18_5296)"/>
<path d="M17.0845 8.99353H16.9645C16.3245 8.99353 15.7145 9.28353 15.3045 9.77353L10.9545 14.9935L5.31449 21.6635C4.53449 22.4435 4.53449 23.7235 5.31449 24.5035L29.958 17.0195H30.0045C30.0045 7.59627 20.8954 10.8467 17.0845 8.99353Z" fill="url(#paint16_linear_18_5296)"/>
<path d="M17.0845 8.99353H16.9645C16.3245 8.99353 15.7145 9.28353 15.3045 9.77353L10.9545 14.9935L5.31449 21.6635C4.53449 22.4435 4.53449 23.7235 5.31449 24.5035L29.958 17.0195H30.0045C30.0045 7.59627 20.8954 10.8467 17.0845 8.99353Z" fill="url(#paint17_linear_18_5296)"/>
<path d="M25.4112 18.4004L20.8545 13.8437C20.2545 13.2437 19.4345 12.9037 18.5845 12.9037C17.6545 12.9037 16.9045 12.1537 16.9045 11.2237V8.99444C16.9245 8.99387 16.9445 8.99359 16.9645 8.99359H17.0845C17.6545 8.99359 18.2045 8.76359 18.6145 8.36359L20.9645 6.01359C21.7445 5.23359 23.0245 5.23359 23.8045 6.01359L30.0045 12.2136V17.0195H29.958L25.4112 18.4004Z" fill="url(#paint18_linear_18_5296)"/>
<path d="M25.4112 18.4004L20.8545 13.8437C20.2545 13.2437 19.4345 12.9037 18.5845 12.9037C17.6545 12.9037 16.9045 12.1537 16.9045 11.2237V8.99444C16.9245 8.99387 16.9445 8.99359 16.9645 8.99359H17.0845C17.6545 8.99359 18.2045 8.76359 18.6145 8.36359L20.9645 6.01359C21.7445 5.23359 23.0245 5.23359 23.8045 6.01359L30.0045 12.2136V17.0195H29.958L25.4112 18.4004Z" fill="url(#paint19_radial_18_5296)"/>
<path d="M25.4112 18.4004L20.8545 13.8437C20.2545 13.2437 19.4345 12.9037 18.5845 12.9037C17.6545 12.9037 16.9045 12.1537 16.9045 11.2237V8.99444C16.9245 8.99387 16.9445 8.99359 16.9645 8.99359H17.0845C17.6545 8.99359 18.2045 8.76359 18.6145 8.36359L20.9645 6.01359C21.7445 5.23359 23.0245 5.23359 23.8045 6.01359L30.0045 12.2136V17.0195H29.958L25.4112 18.4004Z" fill="url(#paint20_linear_18_5296)"/>
<path d="M1.97449 17.0077L7.31344 21.0274H15.8481L7.40436 12.5837C6.62436 11.8037 5.34436 11.8037 4.56436 12.5837L2.21436 14.9337C2.1389 15.0073 2.05869 15.0751 1.97449 15.1369V17.0077Z" fill="url(#paint21_radial_18_5296)"/>
<path d="M1.97449 17.0077L7.31344 21.0274H15.8481L7.40436 12.5837C6.62436 11.8037 5.34436 11.8037 4.56436 12.5837L2.21436 14.9337C2.1389 15.0073 2.05869 15.0751 1.97449 15.1369V17.0077Z" fill="url(#paint22_radial_18_5296)"/>
<path d="M1.97449 17.0077L7.31344 21.0274H15.8481L7.40436 12.5837C6.62436 11.8037 5.34436 11.8037 4.56436 12.5837L2.21436 14.9337C2.1389 15.0073 2.05869 15.0751 1.97449 15.1369V17.0077Z" fill="url(#paint23_radial_18_5296)"/>
<path d="M14.5945 15.2137L14.0245 16.4037C13.8945 16.6737 14.0945 16.9937 14.3945 16.9937H15.5845C15.8945 16.9937 16.0945 16.6637 15.9545 16.3937L15.3445 15.2037C15.1745 14.9037 14.7445 14.9137 14.5945 15.2137Z" fill="url(#paint24_linear_18_5296)"/>
<path d="M14.5945 15.2137L14.0245 16.4037C13.8945 16.6737 14.0945 16.9937 14.3945 16.9937H15.5845C15.8945 16.9937 16.0945 16.6637 15.9545 16.3937L15.3445 15.2037C15.1745 14.9037 14.7445 14.9137 14.5945 15.2137Z" fill="url(#paint25_linear_18_5296)"/>
<path d="M14.5945 15.2137L14.0245 16.4037C13.8945 16.6737 14.0945 16.9937 14.3945 16.9937H15.5845C15.8945 16.9937 16.0945 16.6637 15.9545 16.3937L15.3445 15.2037C15.1745 14.9037 14.7445 14.9137 14.5945 15.2137Z" fill="url(#paint26_linear_18_5296)"/>
<path d="M14.5945 15.2137L14.0245 16.4037C13.8945 16.6737 14.0945 16.9937 14.3945 16.9937H15.5845C15.8945 16.9937 16.0945 16.6637 15.9545 16.3937L15.3445 15.2037C15.1745 14.9037 14.7445 14.9137 14.5945 15.2137Z" fill="url(#paint27_linear_18_5296)"/>
<path d="M14.5945 15.2137L14.0245 16.4037C13.8945 16.6737 14.0945 16.9937 14.3945 16.9937H15.5845C15.8945 16.9937 16.0945 16.6637 15.9545 16.3937L15.3445 15.2037C15.1745 14.9037 14.7445 14.9137 14.5945 15.2137Z" fill="url(#paint28_radial_18_5296)"/>
<path d="M14.5945 15.2137L14.0245 16.4037C13.8945 16.6737 14.0945 16.9937 14.3945 16.9937H15.5845C15.8945 16.9937 16.0945 16.6637 15.9545 16.3937L15.3445 15.2037C15.1745 14.9037 14.7445 14.9137 14.5945 15.2137Z" fill="url(#paint29_linear_18_5296)"/>
<path d="M4.36452 14.3737L3.43452 16.3037C3.21452 16.7537 3.54452 17.2737 4.04452 17.2737H5.97452C6.47452 17.2737 6.80452 16.7437 6.57452 16.2937L5.57452 14.3637C5.31452 13.8637 4.60452 13.8737 4.36452 14.3737Z" fill="url(#paint30_linear_18_5296)"/>
<path d="M4.36452 14.3737L3.43452 16.3037C3.21452 16.7537 3.54452 17.2737 4.04452 17.2737H5.97452C6.47452 17.2737 6.80452 16.7437 6.57452 16.2937L5.57452 14.3637C5.31452 13.8637 4.60452 13.8737 4.36452 14.3737Z" fill="url(#paint31_linear_18_5296)"/>
<path d="M4.36452 14.3737L3.43452 16.3037C3.21452 16.7537 3.54452 17.2737 4.04452 17.2737H5.97452C6.47452 17.2737 6.80452 16.7437 6.57452 16.2937L5.57452 14.3637C5.31452 13.8637 4.60452 13.8737 4.36452 14.3737Z" fill="url(#paint32_linear_18_5296)"/>
<path d="M4.36452 14.3737L3.43452 16.3037C3.21452 16.7537 3.54452 17.2737 4.04452 17.2737H5.97452C6.47452 17.2737 6.80452 16.7437 6.57452 16.2937L5.57452 14.3637C5.31452 13.8637 4.60452 13.8737 4.36452 14.3737Z" fill="url(#paint33_linear_18_5296)"/>
<path d="M4.36452 14.3737L3.43452 16.3037C3.21452 16.7537 3.54452 17.2737 4.04452 17.2737H5.97452C6.47452 17.2737 6.80452 16.7437 6.57452 16.2937L5.57452 14.3637C5.31452 13.8637 4.60452 13.8737 4.36452 14.3737Z" fill="url(#paint34_radial_18_5296)"/>
<path d="M4.36452 14.3737L3.43452 16.3037C3.21452 16.7537 3.54452 17.2737 4.04452 17.2737H5.97452C6.47452 17.2737 6.80452 16.7437 6.57452 16.2937L5.57452 14.3637C5.31452 13.8637 4.60452 13.8737 4.36452 14.3737Z" fill="url(#paint35_linear_18_5296)"/>
<path d="M26.4245 14.6237L25.6145 16.3037C25.4245 16.6937 25.7145 17.1437 26.1445 17.1437H27.8245C28.2645 17.1437 28.5445 16.6737 28.3445 16.2837L27.4745 14.6037C27.2445 14.1737 26.6345 14.1837 26.4245 14.6237Z" fill="url(#paint36_linear_18_5296)"/>
<path d="M26.4245 14.6237L25.6145 16.3037C25.4245 16.6937 25.7145 17.1437 26.1445 17.1437H27.8245C28.2645 17.1437 28.5445 16.6737 28.3445 16.2837L27.4745 14.6037C27.2445 14.1737 26.6345 14.1837 26.4245 14.6237Z" fill="url(#paint37_linear_18_5296)"/>
<path d="M26.4245 14.6237L25.6145 16.3037C25.4245 16.6937 25.7145 17.1437 26.1445 17.1437H27.8245C28.2645 17.1437 28.5445 16.6737 28.3445 16.2837L27.4745 14.6037C27.2445 14.1737 26.6345 14.1837 26.4245 14.6237Z" fill="url(#paint38_linear_18_5296)"/>
<path d="M26.4245 14.6237L25.6145 16.3037C25.4245 16.6937 25.7145 17.1437 26.1445 17.1437H27.8245C28.2645 17.1437 28.5445 16.6737 28.3445 16.2837L27.4745 14.6037C27.2445 14.1737 26.6345 14.1837 26.4245 14.6237Z" fill="url(#paint39_linear_18_5296)"/>
<path d="M26.4245 14.6237L25.6145 16.3037C25.4245 16.6937 25.7145 17.1437 26.1445 17.1437H27.8245C28.2645 17.1437 28.5445 16.6737 28.3445 16.2837L27.4745 14.6037C27.2445 14.1737 26.6345 14.1837 26.4245 14.6237Z" fill="url(#paint40_radial_18_5296)"/>
<path d="M26.4245 14.6237L25.6145 16.3037C25.4245 16.6937 25.7145 17.1437 26.1445 17.1437H27.8245C28.2645 17.1437 28.5445 16.6737 28.3445 16.2837L27.4745 14.6037C27.2445 14.1737 26.6345 14.1837 26.4245 14.6237Z" fill="url(#paint41_linear_18_5296)"/>
<path d="M30.0045 16.9937H1.97424V21.2759H30.0045V16.9937Z" fill="url(#paint42_radial_18_5296)"/>
<path d="M30.0045 16.9937H1.97424V21.2759H30.0045V16.9937Z" fill="url(#paint43_linear_18_5296)"/>
<path d="M30.0045 21.0902C25.4374 20.3684 20.7548 19.9935 15.9844 19.9935C11.2178 19.9945 6.53857 20.3691 1.97449 21.0896V26.8437C1.97449 28.5837 3.38448 30.0037 5.13448 30.0037H26.8445C28.5845 30.0037 30.0045 28.5937 30.0045 26.8437V21.0902Z" fill="url(#paint44_radial_18_5296)"/>
<path d="M30.0045 21.0902C25.4374 20.3684 20.7548 19.9935 15.9844 19.9935C11.2178 19.9945 6.53857 20.3691 1.97449 21.0896V26.8437C1.97449 28.5837 3.38448 30.0037 5.13448 30.0037H26.8445C28.5845 30.0037 30.0045 28.5937 30.0045 26.8437V21.0902Z" fill="url(#paint45_radial_18_5296)"/>
<path d="M30.0045 21.0902C25.4374 20.3684 20.7548 19.9935 15.9844 19.9935C11.2178 19.9945 6.53857 20.3691 1.97449 21.0896V26.8437C1.97449 28.5837 3.38448 30.0037 5.13448 30.0037H26.8445C28.5845 30.0037 30.0045 28.5937 30.0045 26.8437V21.0902Z" fill="url(#paint46_radial_18_5296)"/>
<defs>
<radialGradient id="paint0_radial_18_5296" cx="0" cy="0" r="1" gradientUnits="userSpaceOnUse" gradientTransform="translate(30.9294 1.41186) rotate(133.078) scale(9.02897 6.68543)">
<stop stop-color="#60DEFF"/>
<stop offset="1" stop-color="#60DEFF" stop-opacity="0"/>
</radialGradient>
<linearGradient id="paint1_linear_18_5296" x1="15.9895" y1="-1.92791" x2="15.9895" y2="10.5054" gradientUnits="userSpaceOnUse">
<stop offset="0.308458" stop-color="#4AAED7"/>
<stop offset="0.472637" stop-color="#4AAED7" stop-opacity="0.24"/>
<stop offset="0.587065" stop-color="#4AAED7" stop-opacity="0"/>
</linearGradient>
<linearGradient id="paint2_linear_18_5296" x1="-4.79241" y1="10.5054" x2="15.9895" y2="10.5054" gradientUnits="userSpaceOnUse">
<stop offset="0.308458" stop-color="#4AAED7"/>
<stop offset="0.472637" stop-color="#4AAED7" stop-opacity="0.24"/>
<stop offset="0.587065" stop-color="#4AAED7" stop-opacity="0"/>
</linearGradient>
<linearGradient id="paint3_linear_18_5296" x1="34.3074" y1="10.5054" x2="23.9406" y2="10.5054" gradientUnits="userSpaceOnUse">
<stop offset="0.308458" stop-color="#4AAED7"/>
<stop offset="0.472637" stop-color="#4AAED7" stop-opacity="0.24"/>
<stop offset="0.587065" stop-color="#4AAED7" stop-opacity="0"/>
</linearGradient>
<radialGradient id="paint4_radial_18_5296" cx="0" cy="0" r="1" gradientUnits="userSpaceOnUse" gradientTransform="translate(27.8521 3.30992) rotate(90) scale(5.30141)">
<stop stop-color="#5BD6FB"/>
<stop offset="1" stop-color="#5BD7FB" stop-opacity="0"/>
</radialGradient>
<radialGradient id="paint5_radial_18_5296" cx="0" cy="0" r="1" gradientUnits="userSpaceOnUse" gradientTransform="translate(10.3101 10.8737) rotate(-140.739) scale(2.95281 2.95282)">
<stop stop-color="#B4B3B5"/>
<stop offset="1" stop-color="#D6DDE2"/>
</radialGradient>
<radialGradient id="paint6_radial_18_5296" cx="0" cy="0" r="1" gradientUnits="userSpaceOnUse" gradientTransform="translate(5.7342 7.37025) rotate(102.875) scale(3.25397 3.25397)">
<stop stop-color="#ACB2B6"/>
<stop offset="1" stop-color="#ACB2B6" stop-opacity="0"/>
</radialGradient>
<radialGradient id="paint7_radial_18_5296" cx="0" cy="0" r="1" gradientUnits="userSpaceOnUse" gradientTransform="translate(19.8729 6.57723) rotate(122.998) scale(8.321 8.34371)">
<stop stop-color="white"/>
<stop offset="1" stop-color="white" stop-opacity="0"/>
</radialGradient>
<radialGradient id="paint8_radial_18_5296" cx="0" cy="0" r="1" gradientUnits="userSpaceOnUse" gradientTransform="translate(7.42186 11.3795) rotate(149.534) scale(3.33901 6.28154)">
<stop stop-color="#EBEBEB"/>
<stop offset="1" stop-color="#E1E0E2" stop-opacity="0"/>
</radialGradient>
<radialGradient id="paint9_radial_18_5296" cx="0" cy="0" r="1" gradientUnits="userSpaceOnUse" gradientTransform="translate(11.3495 17.4741) rotate(-110.556) scale(6.94297 4.20819)">
<stop stop-color="#B2A1C5"/>
<stop offset="1" stop-color="#B2A1C5" stop-opacity="0"/>
</radialGradient>
<linearGradient id="paint10_linear_18_5296" x1="1.39498" y1="16.3229" x2="4.3407" y2="13.0047" gradientUnits="userSpaceOnUse">
<stop stop-color="#B6ABC0"/>
<stop offset="1" stop-color="#B6ABC0" stop-opacity="0"/>
</linearGradient>
<radialGradient id="paint11_radial_18_5296" cx="0" cy="0" r="1" gradientUnits="userSpaceOnUse" gradientTransform="translate(11.2533 17.4278) rotate(-55.508) scale(10.1707 3.683)">
<stop stop-color="#A19FA5"/>
<stop offset="1" stop-color="#A19FA5" stop-opacity="0"/>
</radialGradient>
<radialGradient id="paint12_radial_18_5296" cx="0" cy="0" r="1" gradientUnits="userSpaceOnUse" gradientTransform="translate(8.31645 7.76194) rotate(77.3004) scale(6.22551 1.44654)">
<stop stop-color="#B4B4B5"/>
<stop offset="1" stop-color="#B4B4B5" stop-opacity="0"/>
</radialGradient>
<radialGradient id="paint13_radial_18_5296" cx="0" cy="0" r="1" gradientUnits="userSpaceOnUse" gradientTransform="translate(28.5313 11.8611) rotate(-11.9442) scale(2.27616 3.08349)">
<stop offset="0.186549" stop-color="#EAEFF3"/>
<stop offset="1" stop-color="white"/>
</radialGradient>
<linearGradient id="paint14_linear_18_5296" x1="18.6516" y1="10.125" x2="18.6516" y2="20" gradientUnits="userSpaceOnUse">
<stop stop-color="#504681"/>
<stop offset="1" stop-color="#3F3A60"/>
</linearGradient>
<radialGradient id="paint15_radial_18_5296" cx="0" cy="0" r="1" gradientUnits="userSpaceOnUse" gradientTransform="translate(19.257 13.0041) rotate(124.992) scale(2.77135 3.67213)">
<stop stop-color="#50457D"/>
<stop offset="1" stop-color="#50457D" stop-opacity="0"/>
</radialGradient>
<linearGradient id="paint16_linear_18_5296" x1="12.453" y1="18.4718" x2="13.1323" y2="16.1226" gradientUnits="userSpaceOnUse">
<stop stop-color="#21183B"/>
<stop offset="1" stop-color="#21183B" stop-opacity="0"/>
</linearGradient>
<linearGradient id="paint17_linear_18_5296" x1="12.8923" y1="12.1151" x2="14.6879" y2="13.5409" gradientUnits="userSpaceOnUse">
<stop stop-color="#39325B"/>
<stop offset="1" stop-color="#39325B" stop-opacity="0"/>
</linearGradient>
<linearGradient id="paint18_linear_18_5296" x1="20.3704" y1="13.5308" x2="25.1445" y2="7.99275" gradientUnits="userSpaceOnUse">
<stop stop-color="#473862"/>
<stop offset="1" stop-color="#62568F"/>
</linearGradient>
<radialGradient id="paint19_radial_18_5296" cx="0" cy="0" r="1" gradientUnits="userSpaceOnUse" gradientTransform="translate(22.6668 18.4004) rotate(-90) scale(13.5429 10.8186)">
<stop offset="0.934506" stop-color="#A49EC8" stop-opacity="0"/>
<stop offset="0.983083" stop-color="#A49EC8"/>
</radialGradient>
<linearGradient id="paint20_linear_18_5296" x1="26.6158" y1="5.0927" x2="24.3259" y2="7.6644" gradientUnits="userSpaceOnUse">
<stop offset="0.301892" stop-color="#A7A7D7"/>
<stop offset="1" stop-color="#A7A7D7" stop-opacity="0"/>
</linearGradient>
<radialGradient id="paint21_radial_18_5296" cx="0" cy="0" r="1" gradientUnits="userSpaceOnUse" gradientTransform="translate(7.45137 13.0896) rotate(125.218) scale(6.59755 6.71878)">
<stop stop-color="#716AA3"/>
<stop offset="1" stop-color="#423C69"/>
</radialGradient>
<radialGradient id="paint22_radial_18_5296" cx="0" cy="0" r="1" gradientUnits="userSpaceOnUse" gradientTransform="translate(4.22881 16.513) rotate(-146.826) scale(1.42328 3.00313)">
<stop stop-color="#21233C"/>
<stop offset="1" stop-color="#21233C" stop-opacity="0"/>
</radialGradient>
<radialGradient id="paint23_radial_18_5296" cx="0" cy="0" r="1" gradientUnits="userSpaceOnUse" gradientTransform="translate(5.3128 11.7676) rotate(104.394) scale(2.72509 2.46545)">
<stop stop-color="#68667C"/>
<stop offset="1" stop-color="#68667C" stop-opacity="0"/>
</radialGradient>
<linearGradient id="paint24_linear_18_5296" x1="14.5271" y1="16.9937" x2="15.3925" y2="15.5912" gradientUnits="userSpaceOnUse">
<stop stop-color="#29B465"/>
<stop offset="1" stop-color="#4FCF84"/>
</linearGradient>
<linearGradient id="paint25_linear_18_5296" x1="14.9921" y1="17.136" x2="14.9921" y2="16.447" gradientUnits="userSpaceOnUse">
<stop stop-color="#01A13E"/>
<stop offset="1" stop-color="#01A13E" stop-opacity="0"/>
</linearGradient>
<linearGradient id="paint26_linear_18_5296" x1="15.7431" y1="15.8353" x2="15.4005" y2="15.9891" gradientUnits="userSpaceOnUse">
<stop offset="0.122404" stop-color="#5FDA8D"/>
<stop offset="1" stop-color="#5FDA8D" stop-opacity="0"/>
</linearGradient>
<linearGradient id="paint27_linear_18_5296" x1="13.809" y1="15.7573" x2="14.6895" y2="16.1441" gradientUnits="userSpaceOnUse">
<stop offset="0.430074" stop-color="#238455"/>
<stop offset="1" stop-color="#238455" stop-opacity="0"/>
</linearGradient>
<radialGradient id="paint28_radial_18_5296" cx="0" cy="0" r="1" gradientUnits="userSpaceOnUse" gradientTransform="translate(15.5255 16.5726) rotate(-113.293) scale(1.86246 1.86672)">
<stop offset="0.78184" stop-color="#238455" stop-opacity="0"/>
<stop offset="1" stop-color="#238455"/>
</radialGradient>
<linearGradient id="paint29_linear_18_5296" x1="14.6905" y1="17.22" x2="14.6905" y2="16.4222" gradientUnits="userSpaceOnUse">
<stop offset="0.285714" stop-color="#238455"/>
<stop offset="0.636905" stop-color="#238455" stop-opacity="0"/>
</linearGradient>
<linearGradient id="paint30_linear_18_5296" x1="4.24973" y1="17.2737" x2="5.66294" y2="14.9872" gradientUnits="userSpaceOnUse">
<stop stop-color="#269B69"/>
<stop offset="1" stop-color="#58BE94"/>
</linearGradient>
<linearGradient id="paint31_linear_18_5296" x1="5.00714" y1="17.5059" x2="5.00714" y2="16.3816" gradientUnits="userSpaceOnUse">
<stop stop-color="#01542B"/>
<stop offset="1" stop-color="#01542B" stop-opacity="0"/>
</linearGradient>
<linearGradient id="paint32_linear_18_5296" x1="6.23073" y1="15.3833" x2="5.67225" y2="15.6337" gradientUnits="userSpaceOnUse">
<stop offset="0.122404" stop-color="#65D1A1"/>
<stop offset="1" stop-color="#65D1A1" stop-opacity="0"/>
</linearGradient>
<linearGradient id="paint33_linear_18_5296" x1="3.07985" y1="15.2561" x2="4.51507" y2="15.8856" gradientUnits="userSpaceOnUse">
<stop offset="0.430074" stop-color="#238455"/>
<stop offset="1" stop-color="#238455" stop-opacity="0"/>
</linearGradient>
<radialGradient id="paint34_radial_18_5296" cx="0" cy="0" r="1" gradientUnits="userSpaceOnUse" gradientTransform="translate(5.87615 16.5866) rotate(-113.259) scale(3.03839 3.04187)">
<stop offset="0.78184" stop-color="#238455" stop-opacity="0"/>
<stop offset="1" stop-color="#238455"/>
</radialGradient>
<linearGradient id="paint35_linear_18_5296" x1="4.51584" y1="17.6429" x2="4.51584" y2="16.341" gradientUnits="userSpaceOnUse">
<stop offset="0.285714" stop-color="#238455"/>
<stop offset="0.636905" stop-color="#238455" stop-opacity="0"/>
</linearGradient>
<linearGradient id="paint36_linear_18_5296" x1="26.3243" y1="17.1437" x2="27.5558" y2="15.1544" gradientUnits="userSpaceOnUse">
<stop stop-color="#29B465"/>
<stop offset="1" stop-color="#4FCF84"/>
</linearGradient>
<linearGradient id="paint37_linear_18_5296" x1="26.9827" y1="17.3459" x2="26.9827" y2="16.3669" gradientUnits="userSpaceOnUse">
<stop stop-color="#01A13E"/>
<stop offset="1" stop-color="#01A13E" stop-opacity="0"/>
</linearGradient>
<linearGradient id="paint38_linear_18_5296" x1="28.0465" y1="15.4975" x2="27.5607" y2="15.7149" gradientUnits="userSpaceOnUse">
<stop offset="0.122404" stop-color="#5FDA8D"/>
<stop offset="1" stop-color="#5FDA8D" stop-opacity="0"/>
</linearGradient>
<linearGradient id="paint39_linear_18_5296" x1="25.3072" y1="15.3868" x2="26.5556" y2="15.9334" gradientUnits="userSpaceOnUse">
<stop offset="0.430074" stop-color="#238455"/>
<stop offset="1" stop-color="#238455" stop-opacity="0"/>
</linearGradient>
<radialGradient id="paint40_radial_18_5296" cx="0" cy="0" r="1" gradientUnits="userSpaceOnUse" gradientTransform="translate(27.7382 16.5454) rotate(-113.224) scale(2.64523)">
<stop offset="0.78184" stop-color="#238455" stop-opacity="0"/>
<stop offset="1" stop-color="#238455"/>
</radialGradient>
<linearGradient id="paint41_linear_18_5296" x1="26.5556" y1="17.4652" x2="26.5556" y2="16.3315" gradientUnits="userSpaceOnUse">
<stop offset="0.285714" stop-color="#238455"/>
<stop offset="0.636905" stop-color="#238455" stop-opacity="0"/>
</linearGradient>
<radialGradient id="paint42_radial_18_5296" cx="0" cy="0" r="1" gradientUnits="userSpaceOnUse" gradientTransform="translate(23.4117 23.0625) rotate(-95.0131) scale(7.15236 22.2697)">
<stop offset="0.117135" stop-color="#33CE7A"/>
<stop offset="1" stop-color="#3B9F86"/>
</radialGradient>
<linearGradient id="paint43_linear_18_5296" x1="15.9894" y1="16.7969" x2="15.9894" y2="17.5469" gradientUnits="userSpaceOnUse">
<stop stop-color="#45C978"/>
<stop offset="1" stop-color="#45C978" stop-opacity="0"/>
</linearGradient>
<radialGradient id="paint44_radial_18_5296" cx="0" cy="0" r="1" gradientUnits="userSpaceOnUse" gradientTransform="translate(27.8238 25.9712) rotate(-168.326) scale(33.5657 36.6658)">
<stop stop-color="#60DCFF"/>
<stop offset="0.889292" stop-color="#3974FF"/>
</radialGradient>
<radialGradient id="paint45_radial_18_5296" cx="0" cy="0" r="1" gradientUnits="userSpaceOnUse" gradientTransform="translate(13.7867 33) rotate(-95.6849) scale(13.8808 38.8685)">
<stop offset="0.911242" stop-color="#287CD6" stop-opacity="0"/>
<stop offset="1" stop-color="#287CD6"/>
</radialGradient>
<radialGradient id="paint46_radial_18_5296" cx="0" cy="0" r="1" gradientUnits="userSpaceOnUse" gradientTransform="translate(15.6617 34.375) rotate(-88.7586) scale(15.1286 42.3624)">
<stop offset="0.911242" stop-color="#51EBFF" stop-opacity="0"/>
<stop offset="1" stop-color="#51EBFF"/>
</radialGradient>
</defs>
</svg>
