<svg width="32" height="32" viewBox="0 0 32 32" fill="none" xmlns="http://www.w3.org/2000/svg">
<path d="M18.6865 24.8555C19.1257 24.664 19.3084 24.3837 19.4404 24.2187C20.6257 22.7382 18.0967 18.3437 14.486 15.8009C10.6592 12.4687 6.44563 11.3333 5.2603 12.8138C5.05686 13.0679 4.89742 13.414 4.83102 13.8047L2.58101 26.75C2.50289 28.3281 3.10606 28.9278 3.4079 29.2208C3.95487 29.7516 5.01852 30.2031 6.12789 29.8125C10.4091 28.164 14.4199 26.7155 18.6865 24.8555Z" fill="url(#paint0_linear_18_504)"/>
<path d="M18.6865 24.8555C19.1257 24.664 19.3084 24.3837 19.4404 24.2187C20.6257 22.7382 18.0967 18.3437 14.486 15.8009C10.6592 12.4687 6.44563 11.3333 5.2603 12.8138C5.05686 13.0679 4.89742 13.414 4.83102 13.8047L2.58101 26.75C2.50289 28.3281 3.10606 28.9278 3.4079 29.2208C3.95487 29.7516 5.01852 30.2031 6.12789 29.8125C10.4091 28.164 14.4199 26.7155 18.6865 24.8555Z" fill="url(#paint1_linear_18_504)"/>
<path d="M18.6865 24.8555C19.1257 24.664 19.3084 24.3837 19.4404 24.2187C20.6257 22.7382 18.0967 18.3437 14.486 15.8009C10.6592 12.4687 6.44563 11.3333 5.2603 12.8138C5.05686 13.0679 4.89742 13.414 4.83102 13.8047L2.58101 26.75C2.50289 28.3281 3.10606 28.9278 3.4079 29.2208C3.95487 29.7516 5.01852 30.2031 6.12789 29.8125C10.4091 28.164 14.4199 26.7155 18.6865 24.8555Z" fill="url(#paint2_linear_18_504)"/>
<path d="M18.6865 24.8555C19.1257 24.664 19.3084 24.3837 19.4404 24.2187C20.6257 22.7382 18.0967 18.3437 14.486 15.8009C10.6592 12.4687 6.44563 11.3333 5.2603 12.8138C5.05686 13.0679 4.89742 13.414 4.83102 13.8047L2.58101 26.75C2.50289 28.3281 3.10606 28.9278 3.4079 29.2208C3.95487 29.7516 5.01852 30.2031 6.12789 29.8125C10.4091 28.164 14.4199 26.7155 18.6865 24.8555Z" fill="url(#paint3_linear_18_504)"/>
<path d="M18.6865 24.8555C19.1257 24.664 19.3084 24.3837 19.4404 24.2187C20.6257 22.7382 18.0967 18.3437 14.486 15.8009C10.6592 12.4687 6.44563 11.3333 5.2603 12.8138C5.05686 13.0679 4.89742 13.414 4.83102 13.8047L2.58101 26.75C2.50289 28.3281 3.10606 28.9278 3.4079 29.2208C3.95487 29.7516 5.01852 30.2031 6.12789 29.8125C10.4091 28.164 14.4199 26.7155 18.6865 24.8555Z" fill="url(#paint4_radial_18_504)"/>
<ellipse cx="12.5546" cy="18.1868" rx="8.13023" ry="2.91536" transform="rotate(39.7456 12.5546 18.1868)" fill="url(#paint5_linear_18_504)"/>
<ellipse cx="12.5546" cy="18.1868" rx="8.13023" ry="2.91536" transform="rotate(39.7456 12.5546 18.1868)" fill="url(#paint6_radial_18_504)"/>
<ellipse cx="12.5546" cy="18.1868" rx="8.13023" ry="2.91536" transform="rotate(39.7456 12.5546 18.1868)" fill="url(#paint7_radial_18_504)"/>
<circle cx="14.9561" cy="16" r="1.20312" fill="url(#paint8_radial_18_504)"/>
<circle cx="14.9561" cy="16" r="1.20312" fill="url(#paint9_radial_18_504)"/>
<circle cx="24.8311" cy="22.9062" r="1.20312" fill="url(#paint10_radial_18_504)"/>
<circle cx="24.8311" cy="22.9062" r="1.20312" fill="url(#paint11_radial_18_504)"/>
<circle cx="24.8311" cy="22.9062" r="1.20312" fill="url(#paint12_radial_18_504)"/>
<circle cx="23.8232" cy="7.01562" r="1.20312" fill="url(#paint13_radial_18_504)"/>
<circle cx="23.8232" cy="7.01562" r="1.20312" fill="url(#paint14_radial_18_504)"/>
<circle cx="9.99084" cy="3.36719" r="1.20312" fill="url(#paint15_radial_18_504)"/>
<circle cx="9.99084" cy="3.36719" r="1.20312" fill="url(#paint16_radial_18_504)"/>
<circle cx="9.99084" cy="3.36719" r="1.20312" fill="url(#paint17_radial_18_504)"/>
<circle cx="4.92834" cy="8.10938" r="1.20312" fill="url(#paint18_radial_18_504)"/>
<circle cx="4.92834" cy="8.10938" r="1.20312" fill="url(#paint19_radial_18_504)"/>
<path fill-rule="evenodd" clip-rule="evenodd" d="M19.104 2.08229C19.6281 2.1068 20.0331 2.55153 20.0086 3.07563C19.9749 3.79721 19.8435 4.99928 19.5301 6.28329C19.2681 7.35653 18.8647 8.54693 18.2436 9.5675C18.3938 10.3637 18.3978 11.3032 18.2329 12.3715C18.1529 12.89 17.6677 13.2455 17.1491 13.1655C16.6306 13.0854 16.2751 12.6002 16.3551 12.0817C16.392 11.8426 16.4182 11.6188 16.435 11.4093C16.2506 11.5055 16.0618 11.5809 15.869 11.6347C15.1159 11.8451 14.3936 11.6993 13.8286 11.3229C12.7551 10.6079 12.2602 9.04308 13.0911 7.76381C13.8815 6.54684 15.5288 6.21596 16.7815 7.0818C16.9259 7.18164 17.0615 7.29413 17.1879 7.41895C17.3878 6.91353 17.5521 6.37422 17.6843 5.83268C17.9655 4.6809 18.082 3.60124 18.1107 2.98689C18.1352 2.46279 18.5799 2.05779 19.104 2.08229ZM16.1569 9.22278C16.0127 8.92246 15.8414 8.74171 15.7011 8.64477C15.3092 8.3739 14.8785 8.50005 14.6845 8.79871C14.4765 9.11896 14.5865 9.54485 14.8819 9.74165C15.0014 9.82121 15.1545 9.86159 15.3577 9.8048C15.5416 9.75342 15.823 9.6042 16.1569 9.22278Z" fill="url(#paint20_linear_18_504)"/>
<path fill-rule="evenodd" clip-rule="evenodd" d="M19.104 2.08229C19.6281 2.1068 20.0331 2.55153 20.0086 3.07563C19.9749 3.79721 19.8435 4.99928 19.5301 6.28329C19.2681 7.35653 18.8647 8.54693 18.2436 9.5675C18.3938 10.3637 18.3978 11.3032 18.2329 12.3715C18.1529 12.89 17.6677 13.2455 17.1491 13.1655C16.6306 13.0854 16.2751 12.6002 16.3551 12.0817C16.392 11.8426 16.4182 11.6188 16.435 11.4093C16.2506 11.5055 16.0618 11.5809 15.869 11.6347C15.1159 11.8451 14.3936 11.6993 13.8286 11.3229C12.7551 10.6079 12.2602 9.04308 13.0911 7.76381C13.8815 6.54684 15.5288 6.21596 16.7815 7.0818C16.9259 7.18164 17.0615 7.29413 17.1879 7.41895C17.3878 6.91353 17.5521 6.37422 17.6843 5.83268C17.9655 4.6809 18.082 3.60124 18.1107 2.98689C18.1352 2.46279 18.5799 2.05779 19.104 2.08229ZM16.1569 9.22278C16.0127 8.92246 15.8414 8.74171 15.7011 8.64477C15.3092 8.3739 14.8785 8.50005 14.6845 8.79871C14.4765 9.11896 14.5865 9.54485 14.8819 9.74165C15.0014 9.82121 15.1545 9.86159 15.3577 9.8048C15.5416 9.75342 15.823 9.6042 16.1569 9.22278Z" fill="url(#paint21_radial_18_504)"/>
<path fill-rule="evenodd" clip-rule="evenodd" d="M19.104 2.08229C19.6281 2.1068 20.0331 2.55153 20.0086 3.07563C19.9749 3.79721 19.8435 4.99928 19.5301 6.28329C19.2681 7.35653 18.8647 8.54693 18.2436 9.5675C18.3938 10.3637 18.3978 11.3032 18.2329 12.3715C18.1529 12.89 17.6677 13.2455 17.1491 13.1655C16.6306 13.0854 16.2751 12.6002 16.3551 12.0817C16.392 11.8426 16.4182 11.6188 16.435 11.4093C16.2506 11.5055 16.0618 11.5809 15.869 11.6347C15.1159 11.8451 14.3936 11.6993 13.8286 11.3229C12.7551 10.6079 12.2602 9.04308 13.0911 7.76381C13.8815 6.54684 15.5288 6.21596 16.7815 7.0818C16.9259 7.18164 17.0615 7.29413 17.1879 7.41895C17.3878 6.91353 17.5521 6.37422 17.6843 5.83268C17.9655 4.6809 18.082 3.60124 18.1107 2.98689C18.1352 2.46279 18.5799 2.05779 19.104 2.08229ZM16.1569 9.22278C16.0127 8.92246 15.8414 8.74171 15.7011 8.64477C15.3092 8.3739 14.8785 8.50005 14.6845 8.79871C14.4765 9.11896 14.5865 9.54485 14.8819 9.74165C15.0014 9.82121 15.1545 9.86159 15.3577 9.8048C15.5416 9.75342 15.823 9.6042 16.1569 9.22278Z" fill="url(#paint22_radial_18_504)"/>
<path fill-rule="evenodd" clip-rule="evenodd" d="M19.104 2.08229C19.6281 2.1068 20.0331 2.55153 20.0086 3.07563C19.9749 3.79721 19.8435 4.99928 19.5301 6.28329C19.2681 7.35653 18.8647 8.54693 18.2436 9.5675C18.3938 10.3637 18.3978 11.3032 18.2329 12.3715C18.1529 12.89 17.6677 13.2455 17.1491 13.1655C16.6306 13.0854 16.2751 12.6002 16.3551 12.0817C16.392 11.8426 16.4182 11.6188 16.435 11.4093C16.2506 11.5055 16.0618 11.5809 15.869 11.6347C15.1159 11.8451 14.3936 11.6993 13.8286 11.3229C12.7551 10.6079 12.2602 9.04308 13.0911 7.76381C13.8815 6.54684 15.5288 6.21596 16.7815 7.0818C16.9259 7.18164 17.0615 7.29413 17.1879 7.41895C17.3878 6.91353 17.5521 6.37422 17.6843 5.83268C17.9655 4.6809 18.082 3.60124 18.1107 2.98689C18.1352 2.46279 18.5799 2.05779 19.104 2.08229ZM16.1569 9.22278C16.0127 8.92246 15.8414 8.74171 15.7011 8.64477C15.3092 8.3739 14.8785 8.50005 14.6845 8.79871C14.4765 9.11896 14.5865 9.54485 14.8819 9.74165C15.0014 9.82121 15.1545 9.86159 15.3577 9.8048C15.5416 9.75342 15.823 9.6042 16.1569 9.22278Z" fill="url(#paint23_radial_18_504)"/>
<path d="M15.9526 26.0092C13.3466 25.8281 11.5188 25.0482 8.55753 22.6015C6.01012 20.4969 4.74539 18.6297 4.32327 16.7257L3.83423 19.5394C4.0341 20.6406 4.89347 22.1797 6.5966 23.7187C8.82409 25.7317 11.0419 27.1562 13.2352 27.0938C14.1378 26.7413 15.0418 26.3819 15.9526 26.0092Z" fill="url(#paint24_radial_18_504)"/>
<path d="M10.4569 28.1629C9.20447 28.2327 7.51066 27.2109 5.75285 25.75C4.25285 24.4531 3.51295 23.0442 3.35722 22.2839L2.8606 25.1412C2.98344 25.6242 3.35755 26.2808 4.44035 27.3906C5.65114 28.6317 6.86874 29.1146 7.59181 29.252C8.10488 29.0564 8.61485 28.8628 9.12267 28.67C9.56889 28.5006 10.0134 28.3318 10.4569 28.1629Z" fill="url(#paint25_radial_18_504)"/>
<path fill-rule="evenodd" clip-rule="evenodd" d="M27.9031 13.1087C24.3053 12.4058 22.1793 14.0541 21.5054 14.7933C21.1147 15.2219 20.4506 15.2526 20.0221 14.8619C19.5935 14.4712 19.5628 13.8071 19.9535 13.3786C20.9983 12.2324 23.8255 10.1724 28.3058 11.0476C28.8749 11.1588 29.2462 11.7103 29.135 12.2795C29.0238 12.8486 28.4723 13.2199 27.9031 13.1087Z" fill="url(#paint26_radial_18_504)"/>
<path fill-rule="evenodd" clip-rule="evenodd" d="M27.9031 13.1087C24.3053 12.4058 22.1793 14.0541 21.5054 14.7933C21.1147 15.2219 20.4506 15.2526 20.0221 14.8619C19.5935 14.4712 19.5628 13.8071 19.9535 13.3786C20.9983 12.2324 23.8255 10.1724 28.3058 11.0476C28.8749 11.1588 29.2462 11.7103 29.135 12.2795C29.0238 12.8486 28.4723 13.2199 27.9031 13.1087Z" fill="url(#paint27_radial_18_504)"/>
<path d="M12.8551 8.2115C12.9165 8.05968 12.9941 7.90989 13.089 7.76382C13.8794 6.54685 15.5267 6.21598 16.7794 7.08182C16.9238 7.18165 17.0594 7.29414 17.1858 7.41896C17.2267 7.31569 17.266 7.21101 17.3039 7.10518C17.3058 7.11158 17.3076 7.11794 17.3094 7.12428C17.0521 7.93482 16.4747 8.80251 16.154 9.22111C16.0099 8.9218 15.839 8.74155 15.699 8.64479C15.3071 8.37391 14.8764 8.50007 14.6824 8.79872C14.6748 8.81034 14.6677 8.8221 14.661 8.83399L12.8551 8.2115Z" fill="url(#paint28_radial_18_504)"/>
<path d="M12.8551 8.2115C12.9165 8.05968 12.9941 7.90989 13.089 7.76382C13.8794 6.54685 15.5267 6.21598 16.7794 7.08182C16.9238 7.18165 17.0594 7.29414 17.1858 7.41896C17.2267 7.31569 17.266 7.21101 17.3039 7.10518C17.3058 7.11158 17.3076 7.11794 17.3094 7.12428C17.0521 7.93482 16.4747 8.80251 16.154 9.22111C16.0099 8.9218 15.839 8.74155 15.699 8.64479C15.3071 8.37391 14.8764 8.50007 14.6824 8.79872C14.6748 8.81034 14.6677 8.8221 14.661 8.83399L12.8551 8.2115Z" fill="url(#paint29_radial_18_504)"/>
<path fill-rule="evenodd" clip-rule="evenodd" d="M13.8416 22.6062C13.1574 22.2279 12.4442 21.7697 11.7268 21.2407C12.8132 19.8942 14.7537 18.128 17.284 16.8526C21.4414 14.757 26.0254 15.8944 27.8932 16.6349C28.535 16.8893 28.849 17.6158 28.5946 18.2576C28.3402 18.8993 27.6137 19.2133 26.9719 18.9589C25.371 18.3243 21.6273 17.4629 18.4093 19.085C16.2868 20.1549 14.7086 21.5934 13.8416 22.6062Z" fill="url(#paint30_linear_18_504)"/>
<path fill-rule="evenodd" clip-rule="evenodd" d="M13.8416 22.6062C13.1574 22.2279 12.4442 21.7697 11.7268 21.2407C12.8132 19.8942 14.7537 18.128 17.284 16.8526C21.4414 14.757 26.0254 15.8944 27.8932 16.6349C28.535 16.8893 28.849 17.6158 28.5946 18.2576C28.3402 18.8993 27.6137 19.2133 26.9719 18.9589C25.371 18.3243 21.6273 17.4629 18.4093 19.085C16.2868 20.1549 14.7086 21.5934 13.8416 22.6062Z" fill="url(#paint31_radial_18_504)"/>
<path fill-rule="evenodd" clip-rule="evenodd" d="M13.8416 22.6062C13.1574 22.2279 12.4442 21.7697 11.7268 21.2407C12.8132 19.8942 14.7537 18.128 17.284 16.8526C21.4414 14.757 26.0254 15.8944 27.8932 16.6349C28.535 16.8893 28.849 17.6158 28.5946 18.2576C28.3402 18.8993 27.6137 19.2133 26.9719 18.9589C25.371 18.3243 21.6273 17.4629 18.4093 19.085C16.2868 20.1549 14.7086 21.5934 13.8416 22.6062Z" fill="url(#paint32_radial_18_504)"/>
<path fill-rule="evenodd" clip-rule="evenodd" d="M13.8416 22.6062C13.1574 22.2279 12.4442 21.7697 11.7268 21.2407C12.8132 19.8942 14.7537 18.128 17.284 16.8526C21.4414 14.757 26.0254 15.8944 27.8932 16.6349C28.535 16.8893 28.849 17.6158 28.5946 18.2576C28.3402 18.8993 27.6137 19.2133 26.9719 18.9589C25.371 18.3243 21.6273 17.4629 18.4093 19.085C16.2868 20.1549 14.7086 21.5934 13.8416 22.6062Z" fill="url(#paint33_radial_18_504)"/>
<path fill-rule="evenodd" clip-rule="evenodd" d="M10.1918 6.65335C9.85615 6.0501 9.095 5.83319 8.49175 6.16887C7.8885 6.50455 7.67159 7.2657 8.00727 7.86895C8.51417 8.77991 9.13831 10.0659 9.21819 11.7218C9.2878 13.1649 8.94799 14.9951 7.56641 17.1906C8.04444 17.8232 8.6217 18.4789 9.28202 19.13C11.2299 16.2965 11.8194 13.7587 11.7153 11.6013C11.6077 9.37047 10.7631 7.6799 10.1918 6.65335Z" fill="url(#paint34_radial_18_504)"/>
<path fill-rule="evenodd" clip-rule="evenodd" d="M10.1918 6.65335C9.85615 6.0501 9.095 5.83319 8.49175 6.16887C7.8885 6.50455 7.67159 7.2657 8.00727 7.86895C8.51417 8.77991 9.13831 10.0659 9.21819 11.7218C9.2878 13.1649 8.94799 14.9951 7.56641 17.1906C8.04444 17.8232 8.6217 18.4789 9.28202 19.13C11.2299 16.2965 11.8194 13.7587 11.7153 11.6013C11.6077 9.37047 10.7631 7.6799 10.1918 6.65335Z" fill="url(#paint35_radial_18_504)"/>
<path d="M18.2416 9.56836C18.3917 10.3644 18.3956 11.3036 18.2308 12.3715C18.1508 12.89 17.6656 13.2455 17.147 13.1654C16.6285 13.0854 16.273 12.6002 16.353 12.0817C16.3899 11.8431 16.416 11.6196 16.4328 11.4105C17.4148 10.794 18.0631 9.97364 18.2416 9.56836Z" fill="url(#paint36_radial_18_504)"/>
<defs>
<linearGradient id="paint0_linear_18_504" x1="4.22164" y1="19.9844" x2="12.2841" y2="26.9844" gradientUnits="userSpaceOnUse">
<stop stop-color="#B3843C"/>
<stop offset="1" stop-color="#F17A61"/>
</linearGradient>
<linearGradient id="paint1_linear_18_504" x1="3.33073" y1="21.0677" x2="5.69039" y2="21.5469" gradientUnits="userSpaceOnUse">
<stop stop-color="#B1853B"/>
<stop offset="1" stop-color="#B1853B" stop-opacity="0"/>
</linearGradient>
<linearGradient id="paint2_linear_18_504" x1="19.7358" y1="23.8281" x2="15.7529" y2="24.4844" gradientUnits="userSpaceOnUse">
<stop stop-color="#F9C26C"/>
<stop offset="1" stop-color="#F9C26C" stop-opacity="0"/>
</linearGradient>
<linearGradient id="paint3_linear_18_504" x1="11.155" y1="12.3906" x2="8.59664" y2="16.7344" gradientUnits="userSpaceOnUse">
<stop stop-color="#E6BF69"/>
<stop offset="1" stop-color="#E6BF69" stop-opacity="0"/>
</linearGradient>
<radialGradient id="paint4_radial_18_504" cx="0" cy="0" r="1" gradientUnits="userSpaceOnUse" gradientTransform="translate(12.6031 17.9061) rotate(-49.3383) scale(4.35332 10.202)">
<stop stop-color="#F5BD55" stop-opacity="0"/>
<stop offset="0.836376" stop-color="#FCCB57"/>
<stop offset="1" stop-color="#FCCB57" stop-opacity="0"/>
</radialGradient>
<linearGradient id="paint5_linear_18_504" x1="5.14749" y1="17.8646" x2="21.6274" y2="18.6701" gradientUnits="userSpaceOnUse">
<stop stop-color="#F3AB2C"/>
<stop offset="1" stop-color="#B57F1E"/>
</linearGradient>
<radialGradient id="paint6_radial_18_504" cx="0" cy="0" r="1" gradientUnits="userSpaceOnUse" gradientTransform="translate(8.45366 20.5208) rotate(-109.125) scale(6.4775 1.81427)">
<stop offset="0.423414" stop-color="#CA851E"/>
<stop offset="1" stop-color="#CA851E" stop-opacity="0"/>
</radialGradient>
<radialGradient id="paint7_radial_18_504" cx="0" cy="0" r="1" gradientUnits="userSpaceOnUse" gradientTransform="translate(15.2355 20.612) rotate(-73.0972) scale(6.50954 3.81205)">
<stop stop-color="#BC7F28"/>
<stop offset="1" stop-color="#BC7F28" stop-opacity="0"/>
</radialGradient>
<radialGradient id="paint8_radial_18_504" cx="0" cy="0" r="1" gradientUnits="userSpaceOnUse" gradientTransform="translate(15.4873 15.6719) rotate(138.668) scale(1.72711)">
<stop stop-color="#5AC0FF"/>
<stop offset="1" stop-color="#3279B6"/>
</radialGradient>
<radialGradient id="paint9_radial_18_504" cx="0" cy="0" r="1" gradientUnits="userSpaceOnUse" gradientTransform="translate(15.1928 15.8342) rotate(160.051) scale(1.73439 1.90111)">
<stop offset="0.534713" stop-color="#3A619E" stop-opacity="0"/>
<stop offset="1" stop-color="#3A619E"/>
</radialGradient>
<radialGradient id="paint10_radial_18_504" cx="0" cy="0" r="1" gradientUnits="userSpaceOnUse" gradientTransform="translate(25.5282 22.3978) rotate(134.569) scale(1.97753)">
<stop stop-color="#FDD46C"/>
<stop offset="1" stop-color="#F09C53"/>
</radialGradient>
<radialGradient id="paint11_radial_18_504" cx="0" cy="0" r="1" gradientUnits="userSpaceOnUse" gradientTransform="translate(25.0551 22.2927) rotate(100.827) scale(1.95883)">
<stop offset="0.792052" stop-color="#E76260" stop-opacity="0"/>
<stop offset="0.964251" stop-color="#E76260"/>
</radialGradient>
<radialGradient id="paint12_radial_18_504" cx="0" cy="0" r="1" gradientUnits="userSpaceOnUse" gradientTransform="translate(25.4051 23.1048) rotate(-147.558) scale(1.98371 2.33609)">
<stop offset="0.482355" stop-color="#AA885A" stop-opacity="0"/>
<stop offset="0.90682" stop-color="#AA885A"/>
</radialGradient>
<radialGradient id="paint13_radial_18_504" cx="0" cy="0" r="1" gradientUnits="userSpaceOnUse" gradientTransform="translate(24.6848 6.54746) rotate(132.387) scale(2.06012)">
<stop stop-color="#FF46AA"/>
<stop offset="1" stop-color="#E3189D"/>
</radialGradient>
<radialGradient id="paint14_radial_18_504" cx="0" cy="0" r="1" gradientUnits="userSpaceOnUse" gradientTransform="translate(24.3311 7.23437) rotate(-173.29) scale(1.8722 2.50559)">
<stop offset="0.522105" stop-color="#B63173" stop-opacity="0"/>
<stop offset="1" stop-color="#B63173"/>
</radialGradient>
<radialGradient id="paint15_radial_18_504" cx="0" cy="0" r="1" gradientUnits="userSpaceOnUse" gradientTransform="translate(10.7792 2.8856) rotate(139.574) scale(1.84118)">
<stop stop-color="#FFF46F"/>
<stop offset="1" stop-color="#EFB93C"/>
</radialGradient>
<radialGradient id="paint16_radial_18_504" cx="0" cy="0" r="1" gradientUnits="userSpaceOnUse" gradientTransform="translate(10.5158 3.17236) rotate(-178.519) scale(1.91464 1.82297)">
<stop offset="0.558644" stop-color="#AA904B" stop-opacity="0"/>
<stop offset="0.943632" stop-color="#AA904B"/>
</radialGradient>
<radialGradient id="paint17_radial_18_504" cx="0" cy="0" r="1" gradientUnits="userSpaceOnUse" gradientTransform="translate(10.2997 2.6875) rotate(102.339) scale(2.04729)">
<stop offset="0.771901" stop-color="#C47072" stop-opacity="0"/>
<stop offset="1" stop-color="#C47072"/>
</radialGradient>
<radialGradient id="paint18_radial_18_504" cx="0" cy="0" r="1" gradientUnits="userSpaceOnUse" gradientTransform="translate(5.78992 7.64121) rotate(132.387) scale(2.06012)">
<stop stop-color="#FF46AA"/>
<stop offset="1" stop-color="#E3189D"/>
</radialGradient>
<radialGradient id="paint19_radial_18_504" cx="0" cy="0" r="1" gradientUnits="userSpaceOnUse" gradientTransform="translate(5.43616 8.32812) rotate(-173.29) scale(1.8722 2.50559)">
<stop offset="0.522105" stop-color="#B63173" stop-opacity="0"/>
<stop offset="1" stop-color="#B63173"/>
</radialGradient>
<linearGradient id="paint20_linear_18_504" x1="19.0623" y1="2.08124" x2="14.5804" y2="12.8229" gradientUnits="userSpaceOnUse">
<stop stop-color="#20B2EE"/>
<stop offset="1" stop-color="#2689DA"/>
</linearGradient>
<radialGradient id="paint21_radial_18_504" cx="0" cy="0" r="1" gradientUnits="userSpaceOnUse" gradientTransform="translate(18.0785 5.57065) rotate(128.217) scale(7.76064 4.747)">
<stop offset="0.80204" stop-color="#4274D2" stop-opacity="0"/>
<stop offset="0.950917" stop-color="#4274D2"/>
</radialGradient>
<radialGradient id="paint22_radial_18_504" cx="0" cy="0" r="1" gradientUnits="userSpaceOnUse" gradientTransform="translate(17.6903 4.67188) rotate(12.0948) scale(1.11858 3.75515)">
<stop stop-color="#4D8EC0"/>
<stop offset="1" stop-color="#4D8EC0" stop-opacity="0"/>
</radialGradient>
<radialGradient id="paint23_radial_18_504" cx="0" cy="0" r="1" gradientUnits="userSpaceOnUse" gradientTransform="translate(19.9091 2.25) rotate(141.953) scale(1.36904 1.23086)">
<stop stop-color="#5ADEFF"/>
<stop offset="1" stop-color="#5ADEFF" stop-opacity="0"/>
</radialGradient>
<radialGradient id="paint24_radial_18_504" cx="0" cy="0" r="1" gradientUnits="userSpaceOnUse" gradientTransform="translate(11.2216 25.0781) rotate(133.21) scale(4.24471 9.2935)">
<stop stop-color="#3365FF"/>
<stop offset="1" stop-color="#356DB9"/>
</radialGradient>
<radialGradient id="paint25_radial_18_504" cx="0" cy="0" r="1" gradientUnits="userSpaceOnUse" gradientTransform="translate(7.4091 28.0156) rotate(131.598) scale(2.62017 6.62793)">
<stop stop-color="#3365FF"/>
<stop offset="1" stop-color="#356DB9"/>
</radialGradient>
<radialGradient id="paint26_radial_18_504" cx="0" cy="0" r="1" gradientUnits="userSpaceOnUse" gradientTransform="translate(27.5341 11.8907) rotate(168.283) scale(4.30854 1.60742)">
<stop stop-color="#FF3BA9"/>
<stop offset="1" stop-color="#F422A7"/>
</radialGradient>
<radialGradient id="paint27_radial_18_504" cx="0" cy="0" r="1" gradientUnits="userSpaceOnUse" gradientTransform="translate(24.417 15.3282) rotate(-127.355) scale(4.44241 7.91727)">
<stop offset="0.752144" stop-color="#B8306F" stop-opacity="0"/>
<stop offset="1" stop-color="#B8306F"/>
</radialGradient>
<radialGradient id="paint28_radial_18_504" cx="0" cy="0" r="1" gradientUnits="userSpaceOnUse" gradientTransform="translate(17.0268 9.34138) rotate(-131.325) scale(2.94473 2.20121)">
<stop stop-color="#336BAF"/>
<stop offset="1" stop-color="#336BAF" stop-opacity="0"/>
</radialGradient>
<radialGradient id="paint29_radial_18_504" cx="0" cy="0" r="1" gradientUnits="userSpaceOnUse" gradientTransform="translate(17.3094 7.45303) rotate(-127.657) scale(1.85511 0.751608)">
<stop stop-color="#49A4D4"/>
<stop offset="1" stop-color="#49A4D4" stop-opacity="0"/>
</radialGradient>
<linearGradient id="paint30_linear_18_504" x1="14.4503" y1="21.6949" x2="27.8595" y2="18.1808" gradientUnits="userSpaceOnUse">
<stop stop-color="#3797E2"/>
<stop offset="1" stop-color="#37AEFF"/>
</linearGradient>
<radialGradient id="paint31_radial_18_504" cx="0" cy="0" r="1" gradientUnits="userSpaceOnUse" gradientTransform="translate(19.4103 23.8875) rotate(-129.838) scale(7.98002 20.0036)">
<stop offset="0.622552" stop-color="#526579" stop-opacity="0"/>
<stop offset="0.962126" stop-color="#526579"/>
</radialGradient>
<radialGradient id="paint32_radial_18_504" cx="0" cy="0" r="1" gradientUnits="userSpaceOnUse" gradientTransform="translate(23.8922 19.5807) rotate(94.3987) scale(2.7392 5.50719)">
<stop offset="0.396078" stop-color="#6972FF"/>
<stop offset="1" stop-color="#6972FF" stop-opacity="0"/>
</radialGradient>
<radialGradient id="paint33_radial_18_504" cx="0" cy="0" r="1" gradientUnits="userSpaceOnUse" gradientTransform="translate(27.9539 17.2785) rotate(-68.8186) scale(0.75103 0.592274)">
<stop stop-color="#55BFFF"/>
<stop offset="1" stop-color="#55BFFF" stop-opacity="0"/>
</radialGradient>
<radialGradient id="paint34_radial_18_504" cx="0" cy="0" r="1" gradientUnits="userSpaceOnUse" gradientTransform="translate(10.8437 6.43625) rotate(99.4229) scale(7.31184 2.7393)">
<stop stop-color="#FF3AAA"/>
<stop offset="1" stop-color="#FD2F89"/>
</radialGradient>
<radialGradient id="paint35_radial_18_504" cx="0" cy="0" r="1" gradientUnits="userSpaceOnUse" gradientTransform="translate(7.02611 13.9761) rotate(31.1757) scale(4.80845 15.0903)">
<stop offset="0.803698" stop-color="#DB2C6E" stop-opacity="0"/>
<stop offset="1" stop-color="#DB2C6E"/>
</radialGradient>
<radialGradient id="paint36_radial_18_504" cx="0" cy="0" r="1" gradientUnits="userSpaceOnUse" gradientTransform="translate(17.8438 11.3725) rotate(98.0559) scale(3.53738 1.96871)">
<stop stop-color="#4AB5F8"/>
<stop offset="1" stop-color="#4AB5F8" stop-opacity="0"/>
</radialGradient>
</defs>
</svg>
