<svg width="32" height="32" viewBox="0 0 32 32" fill="none" xmlns="http://www.w3.org/2000/svg">
<path d="M14.8545 6.80817C16.8105 4.85559 19.9817 4.85561 21.9376 6.80822L26.9733 11.8353C27.0248 11.8867 27.0748 11.9388 27.1234 11.9916H28.3983V15.2239C28.3927 16.4416 27.9119 17.665 26.9733 18.6477C26.1309 19.5296 25.377 20.016 24.4126 20.638C23.8378 21.0088 23.1882 21.4278 22.4006 22.0076C21.7633 22.4366 21.1913 22.9958 20.7604 23.6313C20.5681 23.9424 20.3773 24.2643 20.1842 24.5902C19.4253 25.8705 18.6296 27.2128 17.5652 28.207C15.41 30.22 12.1519 30.2603 10.0353 28.207L5.31836 23.6313C4.34692 22.689 3.83997 21.4484 3.80249 20.1947H3.80017V16.6966H5.08948C5.12061 16.6621 5.15234 16.6279 5.18469 16.5941L6.08118 15.656C6.43628 15.2844 6.83765 14.9599 7.27563 14.6903L8.8551 13.7182C10.0885 12.9589 11.1423 11.9416 11.9437 10.7363L13.6327 8.19608C13.8538 7.86349 14.1077 7.55376 14.3904 7.27149L14.8545 6.80817Z" fill="url(#paint0_linear_18_26328)"/>
<path d="M14.8545 6.80817C16.8105 4.85559 19.9817 4.85561 21.9376 6.80822L26.9733 11.8353C27.0248 11.8867 27.0748 11.9388 27.1234 11.9916H28.3983V15.2239C28.3927 16.4416 27.9119 17.665 26.9733 18.6477C26.1309 19.5296 25.377 20.016 24.4126 20.638C23.8378 21.0088 23.1882 21.4278 22.4006 22.0076C21.7633 22.4366 21.1913 22.9958 20.7604 23.6313C20.5681 23.9424 20.3773 24.2643 20.1842 24.5902C19.4253 25.8705 18.6296 27.2128 17.5652 28.207C15.41 30.22 12.1519 30.2603 10.0353 28.207L5.31836 23.6313C4.34692 22.689 3.83997 21.4484 3.80249 20.1947H3.80017V16.6966H5.08948C5.12061 16.6621 5.15234 16.6279 5.18469 16.5941L6.08118 15.656C6.43628 15.2844 6.83765 14.9599 7.27563 14.6903L8.8551 13.7182C10.0885 12.9589 11.1423 11.9416 11.9437 10.7363L13.6327 8.19608C13.8538 7.86349 14.1077 7.55376 14.3904 7.27149L14.8545 6.80817Z" fill="url(#paint1_linear_18_26328)"/>
<path d="M14.8545 6.80817C16.8105 4.85559 19.9817 4.85561 21.9376 6.80822L26.9733 11.8353C27.0248 11.8867 27.0748 11.9388 27.1234 11.9916H28.3983V15.2239C28.3927 16.4416 27.9119 17.665 26.9733 18.6477C26.1309 19.5296 25.377 20.016 24.4126 20.638C23.8378 21.0088 23.1882 21.4278 22.4006 22.0076C21.7633 22.4366 21.1913 22.9958 20.7604 23.6313C20.5681 23.9424 20.3773 24.2643 20.1842 24.5902C19.4253 25.8705 18.6296 27.2128 17.5652 28.207C15.41 30.22 12.1519 30.2603 10.0353 28.207L5.31836 23.6313C4.34692 22.689 3.83997 21.4484 3.80249 20.1947H3.80017V16.6966H5.08948C5.12061 16.6621 5.15234 16.6279 5.18469 16.5941L6.08118 15.656C6.43628 15.2844 6.83765 14.9599 7.27563 14.6903L8.8551 13.7182C10.0885 12.9589 11.1423 11.9416 11.9437 10.7363L13.6327 8.19608C13.8538 7.86349 14.1077 7.55376 14.3904 7.27149L14.8545 6.80817Z" fill="url(#paint2_radial_18_26328)"/>
<path d="M14.8545 6.80817C16.8105 4.85559 19.9817 4.85561 21.9376 6.80822L26.9733 11.8353C27.0248 11.8867 27.0748 11.9388 27.1234 11.9916H28.3983V15.2239C28.3927 16.4416 27.9119 17.665 26.9733 18.6477C26.1309 19.5296 25.377 20.016 24.4126 20.638C23.8378 21.0088 23.1882 21.4278 22.4006 22.0076C21.7633 22.4366 21.1913 22.9958 20.7604 23.6313C20.5681 23.9424 20.3773 24.2643 20.1842 24.5902C19.4253 25.8705 18.6296 27.2128 17.5652 28.207C15.41 30.22 12.1519 30.2603 10.0353 28.207L5.31836 23.6313C4.34692 22.689 3.83997 21.4484 3.80249 20.1947H3.80017V16.6966H5.08948C5.12061 16.6621 5.15234 16.6279 5.18469 16.5941L6.08118 15.656C6.43628 15.2844 6.83765 14.9599 7.27563 14.6903L8.8551 13.7182C10.0885 12.9589 11.1423 11.9416 11.9437 10.7363L13.6327 8.19608C13.8538 7.86349 14.1077 7.55376 14.3904 7.27149L14.8545 6.80817Z" fill="url(#paint3_radial_18_26328)"/>
<path d="M14.8357 3.34186C16.7883 1.38928 19.9541 1.38931 21.9067 3.34191L26.9338 8.36903C28.8537 10.2889 28.8906 13.39 27.017 15.3549C26.5366 15.8587 26.0688 16.3652 25.4876 16.7571L22.3541 18.87C21.7179 19.299 21.1698 19.8461 20.7397 20.4815C19.7717 21.9118 18.9156 23.6212 17.6422 24.8127C15.4908 26.8256 12.1377 26.794 10.0247 24.7407L5.31572 20.165C3.34817 18.2531 3.28866 15.1129 5.18237 13.1278C5.83539 12.4433 6.45654 11.7254 7.26968 11.224L8.84646 10.2518C10.0779 9.49261 11.1299 8.47525 11.9299 7.26995L13.6159 4.72977C13.9606 4.21048 14.3976 3.77996 14.8357 3.34186Z" fill="url(#paint4_linear_18_26328)"/>
<path d="M14.8357 3.34186C16.7883 1.38928 19.9541 1.38931 21.9067 3.34191L26.9338 8.36903C28.8537 10.2889 28.8906 13.39 27.017 15.3549C26.5366 15.8587 26.0688 16.3652 25.4876 16.7571L22.3541 18.87C21.7179 19.299 21.1698 19.8461 20.7397 20.4815C19.7717 21.9118 18.9156 23.6212 17.6422 24.8127C15.4908 26.8256 12.1377 26.794 10.0247 24.7407L5.31572 20.165C3.34817 18.2531 3.28866 15.1129 5.18237 13.1278C5.83539 12.4433 6.45654 11.7254 7.26968 11.224L8.84646 10.2518C10.0779 9.49261 11.1299 8.47525 11.9299 7.26995L13.6159 4.72977C13.9606 4.21048 14.3976 3.77996 14.8357 3.34186Z" fill="url(#paint5_linear_18_26328)"/>
<path d="M14.8357 3.34186C16.7883 1.38928 19.9541 1.38931 21.9067 3.34191L26.9338 8.36903C28.8537 10.2889 28.8906 13.39 27.017 15.3549C26.5366 15.8587 26.0688 16.3652 25.4876 16.7571L22.3541 18.87C21.7179 19.299 21.1698 19.8461 20.7397 20.4815C19.7717 21.9118 18.9156 23.6212 17.6422 24.8127C15.4908 26.8256 12.1377 26.794 10.0247 24.7407L5.31572 20.165C3.34817 18.2531 3.28866 15.1129 5.18237 13.1278C5.83539 12.4433 6.45654 11.7254 7.26968 11.224L8.84646 10.2518C10.0779 9.49261 11.1299 8.47525 11.9299 7.26995L13.6159 4.72977C13.9606 4.21048 14.3976 3.77996 14.8357 3.34186Z" fill="url(#paint6_linear_18_26328)" fill-opacity="0.77"/>
<path d="M14.8357 3.34186C16.7883 1.38928 19.9541 1.38931 21.9067 3.34191L26.9338 8.36903C28.8537 10.2889 28.8906 13.39 27.017 15.3549C26.5366 15.8587 26.0688 16.3652 25.4876 16.7571L22.3541 18.87C21.7179 19.299 21.1698 19.8461 20.7397 20.4815C19.7717 21.9118 18.9156 23.6212 17.6422 24.8127C15.4908 26.8256 12.1377 26.794 10.0247 24.7407L5.31572 20.165C3.34817 18.2531 3.28866 15.1129 5.18237 13.1278C5.83539 12.4433 6.45654 11.7254 7.26968 11.224L8.84646 10.2518C10.0779 9.49261 11.1299 8.47525 11.9299 7.26995L13.6159 4.72977C13.9606 4.21048 14.3976 3.77996 14.8357 3.34186Z" fill="url(#paint7_radial_18_26328)"/>
<path d="M14.8357 3.34186C16.7883 1.38928 19.9541 1.38931 21.9067 3.34191L26.9338 8.36903C28.8537 10.2889 28.8906 13.39 27.017 15.3549C26.5366 15.8587 26.0688 16.3652 25.4876 16.7571L22.3541 18.87C21.7179 19.299 21.1698 19.8461 20.7397 20.4815C19.7717 21.9118 18.9156 23.6212 17.6422 24.8127C15.4908 26.8256 12.1377 26.794 10.0247 24.7407L5.31572 20.165C3.34817 18.2531 3.28866 15.1129 5.18237 13.1278C5.83539 12.4433 6.45654 11.7254 7.26968 11.224L8.84646 10.2518C10.0779 9.49261 11.1299 8.47525 11.9299 7.26995L13.6159 4.72977C13.9606 4.21048 14.3976 3.77996 14.8357 3.34186Z" fill="url(#paint8_radial_18_26328)"/>
<path d="M14.8357 3.34186C16.7883 1.38928 19.9541 1.38931 21.9067 3.34191L26.9338 8.36903C28.8537 10.2889 28.8906 13.39 27.017 15.3549C26.5366 15.8587 26.0688 16.3652 25.4876 16.7571L22.3541 18.87C21.7179 19.299 21.1698 19.8461 20.7397 20.4815C19.7717 21.9118 18.9156 23.6212 17.6422 24.8127C15.4908 26.8256 12.1377 26.794 10.0247 24.7407L5.31572 20.165C3.34817 18.2531 3.28866 15.1129 5.18237 13.1278C5.83539 12.4433 6.45654 11.7254 7.26968 11.224L8.84646 10.2518C10.0779 9.49261 11.1299 8.47525 11.9299 7.26995L13.6159 4.72977C13.9606 4.21048 14.3976 3.77996 14.8357 3.34186Z" fill="url(#paint9_radial_18_26328)"/>
<path d="M14.8357 3.34186C16.7883 1.38928 19.9541 1.38931 21.9067 3.34191L26.9338 8.36903C28.8537 10.2889 28.8906 13.39 27.017 15.3549C26.5366 15.8587 26.0688 16.3652 25.4876 16.7571L22.3541 18.87C21.7179 19.299 21.1698 19.8461 20.7397 20.4815C19.7717 21.9118 18.9156 23.6212 17.6422 24.8127C15.4908 26.8256 12.1377 26.794 10.0247 24.7407L5.31572 20.165C3.34817 18.2531 3.28866 15.1129 5.18237 13.1278C5.83539 12.4433 6.45654 11.7254 7.26968 11.224L8.84646 10.2518C10.0779 9.49261 11.1299 8.47525 11.9299 7.26995L13.6159 4.72977C13.9606 4.21048 14.3976 3.77996 14.8357 3.34186Z" fill="url(#paint10_linear_18_26328)"/>
<path d="M14.8357 3.34186C16.7883 1.38928 19.9541 1.38931 21.9067 3.34191L26.9338 8.36903C28.8537 10.2889 28.8906 13.39 27.017 15.3549C26.5366 15.8587 26.0688 16.3652 25.4876 16.7571L22.3541 18.87C21.7179 19.299 21.1698 19.8461 20.7397 20.4815C19.7717 21.9118 18.9156 23.6212 17.6422 24.8127C15.4908 26.8256 12.1377 26.794 10.0247 24.7407L5.31572 20.165C3.34817 18.2531 3.28866 15.1129 5.18237 13.1278C5.83539 12.4433 6.45654 11.7254 7.26968 11.224L8.84646 10.2518C10.0779 9.49261 11.1299 8.47525 11.9299 7.26995L13.6159 4.72977C13.9606 4.21048 14.3976 3.77996 14.8357 3.34186Z" fill="url(#paint11_radial_18_26328)"/>
<path d="M14.8357 3.34186C16.7883 1.38928 19.9541 1.38931 21.9067 3.34191L26.9338 8.36903C28.8537 10.2889 28.8906 13.39 27.017 15.3549C26.5366 15.8587 26.0688 16.3652 25.4876 16.7571L22.3541 18.87C21.7179 19.299 21.1698 19.8461 20.7397 20.4815C19.7717 21.9118 18.9156 23.6212 17.6422 24.8127C15.4908 26.8256 12.1377 26.794 10.0247 24.7407L5.31572 20.165C3.34817 18.2531 3.28866 15.1129 5.18237 13.1278C5.83539 12.4433 6.45654 11.7254 7.26968 11.224L8.84646 10.2518C10.0779 9.49261 11.1299 8.47525 11.9299 7.26995L13.6159 4.72977C13.9606 4.21048 14.3976 3.77996 14.8357 3.34186Z" fill="url(#paint12_radial_18_26328)"/>
<path d="M14.8357 3.34186C16.7883 1.38928 19.9541 1.38931 21.9067 3.34191L26.9338 8.36903C28.8537 10.2889 28.8906 13.39 27.017 15.3549C26.5366 15.8587 26.0688 16.3652 25.4876 16.7571L22.3541 18.87C21.7179 19.299 21.1698 19.8461 20.7397 20.4815C19.7717 21.9118 18.9156 23.6212 17.6422 24.8127C15.4908 26.8256 12.1377 26.794 10.0247 24.7407L5.31572 20.165C3.34817 18.2531 3.28866 15.1129 5.18237 13.1278C5.83539 12.4433 6.45654 11.7254 7.26968 11.224L8.84646 10.2518C10.0779 9.49261 11.1299 8.47525 11.9299 7.26995L13.6159 4.72977C13.9606 4.21048 14.3976 3.77996 14.8357 3.34186Z" fill="url(#paint13_radial_18_26328)"/>
<path d="M14.8357 3.34186C16.7883 1.38928 19.9541 1.38931 21.9067 3.34191L26.9338 8.36903C28.8537 10.2889 28.8906 13.39 27.017 15.3549C26.5366 15.8587 26.0688 16.3652 25.4876 16.7571L22.3541 18.87C21.7179 19.299 21.1698 19.8461 20.7397 20.4815C19.7717 21.9118 18.9156 23.6212 17.6422 24.8127C15.4908 26.8256 12.1377 26.794 10.0247 24.7407L5.31572 20.165C3.34817 18.2531 3.28866 15.1129 5.18237 13.1278C5.83539 12.4433 6.45654 11.7254 7.26968 11.224L8.84646 10.2518C10.0779 9.49261 11.1299 8.47525 11.9299 7.26995L13.6159 4.72977C13.9606 4.21048 14.3976 3.77996 14.8357 3.34186Z" fill="url(#paint14_radial_18_26328)"/>
<path d="M14.8357 3.34186C16.7883 1.38928 19.9541 1.38931 21.9067 3.34191L26.9338 8.36903C28.8537 10.2889 28.8906 13.39 27.017 15.3549C26.5366 15.8587 26.0688 16.3652 25.4876 16.7571L22.3541 18.87C21.7179 19.299 21.1698 19.8461 20.7397 20.4815C19.7717 21.9118 18.9156 23.6212 17.6422 24.8127C15.4908 26.8256 12.1377 26.794 10.0247 24.7407L5.31572 20.165C3.34817 18.2531 3.28866 15.1129 5.18237 13.1278C5.83539 12.4433 6.45654 11.7254 7.26968 11.224L8.84646 10.2518C10.0779 9.49261 11.1299 8.47525 11.9299 7.26995L13.6159 4.72977C13.9606 4.21048 14.3976 3.77996 14.8357 3.34186Z" fill="url(#paint15_radial_18_26328)" fill-opacity="0.77"/>
<path d="M14.8357 3.34186C16.7883 1.38928 19.9541 1.38931 21.9067 3.34191L26.9338 8.36903C28.8537 10.2889 28.8906 13.39 27.017 15.3549C26.5366 15.8587 26.0688 16.3652 25.4876 16.7571L22.3541 18.87C21.7179 19.299 21.1698 19.8461 20.7397 20.4815C19.7717 21.9118 18.9156 23.6212 17.6422 24.8127C15.4908 26.8256 12.1377 26.794 10.0247 24.7407L5.31572 20.165C3.34817 18.2531 3.28866 15.1129 5.18237 13.1278C5.83539 12.4433 6.45654 11.7254 7.26968 11.224L8.84646 10.2518C10.0779 9.49261 11.1299 8.47525 11.9299 7.26995L13.6159 4.72977C13.9606 4.21048 14.3976 3.77996 14.8357 3.34186Z" fill="url(#paint16_radial_18_26328)"/>
<path d="M14.8357 3.34186C16.7883 1.38928 19.9541 1.38931 21.9067 3.34191L26.9338 8.36903C28.8537 10.2889 28.8906 13.39 27.017 15.3549C26.5366 15.8587 26.0688 16.3652 25.4876 16.7571L22.3541 18.87C21.7179 19.299 21.1698 19.8461 20.7397 20.4815C19.7717 21.9118 18.9156 23.6212 17.6422 24.8127C15.4908 26.8256 12.1377 26.794 10.0247 24.7407L5.31572 20.165C3.34817 18.2531 3.28866 15.1129 5.18237 13.1278C5.83539 12.4433 6.45654 11.7254 7.26968 11.224L8.84646 10.2518C10.0779 9.49261 11.1299 8.47525 11.9299 7.26995L13.6159 4.72977C13.9606 4.21048 14.3976 3.77996 14.8357 3.34186Z" fill="url(#paint17_radial_18_26328)"/>
<path d="M14.8357 3.34186C16.7883 1.38928 19.9541 1.38931 21.9067 3.34191L26.9338 8.36903C28.8537 10.2889 28.8906 13.39 27.017 15.3549C26.5366 15.8587 26.0688 16.3652 25.4876 16.7571L22.3541 18.87C21.7179 19.299 21.1698 19.8461 20.7397 20.4815C19.7717 21.9118 18.9156 23.6212 17.6422 24.8127C15.4908 26.8256 12.1377 26.794 10.0247 24.7407L5.31572 20.165C3.34817 18.2531 3.28866 15.1129 5.18237 13.1278C5.83539 12.4433 6.45654 11.7254 7.26968 11.224L8.84646 10.2518C10.0779 9.49261 11.1299 8.47525 11.9299 7.26995L13.6159 4.72977C13.9606 4.21048 14.3976 3.77996 14.8357 3.34186Z" fill="url(#paint18_radial_18_26328)"/>
<path d="M14.8357 3.34186C16.7883 1.38928 19.9541 1.38931 21.9067 3.34191L26.9338 8.36903C28.8537 10.2889 28.8906 13.39 27.017 15.3549C26.5366 15.8587 26.0688 16.3652 25.4876 16.7571L22.3541 18.87C21.7179 19.299 21.1698 19.8461 20.7397 20.4815C19.7717 21.9118 18.9156 23.6212 17.6422 24.8127C15.4908 26.8256 12.1377 26.794 10.0247 24.7407L5.31572 20.165C3.34817 18.2531 3.28866 15.1129 5.18237 13.1278C5.83539 12.4433 6.45654 11.7254 7.26968 11.224L8.84646 10.2518C10.0779 9.49261 11.1299 8.47525 11.9299 7.26995L13.6159 4.72977C13.9606 4.21048 14.3976 3.77996 14.8357 3.34186Z" fill="url(#paint19_linear_18_26328)"/>
<circle cx="9.55656" cy="15.83" r="2.03557" fill="url(#paint20_radial_18_26328)"/>
<circle cx="22.9006" cy="12.0232" r="1.78199" fill="#E9A759"/>
<circle cx="22.9006" cy="12.0232" r="1.78199" fill="url(#paint21_radial_18_26328)"/>
<circle cx="22.8615" cy="12.0593" r="1.52048" fill="#F3B951"/>
<circle cx="22.9006" cy="12.0234" r="1.52048" fill="url(#paint22_radial_18_26328)"/>
<circle cx="22.9006" cy="12.0234" r="1.52048" fill="url(#paint23_radial_18_26328)"/>
<circle cx="16.7603" cy="6.28152" r="1.0154" fill="#E9A759"/>
<circle cx="16.7603" cy="6.28152" r="1.0154" fill="url(#paint24_radial_18_26328)"/>
<circle cx="16.7602" cy="6.28159" r="0.937111" fill="#E9A759"/>
<circle cx="16.7602" cy="6.28159" r="0.937111" fill="url(#paint25_radial_18_26328)"/>
<circle cx="8.88854" cy="20.083" r="1.16771" fill="url(#paint26_radial_18_26328)"/>
<circle cx="16.0993" cy="12.8313" r="0.995888" fill="url(#paint27_radial_18_26328)"/>
<circle cx="11.2259" cy="12.8315" r="0.956979" fill="url(#paint28_radial_18_26328)"/>
<circle cx="13.668" cy="21.3588" r="1.15176" fill="url(#paint29_radial_18_26328)"/>
<circle cx="15.4577" cy="17.1909" r="1.83295" fill="url(#paint30_radial_18_26328)"/>
<circle cx="15.4577" cy="17.191" r="1.46732" fill="url(#paint31_radial_18_26328)"/>
<circle cx="15.4577" cy="17.191" r="1.46732" fill="url(#paint32_radial_18_26328)"/>
<circle cx="15.4577" cy="17.191" r="1.46732" fill="url(#paint33_radial_18_26328)"/>
<circle cx="9.55656" cy="15.8299" r="1.46732" fill="url(#paint34_radial_18_26328)"/>
<circle cx="9.55656" cy="15.8299" r="1.46732" fill="url(#paint35_radial_18_26328)"/>
<circle cx="9.55656" cy="15.8299" r="1.46732" fill="url(#paint36_radial_18_26328)"/>
<circle cx="16.7603" cy="6.28164" r="0.842137" fill="url(#paint37_radial_18_26328)"/>
<circle cx="16.7603" cy="6.28164" r="0.842137" fill="url(#paint38_radial_18_26328)"/>
<circle cx="16.7603" cy="6.28164" r="0.842137" stroke="url(#paint39_linear_18_26328)" stroke-width="0.1"/>
<circle cx="22.7359" cy="8.68472" r="1.03604" fill="#E9A759"/>
<circle cx="22.7359" cy="8.68472" r="1.03604" fill="url(#paint40_radial_18_26328)"/>
<circle cx="20.2284" cy="16" r="1.02541" fill="url(#paint41_radial_18_26328)"/>
<circle cx="18.4881" cy="9.29079" r="0.885028" fill="#E9A759"/>
<circle cx="18.4881" cy="9.29079" r="0.885028" fill="url(#paint42_radial_18_26328)"/>
<path d="M23.528 8.68471C23.528 9.1222 23.1733 9.47685 22.7359 9.47685C22.2984 9.47685 21.9437 9.1222 21.9437 8.68471C21.9437 8.24723 22.2984 7.89258 22.7359 7.89258C23.1733 7.89258 23.528 8.24723 23.528 8.68471Z" fill="url(#paint43_radial_18_26328)"/>
<path d="M23.528 8.68471C23.528 9.1222 23.1733 9.47685 22.7359 9.47685C22.2984 9.47685 21.9437 9.1222 21.9437 8.68471C21.9437 8.24723 22.2984 7.89258 22.7359 7.89258C23.1733 7.89258 23.528 8.24723 23.528 8.68471Z" fill="url(#paint44_radial_18_26328)"/>
<path fill-rule="evenodd" clip-rule="evenodd" d="M23.628 8.68471C23.628 9.17742 23.2286 9.57685 22.7359 9.57685C22.2432 9.57685 21.8438 9.17742 21.8438 8.68471C21.8438 8.192 22.2432 7.79257 22.7359 7.79257C23.2286 7.79257 23.628 8.192 23.628 8.68471ZM22.7359 9.47685C23.1734 9.47685 23.528 9.12219 23.528 8.68471C23.528 8.24722 23.1734 7.89257 22.7359 7.89257C22.2984 7.89257 21.9438 8.24722 21.9438 8.68471C21.9438 9.12219 22.2984 9.47685 22.7359 9.47685Z" fill="url(#paint45_linear_18_26328)"/>
<path d="M19.2283 9.29079C19.2283 9.69962 18.8969 10.031 18.4881 10.031C18.0792 10.031 17.7478 9.69962 17.7478 9.29079C17.7478 8.88196 18.0792 8.55054 18.4881 8.55054C18.8969 8.55054 19.2283 8.88196 19.2283 9.29079Z" fill="url(#paint46_radial_18_26328)"/>
<path d="M19.2283 9.29079C19.2283 9.69962 18.8969 10.031 18.4881 10.031C18.0792 10.031 17.7478 9.69962 17.7478 9.29079C17.7478 8.88196 18.0792 8.55054 18.4881 8.55054C18.8969 8.55054 19.2283 8.88196 19.2283 9.29079Z" fill="url(#paint47_radial_18_26328)"/>
<path fill-rule="evenodd" clip-rule="evenodd" d="M19.3283 9.29078C19.3283 9.75484 18.9521 10.131 18.4881 10.131C18.024 10.131 17.6478 9.75484 17.6478 9.29078C17.6478 8.82672 18.024 8.45053 18.4881 8.45053C18.9521 8.45053 19.3283 8.82672 19.3283 9.29078ZM18.4881 10.031C18.8969 10.031 19.2283 9.69961 19.2283 9.29078C19.2283 8.88195 18.8969 8.55053 18.4881 8.55053C18.0792 8.55053 17.7478 8.88195 17.7478 9.29078C17.7478 9.69961 18.0792 10.031 18.4881 10.031Z" fill="url(#paint48_linear_18_26328)"/>
<circle cx="11.2259" cy="12.8315" r="0.744292" fill="url(#paint49_radial_18_26328)"/>
<circle cx="11.2259" cy="12.8315" r="0.744292" fill="url(#paint50_radial_18_26328)"/>
<circle cx="11.2259" cy="12.8315" r="0.744292" fill="url(#paint51_radial_18_26328)"/>
<circle cx="16.0993" cy="12.8315" r="0.744292" fill="url(#paint52_radial_18_26328)"/>
<circle cx="16.0993" cy="12.8315" r="0.744292" fill="url(#paint53_radial_18_26328)"/>
<circle cx="16.0993" cy="12.8315" r="0.744292" fill="url(#paint54_radial_18_26328)"/>
<path d="M20.9727 16.0002C20.9727 16.4112 20.6395 16.7444 20.2284 16.7444C19.8174 16.7444 19.4841 16.4112 19.4841 16.0002C19.4841 15.5891 19.8174 15.2559 20.2284 15.2559C20.6395 15.2559 20.9727 15.5891 20.9727 16.0002Z" fill="url(#paint55_radial_18_26328)"/>
<path fill-rule="evenodd" clip-rule="evenodd" d="M21.0727 16.0001C21.0727 16.4664 20.6947 16.8444 20.2284 16.8444C19.7622 16.8444 19.3842 16.4664 19.3842 16.0001C19.3842 15.5339 19.7622 15.1559 20.2284 15.1559C20.6947 15.1559 21.0727 15.5339 21.0727 16.0001ZM20.2284 16.7444C20.6395 16.7444 20.9727 16.4112 20.9727 16.0001C20.9727 15.5891 20.6395 15.2559 20.2284 15.2559C19.8174 15.2559 19.4842 15.5891 19.4842 16.0001C19.4842 16.4112 19.8174 16.7444 20.2284 16.7444Z" fill="url(#paint56_linear_18_26328)"/>
<circle cx="13.668" cy="21.359" r="0.744292" fill="url(#paint57_radial_18_26328)"/>
<circle cx="13.668" cy="21.359" r="0.744292" fill="url(#paint58_radial_18_26328)"/>
<circle cx="13.668" cy="21.359" r="0.744292" fill="url(#paint59_radial_18_26328)"/>
<circle cx="8.88858" cy="20.0829" r="0.744292" fill="url(#paint60_radial_18_26328)"/>
<circle cx="8.88858" cy="20.0829" r="0.744292" fill="url(#paint61_radial_18_26328)"/>
<circle cx="8.88858" cy="20.0829" r="0.744292" fill="url(#paint62_radial_18_26328)"/>
<circle cx="8.88858" cy="20.0829" r="0.744292" fill="url(#paint63_radial_18_26328)"/>
<defs>
<linearGradient id="paint0_linear_18_26328" x1="27.5578" y1="16.4786" x2="10.7581" y2="28.1746" gradientUnits="userSpaceOnUse">
<stop stop-color="#EFA764"/>
<stop offset="1" stop-color="#EE857D"/>
</linearGradient>
<linearGradient id="paint1_linear_18_26328" x1="3.4002" y1="19.1155" x2="5.95206" y2="19.1155" gradientUnits="userSpaceOnUse">
<stop stop-color="#F5B692"/>
<stop offset="0.987362" stop-color="#F5B692" stop-opacity="0"/>
</linearGradient>
<radialGradient id="paint2_radial_18_26328" cx="0" cy="0" r="1" gradientUnits="userSpaceOnUse" gradientTransform="translate(14.118 25.2825) rotate(90) scale(8.8039 5.72857)">
<stop offset="0.369863" stop-color="#F76C7C"/>
<stop offset="1" stop-color="#F76C7C" stop-opacity="0"/>
</radialGradient>
<radialGradient id="paint3_radial_18_26328" cx="0" cy="0" r="1" gradientUnits="userSpaceOnUse" gradientTransform="translate(23.5173 17.074) rotate(90) scale(5.10371 2.12655)">
<stop offset="0.384615" stop-color="#F2956F"/>
<stop offset="1" stop-color="#F2956F" stop-opacity="0"/>
</radialGradient>
<linearGradient id="paint4_linear_18_26328" x1="24.5381" y1="5.5481" x2="7.61076" y2="21.4972" gradientUnits="userSpaceOnUse">
<stop stop-color="#F7C452"/>
<stop offset="1" stop-color="#FC9B5B"/>
</linearGradient>
<linearGradient id="paint5_linear_18_26328" x1="23.9883" y1="4.93716" x2="23.3454" y2="5.61795" gradientUnits="userSpaceOnUse">
<stop stop-color="#FFD85B"/>
<stop offset="1" stop-color="#FFD85B" stop-opacity="0"/>
</linearGradient>
<linearGradient id="paint6_linear_18_26328" x1="26.9825" y1="5.28281" x2="19.3177" y2="9.10912" gradientUnits="userSpaceOnUse">
<stop stop-color="#F7CE50"/>
<stop offset="0.749424" stop-color="#F7CE50" stop-opacity="0"/>
</linearGradient>
<radialGradient id="paint7_radial_18_26328" cx="0" cy="0" r="1" gradientUnits="userSpaceOnUse" gradientTransform="translate(19.4023 1.41268) rotate(18.8247) scale(4.8742 1.23721)">
<stop stop-color="#FFD85B"/>
<stop offset="1" stop-color="#FFD85B" stop-opacity="0"/>
</radialGradient>
<radialGradient id="paint8_radial_18_26328" cx="0" cy="0" r="1" gradientUnits="userSpaceOnUse" gradientTransform="translate(26.712 17.474) rotate(-47.6166) scale(6.73285 1.70898)">
<stop stop-color="#FFD85B"/>
<stop offset="1" stop-color="#FFD85B" stop-opacity="0"/>
</radialGradient>
<radialGradient id="paint9_radial_18_26328" cx="0" cy="0" r="1" gradientUnits="userSpaceOnUse" gradientTransform="translate(19.0358 25.4384) rotate(-62.369) scale(6.55533 1.66392)">
<stop stop-color="#FFD85B"/>
<stop offset="1" stop-color="#FFD85B" stop-opacity="0"/>
</radialGradient>
<linearGradient id="paint10_linear_18_26328" x1="7.81092" y1="23.3877" x2="8.57313" y2="22.5566" gradientUnits="userSpaceOnUse">
<stop stop-color="#EE8256"/>
<stop offset="1" stop-color="#EE8256" stop-opacity="0"/>
</linearGradient>
<radialGradient id="paint11_radial_18_26328" cx="0" cy="0" r="1" gradientUnits="userSpaceOnUse" gradientTransform="translate(13.1018 26.7456) rotate(-159.444) scale(5.87904 0.790664)">
<stop stop-color="#EE8256"/>
<stop offset="1" stop-color="#EE8256" stop-opacity="0"/>
</radialGradient>
<radialGradient id="paint12_radial_18_26328" cx="0" cy="0" r="1" gradientUnits="userSpaceOnUse" gradientTransform="translate(13.4937 26.9704) rotate(-85.0729) scale(9.55122 9.61919)">
<stop offset="0.15249" stop-color="#FD8B60"/>
<stop offset="1" stop-color="#FD8B60" stop-opacity="0"/>
</radialGradient>
<radialGradient id="paint13_radial_18_26328" cx="0" cy="0" r="1" gradientUnits="userSpaceOnUse" gradientTransform="translate(3.80017 17.5292) rotate(54.8073) scale(7.74482 2.68536)">
<stop stop-color="#EF8352"/>
<stop offset="1" stop-color="#EF8352" stop-opacity="0"/>
</radialGradient>
<radialGradient id="paint14_radial_18_26328" cx="0" cy="0" r="1" gradientUnits="userSpaceOnUse" gradientTransform="translate(6.53811 18.0948) rotate(45.5431) scale(6.38253 1.97281)">
<stop stop-color="#FCA15A"/>
<stop offset="1" stop-color="#FCA15A" stop-opacity="0"/>
</radialGradient>
<radialGradient id="paint15_radial_18_26328" cx="0" cy="0" r="1" gradientUnits="userSpaceOnUse" gradientTransform="translate(18.2091 5.45711) rotate(73.1139) scale(3.81656 4.93536)">
<stop stop-color="#F7CE50"/>
<stop offset="0.749424" stop-color="#F7CE50" stop-opacity="0"/>
</radialGradient>
<radialGradient id="paint16_radial_18_26328" cx="0" cy="0" r="1" gradientUnits="userSpaceOnUse" gradientTransform="translate(5.99023 11.3209) rotate(43.172) scale(9.6778 16.9072)">
<stop stop-color="#EB9840"/>
<stop offset="0.234087" stop-color="#EB9840" stop-opacity="0"/>
</radialGradient>
<radialGradient id="paint17_radial_18_26328" cx="0" cy="0" r="1" gradientUnits="userSpaceOnUse" gradientTransform="translate(9.41011 7.68276) rotate(34.6242) scale(3.71378 6.48801)">
<stop stop-color="#EB9840"/>
<stop offset="1" stop-color="#EB9840" stop-opacity="0"/>
</radialGradient>
<radialGradient id="paint18_radial_18_26328" cx="0" cy="0" r="1" gradientUnits="userSpaceOnUse" gradientTransform="translate(13.6304 1.87744) rotate(43.1292) scale(3.38286 5.90989)">
<stop stop-color="#EB9840"/>
<stop offset="1" stop-color="#EB9840" stop-opacity="0"/>
</radialGradient>
<linearGradient id="paint19_linear_18_26328" x1="25.1053" y1="5.10464" x2="23.2723" y2="7.0843" gradientUnits="userSpaceOnUse">
<stop stop-color="#FFDB5F"/>
<stop offset="1" stop-color="#FFDB5F" stop-opacity="0"/>
</linearGradient>
<radialGradient id="paint20_radial_18_26328" cx="0" cy="0" r="1" gradientUnits="userSpaceOnUse" gradientTransform="translate(9.55656 15.83) rotate(90) scale(2.41533)">
<stop offset="0.501793" stop-color="#EA9457"/>
<stop offset="0.831408" stop-color="#EA9457" stop-opacity="0"/>
</radialGradient>
<radialGradient id="paint21_radial_18_26328" cx="0" cy="0" r="1" gradientUnits="userSpaceOnUse" gradientTransform="translate(22.9006 12.0232) rotate(90) scale(1.78199)">
<stop offset="0.864563" stop-color="#F9BC54" stop-opacity="0"/>
<stop offset="1" stop-color="#F9BC54"/>
</radialGradient>
<radialGradient id="paint22_radial_18_26328" cx="0" cy="0" r="1" gradientUnits="userSpaceOnUse" gradientTransform="translate(21.9224 12.7783) rotate(-28.0092) scale(2.26415)">
<stop offset="0.203246" stop-color="#E4A43C"/>
<stop offset="1" stop-color="#DC9527"/>
</radialGradient>
<radialGradient id="paint23_radial_18_26328" cx="0" cy="0" r="1" gradientUnits="userSpaceOnUse" gradientTransform="translate(22.9006 12.0234) rotate(90) scale(1.52048)">
<stop offset="0.9792" stop-color="#E9A759" stop-opacity="0"/>
<stop offset="1" stop-color="#E9A759"/>
</radialGradient>
<radialGradient id="paint24_radial_18_26328" cx="0" cy="0" r="1" gradientUnits="userSpaceOnUse" gradientTransform="translate(16.7603 6.28152) rotate(90) scale(1.0154)">
<stop offset="0.781069" stop-color="#F9B855" stop-opacity="0"/>
<stop offset="1" stop-color="#F9B855"/>
</radialGradient>
<radialGradient id="paint25_radial_18_26328" cx="0" cy="0" r="1" gradientUnits="userSpaceOnUse" gradientTransform="translate(16.7602 6.28159) rotate(90) scale(0.937111)">
<stop offset="0.781069" stop-color="#F9B855" stop-opacity="0"/>
<stop offset="1" stop-color="#F9B855"/>
</radialGradient>
<radialGradient id="paint26_radial_18_26328" cx="0" cy="0" r="1" gradientUnits="userSpaceOnUse" gradientTransform="translate(8.88854 20.083) rotate(90) scale(1.38557)">
<stop offset="0.501793" stop-color="#EA9457"/>
<stop offset="0.831408" stop-color="#EA9457" stop-opacity="0"/>
</radialGradient>
<radialGradient id="paint27_radial_18_26328" cx="0" cy="0" r="1" gradientUnits="userSpaceOnUse" gradientTransform="translate(16.0993 12.8313) rotate(90) scale(1.18169)">
<stop offset="0.501793" stop-color="#EA9457"/>
<stop offset="0.831408" stop-color="#EA9457" stop-opacity="0"/>
</radialGradient>
<radialGradient id="paint28_radial_18_26328" cx="0" cy="0" r="1" gradientUnits="userSpaceOnUse" gradientTransform="translate(11.2259 12.8315) rotate(90) scale(1.13552)">
<stop offset="0.501793" stop-color="#EA9457"/>
<stop offset="0.831408" stop-color="#EA9457" stop-opacity="0"/>
</radialGradient>
<radialGradient id="paint29_radial_18_26328" cx="0" cy="0" r="1" gradientUnits="userSpaceOnUse" gradientTransform="translate(13.668 21.3588) rotate(90) scale(1.36664)">
<stop offset="0.501793" stop-color="#EA9457"/>
<stop offset="0.831408" stop-color="#EA9457" stop-opacity="0"/>
</radialGradient>
<radialGradient id="paint30_radial_18_26328" cx="0" cy="0" r="1" gradientUnits="userSpaceOnUse" gradientTransform="translate(15.4577 17.1909) rotate(90) scale(2.17492)">
<stop offset="0.501793" stop-color="#EA9457"/>
<stop offset="0.831408" stop-color="#EA9457" stop-opacity="0"/>
</radialGradient>
<radialGradient id="paint31_radial_18_26328" cx="0" cy="0" r="1" gradientUnits="userSpaceOnUse" gradientTransform="translate(14.5137 17.9195) rotate(-28.0092) scale(2.185)">
<stop offset="0.203246" stop-color="#E89330"/>
<stop offset="1" stop-color="#DF7B2B"/>
</radialGradient>
<radialGradient id="paint32_radial_18_26328" cx="0" cy="0" r="1" gradientUnits="userSpaceOnUse" gradientTransform="translate(15.8974 16.9368) rotate(147.833) scale(2.02468 1.74593)">
<stop offset="0.926376" stop-color="#F4B857" stop-opacity="0"/>
<stop offset="0.979797" stop-color="#F4B857"/>
</radialGradient>
<radialGradient id="paint33_radial_18_26328" cx="0" cy="0" r="1" gradientUnits="userSpaceOnUse" gradientTransform="translate(15.4577 17.191) rotate(90) scale(1.46732)">
<stop offset="0.961863" stop-color="#F19C58" stop-opacity="0"/>
<stop offset="1" stop-color="#F19C58"/>
</radialGradient>
<radialGradient id="paint34_radial_18_26328" cx="0" cy="0" r="1" gradientUnits="userSpaceOnUse" gradientTransform="translate(8.61257 16.5584) rotate(-28.0092) scale(2.185)">
<stop offset="0.203246" stop-color="#E89330"/>
<stop offset="1" stop-color="#DF7B2B"/>
</radialGradient>
<radialGradient id="paint35_radial_18_26328" cx="0" cy="0" r="1" gradientUnits="userSpaceOnUse" gradientTransform="translate(9.99623 15.5758) rotate(147.833) scale(2.02468 1.74593)">
<stop offset="0.926376" stop-color="#F4B857" stop-opacity="0"/>
<stop offset="0.979797" stop-color="#F4B857"/>
</radialGradient>
<radialGradient id="paint36_radial_18_26328" cx="0" cy="0" r="1" gradientUnits="userSpaceOnUse" gradientTransform="translate(9.55656 15.8299) rotate(90) scale(1.46732)">
<stop offset="0.961863" stop-color="#F19C58" stop-opacity="0"/>
<stop offset="1" stop-color="#F19C58"/>
</radialGradient>
<radialGradient id="paint37_radial_18_26328" cx="0" cy="0" r="1" gradientUnits="userSpaceOnUse" gradientTransform="translate(16.2507 6.67494) rotate(-28.0092) scale(1.17957)">
<stop offset="0.053096" stop-color="#EAAC30"/>
<stop offset="1" stop-color="#DCA029"/>
</radialGradient>
<radialGradient id="paint38_radial_18_26328" cx="0" cy="0" r="1" gradientUnits="userSpaceOnUse" gradientTransform="translate(16.7603 6.28164) rotate(90) scale(0.792137)">
<stop offset="0.867742" stop-color="#F1B058" stop-opacity="0"/>
<stop offset="1" stop-color="#F1B058"/>
</radialGradient>
<linearGradient id="paint39_linear_18_26328" x1="15.9681" y1="6.8522" x2="16.8822" y2="6.28164" gradientUnits="userSpaceOnUse">
<stop stop-color="#F4B857"/>
<stop offset="1" stop-color="#F4B857" stop-opacity="0"/>
</linearGradient>
<radialGradient id="paint40_radial_18_26328" cx="0" cy="0" r="1" gradientUnits="userSpaceOnUse" gradientTransform="translate(22.7359 8.68472) rotate(90) scale(1.03604)">
<stop offset="0.754322" stop-color="#F9B855" stop-opacity="0"/>
<stop offset="0.929292" stop-color="#F9B855"/>
</radialGradient>
<radialGradient id="paint41_radial_18_26328" cx="0" cy="0" r="1" gradientUnits="userSpaceOnUse" gradientTransform="translate(20.2284 16) rotate(90) scale(1.21672)">
<stop offset="0.501793" stop-color="#EA9457"/>
<stop offset="0.831408" stop-color="#EA9457" stop-opacity="0"/>
</radialGradient>
<radialGradient id="paint42_radial_18_26328" cx="0" cy="0" r="1" gradientUnits="userSpaceOnUse" gradientTransform="translate(18.4881 9.29079) rotate(90) scale(0.885028)">
<stop offset="0.781069" stop-color="#F9B855" stop-opacity="0"/>
<stop offset="1" stop-color="#F9B855"/>
</radialGradient>
<radialGradient id="paint43_radial_18_26328" cx="0" cy="0" r="1" gradientUnits="userSpaceOnUse" gradientTransform="translate(22.2262 9.07802) rotate(-28.0092) scale(1.17957)">
<stop offset="0.053096" stop-color="#EAAC30"/>
<stop offset="1" stop-color="#DCA029"/>
</radialGradient>
<radialGradient id="paint44_radial_18_26328" cx="0" cy="0" r="1" gradientUnits="userSpaceOnUse" gradientTransform="translate(22.7359 8.68471) rotate(90) scale(0.792137)">
<stop offset="0.867742" stop-color="#F1B058" stop-opacity="0"/>
<stop offset="1" stop-color="#F1B058"/>
</radialGradient>
<linearGradient id="paint45_linear_18_26328" x1="21.9438" y1="9.25527" x2="22.8578" y2="8.68471" gradientUnits="userSpaceOnUse">
<stop stop-color="#F4B857"/>
<stop offset="1" stop-color="#F4B857" stop-opacity="0"/>
</linearGradient>
<radialGradient id="paint46_radial_18_26328" cx="0" cy="0" r="1" gradientUnits="userSpaceOnUse" gradientTransform="translate(18.0118 9.65832) rotate(-28.0092) scale(1.10231)">
<stop offset="0.053096" stop-color="#EAAC30"/>
<stop offset="1" stop-color="#DCA029"/>
</radialGradient>
<radialGradient id="paint47_radial_18_26328" cx="0" cy="0" r="1" gradientUnits="userSpaceOnUse" gradientTransform="translate(18.4881 9.29079) rotate(90) scale(0.74025)">
<stop offset="0.867742" stop-color="#F1B058" stop-opacity="0"/>
<stop offset="1" stop-color="#F1B058"/>
</radialGradient>
<linearGradient id="paint48_linear_18_26328" x1="17.7478" y1="9.82397" x2="18.602" y2="9.29078" gradientUnits="userSpaceOnUse">
<stop stop-color="#F4B857"/>
<stop offset="1" stop-color="#F4B857" stop-opacity="0"/>
</linearGradient>
<radialGradient id="paint49_radial_18_26328" cx="0" cy="0" r="1" gradientUnits="userSpaceOnUse" gradientTransform="translate(10.747 13.201) rotate(-28.0092) scale(1.10833)">
<stop offset="0.203246" stop-color="#E89330"/>
<stop offset="1" stop-color="#DF7B2B"/>
</radialGradient>
<radialGradient id="paint50_radial_18_26328" cx="0" cy="0" r="1" gradientUnits="userSpaceOnUse" gradientTransform="translate(11.4489 12.7026) rotate(147.833) scale(1.02701 0.885613)">
<stop offset="0.926376" stop-color="#F4B857" stop-opacity="0"/>
<stop offset="0.979797" stop-color="#F4B857"/>
</radialGradient>
<radialGradient id="paint51_radial_18_26328" cx="0" cy="0" r="1" gradientUnits="userSpaceOnUse" gradientTransform="translate(11.2259 12.8315) rotate(90) scale(0.744292)">
<stop offset="0.961863" stop-color="#F19C58" stop-opacity="0"/>
<stop offset="1" stop-color="#F19C58"/>
</radialGradient>
<radialGradient id="paint52_radial_18_26328" cx="0" cy="0" r="1" gradientUnits="userSpaceOnUse" gradientTransform="translate(15.6204 13.201) rotate(-28.0092) scale(1.10833)">
<stop offset="0.203246" stop-color="#E09031"/>
<stop offset="1" stop-color="#DB8911"/>
</radialGradient>
<radialGradient id="paint53_radial_18_26328" cx="0" cy="0" r="1" gradientUnits="userSpaceOnUse" gradientTransform="translate(16.0993 12.8315) rotate(90) scale(0.744292)">
<stop offset="0.86223" stop-color="#F1A157" stop-opacity="0"/>
<stop offset="1" stop-color="#F1A157"/>
</radialGradient>
<radialGradient id="paint54_radial_18_26328" cx="0" cy="0" r="1" gradientUnits="userSpaceOnUse" gradientTransform="translate(16.3223 12.7026) rotate(147.833) scale(1.02701 0.885613)">
<stop offset="0.926376" stop-color="#F4B857" stop-opacity="0"/>
<stop offset="0.979797" stop-color="#F4B857"/>
</radialGradient>
<radialGradient id="paint55_radial_18_26328" cx="0" cy="0" r="1" gradientUnits="userSpaceOnUse" gradientTransform="translate(19.7496 16.3697) rotate(-28.0092) scale(1.10833)">
<stop offset="0.203246" stop-color="#E09031"/>
<stop offset="1" stop-color="#DB8911"/>
</radialGradient>
<linearGradient id="paint56_linear_18_26328" x1="19.4842" y1="16.5362" x2="20.343" y2="16.0001" gradientUnits="userSpaceOnUse">
<stop stop-color="#F4B857"/>
<stop offset="1" stop-color="#F4B857" stop-opacity="0"/>
</linearGradient>
<radialGradient id="paint57_radial_18_26328" cx="0" cy="0" r="1" gradientUnits="userSpaceOnUse" gradientTransform="translate(13.1892 21.7286) rotate(-28.0092) scale(1.10833)">
<stop offset="0.203246" stop-color="#E0742C"/>
<stop offset="1" stop-color="#DF7B2B"/>
</radialGradient>
<radialGradient id="paint58_radial_18_26328" cx="0" cy="0" r="1" gradientUnits="userSpaceOnUse" gradientTransform="translate(14.1836 21.0649) rotate(151.657) scale(1.43148 1.19871)">
<stop offset="0.861371" stop-color="#F4B857" stop-opacity="0"/>
<stop offset="1" stop-color="#F4B857"/>
</radialGradient>
<radialGradient id="paint59_radial_18_26328" cx="0" cy="0" r="1" gradientUnits="userSpaceOnUse" gradientTransform="translate(13.668 21.359) rotate(90) scale(0.744292)">
<stop offset="0.928009" stop-color="#F19759" stop-opacity="0"/>
<stop offset="1" stop-color="#F19759"/>
</radialGradient>
<radialGradient id="paint60_radial_18_26328" cx="0" cy="0" r="1" gradientUnits="userSpaceOnUse" gradientTransform="translate(8.40975 20.4525) rotate(-28.0092) scale(1.10833)">
<stop offset="0.203246" stop-color="#E0742C"/>
<stop offset="1" stop-color="#DF7B2B"/>
</radialGradient>
<radialGradient id="paint61_radial_18_26328" cx="0" cy="0" r="1" gradientUnits="userSpaceOnUse" gradientTransform="translate(9.40416 19.7888) rotate(151.657) scale(1.43148 1.19871)">
<stop offset="0.861371" stop-color="#F4B857" stop-opacity="0"/>
<stop offset="1" stop-color="#F4B857"/>
</radialGradient>
<radialGradient id="paint62_radial_18_26328" cx="0" cy="0" r="1" gradientUnits="userSpaceOnUse" gradientTransform="translate(8.88858 20.0829) rotate(90) scale(0.744292)">
<stop offset="0.928009" stop-color="#F19759" stop-opacity="0"/>
<stop offset="1" stop-color="#F19759"/>
</radialGradient>
<radialGradient id="paint63_radial_18_26328" cx="0" cy="0" r="1" gradientUnits="userSpaceOnUse" gradientTransform="translate(8.66134 20.3541) rotate(-29.4824) scale(0.946722)">
<stop offset="0.440076" stop-color="#E07335"/>
<stop offset="1" stop-color="#DC6A15"/>
</radialGradient>
</defs>
</svg>
