<svg width="32" height="32" viewBox="0 0 32 32" fill="none" xmlns="http://www.w3.org/2000/svg">
<path d="M15.8212 11.1061C15.6508 11.7679 15.0721 12.2616 14.3881 12.6036C12.4492 13.2744 10.9176 13.9198 9.65029 14.5463C8.52838 15.1009 8.53921 16.8535 9.66476 17.4007C10.9799 18.0401 12.631 18.6533 14.4648 19.3802C14.9579 19.5756 15.6547 20.1279 15.8281 20.8066C16.3626 22.8983 17.0898 25.1127 17.8906 27.1568C18.5122 28.7437 20.049 28.7425 20.6737 27.1568C21.4846 25.0985 22.1006 22.8751 22.7959 20.7596C22.9623 20.1065 23.455 19.59 24.0903 19.3649C25.8073 18.7567 27.4624 18.0703 28.8115 17.4761C30.0714 16.9211 30.0974 15.1196 28.8533 14.5302C27.5247 13.9008 25.8721 13.1719 24.082 12.5215C23.452 12.2925 22.9673 11.8094 22.7433 11.1236C21.9888 8.81261 21.5107 6.85335 20.7091 4.81868C20.0844 3.23303 18.4445 3.28184 17.8198 4.86748C17.0212 6.89464 16.4637 8.91241 15.8212 11.1061Z" fill="url(#paint0_linear_18_454)"/>
<path d="M15.8212 11.1061C15.6508 11.7679 15.0721 12.2616 14.3881 12.6036C12.4492 13.2744 10.9176 13.9198 9.65029 14.5463C8.52838 15.1009 8.53921 16.8535 9.66476 17.4007C10.9799 18.0401 12.631 18.6533 14.4648 19.3802C14.9579 19.5756 15.6547 20.1279 15.8281 20.8066C16.3626 22.8983 17.0898 25.1127 17.8906 27.1568C18.5122 28.7437 20.049 28.7425 20.6737 27.1568C21.4846 25.0985 22.1006 22.8751 22.7959 20.7596C22.9623 20.1065 23.455 19.59 24.0903 19.3649C25.8073 18.7567 27.4624 18.0703 28.8115 17.4761C30.0714 16.9211 30.0974 15.1196 28.8533 14.5302C27.5247 13.9008 25.8721 13.1719 24.082 12.5215C23.452 12.2925 22.9673 11.8094 22.7433 11.1236C21.9888 8.81261 21.5107 6.85335 20.7091 4.81868C20.0844 3.23303 18.4445 3.28184 17.8198 4.86748C17.0212 6.89464 16.4637 8.91241 15.8212 11.1061Z" fill="url(#paint1_linear_18_454)"/>
<path d="M15.8212 11.1061C15.6508 11.7679 15.0721 12.2616 14.3881 12.6036C12.4492 13.2744 10.9176 13.9198 9.65029 14.5463C8.52838 15.1009 8.53921 16.8535 9.66476 17.4007C10.9799 18.0401 12.631 18.6533 14.4648 19.3802C14.9579 19.5756 15.6547 20.1279 15.8281 20.8066C16.3626 22.8983 17.0898 25.1127 17.8906 27.1568C18.5122 28.7437 20.049 28.7425 20.6737 27.1568C21.4846 25.0985 22.1006 22.8751 22.7959 20.7596C22.9623 20.1065 23.455 19.59 24.0903 19.3649C25.8073 18.7567 27.4624 18.0703 28.8115 17.4761C30.0714 16.9211 30.0974 15.1196 28.8533 14.5302C27.5247 13.9008 25.8721 13.1719 24.082 12.5215C23.452 12.2925 22.9673 11.8094 22.7433 11.1236C21.9888 8.81261 21.5107 6.85335 20.7091 4.81868C20.0844 3.23303 18.4445 3.28184 17.8198 4.86748C17.0212 6.89464 16.4637 8.91241 15.8212 11.1061Z" fill="url(#paint2_radial_18_454)"/>
<path d="M15.8212 11.1061C15.6508 11.7679 15.0721 12.2616 14.3881 12.6036C12.4492 13.2744 10.9176 13.9198 9.65029 14.5463C8.52838 15.1009 8.53921 16.8535 9.66476 17.4007C10.9799 18.0401 12.631 18.6533 14.4648 19.3802C14.9579 19.5756 15.6547 20.1279 15.8281 20.8066C16.3626 22.8983 17.0898 25.1127 17.8906 27.1568C18.5122 28.7437 20.049 28.7425 20.6737 27.1568C21.4846 25.0985 22.1006 22.8751 22.7959 20.7596C22.9623 20.1065 23.455 19.59 24.0903 19.3649C25.8073 18.7567 27.4624 18.0703 28.8115 17.4761C30.0714 16.9211 30.0974 15.1196 28.8533 14.5302C27.5247 13.9008 25.8721 13.1719 24.082 12.5215C23.452 12.2925 22.9673 11.8094 22.7433 11.1236C21.9888 8.81261 21.5107 6.85335 20.7091 4.81868C20.0844 3.23303 18.4445 3.28184 17.8198 4.86748C17.0212 6.89464 16.4637 8.91241 15.8212 11.1061Z" fill="url(#paint3_radial_18_454)"/>
<path d="M15.8212 11.1061C15.6508 11.7679 15.0721 12.2616 14.3881 12.6036C12.4492 13.2744 10.9176 13.9198 9.65029 14.5463C8.52838 15.1009 8.53921 16.8535 9.66476 17.4007C10.9799 18.0401 12.631 18.6533 14.4648 19.3802C14.9579 19.5756 15.6547 20.1279 15.8281 20.8066C16.3626 22.8983 17.0898 25.1127 17.8906 27.1568C18.5122 28.7437 20.049 28.7425 20.6737 27.1568C21.4846 25.0985 22.1006 22.8751 22.7959 20.7596C22.9623 20.1065 23.455 19.59 24.0903 19.3649C25.8073 18.7567 27.4624 18.0703 28.8115 17.4761C30.0714 16.9211 30.0974 15.1196 28.8533 14.5302C27.5247 13.9008 25.8721 13.1719 24.082 12.5215C23.452 12.2925 22.9673 11.8094 22.7433 11.1236C21.9888 8.81261 21.5107 6.85335 20.7091 4.81868C20.0844 3.23303 18.4445 3.28184 17.8198 4.86748C17.0212 6.89464 16.4637 8.91241 15.8212 11.1061Z" fill="url(#paint4_radial_18_454)"/>
<path d="M15.8212 11.1061C15.6508 11.7679 15.0721 12.2616 14.3881 12.6036C12.4492 13.2744 10.9176 13.9198 9.65029 14.5463C8.52838 15.1009 8.53921 16.8535 9.66476 17.4007C10.9799 18.0401 12.631 18.6533 14.4648 19.3802C14.9579 19.5756 15.6547 20.1279 15.8281 20.8066C16.3626 22.8983 17.0898 25.1127 17.8906 27.1568C18.5122 28.7437 20.049 28.7425 20.6737 27.1568C21.4846 25.0985 22.1006 22.8751 22.7959 20.7596C22.9623 20.1065 23.455 19.59 24.0903 19.3649C25.8073 18.7567 27.4624 18.0703 28.8115 17.4761C30.0714 16.9211 30.0974 15.1196 28.8533 14.5302C27.5247 13.9008 25.8721 13.1719 24.082 12.5215C23.452 12.2925 22.9673 11.8094 22.7433 11.1236C21.9888 8.81261 21.5107 6.85335 20.7091 4.81868C20.0844 3.23303 18.4445 3.28184 17.8198 4.86748C17.0212 6.89464 16.4637 8.91241 15.8212 11.1061Z" fill="url(#paint5_radial_18_454)"/>
<path d="M15.8212 11.1061C15.6508 11.7679 15.0721 12.2616 14.3881 12.6036C12.4492 13.2744 10.9176 13.9198 9.65029 14.5463C8.52838 15.1009 8.53921 16.8535 9.66476 17.4007C10.9799 18.0401 12.631 18.6533 14.4648 19.3802C14.9579 19.5756 15.6547 20.1279 15.8281 20.8066C16.3626 22.8983 17.0898 25.1127 17.8906 27.1568C18.5122 28.7437 20.049 28.7425 20.6737 27.1568C21.4846 25.0985 22.1006 22.8751 22.7959 20.7596C22.9623 20.1065 23.455 19.59 24.0903 19.3649C25.8073 18.7567 27.4624 18.0703 28.8115 17.4761C30.0714 16.9211 30.0974 15.1196 28.8533 14.5302C27.5247 13.9008 25.8721 13.1719 24.082 12.5215C23.452 12.2925 22.9673 11.8094 22.7433 11.1236C21.9888 8.81261 21.5107 6.85335 20.7091 4.81868C20.0844 3.23303 18.4445 3.28184 17.8198 4.86748C17.0212 6.89464 16.4637 8.91241 15.8212 11.1061Z" fill="url(#paint6_radial_18_454)"/>
<path d="M15.8212 11.1061C15.6508 11.7679 15.0721 12.2616 14.3881 12.6036C12.4492 13.2744 10.9176 13.9198 9.65029 14.5463C8.52838 15.1009 8.53921 16.8535 9.66476 17.4007C10.9799 18.0401 12.631 18.6533 14.4648 19.3802C14.9579 19.5756 15.6547 20.1279 15.8281 20.8066C16.3626 22.8983 17.0898 25.1127 17.8906 27.1568C18.5122 28.7437 20.049 28.7425 20.6737 27.1568C21.4846 25.0985 22.1006 22.8751 22.7959 20.7596C22.9623 20.1065 23.455 19.59 24.0903 19.3649C25.8073 18.7567 27.4624 18.0703 28.8115 17.4761C30.0714 16.9211 30.0974 15.1196 28.8533 14.5302C27.5247 13.9008 25.8721 13.1719 24.082 12.5215C23.452 12.2925 22.9673 11.8094 22.7433 11.1236C21.9888 8.81261 21.5107 6.85335 20.7091 4.81868C20.0844 3.23303 18.4445 3.28184 17.8198 4.86748C17.0212 6.89464 16.4637 8.91241 15.8212 11.1061Z" fill="url(#paint7_radial_18_454)"/>
<path d="M15.8212 11.1061C15.6508 11.7679 15.0721 12.2616 14.3881 12.6036C12.4492 13.2744 10.9176 13.9198 9.65029 14.5463C8.52838 15.1009 8.53921 16.8535 9.66476 17.4007C10.9799 18.0401 12.631 18.6533 14.4648 19.3802C14.9579 19.5756 15.6547 20.1279 15.8281 20.8066C16.3626 22.8983 17.0898 25.1127 17.8906 27.1568C18.5122 28.7437 20.049 28.7425 20.6737 27.1568C21.4846 25.0985 22.1006 22.8751 22.7959 20.7596C22.9623 20.1065 23.455 19.59 24.0903 19.3649C25.8073 18.7567 27.4624 18.0703 28.8115 17.4761C30.0714 16.9211 30.0974 15.1196 28.8533 14.5302C27.5247 13.9008 25.8721 13.1719 24.082 12.5215C23.452 12.2925 22.9673 11.8094 22.7433 11.1236C21.9888 8.81261 21.5107 6.85335 20.7091 4.81868C20.0844 3.23303 18.4445 3.28184 17.8198 4.86748C17.0212 6.89464 16.4637 8.91241 15.8212 11.1061Z" fill="url(#paint8_radial_18_454)"/>
<path d="M15.8212 11.1061C15.6508 11.7679 15.0721 12.2616 14.3881 12.6036C12.4492 13.2744 10.9176 13.9198 9.65029 14.5463C8.52838 15.1009 8.53921 16.8535 9.66476 17.4007C10.9799 18.0401 12.631 18.6533 14.4648 19.3802C14.9579 19.5756 15.6547 20.1279 15.8281 20.8066C16.3626 22.8983 17.0898 25.1127 17.8906 27.1568C18.5122 28.7437 20.049 28.7425 20.6737 27.1568C21.4846 25.0985 22.1006 22.8751 22.7959 20.7596C22.9623 20.1065 23.455 19.59 24.0903 19.3649C25.8073 18.7567 27.4624 18.0703 28.8115 17.4761C30.0714 16.9211 30.0974 15.1196 28.8533 14.5302C27.5247 13.9008 25.8721 13.1719 24.082 12.5215C23.452 12.2925 22.9673 11.8094 22.7433 11.1236C21.9888 8.81261 21.5107 6.85335 20.7091 4.81868C20.0844 3.23303 18.4445 3.28184 17.8198 4.86748C17.0212 6.89464 16.4637 8.91241 15.8212 11.1061Z" fill="url(#paint9_radial_18_454)"/>
<path d="M15.8212 11.1061C15.6508 11.7679 15.0721 12.2616 14.3881 12.6036C12.4492 13.2744 10.9176 13.9198 9.65029 14.5463C8.52838 15.1009 8.53921 16.8535 9.66476 17.4007C10.9799 18.0401 12.631 18.6533 14.4648 19.3802C14.9579 19.5756 15.6547 20.1279 15.8281 20.8066C16.3626 22.8983 17.0898 25.1127 17.8906 27.1568C18.5122 28.7437 20.049 28.7425 20.6737 27.1568C21.4846 25.0985 22.1006 22.8751 22.7959 20.7596C22.9623 20.1065 23.455 19.59 24.0903 19.3649C25.8073 18.7567 27.4624 18.0703 28.8115 17.4761C30.0714 16.9211 30.0974 15.1196 28.8533 14.5302C27.5247 13.9008 25.8721 13.1719 24.082 12.5215C23.452 12.2925 22.9673 11.8094 22.7433 11.1236C21.9888 8.81261 21.5107 6.85335 20.7091 4.81868C20.0844 3.23303 18.4445 3.28184 17.8198 4.86748C17.0212 6.89464 16.4637 8.91241 15.8212 11.1061Z" fill="url(#paint10_radial_18_454)"/>
<path d="M15.8212 11.1061C15.6508 11.7679 15.0721 12.2616 14.3881 12.6036C12.4492 13.2744 10.9176 13.9198 9.65029 14.5463C8.52838 15.1009 8.53921 16.8535 9.66476 17.4007C10.9799 18.0401 12.631 18.6533 14.4648 19.3802C14.9579 19.5756 15.6547 20.1279 15.8281 20.8066C16.3626 22.8983 17.0898 25.1127 17.8906 27.1568C18.5122 28.7437 20.049 28.7425 20.6737 27.1568C21.4846 25.0985 22.1006 22.8751 22.7959 20.7596C22.9623 20.1065 23.455 19.59 24.0903 19.3649C25.8073 18.7567 27.4624 18.0703 28.8115 17.4761C30.0714 16.9211 30.0974 15.1196 28.8533 14.5302C27.5247 13.9008 25.8721 13.1719 24.082 12.5215C23.452 12.2925 22.9673 11.8094 22.7433 11.1236C21.9888 8.81261 21.5107 6.85335 20.7091 4.81868C20.0844 3.23303 18.4445 3.28184 17.8198 4.86748C17.0212 6.89464 16.4637 8.91241 15.8212 11.1061Z" fill="url(#paint11_radial_18_454)"/>
<path d="M15.8212 11.1061C15.6508 11.7679 15.0721 12.2616 14.3881 12.6036C12.4492 13.2744 10.9176 13.9198 9.65029 14.5463C8.52838 15.1009 8.53921 16.8535 9.66476 17.4007C10.9799 18.0401 12.631 18.6533 14.4648 19.3802C14.9579 19.5756 15.6547 20.1279 15.8281 20.8066C16.3626 22.8983 17.0898 25.1127 17.8906 27.1568C18.5122 28.7437 20.049 28.7425 20.6737 27.1568C21.4846 25.0985 22.1006 22.8751 22.7959 20.7596C22.9623 20.1065 23.455 19.59 24.0903 19.3649C25.8073 18.7567 27.4624 18.0703 28.8115 17.4761C30.0714 16.9211 30.0974 15.1196 28.8533 14.5302C27.5247 13.9008 25.8721 13.1719 24.082 12.5215C23.452 12.2925 22.9673 11.8094 22.7433 11.1236C21.9888 8.81261 21.5107 6.85335 20.7091 4.81868C20.0844 3.23303 18.4445 3.28184 17.8198 4.86748C17.0212 6.89464 16.4637 8.91241 15.8212 11.1061Z" fill="url(#paint12_radial_18_454)"/>
<path d="M15.8212 11.1061C15.6508 11.7679 15.0721 12.2616 14.3881 12.6036C12.4492 13.2744 10.9176 13.9198 9.65029 14.5463C8.52838 15.1009 8.53921 16.8535 9.66476 17.4007C10.9799 18.0401 12.631 18.6533 14.4648 19.3802C14.9579 19.5756 15.6547 20.1279 15.8281 20.8066C16.3626 22.8983 17.0898 25.1127 17.8906 27.1568C18.5122 28.7437 20.049 28.7425 20.6737 27.1568C21.4846 25.0985 22.1006 22.8751 22.7959 20.7596C22.9623 20.1065 23.455 19.59 24.0903 19.3649C25.8073 18.7567 27.4624 18.0703 28.8115 17.4761C30.0714 16.9211 30.0974 15.1196 28.8533 14.5302C27.5247 13.9008 25.8721 13.1719 24.082 12.5215C23.452 12.2925 22.9673 11.8094 22.7433 11.1236C21.9888 8.81261 21.5107 6.85335 20.7091 4.81868C20.0844 3.23303 18.4445 3.28184 17.8198 4.86748C17.0212 6.89464 16.4637 8.91241 15.8212 11.1061Z" fill="url(#paint13_radial_18_454)"/>
<path d="M15.8212 11.1061C15.6508 11.7679 15.0721 12.2616 14.3881 12.6036C12.4492 13.2744 10.9176 13.9198 9.65029 14.5463C8.52838 15.1009 8.53921 16.8535 9.66476 17.4007C10.9799 18.0401 12.631 18.6533 14.4648 19.3802C14.9579 19.5756 15.6547 20.1279 15.8281 20.8066C16.3626 22.8983 17.0898 25.1127 17.8906 27.1568C18.5122 28.7437 20.049 28.7425 20.6737 27.1568C21.4846 25.0985 22.1006 22.8751 22.7959 20.7596C22.9623 20.1065 23.455 19.59 24.0903 19.3649C25.8073 18.7567 27.4624 18.0703 28.8115 17.4761C30.0714 16.9211 30.0974 15.1196 28.8533 14.5302C27.5247 13.9008 25.8721 13.1719 24.082 12.5215C23.452 12.2925 22.9673 11.8094 22.7433 11.1236C21.9888 8.81261 21.5107 6.85335 20.7091 4.81868C20.0844 3.23303 18.4445 3.28184 17.8198 4.86748C17.0212 6.89464 16.4637 8.91241 15.8212 11.1061Z" fill="url(#paint14_radial_18_454)"/>
<path d="M15.8212 11.1061C15.6508 11.7679 15.0721 12.2616 14.3881 12.6036C12.4492 13.2744 10.9176 13.9198 9.65029 14.5463C8.52838 15.1009 8.53921 16.8535 9.66476 17.4007C10.9799 18.0401 12.631 18.6533 14.4648 19.3802C14.9579 19.5756 15.6547 20.1279 15.8281 20.8066C16.3626 22.8983 17.0898 25.1127 17.8906 27.1568C18.5122 28.7437 20.049 28.7425 20.6737 27.1568C21.4846 25.0985 22.1006 22.8751 22.7959 20.7596C22.9623 20.1065 23.455 19.59 24.0903 19.3649C25.8073 18.7567 27.4624 18.0703 28.8115 17.4761C30.0714 16.9211 30.0974 15.1196 28.8533 14.5302C27.5247 13.9008 25.8721 13.1719 24.082 12.5215C23.452 12.2925 22.9673 11.8094 22.7433 11.1236C21.9888 8.81261 21.5107 6.85335 20.7091 4.81868C20.0844 3.23303 18.4445 3.28184 17.8198 4.86748C17.0212 6.89464 16.4637 8.91241 15.8212 11.1061Z" fill="url(#paint15_radial_18_454)"/>
<path d="M15.8212 11.1061C15.6508 11.7679 15.0721 12.2616 14.3881 12.6036C12.4492 13.2744 10.9176 13.9198 9.65029 14.5463C8.52838 15.1009 8.53921 16.8535 9.66476 17.4007C10.9799 18.0401 12.631 18.6533 14.4648 19.3802C14.9579 19.5756 15.6547 20.1279 15.8281 20.8066C16.3626 22.8983 17.0898 25.1127 17.8906 27.1568C18.5122 28.7437 20.049 28.7425 20.6737 27.1568C21.4846 25.0985 22.1006 22.8751 22.7959 20.7596C22.9623 20.1065 23.455 19.59 24.0903 19.3649C25.8073 18.7567 27.4624 18.0703 28.8115 17.4761C30.0714 16.9211 30.0974 15.1196 28.8533 14.5302C27.5247 13.9008 25.8721 13.1719 24.082 12.5215C23.452 12.2925 22.9673 11.8094 22.7433 11.1236C21.9888 8.81261 21.5107 6.85335 20.7091 4.81868C20.0844 3.23303 18.4445 3.28184 17.8198 4.86748C17.0212 6.89464 16.4637 8.91241 15.8212 11.1061Z" fill="url(#paint16_radial_18_454)" fill-opacity="0.8"/>
<path d="M15.8212 11.1061C15.6508 11.7679 15.0721 12.2616 14.3881 12.6036C12.4492 13.2744 10.9176 13.9198 9.65029 14.5463C8.52838 15.1009 8.53921 16.8535 9.66476 17.4007C10.9799 18.0401 12.631 18.6533 14.4648 19.3802C14.9579 19.5756 15.6547 20.1279 15.8281 20.8066C16.3626 22.8983 17.0898 25.1127 17.8906 27.1568C18.5122 28.7437 20.049 28.7425 20.6737 27.1568C21.4846 25.0985 22.1006 22.8751 22.7959 20.7596C22.9623 20.1065 23.455 19.59 24.0903 19.3649C25.8073 18.7567 27.4624 18.0703 28.8115 17.4761C30.0714 16.9211 30.0974 15.1196 28.8533 14.5302C27.5247 13.9008 25.8721 13.1719 24.082 12.5215C23.452 12.2925 22.9673 11.8094 22.7433 11.1236C21.9888 8.81261 21.5107 6.85335 20.7091 4.81868C20.0844 3.23303 18.4445 3.28184 17.8198 4.86748C17.0212 6.89464 16.4637 8.91241 15.8212 11.1061Z" fill="url(#paint17_radial_18_454)" fill-opacity="0.8"/>
<path d="M15.8212 11.1061C15.6508 11.7679 15.0721 12.2616 14.3881 12.6036C12.4492 13.2744 10.9176 13.9198 9.65029 14.5463C8.52838 15.1009 8.53921 16.8535 9.66476 17.4007C10.9799 18.0401 12.631 18.6533 14.4648 19.3802C14.9579 19.5756 15.6547 20.1279 15.8281 20.8066C16.3626 22.8983 17.0898 25.1127 17.8906 27.1568C18.5122 28.7437 20.049 28.7425 20.6737 27.1568C21.4846 25.0985 22.1006 22.8751 22.7959 20.7596C22.9623 20.1065 23.455 19.59 24.0903 19.3649C25.8073 18.7567 27.4624 18.0703 28.8115 17.4761C30.0714 16.9211 30.0974 15.1196 28.8533 14.5302C27.5247 13.9008 25.8721 13.1719 24.082 12.5215C23.452 12.2925 22.9673 11.8094 22.7433 11.1236C21.9888 8.81261 21.5107 6.85335 20.7091 4.81868C20.0844 3.23303 18.4445 3.28184 17.8198 4.86748C17.0212 6.89464 16.4637 8.91241 15.8212 11.1061Z" fill="url(#paint18_radial_18_454)" fill-opacity="0.8"/>
<path d="M15.8212 11.1061C15.6508 11.7679 15.0721 12.2616 14.3881 12.6036C12.4492 13.2744 10.9176 13.9198 9.65029 14.5463C8.52838 15.1009 8.53921 16.8535 9.66476 17.4007C10.9799 18.0401 12.631 18.6533 14.4648 19.3802C14.9579 19.5756 15.6547 20.1279 15.8281 20.8066C16.3626 22.8983 17.0898 25.1127 17.8906 27.1568C18.5122 28.7437 20.049 28.7425 20.6737 27.1568C21.4846 25.0985 22.1006 22.8751 22.7959 20.7596C22.9623 20.1065 23.455 19.59 24.0903 19.3649C25.8073 18.7567 27.4624 18.0703 28.8115 17.4761C30.0714 16.9211 30.0974 15.1196 28.8533 14.5302C27.5247 13.9008 25.8721 13.1719 24.082 12.5215C23.452 12.2925 22.9673 11.8094 22.7433 11.1236C21.9888 8.81261 21.5107 6.85335 20.7091 4.81868C20.0844 3.23303 18.4445 3.28184 17.8198 4.86748C17.0212 6.89464 16.4637 8.91241 15.8212 11.1061Z" fill="url(#paint19_radial_18_454)" fill-opacity="0.8"/>
<path d="M15.8212 11.1061C15.6508 11.7679 15.0721 12.2616 14.3881 12.6036C12.4492 13.2744 10.9176 13.9198 9.65029 14.5463C8.52838 15.1009 8.53921 16.8535 9.66476 17.4007C10.9799 18.0401 12.631 18.6533 14.4648 19.3802C14.9579 19.5756 15.6547 20.1279 15.8281 20.8066C16.3626 22.8983 17.0898 25.1127 17.8906 27.1568C18.5122 28.7437 20.049 28.7425 20.6737 27.1568C21.4846 25.0985 22.1006 22.8751 22.7959 20.7596C22.9623 20.1065 23.455 19.59 24.0903 19.3649C25.8073 18.7567 27.4624 18.0703 28.8115 17.4761C30.0714 16.9211 30.0974 15.1196 28.8533 14.5302C27.5247 13.9008 25.8721 13.1719 24.082 12.5215C23.452 12.2925 22.9673 11.8094 22.7433 11.1236C21.9888 8.81261 21.5107 6.85335 20.7091 4.81868C20.0844 3.23303 18.4445 3.28184 17.8198 4.86748C17.0212 6.89464 16.4637 8.91241 15.8212 11.1061Z" fill="url(#paint20_radial_18_454)" fill-opacity="0.8"/>
<path d="M15.8212 11.1061C15.6508 11.7679 15.0721 12.2616 14.3881 12.6036C12.4492 13.2744 10.9176 13.9198 9.65029 14.5463C8.52838 15.1009 8.53921 16.8535 9.66476 17.4007C10.9799 18.0401 12.631 18.6533 14.4648 19.3802C14.9579 19.5756 15.6547 20.1279 15.8281 20.8066C16.3626 22.8983 17.0898 25.1127 17.8906 27.1568C18.5122 28.7437 20.049 28.7425 20.6737 27.1568C21.4846 25.0985 22.1006 22.8751 22.7959 20.7596C22.9623 20.1065 23.455 19.59 24.0903 19.3649C25.8073 18.7567 27.4624 18.0703 28.8115 17.4761C30.0714 16.9211 30.0974 15.1196 28.8533 14.5302C27.5247 13.9008 25.8721 13.1719 24.082 12.5215C23.452 12.2925 22.9673 11.8094 22.7433 11.1236C21.9888 8.81261 21.5107 6.85335 20.7091 4.81868C20.0844 3.23303 18.4445 3.28184 17.8198 4.86748C17.0212 6.89464 16.4637 8.91241 15.8212 11.1061Z" fill="url(#paint21_radial_18_454)" fill-opacity="0.8"/>
<path d="M15.8212 11.1061C15.6508 11.7679 15.0721 12.2616 14.3881 12.6036C12.4492 13.2744 10.9176 13.9198 9.65029 14.5463C8.52838 15.1009 8.53921 16.8535 9.66476 17.4007C10.9799 18.0401 12.631 18.6533 14.4648 19.3802C14.9579 19.5756 15.6547 20.1279 15.8281 20.8066C16.3626 22.8983 17.0898 25.1127 17.8906 27.1568C18.5122 28.7437 20.049 28.7425 20.6737 27.1568C21.4846 25.0985 22.1006 22.8751 22.7959 20.7596C22.9623 20.1065 23.455 19.59 24.0903 19.3649C25.8073 18.7567 27.4624 18.0703 28.8115 17.4761C30.0714 16.9211 30.0974 15.1196 28.8533 14.5302C27.5247 13.9008 25.8721 13.1719 24.082 12.5215C23.452 12.2925 22.9673 11.8094 22.7433 11.1236C21.9888 8.81261 21.5107 6.85335 20.7091 4.81868C20.0844 3.23303 18.4445 3.28184 17.8198 4.86748C17.0212 6.89464 16.4637 8.91241 15.8212 11.1061Z" fill="url(#paint22_radial_18_454)" fill-opacity="0.8"/>
<path d="M15.8212 11.1061C15.6508 11.7679 15.0721 12.2616 14.3881 12.6036C12.4492 13.2744 10.9176 13.9198 9.65029 14.5463C8.52838 15.1009 8.53921 16.8535 9.66476 17.4007C10.9799 18.0401 12.631 18.6533 14.4648 19.3802C14.9579 19.5756 15.6547 20.1279 15.8281 20.8066C16.3626 22.8983 17.0898 25.1127 17.8906 27.1568C18.5122 28.7437 20.049 28.7425 20.6737 27.1568C21.4846 25.0985 22.1006 22.8751 22.7959 20.7596C22.9623 20.1065 23.455 19.59 24.0903 19.3649C25.8073 18.7567 27.4624 18.0703 28.8115 17.4761C30.0714 16.9211 30.0974 15.1196 28.8533 14.5302C27.5247 13.9008 25.8721 13.1719 24.082 12.5215C23.452 12.2925 22.9673 11.8094 22.7433 11.1236C21.9888 8.81261 21.5107 6.85335 20.7091 4.81868C20.0844 3.23303 18.4445 3.28184 17.8198 4.86748C17.0212 6.89464 16.4637 8.91241 15.8212 11.1061Z" fill="url(#paint23_radial_18_454)" fill-opacity="0.8"/>
<path d="M15.8212 11.1061C15.6508 11.7679 15.0721 12.2616 14.3881 12.6036C12.4492 13.2744 10.9176 13.9198 9.65029 14.5463C8.52838 15.1009 8.53921 16.8535 9.66476 17.4007C10.9799 18.0401 12.631 18.6533 14.4648 19.3802C14.9579 19.5756 15.6547 20.1279 15.8281 20.8066C16.3626 22.8983 17.0898 25.1127 17.8906 27.1568C18.5122 28.7437 20.049 28.7425 20.6737 27.1568C21.4846 25.0985 22.1006 22.8751 22.7959 20.7596C22.9623 20.1065 23.455 19.59 24.0903 19.3649C25.8073 18.7567 27.4624 18.0703 28.8115 17.4761C30.0714 16.9211 30.0974 15.1196 28.8533 14.5302C27.5247 13.9008 25.8721 13.1719 24.082 12.5215C23.452 12.2925 22.9673 11.8094 22.7433 11.1236C21.9888 8.81261 21.5107 6.85335 20.7091 4.81868C20.0844 3.23303 18.4445 3.28184 17.8198 4.86748C17.0212 6.89464 16.4637 8.91241 15.8212 11.1061Z" fill="url(#paint24_radial_18_454)"/>
<path d="M15.8212 11.1061C15.6508 11.7679 15.0721 12.2616 14.3881 12.6036C12.4492 13.2744 10.9176 13.9198 9.65029 14.5463C8.52838 15.1009 8.53921 16.8535 9.66476 17.4007C10.9799 18.0401 12.631 18.6533 14.4648 19.3802C14.9579 19.5756 15.6547 20.1279 15.8281 20.8066C16.3626 22.8983 17.0898 25.1127 17.8906 27.1568C18.5122 28.7437 20.049 28.7425 20.6737 27.1568C21.4846 25.0985 22.1006 22.8751 22.7959 20.7596C22.9623 20.1065 23.455 19.59 24.0903 19.3649C25.8073 18.7567 27.4624 18.0703 28.8115 17.4761C30.0714 16.9211 30.0974 15.1196 28.8533 14.5302C27.5247 13.9008 25.8721 13.1719 24.082 12.5215C23.452 12.2925 22.9673 11.8094 22.7433 11.1236C21.9888 8.81261 21.5107 6.85335 20.7091 4.81868C20.0844 3.23303 18.4445 3.28184 17.8198 4.86748C17.0212 6.89464 16.4637 8.91241 15.8212 11.1061Z" fill="url(#paint25_radial_18_454)"/>
<path d="M15.8212 11.1061C15.6508 11.7679 15.0721 12.2616 14.3881 12.6036C12.4492 13.2744 10.9176 13.9198 9.65029 14.5463C8.52838 15.1009 8.53921 16.8535 9.66476 17.4007C10.9799 18.0401 12.631 18.6533 14.4648 19.3802C14.9579 19.5756 15.6547 20.1279 15.8281 20.8066C16.3626 22.8983 17.0898 25.1127 17.8906 27.1568C18.5122 28.7437 20.049 28.7425 20.6737 27.1568C21.4846 25.0985 22.1006 22.8751 22.7959 20.7596C22.9623 20.1065 23.455 19.59 24.0903 19.3649C25.8073 18.7567 27.4624 18.0703 28.8115 17.4761C30.0714 16.9211 30.0974 15.1196 28.8533 14.5302C27.5247 13.9008 25.8721 13.1719 24.082 12.5215C23.452 12.2925 22.9673 11.8094 22.7433 11.1236C21.9888 8.81261 21.5107 6.85335 20.7091 4.81868C20.0844 3.23303 18.4445 3.28184 17.8198 4.86748C17.0212 6.89464 16.4637 8.91241 15.8212 11.1061Z" fill="url(#paint26_radial_18_454)"/>
<path d="M15.8212 11.1061C15.6508 11.7679 15.0721 12.2616 14.3881 12.6036C12.4492 13.2744 10.9176 13.9198 9.65029 14.5463C8.52838 15.1009 8.53921 16.8535 9.66476 17.4007C10.9799 18.0401 12.631 18.6533 14.4648 19.3802C14.9579 19.5756 15.6547 20.1279 15.8281 20.8066C16.3626 22.8983 17.0898 25.1127 17.8906 27.1568C18.5122 28.7437 20.049 28.7425 20.6737 27.1568C21.4846 25.0985 22.1006 22.8751 22.7959 20.7596C22.9623 20.1065 23.455 19.59 24.0903 19.3649C25.8073 18.7567 27.4624 18.0703 28.8115 17.4761C30.0714 16.9211 30.0974 15.1196 28.8533 14.5302C27.5247 13.9008 25.8721 13.1719 24.082 12.5215C23.452 12.2925 22.9673 11.8094 22.7433 11.1236C21.9888 8.81261 21.5107 6.85335 20.7091 4.81868C20.0844 3.23303 18.4445 3.28184 17.8198 4.86748C17.0212 6.89464 16.4637 8.91241 15.8212 11.1061Z" fill="url(#paint27_radial_18_454)"/>
<path d="M15.8212 11.1061C15.6508 11.7679 15.0721 12.2616 14.3881 12.6036C12.4492 13.2744 10.9176 13.9198 9.65029 14.5463C8.52838 15.1009 8.53921 16.8535 9.66476 17.4007C10.9799 18.0401 12.631 18.6533 14.4648 19.3802C14.9579 19.5756 15.6547 20.1279 15.8281 20.8066C16.3626 22.8983 17.0898 25.1127 17.8906 27.1568C18.5122 28.7437 20.049 28.7425 20.6737 27.1568C21.4846 25.0985 22.1006 22.8751 22.7959 20.7596C22.9623 20.1065 23.455 19.59 24.0903 19.3649C25.8073 18.7567 27.4624 18.0703 28.8115 17.4761C30.0714 16.9211 30.0974 15.1196 28.8533 14.5302C27.5247 13.9008 25.8721 13.1719 24.082 12.5215C23.452 12.2925 22.9673 11.8094 22.7433 11.1236C21.9888 8.81261 21.5107 6.85335 20.7091 4.81868C20.0844 3.23303 18.4445 3.28184 17.8198 4.86748C17.0212 6.89464 16.4637 8.91241 15.8212 11.1061Z" fill="url(#paint28_radial_18_454)"/>
<path d="M15.8212 11.1061C15.6508 11.7679 15.0721 12.2616 14.3881 12.6036C12.4492 13.2744 10.9176 13.9198 9.65029 14.5463C8.52838 15.1009 8.53921 16.8535 9.66476 17.4007C10.9799 18.0401 12.631 18.6533 14.4648 19.3802C14.9579 19.5756 15.6547 20.1279 15.8281 20.8066C16.3626 22.8983 17.0898 25.1127 17.8906 27.1568C18.5122 28.7437 20.049 28.7425 20.6737 27.1568C21.4846 25.0985 22.1006 22.8751 22.7959 20.7596C22.9623 20.1065 23.455 19.59 24.0903 19.3649C25.8073 18.7567 27.4624 18.0703 28.8115 17.4761C30.0714 16.9211 30.0974 15.1196 28.8533 14.5302C27.5247 13.9008 25.8721 13.1719 24.082 12.5215C23.452 12.2925 22.9673 11.8094 22.7433 11.1236C21.9888 8.81261 21.5107 6.85335 20.7091 4.81868C20.0844 3.23303 18.4445 3.28184 17.8198 4.86748C17.0212 6.89464 16.4637 8.91241 15.8212 11.1061Z" fill="url(#paint29_radial_18_454)"/>
<path d="M7.76802 5.81636C7.71317 6.02937 7.52694 6.18827 7.30679 6.29834C6.68272 6.51426 6.18977 6.72198 5.78188 6.92362C5.42078 7.10212 5.42427 7.66623 5.78654 7.84234C6.20981 8.04812 6.74125 8.24548 7.33147 8.47945C7.49016 8.54236 7.71443 8.72009 7.77026 8.93856C7.94229 9.61179 8.17635 10.3245 8.43408 10.9824C8.63416 11.4932 9.12879 11.4928 9.32984 10.9824C9.59083 10.3199 9.78911 9.6043 10.0129 8.92343C10.0665 8.71321 10.225 8.54698 10.4295 8.47454C10.9821 8.27878 11.5148 8.05785 11.9491 7.86659C12.3546 7.68799 12.3629 7.10814 11.9625 6.91844C11.5349 6.71586 11.003 6.48127 10.4268 6.27192C10.224 6.19823 10.068 6.04274 9.99597 5.822C9.75311 5.0782 9.59923 4.4476 9.34123 3.79273C9.14017 3.28237 8.61237 3.29808 8.41131 3.80843C8.15427 4.46089 7.97482 5.11032 7.76802 5.81636Z" fill="url(#paint30_linear_18_454)"/>
<path d="M7.76802 5.81636C7.71317 6.02937 7.52694 6.18827 7.30679 6.29834C6.68272 6.51426 6.18977 6.72198 5.78188 6.92362C5.42078 7.10212 5.42427 7.66623 5.78654 7.84234C6.20981 8.04812 6.74125 8.24548 7.33147 8.47945C7.49016 8.54236 7.71443 8.72009 7.77026 8.93856C7.94229 9.61179 8.17635 10.3245 8.43408 10.9824C8.63416 11.4932 9.12879 11.4928 9.32984 10.9824C9.59083 10.3199 9.78911 9.6043 10.0129 8.92343C10.0665 8.71321 10.225 8.54698 10.4295 8.47454C10.9821 8.27878 11.5148 8.05785 11.9491 7.86659C12.3546 7.68799 12.3629 7.10814 11.9625 6.91844C11.5349 6.71586 11.003 6.48127 10.4268 6.27192C10.224 6.19823 10.068 6.04274 9.99597 5.822C9.75311 5.0782 9.59923 4.4476 9.34123 3.79273C9.14017 3.28237 8.61237 3.29808 8.41131 3.80843C8.15427 4.46089 7.97482 5.11032 7.76802 5.81636Z" fill="url(#paint31_linear_18_454)"/>
<path d="M7.76802 5.81636C7.71317 6.02937 7.52694 6.18827 7.30679 6.29834C6.68272 6.51426 6.18977 6.72198 5.78188 6.92362C5.42078 7.10212 5.42427 7.66623 5.78654 7.84234C6.20981 8.04812 6.74125 8.24548 7.33147 8.47945C7.49016 8.54236 7.71443 8.72009 7.77026 8.93856C7.94229 9.61179 8.17635 10.3245 8.43408 10.9824C8.63416 11.4932 9.12879 11.4928 9.32984 10.9824C9.59083 10.3199 9.78911 9.6043 10.0129 8.92343C10.0665 8.71321 10.225 8.54698 10.4295 8.47454C10.9821 8.27878 11.5148 8.05785 11.9491 7.86659C12.3546 7.68799 12.3629 7.10814 11.9625 6.91844C11.5349 6.71586 11.003 6.48127 10.4268 6.27192C10.224 6.19823 10.068 6.04274 9.99597 5.822C9.75311 5.0782 9.59923 4.4476 9.34123 3.79273C9.14017 3.28237 8.61237 3.29808 8.41131 3.80843C8.15427 4.46089 7.97482 5.11032 7.76802 5.81636Z" fill="url(#paint32_radial_18_454)"/>
<path d="M7.76802 5.81636C7.71317 6.02937 7.52694 6.18827 7.30679 6.29834C6.68272 6.51426 6.18977 6.72198 5.78188 6.92362C5.42078 7.10212 5.42427 7.66623 5.78654 7.84234C6.20981 8.04812 6.74125 8.24548 7.33147 8.47945C7.49016 8.54236 7.71443 8.72009 7.77026 8.93856C7.94229 9.61179 8.17635 10.3245 8.43408 10.9824C8.63416 11.4932 9.12879 11.4928 9.32984 10.9824C9.59083 10.3199 9.78911 9.6043 10.0129 8.92343C10.0665 8.71321 10.225 8.54698 10.4295 8.47454C10.9821 8.27878 11.5148 8.05785 11.9491 7.86659C12.3546 7.68799 12.3629 7.10814 11.9625 6.91844C11.5349 6.71586 11.003 6.48127 10.4268 6.27192C10.224 6.19823 10.068 6.04274 9.99597 5.822C9.75311 5.0782 9.59923 4.4476 9.34123 3.79273C9.14017 3.28237 8.61237 3.29808 8.41131 3.80843C8.15427 4.46089 7.97482 5.11032 7.76802 5.81636Z" fill="url(#paint33_radial_18_454)"/>
<path d="M7.76802 5.81636C7.71317 6.02937 7.52694 6.18827 7.30679 6.29834C6.68272 6.51426 6.18977 6.72198 5.78188 6.92362C5.42078 7.10212 5.42427 7.66623 5.78654 7.84234C6.20981 8.04812 6.74125 8.24548 7.33147 8.47945C7.49016 8.54236 7.71443 8.72009 7.77026 8.93856C7.94229 9.61179 8.17635 10.3245 8.43408 10.9824C8.63416 11.4932 9.12879 11.4928 9.32984 10.9824C9.59083 10.3199 9.78911 9.6043 10.0129 8.92343C10.0665 8.71321 10.225 8.54698 10.4295 8.47454C10.9821 8.27878 11.5148 8.05785 11.9491 7.86659C12.3546 7.68799 12.3629 7.10814 11.9625 6.91844C11.5349 6.71586 11.003 6.48127 10.4268 6.27192C10.224 6.19823 10.068 6.04274 9.99597 5.822C9.75311 5.0782 9.59923 4.4476 9.34123 3.79273C9.14017 3.28237 8.61237 3.29808 8.41131 3.80843C8.15427 4.46089 7.97482 5.11032 7.76802 5.81636Z" fill="url(#paint34_radial_18_454)"/>
<path d="M7.76802 5.81636C7.71317 6.02937 7.52694 6.18827 7.30679 6.29834C6.68272 6.51426 6.18977 6.72198 5.78188 6.92362C5.42078 7.10212 5.42427 7.66623 5.78654 7.84234C6.20981 8.04812 6.74125 8.24548 7.33147 8.47945C7.49016 8.54236 7.71443 8.72009 7.77026 8.93856C7.94229 9.61179 8.17635 10.3245 8.43408 10.9824C8.63416 11.4932 9.12879 11.4928 9.32984 10.9824C9.59083 10.3199 9.78911 9.6043 10.0129 8.92343C10.0665 8.71321 10.225 8.54698 10.4295 8.47454C10.9821 8.27878 11.5148 8.05785 11.9491 7.86659C12.3546 7.68799 12.3629 7.10814 11.9625 6.91844C11.5349 6.71586 11.003 6.48127 10.4268 6.27192C10.224 6.19823 10.068 6.04274 9.99597 5.822C9.75311 5.0782 9.59923 4.4476 9.34123 3.79273C9.14017 3.28237 8.61237 3.29808 8.41131 3.80843C8.15427 4.46089 7.97482 5.11032 7.76802 5.81636Z" fill="url(#paint35_radial_18_454)"/>
<path d="M7.76802 5.81636C7.71317 6.02937 7.52694 6.18827 7.30679 6.29834C6.68272 6.51426 6.18977 6.72198 5.78188 6.92362C5.42078 7.10212 5.42427 7.66623 5.78654 7.84234C6.20981 8.04812 6.74125 8.24548 7.33147 8.47945C7.49016 8.54236 7.71443 8.72009 7.77026 8.93856C7.94229 9.61179 8.17635 10.3245 8.43408 10.9824C8.63416 11.4932 9.12879 11.4928 9.32984 10.9824C9.59083 10.3199 9.78911 9.6043 10.0129 8.92343C10.0665 8.71321 10.225 8.54698 10.4295 8.47454C10.9821 8.27878 11.5148 8.05785 11.9491 7.86659C12.3546 7.68799 12.3629 7.10814 11.9625 6.91844C11.5349 6.71586 11.003 6.48127 10.4268 6.27192C10.224 6.19823 10.068 6.04274 9.99597 5.822C9.75311 5.0782 9.59923 4.4476 9.34123 3.79273C9.14017 3.28237 8.61237 3.29808 8.41131 3.80843C8.15427 4.46089 7.97482 5.11032 7.76802 5.81636Z" fill="url(#paint36_radial_18_454)"/>
<path d="M7.76802 5.81636C7.71317 6.02937 7.52694 6.18827 7.30679 6.29834C6.68272 6.51426 6.18977 6.72198 5.78188 6.92362C5.42078 7.10212 5.42427 7.66623 5.78654 7.84234C6.20981 8.04812 6.74125 8.24548 7.33147 8.47945C7.49016 8.54236 7.71443 8.72009 7.77026 8.93856C7.94229 9.61179 8.17635 10.3245 8.43408 10.9824C8.63416 11.4932 9.12879 11.4928 9.32984 10.9824C9.59083 10.3199 9.78911 9.6043 10.0129 8.92343C10.0665 8.71321 10.225 8.54698 10.4295 8.47454C10.9821 8.27878 11.5148 8.05785 11.9491 7.86659C12.3546 7.68799 12.3629 7.10814 11.9625 6.91844C11.5349 6.71586 11.003 6.48127 10.4268 6.27192C10.224 6.19823 10.068 6.04274 9.99597 5.822C9.75311 5.0782 9.59923 4.4476 9.34123 3.79273C9.14017 3.28237 8.61237 3.29808 8.41131 3.80843C8.15427 4.46089 7.97482 5.11032 7.76802 5.81636Z" fill="url(#paint37_radial_18_454)"/>
<path d="M7.76802 5.81636C7.71317 6.02937 7.52694 6.18827 7.30679 6.29834C6.68272 6.51426 6.18977 6.72198 5.78188 6.92362C5.42078 7.10212 5.42427 7.66623 5.78654 7.84234C6.20981 8.04812 6.74125 8.24548 7.33147 8.47945C7.49016 8.54236 7.71443 8.72009 7.77026 8.93856C7.94229 9.61179 8.17635 10.3245 8.43408 10.9824C8.63416 11.4932 9.12879 11.4928 9.32984 10.9824C9.59083 10.3199 9.78911 9.6043 10.0129 8.92343C10.0665 8.71321 10.225 8.54698 10.4295 8.47454C10.9821 8.27878 11.5148 8.05785 11.9491 7.86659C12.3546 7.68799 12.3629 7.10814 11.9625 6.91844C11.5349 6.71586 11.003 6.48127 10.4268 6.27192C10.224 6.19823 10.068 6.04274 9.99597 5.822C9.75311 5.0782 9.59923 4.4476 9.34123 3.79273C9.14017 3.28237 8.61237 3.29808 8.41131 3.80843C8.15427 4.46089 7.97482 5.11032 7.76802 5.81636Z" fill="url(#paint38_radial_18_454)"/>
<path d="M7.76802 5.81636C7.71317 6.02937 7.52694 6.18827 7.30679 6.29834C6.68272 6.51426 6.18977 6.72198 5.78188 6.92362C5.42078 7.10212 5.42427 7.66623 5.78654 7.84234C6.20981 8.04812 6.74125 8.24548 7.33147 8.47945C7.49016 8.54236 7.71443 8.72009 7.77026 8.93856C7.94229 9.61179 8.17635 10.3245 8.43408 10.9824C8.63416 11.4932 9.12879 11.4928 9.32984 10.9824C9.59083 10.3199 9.78911 9.6043 10.0129 8.92343C10.0665 8.71321 10.225 8.54698 10.4295 8.47454C10.9821 8.27878 11.5148 8.05785 11.9491 7.86659C12.3546 7.68799 12.3629 7.10814 11.9625 6.91844C11.5349 6.71586 11.003 6.48127 10.4268 6.27192C10.224 6.19823 10.068 6.04274 9.99597 5.822C9.75311 5.0782 9.59923 4.4476 9.34123 3.79273C9.14017 3.28237 8.61237 3.29808 8.41131 3.80843C8.15427 4.46089 7.97482 5.11032 7.76802 5.81636Z" fill="url(#paint39_radial_18_454)"/>
<path d="M7.76802 5.81636C7.71317 6.02937 7.52694 6.18827 7.30679 6.29834C6.68272 6.51426 6.18977 6.72198 5.78188 6.92362C5.42078 7.10212 5.42427 7.66623 5.78654 7.84234C6.20981 8.04812 6.74125 8.24548 7.33147 8.47945C7.49016 8.54236 7.71443 8.72009 7.77026 8.93856C7.94229 9.61179 8.17635 10.3245 8.43408 10.9824C8.63416 11.4932 9.12879 11.4928 9.32984 10.9824C9.59083 10.3199 9.78911 9.6043 10.0129 8.92343C10.0665 8.71321 10.225 8.54698 10.4295 8.47454C10.9821 8.27878 11.5148 8.05785 11.9491 7.86659C12.3546 7.68799 12.3629 7.10814 11.9625 6.91844C11.5349 6.71586 11.003 6.48127 10.4268 6.27192C10.224 6.19823 10.068 6.04274 9.99597 5.822C9.75311 5.0782 9.59923 4.4476 9.34123 3.79273C9.14017 3.28237 8.61237 3.29808 8.41131 3.80843C8.15427 4.46089 7.97482 5.11032 7.76802 5.81636Z" fill="url(#paint40_radial_18_454)"/>
<path d="M7.76802 5.81636C7.71317 6.02937 7.52694 6.18827 7.30679 6.29834C6.68272 6.51426 6.18977 6.72198 5.78188 6.92362C5.42078 7.10212 5.42427 7.66623 5.78654 7.84234C6.20981 8.04812 6.74125 8.24548 7.33147 8.47945C7.49016 8.54236 7.71443 8.72009 7.77026 8.93856C7.94229 9.61179 8.17635 10.3245 8.43408 10.9824C8.63416 11.4932 9.12879 11.4928 9.32984 10.9824C9.59083 10.3199 9.78911 9.6043 10.0129 8.92343C10.0665 8.71321 10.225 8.54698 10.4295 8.47454C10.9821 8.27878 11.5148 8.05785 11.9491 7.86659C12.3546 7.68799 12.3629 7.10814 11.9625 6.91844C11.5349 6.71586 11.003 6.48127 10.4268 6.27192C10.224 6.19823 10.068 6.04274 9.99597 5.822C9.75311 5.0782 9.59923 4.4476 9.34123 3.79273C9.14017 3.28237 8.61237 3.29808 8.41131 3.80843C8.15427 4.46089 7.97482 5.11032 7.76802 5.81636Z" fill="url(#paint41_radial_18_454)"/>
<path d="M7.76802 5.81636C7.71317 6.02937 7.52694 6.18827 7.30679 6.29834C6.68272 6.51426 6.18977 6.72198 5.78188 6.92362C5.42078 7.10212 5.42427 7.66623 5.78654 7.84234C6.20981 8.04812 6.74125 8.24548 7.33147 8.47945C7.49016 8.54236 7.71443 8.72009 7.77026 8.93856C7.94229 9.61179 8.17635 10.3245 8.43408 10.9824C8.63416 11.4932 9.12879 11.4928 9.32984 10.9824C9.59083 10.3199 9.78911 9.6043 10.0129 8.92343C10.0665 8.71321 10.225 8.54698 10.4295 8.47454C10.9821 8.27878 11.5148 8.05785 11.9491 7.86659C12.3546 7.68799 12.3629 7.10814 11.9625 6.91844C11.5349 6.71586 11.003 6.48127 10.4268 6.27192C10.224 6.19823 10.068 6.04274 9.99597 5.822C9.75311 5.0782 9.59923 4.4476 9.34123 3.79273C9.14017 3.28237 8.61237 3.29808 8.41131 3.80843C8.15427 4.46089 7.97482 5.11032 7.76802 5.81636Z" fill="url(#paint42_radial_18_454)"/>
<path d="M7.76802 5.81636C7.71317 6.02937 7.52694 6.18827 7.30679 6.29834C6.68272 6.51426 6.18977 6.72198 5.78188 6.92362C5.42078 7.10212 5.42427 7.66623 5.78654 7.84234C6.20981 8.04812 6.74125 8.24548 7.33147 8.47945C7.49016 8.54236 7.71443 8.72009 7.77026 8.93856C7.94229 9.61179 8.17635 10.3245 8.43408 10.9824C8.63416 11.4932 9.12879 11.4928 9.32984 10.9824C9.59083 10.3199 9.78911 9.6043 10.0129 8.92343C10.0665 8.71321 10.225 8.54698 10.4295 8.47454C10.9821 8.27878 11.5148 8.05785 11.9491 7.86659C12.3546 7.68799 12.3629 7.10814 11.9625 6.91844C11.5349 6.71586 11.003 6.48127 10.4268 6.27192C10.224 6.19823 10.068 6.04274 9.99597 5.822C9.75311 5.0782 9.59923 4.4476 9.34123 3.79273C9.14017 3.28237 8.61237 3.29808 8.41131 3.80843C8.15427 4.46089 7.97482 5.11032 7.76802 5.81636Z" fill="url(#paint43_radial_18_454)"/>
<path d="M5.22591 20.0657C5.14942 20.3628 4.88972 20.5843 4.58274 20.7378C3.7125 21.0389 3.02511 21.3286 2.45633 21.6098C1.95279 21.8587 1.95765 22.6453 2.46282 22.8909C3.05306 23.1778 3.79412 23.453 4.61715 23.7793C4.83844 23.867 5.15117 24.1148 5.22902 24.4195C5.46892 25.3583 5.7953 26.3521 6.1547 27.2696C6.43369 27.9818 7.12344 27.9812 7.40379 27.2696C7.76772 26.3457 8.04422 25.3478 8.35628 24.3984C8.43096 24.1053 8.65206 23.8735 8.9372 23.7724C9.70782 23.4995 10.4507 23.1914 11.0562 22.9247C11.6216 22.6756 11.6333 21.8671 11.0749 21.6025C10.4786 21.32 9.73693 20.9929 8.9335 20.701C8.65072 20.5982 8.43318 20.3814 8.33268 20.0736C7.99402 19.0364 7.77944 18.1571 7.41967 17.2439C7.1393 16.5322 6.40331 16.5541 6.12294 17.2658C5.76451 18.1756 5.51427 19.0812 5.22591 20.0657Z" fill="url(#paint44_radial_18_454)"/>
<path d="M5.22591 20.0657C5.14942 20.3628 4.88972 20.5843 4.58274 20.7378C3.7125 21.0389 3.02511 21.3286 2.45633 21.6098C1.95279 21.8587 1.95765 22.6453 2.46282 22.8909C3.05306 23.1778 3.79412 23.453 4.61715 23.7793C4.83844 23.867 5.15117 24.1148 5.22902 24.4195C5.46892 25.3583 5.7953 26.3521 6.1547 27.2696C6.43369 27.9818 7.12344 27.9812 7.40379 27.2696C7.76772 26.3457 8.04422 25.3478 8.35628 24.3984C8.43096 24.1053 8.65206 23.8735 8.9372 23.7724C9.70782 23.4995 10.4507 23.1914 11.0562 22.9247C11.6216 22.6756 11.6333 21.8671 11.0749 21.6025C10.4786 21.32 9.73693 20.9929 8.9335 20.701C8.65072 20.5982 8.43318 20.3814 8.33268 20.0736C7.99402 19.0364 7.77944 18.1571 7.41967 17.2439C7.1393 16.5322 6.40331 16.5541 6.12294 17.2658C5.76451 18.1756 5.51427 19.0812 5.22591 20.0657Z" fill="url(#paint45_radial_18_454)"/>
<path d="M5.22591 20.0657C5.14942 20.3628 4.88972 20.5843 4.58274 20.7378C3.7125 21.0389 3.02511 21.3286 2.45633 21.6098C1.95279 21.8587 1.95765 22.6453 2.46282 22.8909C3.05306 23.1778 3.79412 23.453 4.61715 23.7793C4.83844 23.867 5.15117 24.1148 5.22902 24.4195C5.46892 25.3583 5.7953 26.3521 6.1547 27.2696C6.43369 27.9818 7.12344 27.9812 7.40379 27.2696C7.76772 26.3457 8.04422 25.3478 8.35628 24.3984C8.43096 24.1053 8.65206 23.8735 8.9372 23.7724C9.70782 23.4995 10.4507 23.1914 11.0562 22.9247C11.6216 22.6756 11.6333 21.8671 11.0749 21.6025C10.4786 21.32 9.73693 20.9929 8.9335 20.701C8.65072 20.5982 8.43318 20.3814 8.33268 20.0736C7.99402 19.0364 7.77944 18.1571 7.41967 17.2439C7.1393 16.5322 6.40331 16.5541 6.12294 17.2658C5.76451 18.1756 5.51427 19.0812 5.22591 20.0657Z" fill="url(#paint46_radial_18_454)"/>
<path d="M5.22591 20.0657C5.14942 20.3628 4.88972 20.5843 4.58274 20.7378C3.7125 21.0389 3.02511 21.3286 2.45633 21.6098C1.95279 21.8587 1.95765 22.6453 2.46282 22.8909C3.05306 23.1778 3.79412 23.453 4.61715 23.7793C4.83844 23.867 5.15117 24.1148 5.22902 24.4195C5.46892 25.3583 5.7953 26.3521 6.1547 27.2696C6.43369 27.9818 7.12344 27.9812 7.40379 27.2696C7.76772 26.3457 8.04422 25.3478 8.35628 24.3984C8.43096 24.1053 8.65206 23.8735 8.9372 23.7724C9.70782 23.4995 10.4507 23.1914 11.0562 22.9247C11.6216 22.6756 11.6333 21.8671 11.0749 21.6025C10.4786 21.32 9.73693 20.9929 8.9335 20.701C8.65072 20.5982 8.43318 20.3814 8.33268 20.0736C7.99402 19.0364 7.77944 18.1571 7.41967 17.2439C7.1393 16.5322 6.40331 16.5541 6.12294 17.2658C5.76451 18.1756 5.51427 19.0812 5.22591 20.0657Z" fill="url(#paint47_radial_18_454)"/>
<path d="M5.22591 20.0657C5.14942 20.3628 4.88972 20.5843 4.58274 20.7378C3.7125 21.0389 3.02511 21.3286 2.45633 21.6098C1.95279 21.8587 1.95765 22.6453 2.46282 22.8909C3.05306 23.1778 3.79412 23.453 4.61715 23.7793C4.83844 23.867 5.15117 24.1148 5.22902 24.4195C5.46892 25.3583 5.7953 26.3521 6.1547 27.2696C6.43369 27.9818 7.12344 27.9812 7.40379 27.2696C7.76772 26.3457 8.04422 25.3478 8.35628 24.3984C8.43096 24.1053 8.65206 23.8735 8.9372 23.7724C9.70782 23.4995 10.4507 23.1914 11.0562 22.9247C11.6216 22.6756 11.6333 21.8671 11.0749 21.6025C10.4786 21.32 9.73693 20.9929 8.9335 20.701C8.65072 20.5982 8.43318 20.3814 8.33268 20.0736C7.99402 19.0364 7.77944 18.1571 7.41967 17.2439C7.1393 16.5322 6.40331 16.5541 6.12294 17.2658C5.76451 18.1756 5.51427 19.0812 5.22591 20.0657Z" fill="url(#paint48_radial_18_454)"/>
<path d="M5.22591 20.0657C5.14942 20.3628 4.88972 20.5843 4.58274 20.7378C3.7125 21.0389 3.02511 21.3286 2.45633 21.6098C1.95279 21.8587 1.95765 22.6453 2.46282 22.8909C3.05306 23.1778 3.79412 23.453 4.61715 23.7793C4.83844 23.867 5.15117 24.1148 5.22902 24.4195C5.46892 25.3583 5.7953 26.3521 6.1547 27.2696C6.43369 27.9818 7.12344 27.9812 7.40379 27.2696C7.76772 26.3457 8.04422 25.3478 8.35628 24.3984C8.43096 24.1053 8.65206 23.8735 8.9372 23.7724C9.70782 23.4995 10.4507 23.1914 11.0562 22.9247C11.6216 22.6756 11.6333 21.8671 11.0749 21.6025C10.4786 21.32 9.73693 20.9929 8.9335 20.701C8.65072 20.5982 8.43318 20.3814 8.33268 20.0736C7.99402 19.0364 7.77944 18.1571 7.41967 17.2439C7.1393 16.5322 6.40331 16.5541 6.12294 17.2658C5.76451 18.1756 5.51427 19.0812 5.22591 20.0657Z" fill="url(#paint49_radial_18_454)"/>
<path d="M5.22591 20.0657C5.14942 20.3628 4.88972 20.5843 4.58274 20.7378C3.7125 21.0389 3.02511 21.3286 2.45633 21.6098C1.95279 21.8587 1.95765 22.6453 2.46282 22.8909C3.05306 23.1778 3.79412 23.453 4.61715 23.7793C4.83844 23.867 5.15117 24.1148 5.22902 24.4195C5.46892 25.3583 5.7953 26.3521 6.1547 27.2696C6.43369 27.9818 7.12344 27.9812 7.40379 27.2696C7.76772 26.3457 8.04422 25.3478 8.35628 24.3984C8.43096 24.1053 8.65206 23.8735 8.9372 23.7724C9.70782 23.4995 10.4507 23.1914 11.0562 22.9247C11.6216 22.6756 11.6333 21.8671 11.0749 21.6025C10.4786 21.32 9.73693 20.9929 8.9335 20.701C8.65072 20.5982 8.43318 20.3814 8.33268 20.0736C7.99402 19.0364 7.77944 18.1571 7.41967 17.2439C7.1393 16.5322 6.40331 16.5541 6.12294 17.2658C5.76451 18.1756 5.51427 19.0812 5.22591 20.0657Z" fill="url(#paint50_radial_18_454)"/>
<path d="M5.22591 20.0657C5.14942 20.3628 4.88972 20.5843 4.58274 20.7378C3.7125 21.0389 3.02511 21.3286 2.45633 21.6098C1.95279 21.8587 1.95765 22.6453 2.46282 22.8909C3.05306 23.1778 3.79412 23.453 4.61715 23.7793C4.83844 23.867 5.15117 24.1148 5.22902 24.4195C5.46892 25.3583 5.7953 26.3521 6.1547 27.2696C6.43369 27.9818 7.12344 27.9812 7.40379 27.2696C7.76772 26.3457 8.04422 25.3478 8.35628 24.3984C8.43096 24.1053 8.65206 23.8735 8.9372 23.7724C9.70782 23.4995 10.4507 23.1914 11.0562 22.9247C11.6216 22.6756 11.6333 21.8671 11.0749 21.6025C10.4786 21.32 9.73693 20.9929 8.9335 20.701C8.65072 20.5982 8.43318 20.3814 8.33268 20.0736C7.99402 19.0364 7.77944 18.1571 7.41967 17.2439C7.1393 16.5322 6.40331 16.5541 6.12294 17.2658C5.76451 18.1756 5.51427 19.0812 5.22591 20.0657Z" fill="url(#paint51_radial_18_454)"/>
<path d="M5.22591 20.0657C5.14942 20.3628 4.88972 20.5843 4.58274 20.7378C3.7125 21.0389 3.02511 21.3286 2.45633 21.6098C1.95279 21.8587 1.95765 22.6453 2.46282 22.8909C3.05306 23.1778 3.79412 23.453 4.61715 23.7793C4.83844 23.867 5.15117 24.1148 5.22902 24.4195C5.46892 25.3583 5.7953 26.3521 6.1547 27.2696C6.43369 27.9818 7.12344 27.9812 7.40379 27.2696C7.76772 26.3457 8.04422 25.3478 8.35628 24.3984C8.43096 24.1053 8.65206 23.8735 8.9372 23.7724C9.70782 23.4995 10.4507 23.1914 11.0562 22.9247C11.6216 22.6756 11.6333 21.8671 11.0749 21.6025C10.4786 21.32 9.73693 20.9929 8.9335 20.701C8.65072 20.5982 8.43318 20.3814 8.33268 20.0736C7.99402 19.0364 7.77944 18.1571 7.41967 17.2439C7.1393 16.5322 6.40331 16.5541 6.12294 17.2658C5.76451 18.1756 5.51427 19.0812 5.22591 20.0657Z" fill="url(#paint52_radial_18_454)"/>
<path d="M5.22591 20.0657C5.14942 20.3628 4.88972 20.5843 4.58274 20.7378C3.7125 21.0389 3.02511 21.3286 2.45633 21.6098C1.95279 21.8587 1.95765 22.6453 2.46282 22.8909C3.05306 23.1778 3.79412 23.453 4.61715 23.7793C4.83844 23.867 5.15117 24.1148 5.22902 24.4195C5.46892 25.3583 5.7953 26.3521 6.1547 27.2696C6.43369 27.9818 7.12344 27.9812 7.40379 27.2696C7.76772 26.3457 8.04422 25.3478 8.35628 24.3984C8.43096 24.1053 8.65206 23.8735 8.9372 23.7724C9.70782 23.4995 10.4507 23.1914 11.0562 22.9247C11.6216 22.6756 11.6333 21.8671 11.0749 21.6025C10.4786 21.32 9.73693 20.9929 8.9335 20.701C8.65072 20.5982 8.43318 20.3814 8.33268 20.0736C7.99402 19.0364 7.77944 18.1571 7.41967 17.2439C7.1393 16.5322 6.40331 16.5541 6.12294 17.2658C5.76451 18.1756 5.51427 19.0812 5.22591 20.0657Z" fill="url(#paint53_radial_18_454)"/>
<path d="M5.22591 20.0657C5.14942 20.3628 4.88972 20.5843 4.58274 20.7378C3.7125 21.0389 3.02511 21.3286 2.45633 21.6098C1.95279 21.8587 1.95765 22.6453 2.46282 22.8909C3.05306 23.1778 3.79412 23.453 4.61715 23.7793C4.83844 23.867 5.15117 24.1148 5.22902 24.4195C5.46892 25.3583 5.7953 26.3521 6.1547 27.2696C6.43369 27.9818 7.12344 27.9812 7.40379 27.2696C7.76772 26.3457 8.04422 25.3478 8.35628 24.3984C8.43096 24.1053 8.65206 23.8735 8.9372 23.7724C9.70782 23.4995 10.4507 23.1914 11.0562 22.9247C11.6216 22.6756 11.6333 21.8671 11.0749 21.6025C10.4786 21.32 9.73693 20.9929 8.9335 20.701C8.65072 20.5982 8.43318 20.3814 8.33268 20.0736C7.99402 19.0364 7.77944 18.1571 7.41967 17.2439C7.1393 16.5322 6.40331 16.5541 6.12294 17.2658C5.76451 18.1756 5.51427 19.0812 5.22591 20.0657Z" fill="url(#paint54_radial_18_454)"/>
<path d="M5.22591 20.0657C5.14942 20.3628 4.88972 20.5843 4.58274 20.7378C3.7125 21.0389 3.02511 21.3286 2.45633 21.6098C1.95279 21.8587 1.95765 22.6453 2.46282 22.8909C3.05306 23.1778 3.79412 23.453 4.61715 23.7793C4.83844 23.867 5.15117 24.1148 5.22902 24.4195C5.46892 25.3583 5.7953 26.3521 6.1547 27.2696C6.43369 27.9818 7.12344 27.9812 7.40379 27.2696C7.76772 26.3457 8.04422 25.3478 8.35628 24.3984C8.43096 24.1053 8.65206 23.8735 8.9372 23.7724C9.70782 23.4995 10.4507 23.1914 11.0562 22.9247C11.6216 22.6756 11.6333 21.8671 11.0749 21.6025C10.4786 21.32 9.73693 20.9929 8.9335 20.701C8.65072 20.5982 8.43318 20.3814 8.33268 20.0736C7.99402 19.0364 7.77944 18.1571 7.41967 17.2439C7.1393 16.5322 6.40331 16.5541 6.12294 17.2658C5.76451 18.1756 5.51427 19.0812 5.22591 20.0657Z" fill="url(#paint55_radial_18_454)"/>
<path d="M5.22591 20.0657C5.14942 20.3628 4.88972 20.5843 4.58274 20.7378C3.7125 21.0389 3.02511 21.3286 2.45633 21.6098C1.95279 21.8587 1.95765 22.6453 2.46282 22.8909C3.05306 23.1778 3.79412 23.453 4.61715 23.7793C4.83844 23.867 5.15117 24.1148 5.22902 24.4195C5.46892 25.3583 5.7953 26.3521 6.1547 27.2696C6.43369 27.9818 7.12344 27.9812 7.40379 27.2696C7.76772 26.3457 8.04422 25.3478 8.35628 24.3984C8.43096 24.1053 8.65206 23.8735 8.9372 23.7724C9.70782 23.4995 10.4507 23.1914 11.0562 22.9247C11.6216 22.6756 11.6333 21.8671 11.0749 21.6025C10.4786 21.32 9.73693 20.9929 8.9335 20.701C8.65072 20.5982 8.43318 20.3814 8.33268 20.0736C7.99402 19.0364 7.77944 18.1571 7.41967 17.2439C7.1393 16.5322 6.40331 16.5541 6.12294 17.2658C5.76451 18.1756 5.51427 19.0812 5.22591 20.0657Z" fill="url(#paint56_radial_18_454)"/>
<path d="M5.22591 20.0657C5.14942 20.3628 4.88972 20.5843 4.58274 20.7378C3.7125 21.0389 3.02511 21.3286 2.45633 21.6098C1.95279 21.8587 1.95765 22.6453 2.46282 22.8909C3.05306 23.1778 3.79412 23.453 4.61715 23.7793C4.83844 23.867 5.15117 24.1148 5.22902 24.4195C5.46892 25.3583 5.7953 26.3521 6.1547 27.2696C6.43369 27.9818 7.12344 27.9812 7.40379 27.2696C7.76772 26.3457 8.04422 25.3478 8.35628 24.3984C8.43096 24.1053 8.65206 23.8735 8.9372 23.7724C9.70782 23.4995 10.4507 23.1914 11.0562 22.9247C11.6216 22.6756 11.6333 21.8671 11.0749 21.6025C10.4786 21.32 9.73693 20.9929 8.9335 20.701C8.65072 20.5982 8.43318 20.3814 8.33268 20.0736C7.99402 19.0364 7.77944 18.1571 7.41967 17.2439C7.1393 16.5322 6.40331 16.5541 6.12294 17.2658C5.76451 18.1756 5.51427 19.0812 5.22591 20.0657Z" fill="url(#paint57_radial_18_454)"/>
<path d="M5.22591 20.0657C5.14942 20.3628 4.88972 20.5843 4.58274 20.7378C3.7125 21.0389 3.02511 21.3286 2.45633 21.6098C1.95279 21.8587 1.95765 22.6453 2.46282 22.8909C3.05306 23.1778 3.79412 23.453 4.61715 23.7793C4.83844 23.867 5.15117 24.1148 5.22902 24.4195C5.46892 25.3583 5.7953 26.3521 6.1547 27.2696C6.43369 27.9818 7.12344 27.9812 7.40379 27.2696C7.76772 26.3457 8.04422 25.3478 8.35628 24.3984C8.43096 24.1053 8.65206 23.8735 8.9372 23.7724C9.70782 23.4995 10.4507 23.1914 11.0562 22.9247C11.6216 22.6756 11.6333 21.8671 11.0749 21.6025C10.4786 21.32 9.73693 20.9929 8.9335 20.701C8.65072 20.5982 8.43318 20.3814 8.33268 20.0736C7.99402 19.0364 7.77944 18.1571 7.41967 17.2439C7.1393 16.5322 6.40331 16.5541 6.12294 17.2658C5.76451 18.1756 5.51427 19.0812 5.22591 20.0657Z" fill="url(#paint58_radial_18_454)"/>
<path d="M5.22591 20.0657C5.14942 20.3628 4.88972 20.5843 4.58274 20.7378C3.7125 21.0389 3.02511 21.3286 2.45633 21.6098C1.95279 21.8587 1.95765 22.6453 2.46282 22.8909C3.05306 23.1778 3.79412 23.453 4.61715 23.7793C4.83844 23.867 5.15117 24.1148 5.22902 24.4195C5.46892 25.3583 5.7953 26.3521 6.1547 27.2696C6.43369 27.9818 7.12344 27.9812 7.40379 27.2696C7.76772 26.3457 8.04422 25.3478 8.35628 24.3984C8.43096 24.1053 8.65206 23.8735 8.9372 23.7724C9.70782 23.4995 10.4507 23.1914 11.0562 22.9247C11.6216 22.6756 11.6333 21.8671 11.0749 21.6025C10.4786 21.32 9.73693 20.9929 8.9335 20.701C8.65072 20.5982 8.43318 20.3814 8.33268 20.0736C7.99402 19.0364 7.77944 18.1571 7.41967 17.2439C7.1393 16.5322 6.40331 16.5541 6.12294 17.2658C5.76451 18.1756 5.51427 19.0812 5.22591 20.0657Z" fill="url(#paint59_radial_18_454)"/>
<path d="M5.22591 20.0657C5.14942 20.3628 4.88972 20.5843 4.58274 20.7378C3.7125 21.0389 3.02511 21.3286 2.45633 21.6098C1.95279 21.8587 1.95765 22.6453 2.46282 22.8909C3.05306 23.1778 3.79412 23.453 4.61715 23.7793C4.83844 23.867 5.15117 24.1148 5.22902 24.4195C5.46892 25.3583 5.7953 26.3521 6.1547 27.2696C6.43369 27.9818 7.12344 27.9812 7.40379 27.2696C7.76772 26.3457 8.04422 25.3478 8.35628 24.3984C8.43096 24.1053 8.65206 23.8735 8.9372 23.7724C9.70782 23.4995 10.4507 23.1914 11.0562 22.9247C11.6216 22.6756 11.6333 21.8671 11.0749 21.6025C10.4786 21.32 9.73693 20.9929 8.9335 20.701C8.65072 20.5982 8.43318 20.3814 8.33268 20.0736C7.99402 19.0364 7.77944 18.1571 7.41967 17.2439C7.1393 16.5322 6.40331 16.5541 6.12294 17.2658C5.76451 18.1756 5.51427 19.0812 5.22591 20.0657Z" fill="url(#paint60_radial_18_454)"/>
<path d="M5.22591 20.0657C5.14942 20.3628 4.88972 20.5843 4.58274 20.7378C3.7125 21.0389 3.02511 21.3286 2.45633 21.6098C1.95279 21.8587 1.95765 22.6453 2.46282 22.8909C3.05306 23.1778 3.79412 23.453 4.61715 23.7793C4.83844 23.867 5.15117 24.1148 5.22902 24.4195C5.46892 25.3583 5.7953 26.3521 6.1547 27.2696C6.43369 27.9818 7.12344 27.9812 7.40379 27.2696C7.76772 26.3457 8.04422 25.3478 8.35628 24.3984C8.43096 24.1053 8.65206 23.8735 8.9372 23.7724C9.70782 23.4995 10.4507 23.1914 11.0562 22.9247C11.6216 22.6756 11.6333 21.8671 11.0749 21.6025C10.4786 21.32 9.73693 20.9929 8.9335 20.701C8.65072 20.5982 8.43318 20.3814 8.33268 20.0736C7.99402 19.0364 7.77944 18.1571 7.41967 17.2439C7.1393 16.5322 6.40331 16.5541 6.12294 17.2658C5.76451 18.1756 5.51427 19.0812 5.22591 20.0657Z" fill="url(#paint61_radial_18_454)"/>
<path d="M5.22591 20.0657C5.14942 20.3628 4.88972 20.5843 4.58274 20.7378C3.7125 21.0389 3.02511 21.3286 2.45633 21.6098C1.95279 21.8587 1.95765 22.6453 2.46282 22.8909C3.05306 23.1778 3.79412 23.453 4.61715 23.7793C4.83844 23.867 5.15117 24.1148 5.22902 24.4195C5.46892 25.3583 5.7953 26.3521 6.1547 27.2696C6.43369 27.9818 7.12344 27.9812 7.40379 27.2696C7.76772 26.3457 8.04422 25.3478 8.35628 24.3984C8.43096 24.1053 8.65206 23.8735 8.9372 23.7724C9.70782 23.4995 10.4507 23.1914 11.0562 22.9247C11.6216 22.6756 11.6333 21.8671 11.0749 21.6025C10.4786 21.32 9.73693 20.9929 8.9335 20.701C8.65072 20.5982 8.43318 20.3814 8.33268 20.0736C7.99402 19.0364 7.77944 18.1571 7.41967 17.2439C7.1393 16.5322 6.40331 16.5541 6.12294 17.2658C5.76451 18.1756 5.51427 19.0812 5.22591 20.0657Z" fill="url(#paint62_radial_18_454)"/>
<path d="M5.22591 20.0657C5.14942 20.3628 4.88972 20.5843 4.58274 20.7378C3.7125 21.0389 3.02511 21.3286 2.45633 21.6098C1.95279 21.8587 1.95765 22.6453 2.46282 22.8909C3.05306 23.1778 3.79412 23.453 4.61715 23.7793C4.83844 23.867 5.15117 24.1148 5.22902 24.4195C5.46892 25.3583 5.7953 26.3521 6.1547 27.2696C6.43369 27.9818 7.12344 27.9812 7.40379 27.2696C7.76772 26.3457 8.04422 25.3478 8.35628 24.3984C8.43096 24.1053 8.65206 23.8735 8.9372 23.7724C9.70782 23.4995 10.4507 23.1914 11.0562 22.9247C11.6216 22.6756 11.6333 21.8671 11.0749 21.6025C10.4786 21.32 9.73693 20.9929 8.9335 20.701C8.65072 20.5982 8.43318 20.3814 8.33268 20.0736C7.99402 19.0364 7.77944 18.1571 7.41967 17.2439C7.1393 16.5322 6.40331 16.5541 6.12294 17.2658C5.76451 18.1756 5.51427 19.0812 5.22591 20.0657Z" fill="url(#paint63_radial_18_454)"/>
<path d="M5.22591 20.0657C5.14942 20.3628 4.88972 20.5843 4.58274 20.7378C3.7125 21.0389 3.02511 21.3286 2.45633 21.6098C1.95279 21.8587 1.95765 22.6453 2.46282 22.8909C3.05306 23.1778 3.79412 23.453 4.61715 23.7793C4.83844 23.867 5.15117 24.1148 5.22902 24.4195C5.46892 25.3583 5.7953 26.3521 6.1547 27.2696C6.43369 27.9818 7.12344 27.9812 7.40379 27.2696C7.76772 26.3457 8.04422 25.3478 8.35628 24.3984C8.43096 24.1053 8.65206 23.8735 8.9372 23.7724C9.70782 23.4995 10.4507 23.1914 11.0562 22.9247C11.6216 22.6756 11.6333 21.8671 11.0749 21.6025C10.4786 21.32 9.73693 20.9929 8.9335 20.701C8.65072 20.5982 8.43318 20.3814 8.33268 20.0736C7.99402 19.0364 7.77944 18.1571 7.41967 17.2439C7.1393 16.5322 6.40331 16.5541 6.12294 17.2658C5.76451 18.1756 5.51427 19.0812 5.22591 20.0657Z" fill="url(#paint64_radial_18_454)"/>
<path d="M5.22591 20.0657C5.14942 20.3628 4.88972 20.5843 4.58274 20.7378C3.7125 21.0389 3.02511 21.3286 2.45633 21.6098C1.95279 21.8587 1.95765 22.6453 2.46282 22.8909C3.05306 23.1778 3.79412 23.453 4.61715 23.7793C4.83844 23.867 5.15117 24.1148 5.22902 24.4195C5.46892 25.3583 5.7953 26.3521 6.1547 27.2696C6.43369 27.9818 7.12344 27.9812 7.40379 27.2696C7.76772 26.3457 8.04422 25.3478 8.35628 24.3984C8.43096 24.1053 8.65206 23.8735 8.9372 23.7724C9.70782 23.4995 10.4507 23.1914 11.0562 22.9247C11.6216 22.6756 11.6333 21.8671 11.0749 21.6025C10.4786 21.32 9.73693 20.9929 8.9335 20.701C8.65072 20.5982 8.43318 20.3814 8.33268 20.0736C7.99402 19.0364 7.77944 18.1571 7.41967 17.2439C7.1393 16.5322 6.40331 16.5541 6.12294 17.2658C5.76451 18.1756 5.51427 19.0812 5.22591 20.0657Z" fill="url(#paint65_radial_18_454)"/>
<path d="M5.22591 20.0657C5.14942 20.3628 4.88972 20.5843 4.58274 20.7378C3.7125 21.0389 3.02511 21.3286 2.45633 21.6098C1.95279 21.8587 1.95765 22.6453 2.46282 22.8909C3.05306 23.1778 3.79412 23.453 4.61715 23.7793C4.83844 23.867 5.15117 24.1148 5.22902 24.4195C5.46892 25.3583 5.7953 26.3521 6.1547 27.2696C6.43369 27.9818 7.12344 27.9812 7.40379 27.2696C7.76772 26.3457 8.04422 25.3478 8.35628 24.3984C8.43096 24.1053 8.65206 23.8735 8.9372 23.7724C9.70782 23.4995 10.4507 23.1914 11.0562 22.9247C11.6216 22.6756 11.6333 21.8671 11.0749 21.6025C10.4786 21.32 9.73693 20.9929 8.9335 20.701C8.65072 20.5982 8.43318 20.3814 8.33268 20.0736C7.99402 19.0364 7.77944 18.1571 7.41967 17.2439C7.1393 16.5322 6.40331 16.5541 6.12294 17.2658C5.76451 18.1756 5.51427 19.0812 5.22591 20.0657Z" fill="url(#paint66_radial_18_454)"/>
<path d="M5.22591 20.0657C5.14942 20.3628 4.88972 20.5843 4.58274 20.7378C3.7125 21.0389 3.02511 21.3286 2.45633 21.6098C1.95279 21.8587 1.95765 22.6453 2.46282 22.8909C3.05306 23.1778 3.79412 23.453 4.61715 23.7793C4.83844 23.867 5.15117 24.1148 5.22902 24.4195C5.46892 25.3583 5.7953 26.3521 6.1547 27.2696C6.43369 27.9818 7.12344 27.9812 7.40379 27.2696C7.76772 26.3457 8.04422 25.3478 8.35628 24.3984C8.43096 24.1053 8.65206 23.8735 8.9372 23.7724C9.70782 23.4995 10.4507 23.1914 11.0562 22.9247C11.6216 22.6756 11.6333 21.8671 11.0749 21.6025C10.4786 21.32 9.73693 20.9929 8.9335 20.701C8.65072 20.5982 8.43318 20.3814 8.33268 20.0736C7.99402 19.0364 7.77944 18.1571 7.41967 17.2439C7.1393 16.5322 6.40331 16.5541 6.12294 17.2658C5.76451 18.1756 5.51427 19.0812 5.22591 20.0657Z" fill="url(#paint67_radial_18_454)" fill-opacity="0.5"/>
<path d="M5.22591 20.0657C5.14942 20.3628 4.88972 20.5843 4.58274 20.7378C3.7125 21.0389 3.02511 21.3286 2.45633 21.6098C1.95279 21.8587 1.95765 22.6453 2.46282 22.8909C3.05306 23.1778 3.79412 23.453 4.61715 23.7793C4.83844 23.867 5.15117 24.1148 5.22902 24.4195C5.46892 25.3583 5.7953 26.3521 6.1547 27.2696C6.43369 27.9818 7.12344 27.9812 7.40379 27.2696C7.76772 26.3457 8.04422 25.3478 8.35628 24.3984C8.43096 24.1053 8.65206 23.8735 8.9372 23.7724C9.70782 23.4995 10.4507 23.1914 11.0562 22.9247C11.6216 22.6756 11.6333 21.8671 11.0749 21.6025C10.4786 21.32 9.73693 20.9929 8.9335 20.701C8.65072 20.5982 8.43318 20.3814 8.33268 20.0736C7.99402 19.0364 7.77944 18.1571 7.41967 17.2439C7.1393 16.5322 6.40331 16.5541 6.12294 17.2658C5.76451 18.1756 5.51427 19.0812 5.22591 20.0657Z" fill="url(#paint68_radial_18_454)" fill-opacity="0.5"/>
<path d="M5.22591 20.0657C5.14942 20.3628 4.88972 20.5843 4.58274 20.7378C3.7125 21.0389 3.02511 21.3286 2.45633 21.6098C1.95279 21.8587 1.95765 22.6453 2.46282 22.8909C3.05306 23.1778 3.79412 23.453 4.61715 23.7793C4.83844 23.867 5.15117 24.1148 5.22902 24.4195C5.46892 25.3583 5.7953 26.3521 6.1547 27.2696C6.43369 27.9818 7.12344 27.9812 7.40379 27.2696C7.76772 26.3457 8.04422 25.3478 8.35628 24.3984C8.43096 24.1053 8.65206 23.8735 8.9372 23.7724C9.70782 23.4995 10.4507 23.1914 11.0562 22.9247C11.6216 22.6756 11.6333 21.8671 11.0749 21.6025C10.4786 21.32 9.73693 20.9929 8.9335 20.701C8.65072 20.5982 8.43318 20.3814 8.33268 20.0736C7.99402 19.0364 7.77944 18.1571 7.41967 17.2439C7.1393 16.5322 6.40331 16.5541 6.12294 17.2658C5.76451 18.1756 5.51427 19.0812 5.22591 20.0657Z" fill="url(#paint69_radial_18_454)" fill-opacity="0.5"/>
<path d="M5.22591 20.0657C5.14942 20.3628 4.88972 20.5843 4.58274 20.7378C3.7125 21.0389 3.02511 21.3286 2.45633 21.6098C1.95279 21.8587 1.95765 22.6453 2.46282 22.8909C3.05306 23.1778 3.79412 23.453 4.61715 23.7793C4.83844 23.867 5.15117 24.1148 5.22902 24.4195C5.46892 25.3583 5.7953 26.3521 6.1547 27.2696C6.43369 27.9818 7.12344 27.9812 7.40379 27.2696C7.76772 26.3457 8.04422 25.3478 8.35628 24.3984C8.43096 24.1053 8.65206 23.8735 8.9372 23.7724C9.70782 23.4995 10.4507 23.1914 11.0562 22.9247C11.6216 22.6756 11.6333 21.8671 11.0749 21.6025C10.4786 21.32 9.73693 20.9929 8.9335 20.701C8.65072 20.5982 8.43318 20.3814 8.33268 20.0736C7.99402 19.0364 7.77944 18.1571 7.41967 17.2439C7.1393 16.5322 6.40331 16.5541 6.12294 17.2658C5.76451 18.1756 5.51427 19.0812 5.22591 20.0657Z" fill="url(#paint70_radial_18_454)" fill-opacity="0.5"/>
<path d="M5.22591 20.0657C5.14942 20.3628 4.88972 20.5843 4.58274 20.7378C3.7125 21.0389 3.02511 21.3286 2.45633 21.6098C1.95279 21.8587 1.95765 22.6453 2.46282 22.8909C3.05306 23.1778 3.79412 23.453 4.61715 23.7793C4.83844 23.867 5.15117 24.1148 5.22902 24.4195C5.46892 25.3583 5.7953 26.3521 6.1547 27.2696C6.43369 27.9818 7.12344 27.9812 7.40379 27.2696C7.76772 26.3457 8.04422 25.3478 8.35628 24.3984C8.43096 24.1053 8.65206 23.8735 8.9372 23.7724C9.70782 23.4995 10.4507 23.1914 11.0562 22.9247C11.6216 22.6756 11.6333 21.8671 11.0749 21.6025C10.4786 21.32 9.73693 20.9929 8.9335 20.701C8.65072 20.5982 8.43318 20.3814 8.33268 20.0736C7.99402 19.0364 7.77944 18.1571 7.41967 17.2439C7.1393 16.5322 6.40331 16.5541 6.12294 17.2658C5.76451 18.1756 5.51427 19.0812 5.22591 20.0657Z" fill="url(#paint71_radial_18_454)" fill-opacity="0.5"/>
<path d="M5.22591 20.0657C5.14942 20.3628 4.88972 20.5843 4.58274 20.7378C3.7125 21.0389 3.02511 21.3286 2.45633 21.6098C1.95279 21.8587 1.95765 22.6453 2.46282 22.8909C3.05306 23.1778 3.79412 23.453 4.61715 23.7793C4.83844 23.867 5.15117 24.1148 5.22902 24.4195C5.46892 25.3583 5.7953 26.3521 6.1547 27.2696C6.43369 27.9818 7.12344 27.9812 7.40379 27.2696C7.76772 26.3457 8.04422 25.3478 8.35628 24.3984C8.43096 24.1053 8.65206 23.8735 8.9372 23.7724C9.70782 23.4995 10.4507 23.1914 11.0562 22.9247C11.6216 22.6756 11.6333 21.8671 11.0749 21.6025C10.4786 21.32 9.73693 20.9929 8.9335 20.701C8.65072 20.5982 8.43318 20.3814 8.33268 20.0736C7.99402 19.0364 7.77944 18.1571 7.41967 17.2439C7.1393 16.5322 6.40331 16.5541 6.12294 17.2658C5.76451 18.1756 5.51427 19.0812 5.22591 20.0657Z" fill="url(#paint72_radial_18_454)" fill-opacity="0.5"/>
<defs>
<linearGradient id="paint0_linear_18_454" x1="26.1287" y1="11.2713" x2="15.0524" y2="22.9314" gradientUnits="userSpaceOnUse">
<stop stop-color="#FFCF5A"/>
<stop offset="1" stop-color="#FEA254"/>
</linearGradient>
<linearGradient id="paint1_linear_18_454" x1="14.7537" y1="29.2904" x2="20.7916" y2="16.5541" gradientUnits="userSpaceOnUse">
<stop stop-color="#FF886D"/>
<stop offset="1" stop-color="#FF886D" stop-opacity="0"/>
</linearGradient>
<radialGradient id="paint2_radial_18_454" cx="0" cy="0" r="1" gradientUnits="userSpaceOnUse" gradientTransform="translate(26.5491 19.3224) rotate(-110.523) scale(2.49706 7.02805)">
<stop stop-color="#EF7B54"/>
<stop offset="0.746285" stop-color="#EF7B54" stop-opacity="0.131386"/>
<stop offset="1" stop-color="#EF7B54" stop-opacity="0"/>
</radialGradient>
<radialGradient id="paint3_radial_18_454" cx="0" cy="0" r="1" gradientUnits="userSpaceOnUse" gradientTransform="translate(17.1764 25.6661) rotate(-19.6611) scale(1.66876 8.64514)">
<stop stop-color="#EF7B54"/>
<stop offset="0.501931" stop-color="#EF7B54" stop-opacity="0.462921"/>
<stop offset="0.802968" stop-color="#EF7B54" stop-opacity="0.131386"/>
<stop offset="1" stop-color="#EF7B54" stop-opacity="0"/>
</radialGradient>
<radialGradient id="paint4_radial_18_454" cx="0" cy="0" r="1" gradientUnits="userSpaceOnUse" gradientTransform="translate(15.2151 20.467) rotate(-41.9334) scale(1.15302 2.14921)">
<stop stop-color="#EF7B54"/>
<stop offset="0.501931" stop-color="#EF7B54" stop-opacity="0.462921"/>
<stop offset="0.802968" stop-color="#EF7B54" stop-opacity="0.131386"/>
<stop offset="1" stop-color="#EF7B54" stop-opacity="0"/>
</radialGradient>
<radialGradient id="paint5_radial_18_454" cx="0" cy="0" r="1" gradientUnits="userSpaceOnUse" gradientTransform="translate(12.9439 18.8305) rotate(-68.9625) scale(0.563903 2.82183)">
<stop stop-color="#EF7B54"/>
<stop offset="0.501931" stop-color="#EF7B54" stop-opacity="0.462921"/>
<stop offset="1" stop-color="#EF7B54" stop-opacity="0"/>
</radialGradient>
<radialGradient id="paint6_radial_18_454" cx="0" cy="0" r="1" gradientUnits="userSpaceOnUse" gradientTransform="translate(17.1648 24.7064) rotate(-15.0685) scale(0.567359 4.13976)">
<stop stop-color="#EF7B54"/>
<stop offset="0.501931" stop-color="#EF7B54" stop-opacity="0.462921"/>
<stop offset="1" stop-color="#EF7B54" stop-opacity="0"/>
</radialGradient>
<radialGradient id="paint7_radial_18_454" cx="0" cy="0" r="1" gradientUnits="userSpaceOnUse" gradientTransform="translate(11.8837 18.8177) rotate(-61.9908) scale(1.77057 6.32284)">
<stop stop-color="#EF7B54"/>
<stop offset="0.501931" stop-color="#EF7B54" stop-opacity="0.462921"/>
<stop offset="0.802968" stop-color="#EF7B54" stop-opacity="0.131386"/>
<stop offset="1" stop-color="#EF7B54" stop-opacity="0"/>
</radialGradient>
<radialGradient id="paint8_radial_18_454" cx="0" cy="0" r="1" gradientUnits="userSpaceOnUse" gradientTransform="translate(18.8472 28.4022) rotate(-75.1414) scale(1.42889 9.7946)">
<stop stop-color="#EF7B54"/>
<stop offset="0.501931" stop-color="#EF7B54" stop-opacity="0.462921"/>
<stop offset="0.802968" stop-color="#EF7B54" stop-opacity="0.131386"/>
<stop offset="1" stop-color="#EF7B54" stop-opacity="0"/>
</radialGradient>
<radialGradient id="paint9_radial_18_454" cx="0" cy="0" r="1" gradientUnits="userSpaceOnUse" gradientTransform="translate(11.7521 13.4275) rotate(68.4265) scale(0.865238 4.10798)">
<stop stop-color="#EF7B54"/>
<stop offset="0.501931" stop-color="#EF7B54" stop-opacity="0.462921"/>
<stop offset="0.802968" stop-color="#EF7B54" stop-opacity="0.131386"/>
<stop offset="1" stop-color="#EF7B54" stop-opacity="0"/>
</radialGradient>
<radialGradient id="paint10_radial_18_454" cx="0" cy="0" r="1" gradientUnits="userSpaceOnUse" gradientTransform="translate(14.9025 11.6231) rotate(45.4815) scale(1.19868 1.59564)">
<stop stop-color="#EF7B54"/>
<stop offset="0.501931" stop-color="#EF7B54" stop-opacity="0.462921"/>
<stop offset="0.802968" stop-color="#EF7B54" stop-opacity="0.131386"/>
<stop offset="1" stop-color="#EF7B54" stop-opacity="0"/>
</radialGradient>
<radialGradient id="paint11_radial_18_454" cx="0" cy="0" r="1" gradientUnits="userSpaceOnUse" gradientTransform="translate(16.136 8.82789) rotate(15.5241) scale(0.895235 4.02167)">
<stop stop-color="#EF7B54"/>
<stop offset="0.501931" stop-color="#EF7B54" stop-opacity="0.462921"/>
<stop offset="0.802968" stop-color="#EF7B54" stop-opacity="0.131386"/>
<stop offset="1" stop-color="#EF7B54" stop-opacity="0"/>
</radialGradient>
<radialGradient id="paint12_radial_18_454" cx="0" cy="0" r="1" gradientUnits="userSpaceOnUse" gradientTransform="translate(17.1759 5.54099) rotate(11.3099) scale(0.87218 3.9181)">
<stop stop-color="#EF7B54"/>
<stop offset="0.501931" stop-color="#EF7B54" stop-opacity="0.462921"/>
<stop offset="0.802968" stop-color="#EF7B54" stop-opacity="0.131386"/>
<stop offset="1" stop-color="#EF7B54" stop-opacity="0"/>
</radialGradient>
<radialGradient id="paint13_radial_18_454" cx="0" cy="0" r="1" gradientUnits="userSpaceOnUse" gradientTransform="translate(18.0735 3.83272) rotate(28.8649) scale(0.81033 3.64025)">
<stop stop-color="#EF7B54"/>
<stop offset="0.451537" stop-color="#EF7B54" stop-opacity="0.462921"/>
<stop offset="0.716342" stop-color="#EF7B54" stop-opacity="0.131386"/>
<stop offset="1" stop-color="#EF7B54" stop-opacity="0"/>
</radialGradient>
<radialGradient id="paint14_radial_18_454" cx="0" cy="0" r="1" gradientUnits="userSpaceOnUse" gradientTransform="translate(9.15625 14.8242) rotate(36.0736) scale(1.06807 4.79811)">
<stop stop-color="#EF7B54"/>
<stop offset="0.451537" stop-color="#EF7B54" stop-opacity="0.462921"/>
<stop offset="0.716342" stop-color="#EF7B54" stop-opacity="0.131386"/>
<stop offset="1" stop-color="#EF7B54" stop-opacity="0"/>
</radialGradient>
<radialGradient id="paint15_radial_18_454" cx="0" cy="0" r="1" gradientUnits="userSpaceOnUse" gradientTransform="translate(8.79368 15.5276) scale(1.05033 4.7184)">
<stop stop-color="#EF7B54"/>
<stop offset="0.451537" stop-color="#EF7B54" stop-opacity="0.462921"/>
<stop offset="0.716342" stop-color="#EF7B54" stop-opacity="0.131386"/>
<stop offset="1" stop-color="#EF7B54" stop-opacity="0"/>
</radialGradient>
<radialGradient id="paint16_radial_18_454" cx="0" cy="0" r="1" gradientUnits="userSpaceOnUse" gradientTransform="translate(11.5837 13.0948) rotate(68.9625) scale(2.12684 6.08327)">
<stop stop-color="#BC9D6A"/>
<stop offset="0.767589" stop-color="#BC9D6A" stop-opacity="0.127511"/>
<stop offset="1" stop-color="#BC9D6A" stop-opacity="0"/>
</radialGradient>
<radialGradient id="paint17_radial_18_454" cx="0" cy="0" r="1" gradientUnits="userSpaceOnUse" gradientTransform="translate(16.3991 7.98115) rotate(20.4687) scale(1.80604 5.26315)">
<stop stop-color="#BC9D6A"/>
<stop offset="0.767589" stop-color="#BC9D6A" stop-opacity="0.127511"/>
<stop offset="1" stop-color="#BC9D6A" stop-opacity="0"/>
</radialGradient>
<radialGradient id="paint18_radial_18_454" cx="0" cy="0" r="1" gradientUnits="userSpaceOnUse" gradientTransform="translate(15.0735 10.3099) rotate(17.1619) scale(2.54976 3.96173)">
<stop stop-color="#BC9D6A"/>
<stop offset="0.767589" stop-color="#BC9D6A" stop-opacity="0.127511"/>
<stop offset="1" stop-color="#BC9D6A" stop-opacity="0"/>
</radialGradient>
<radialGradient id="paint19_radial_18_454" cx="0" cy="0" r="1" gradientUnits="userSpaceOnUse" gradientTransform="translate(18.1964 3.47997) rotate(28.7896) scale(1.39909 6.2345)">
<stop stop-color="#BC9D6A" stop-opacity="0.85"/>
<stop offset="0.760417" stop-color="#BC9D6A" stop-opacity="0.127511"/>
<stop offset="1" stop-color="#BC9D6A" stop-opacity="0"/>
</radialGradient>
<radialGradient id="paint20_radial_18_454" cx="0" cy="0" r="1" gradientUnits="userSpaceOnUse" gradientTransform="translate(19.6021 2.99244) rotate(85.1355) scale(1.37588 6.13108)">
<stop stop-color="#BC9D6A" stop-opacity="0.85"/>
<stop offset="0.810204" stop-color="#BC9D6A" stop-opacity="0.127511"/>
<stop offset="1" stop-color="#BC9D6A" stop-opacity="0"/>
</radialGradient>
<radialGradient id="paint21_radial_18_454" cx="0" cy="0" r="1" gradientUnits="userSpaceOnUse" gradientTransform="translate(9.03745 14.787) rotate(36.9715) scale(1.2641 3.61564)">
<stop stop-color="#BC9D6A"/>
<stop offset="0.188174" stop-color="#BC9D6A" stop-opacity="0.508864"/>
<stop offset="0.703125" stop-color="#BC9D6A" stop-opacity="0.127511"/>
<stop offset="1" stop-color="#BC9D6A" stop-opacity="0"/>
</radialGradient>
<radialGradient id="paint22_radial_18_454" cx="0" cy="0" r="1" gradientUnits="userSpaceOnUse" gradientTransform="translate(8.41565 15.9547) rotate(-1.75033) scale(1.31473 3.76043)">
<stop stop-color="#BC9D6A"/>
<stop offset="0.244792" stop-color="#BC9D6A" stop-opacity="0.508864"/>
<stop offset="0.727949" stop-color="#BC9D6A" stop-opacity="0.127511"/>
<stop offset="1" stop-color="#BC9D6A" stop-opacity="0"/>
</radialGradient>
<radialGradient id="paint23_radial_18_454" cx="0" cy="0" r="1" gradientUnits="userSpaceOnUse" gradientTransform="translate(8.99861 17.4125) rotate(-45.971) scale(1.12902 7.57501)">
<stop stop-color="#BC9D6A"/>
<stop offset="0.244792" stop-color="#BC9D6A" stop-opacity="0.508864"/>
<stop offset="0.727949" stop-color="#BC9D6A" stop-opacity="0.127511"/>
<stop offset="1" stop-color="#BC9D6A" stop-opacity="0"/>
</radialGradient>
<radialGradient id="paint24_radial_18_454" cx="0" cy="0" r="1" gradientUnits="userSpaceOnUse" gradientTransform="translate(22.8782 10.7341) rotate(155.008) scale(1.93085 4.02613)">
<stop stop-color="#FFE675"/>
<stop offset="0.65382" stop-color="#FFE675" stop-opacity="0.185004"/>
<stop offset="0.813038" stop-color="#FFE675" stop-opacity="0.107811"/>
<stop offset="1" stop-color="#FFE675" stop-opacity="0"/>
</radialGradient>
<radialGradient id="paint25_radial_18_454" cx="0" cy="0" r="1" gradientUnits="userSpaceOnUse" gradientTransform="translate(24.523 12.4419) rotate(117.168) scale(1.5951 3.45911)">
<stop stop-color="#FFE675"/>
<stop offset="0.6685" stop-color="#FFE675" stop-opacity="0.185004"/>
<stop offset="0.831795" stop-color="#FFE675" stop-opacity="0.0637278"/>
<stop offset="1" stop-color="#FFE675" stop-opacity="0"/>
</radialGradient>
<radialGradient id="paint26_radial_18_454" cx="0" cy="0" r="1" gradientUnits="userSpaceOnUse" gradientTransform="translate(28.1776 14.0662) rotate(113.405) scale(1.74388 4.45609)">
<stop stop-color="#FFE675"/>
<stop offset="0.721175" stop-color="#FFE675" stop-opacity="0.185004"/>
<stop offset="1" stop-color="#FFE675" stop-opacity="0"/>
</radialGradient>
<radialGradient id="paint27_radial_18_454" cx="0" cy="0" r="1" gradientUnits="userSpaceOnUse" gradientTransform="translate(29.787 15.0819) rotate(154.938) scale(1.643 4.19831)">
<stop stop-color="#FFE675"/>
<stop offset="0.721175" stop-color="#FFE675" stop-opacity="0.185004"/>
<stop offset="1" stop-color="#FFE675" stop-opacity="0"/>
</radialGradient>
<radialGradient id="paint28_radial_18_454" cx="0" cy="0" r="1" gradientUnits="userSpaceOnUse" gradientTransform="translate(21.5964 7.14497) rotate(165.272) scale(1.41611 6.10797)">
<stop offset="0.131615" stop-color="#FFE675"/>
<stop offset="0.665228" stop-color="#FFE675" stop-opacity="0.185004"/>
<stop offset="0.813948" stop-color="#FFE675" stop-opacity="0.0520478"/>
<stop offset="1" stop-color="#FFE675" stop-opacity="0"/>
</radialGradient>
<radialGradient id="paint29_radial_18_454" cx="0" cy="0" r="1" gradientUnits="userSpaceOnUse" gradientTransform="translate(20.6323 4.4864) rotate(147.095) scale(1.38946 5.993)">
<stop offset="0.164689" stop-color="#FFE675"/>
<stop offset="0.719375" stop-color="#FFE675" stop-opacity="0.185004"/>
<stop offset="1" stop-color="#FFE675" stop-opacity="0"/>
</radialGradient>
<linearGradient id="paint30_linear_18_454" x1="11.0856" y1="5.86955" x2="7.52059" y2="9.62245" gradientUnits="userSpaceOnUse">
<stop stop-color="#FFDA72"/>
<stop offset="1" stop-color="#F7A967"/>
</linearGradient>
<linearGradient id="paint31_linear_18_454" x1="8.8855" y1="11.9804" x2="8.8855" y2="7.85538" gradientUnits="userSpaceOnUse">
<stop stop-color="#FDA071"/>
<stop offset="1" stop-color="#FDA071" stop-opacity="0"/>
</linearGradient>
<radialGradient id="paint32_radial_18_454" cx="0" cy="0" r="1" gradientUnits="userSpaceOnUse" gradientTransform="translate(11.3978 8.75284) rotate(-113.707) scale(1.14096 2.60985)">
<stop stop-color="#EF7B54"/>
<stop offset="0.746285" stop-color="#EF7B54" stop-opacity="0.131386"/>
<stop offset="1" stop-color="#EF7B54" stop-opacity="0"/>
</radialGradient>
<radialGradient id="paint33_radial_18_454" cx="0" cy="0" r="1" gradientUnits="userSpaceOnUse" gradientTransform="translate(7.88245 10.797) rotate(-24.6417) scale(1.42073 4.06592)">
<stop stop-color="#EF7B54"/>
<stop offset="0.501931" stop-color="#EF7B54" stop-opacity="0.462921"/>
<stop offset="0.802968" stop-color="#EF7B54" stop-opacity="0.131386"/>
<stop offset="1" stop-color="#EF7B54" stop-opacity="0"/>
</radialGradient>
<radialGradient id="paint34_radial_18_454" cx="0" cy="0" r="1" gradientUnits="userSpaceOnUse" gradientTransform="translate(5.78564 6.55535) rotate(21.5226) scale(3.51898 5.29705)">
<stop stop-color="#CD9943" stop-opacity="0.71"/>
<stop offset="0.801992" stop-color="#CD9943" stop-opacity="0.127511"/>
<stop offset="1" stop-color="#CD9943" stop-opacity="0"/>
</radialGradient>
<radialGradient id="paint35_radial_18_454" cx="0" cy="0" r="1" gradientUnits="userSpaceOnUse" gradientTransform="translate(6.29545 8.53572) rotate(-50.3009) scale(2.27173 4.86439)">
<stop stop-color="#CD9943" stop-opacity="0.79"/>
<stop offset="0.767589" stop-color="#CD9943" stop-opacity="0.127511"/>
<stop offset="1" stop-color="#CD9943" stop-opacity="0"/>
</radialGradient>
<radialGradient id="paint36_radial_18_454" cx="0" cy="0" r="1" gradientUnits="userSpaceOnUse" gradientTransform="translate(7.30185 4.76416) rotate(13.4957) scale(1.79638 3.31519)">
<stop stop-color="#CD9943"/>
<stop offset="0.767589" stop-color="#CD9943" stop-opacity="0.127511"/>
<stop offset="1" stop-color="#CD9943" stop-opacity="0"/>
</radialGradient>
<radialGradient id="paint37_radial_18_454" cx="0" cy="0" r="1" gradientUnits="userSpaceOnUse" gradientTransform="translate(8.46655 3.10979) rotate(41.9335) scale(0.987703 4.40133)">
<stop stop-color="#CD9943" stop-opacity="0.85"/>
<stop offset="0.760417" stop-color="#CD9943" stop-opacity="0.127511"/>
<stop offset="1" stop-color="#CD9943" stop-opacity="0"/>
</radialGradient>
<radialGradient id="paint38_radial_18_454" cx="0" cy="0" r="1" gradientUnits="userSpaceOnUse" gradientTransform="translate(10.0394 5.69665) rotate(155.008) scale(0.621458 1.29584)">
<stop stop-color="#FFE675"/>
<stop offset="0.65382" stop-color="#FFE675" stop-opacity="0.185004"/>
<stop offset="0.813038" stop-color="#FFE675" stop-opacity="0.107811"/>
<stop offset="1" stop-color="#FFE675" stop-opacity="0"/>
</radialGradient>
<radialGradient id="paint39_radial_18_454" cx="0" cy="0" r="1" gradientUnits="userSpaceOnUse" gradientTransform="translate(10.5688 6.2463) rotate(117.168) scale(0.513395 1.11334)">
<stop stop-color="#FFE675"/>
<stop offset="0.6685" stop-color="#FFE675" stop-opacity="0.185004"/>
<stop offset="0.831795" stop-color="#FFE675" stop-opacity="0.0637278"/>
<stop offset="1" stop-color="#FFE675" stop-opacity="0"/>
</radialGradient>
<radialGradient id="paint40_radial_18_454" cx="0" cy="0" r="1" gradientUnits="userSpaceOnUse" gradientTransform="translate(11.745 6.76909) rotate(113.405) scale(0.561281 1.43422)">
<stop stop-color="#FFE675"/>
<stop offset="0.721175" stop-color="#FFE675" stop-opacity="0.185004"/>
<stop offset="1" stop-color="#FFE675" stop-opacity="0"/>
</radialGradient>
<radialGradient id="paint41_radial_18_454" cx="0" cy="0" r="1" gradientUnits="userSpaceOnUse" gradientTransform="translate(12.263 7.09602) rotate(154.938) scale(0.528811 1.35125)">
<stop stop-color="#FFE675"/>
<stop offset="0.721175" stop-color="#FFE675" stop-opacity="0.185004"/>
<stop offset="1" stop-color="#FFE675" stop-opacity="0"/>
</radialGradient>
<radialGradient id="paint42_radial_18_454" cx="0" cy="0" r="1" gradientUnits="userSpaceOnUse" gradientTransform="translate(9.62681 4.54146) rotate(165.272) scale(0.455786 1.96589)">
<stop offset="0.131615" stop-color="#FFE675"/>
<stop offset="0.665228" stop-color="#FFE675" stop-opacity="0.185004"/>
<stop offset="0.813948" stop-color="#FFE675" stop-opacity="0.0520478"/>
<stop offset="1" stop-color="#FFE675" stop-opacity="0"/>
</radialGradient>
<radialGradient id="paint43_radial_18_454" cx="0" cy="0" r="1" gradientUnits="userSpaceOnUse" gradientTransform="translate(9.31653 3.68578) rotate(147.095) scale(0.447206 1.92889)">
<stop offset="0.164689" stop-color="#FFE675"/>
<stop offset="0.719375" stop-color="#FFE675" stop-opacity="0.185004"/>
<stop offset="1" stop-color="#FFE675" stop-opacity="0"/>
</radialGradient>
<radialGradient id="paint44_radial_18_454" cx="0" cy="0" r="1" gradientUnits="userSpaceOnUse" gradientTransform="translate(10.0134 18.5672) rotate(127.221) scale(7.07598 6.89067)">
<stop offset="0.364601" stop-color="#FFBC64"/>
<stop offset="1" stop-color="#FF8F6B"/>
</radialGradient>
<radialGradient id="paint45_radial_18_454" cx="0" cy="0" r="1" gradientUnits="userSpaceOnUse" gradientTransform="translate(10.0408 23.7534) rotate(-110.523) scale(1.12072 3.14982)">
<stop stop-color="#FF7576"/>
<stop offset="0.746285" stop-color="#FF7576" stop-opacity="0.131386"/>
<stop offset="1" stop-color="#FF7576" stop-opacity="0"/>
</radialGradient>
<radialGradient id="paint46_radial_18_454" cx="0" cy="0" r="1" gradientUnits="userSpaceOnUse" gradientTransform="translate(5.83415 26.6005) rotate(-16.7267) scale(0.870907 4.51179)">
<stop stop-color="#FF7576"/>
<stop offset="0.501931" stop-color="#FF7576" stop-opacity="0.462921"/>
<stop offset="0.802968" stop-color="#FF7576" stop-opacity="0.131386"/>
<stop offset="1" stop-color="#FF7576" stop-opacity="0"/>
</radialGradient>
<radialGradient id="paint47_radial_18_454" cx="0" cy="0" r="1" gradientUnits="userSpaceOnUse" gradientTransform="translate(4.95388 24.267) rotate(-39.7418) scale(0.624386 1.16384)">
<stop stop-color="#FF7576"/>
<stop offset="0.501931" stop-color="#FF7576" stop-opacity="0.462921"/>
<stop offset="0.802968" stop-color="#FF7576" stop-opacity="0.131386"/>
<stop offset="1" stop-color="#FF7576" stop-opacity="0"/>
</radialGradient>
<radialGradient id="paint48_radial_18_454" cx="0" cy="0" r="1" gradientUnits="userSpaceOnUse" gradientTransform="translate(3.87426 23.5966) rotate(-64.6261) scale(0.684134 2.28869)">
<stop stop-color="#FF7576"/>
<stop offset="0.501931" stop-color="#FF7576" stop-opacity="0.462921"/>
<stop offset="1" stop-color="#FF7576" stop-opacity="0"/>
</radialGradient>
<radialGradient id="paint49_radial_18_454" cx="0" cy="0" r="1" gradientUnits="userSpaceOnUse" gradientTransform="translate(5.82893 26.1698) rotate(-15.0685) scale(0.254639 1.85798)">
<stop stop-color="#FF7576"/>
<stop offset="0.501931" stop-color="#FF7576" stop-opacity="0.462921"/>
<stop offset="1" stop-color="#FF7576" stop-opacity="0"/>
</radialGradient>
<radialGradient id="paint50_radial_18_454" cx="0" cy="0" r="1" gradientUnits="userSpaceOnUse" gradientTransform="translate(3.45869 23.5268) rotate(-61.9908) scale(0.794659 2.83778)">
<stop stop-color="#FF7576"/>
<stop offset="0.501931" stop-color="#EF7B54" stop-opacity="0.462921"/>
<stop offset="0.802968" stop-color="#FF7576" stop-opacity="0.131386"/>
<stop offset="1" stop-color="#FF7576" stop-opacity="0"/>
</radialGradient>
<radialGradient id="paint51_radial_18_454" cx="0" cy="0" r="1" gradientUnits="userSpaceOnUse" gradientTransform="translate(6.58404 27.8285) rotate(-75.1414) scale(0.641308 4.39596)">
<stop stop-color="#FF7576"/>
<stop offset="0.501931" stop-color="#FF7576" stop-opacity="0.462921"/>
<stop offset="0.802968" stop-color="#FF7576" stop-opacity="0.131386"/>
<stop offset="1" stop-color="#FF7576" stop-opacity="0"/>
</radialGradient>
<radialGradient id="paint52_radial_18_454" cx="0" cy="0" r="1" gradientUnits="userSpaceOnUse" gradientTransform="translate(3.39963 21.1076) rotate(68.4265) scale(0.388332 1.84372)">
<stop stop-color="#FF7576"/>
<stop offset="0.501931" stop-color="#FF7576" stop-opacity="0.462921"/>
<stop offset="0.802968" stop-color="#FF7576" stop-opacity="0.131386"/>
<stop offset="1" stop-color="#FF7576" stop-opacity="0"/>
</radialGradient>
<radialGradient id="paint53_radial_18_454" cx="0" cy="0" r="1" gradientUnits="userSpaceOnUse" gradientTransform="translate(4.81359 20.2978) rotate(45.4815) scale(0.537986 0.716147)">
<stop stop-color="#FF7576"/>
<stop offset="0.501931" stop-color="#FF7576" stop-opacity="0.462921"/>
<stop offset="0.802968" stop-color="#FF7576" stop-opacity="0.131386"/>
<stop offset="1" stop-color="#FF7576" stop-opacity="0"/>
</radialGradient>
<radialGradient id="paint54_radial_18_454" cx="0" cy="0" r="1" gradientUnits="userSpaceOnUse" gradientTransform="translate(5.36723 19.0433) rotate(15.5241) scale(0.401794 1.80498)">
<stop stop-color="#FF7576"/>
<stop offset="0.501931" stop-color="#FF7576" stop-opacity="0.462921"/>
<stop offset="0.802968" stop-color="#FF7576" stop-opacity="0.131386"/>
<stop offset="1" stop-color="#FF7576" stop-opacity="0"/>
</radialGradient>
<radialGradient id="paint55_radial_18_454" cx="0" cy="0" r="1" gradientUnits="userSpaceOnUse" gradientTransform="translate(5.83394 17.5681) rotate(11.3099) scale(0.391447 1.7585)">
<stop stop-color="#FF7576"/>
<stop offset="0.501931" stop-color="#FF7576" stop-opacity="0.462921"/>
<stop offset="0.802968" stop-color="#FF7576" stop-opacity="0.131386"/>
<stop offset="1" stop-color="#FF7576" stop-opacity="0"/>
</radialGradient>
<radialGradient id="paint56_radial_18_454" cx="0" cy="0" r="1" gradientUnits="userSpaceOnUse" gradientTransform="translate(6.23679 16.8014) rotate(28.8649) scale(0.363688 1.6338)">
<stop stop-color="#FF7576"/>
<stop offset="0.451537" stop-color="#FF7576" stop-opacity="0.462921"/>
<stop offset="0.716342" stop-color="#FF7576" stop-opacity="0.131386"/>
<stop offset="1" stop-color="#FF7576" stop-opacity="0"/>
</radialGradient>
<radialGradient id="paint57_radial_18_454" cx="0" cy="0" r="1" gradientUnits="userSpaceOnUse" gradientTransform="translate(2.23459 21.7345) rotate(36.0736) scale(0.479366 2.15346)">
<stop stop-color="#FF7576"/>
<stop offset="0.451537" stop-color="#FF7576" stop-opacity="0.462921"/>
<stop offset="0.716342" stop-color="#FF7576" stop-opacity="0.131386"/>
<stop offset="1" stop-color="#FF7576" stop-opacity="0"/>
</radialGradient>
<radialGradient id="paint58_radial_18_454" cx="0" cy="0" r="1" gradientUnits="userSpaceOnUse" gradientTransform="translate(2.07187 22.0502) scale(0.471403 2.11769)">
<stop stop-color="#FF7576"/>
<stop offset="0.451537" stop-color="#FF7576" stop-opacity="0.462921"/>
<stop offset="0.716342" stop-color="#FF7576" stop-opacity="0.131386"/>
<stop offset="1" stop-color="#FF7576" stop-opacity="0"/>
</radialGradient>
<radialGradient id="paint59_radial_18_454" cx="0" cy="0" r="1" gradientUnits="userSpaceOnUse" gradientTransform="translate(3.32406 20.9583) rotate(68.9625) scale(0.954558 2.73026)">
<stop stop-color="#CD9943"/>
<stop offset="0.767589" stop-color="#CD9943" stop-opacity="0.127511"/>
<stop offset="1" stop-color="#CD9943" stop-opacity="0"/>
</radialGradient>
<radialGradient id="paint60_radial_18_454" cx="0" cy="0" r="1" gradientUnits="userSpaceOnUse" gradientTransform="translate(5.4853 18.6632) rotate(20.4687) scale(0.810576 2.36218)">
<stop stop-color="#CD9943"/>
<stop offset="0.767589" stop-color="#CD9943" stop-opacity="0.127511"/>
<stop offset="1" stop-color="#CD9943" stop-opacity="0"/>
</radialGradient>
<radialGradient id="paint61_radial_18_454" cx="0" cy="0" r="1" gradientUnits="userSpaceOnUse" gradientTransform="translate(4.89036 19.7084) rotate(17.1619) scale(1.14437 1.77808)">
<stop stop-color="#CD9943"/>
<stop offset="0.767589" stop-color="#CD9943" stop-opacity="0.127511"/>
<stop offset="1" stop-color="#CD9943" stop-opacity="0"/>
</radialGradient>
<radialGradient id="paint62_radial_18_454" cx="0" cy="0" r="1" gradientUnits="userSpaceOnUse" gradientTransform="translate(6.29194 16.643) rotate(28.7896) scale(0.62793 2.79813)">
<stop stop-color="#CD9943" stop-opacity="0.85"/>
<stop offset="0.760417" stop-color="#CD9943" stop-opacity="0.127511"/>
<stop offset="1" stop-color="#CD9943" stop-opacity="0"/>
</radialGradient>
<radialGradient id="paint63_radial_18_454" cx="0" cy="0" r="1" gradientUnits="userSpaceOnUse" gradientTransform="translate(6.92284 16.4242) rotate(85.1355) scale(0.617513 2.75172)">
<stop stop-color="#CD9943" stop-opacity="0.85"/>
<stop offset="0.810204" stop-color="#CD9943" stop-opacity="0.127511"/>
<stop offset="1" stop-color="#CD9943" stop-opacity="0"/>
</radialGradient>
<radialGradient id="paint64_radial_18_454" cx="0" cy="0" r="1" gradientUnits="userSpaceOnUse" gradientTransform="translate(2.18127 21.7178) rotate(36.9715) scale(0.567348 1.62275)">
<stop stop-color="#CD9943"/>
<stop offset="0.188174" stop-color="#CD9943" stop-opacity="0.508864"/>
<stop offset="0.703125" stop-color="#CD9943" stop-opacity="0.127511"/>
<stop offset="1" stop-color="#CD9943" stop-opacity="0"/>
</radialGradient>
<radialGradient id="paint65_radial_18_454" cx="0" cy="0" r="1" gradientUnits="userSpaceOnUse" gradientTransform="translate(1.9022 22.2419) rotate(-1.75033) scale(0.590069 1.68774)">
<stop stop-color="#CD9943"/>
<stop offset="0.244792" stop-color="#CD9943" stop-opacity="0.508864"/>
<stop offset="0.727949" stop-color="#CD9943" stop-opacity="0.127511"/>
<stop offset="1" stop-color="#CD9943" stop-opacity="0"/>
</radialGradient>
<radialGradient id="paint66_radial_18_454" cx="0" cy="0" r="1" gradientUnits="userSpaceOnUse" gradientTransform="translate(2.16384 22.8962) rotate(-45.971) scale(0.506721 3.39978)">
<stop stop-color="#CD9943"/>
<stop offset="0.244792" stop-color="#CD9943" stop-opacity="0.508864"/>
<stop offset="0.727949" stop-color="#CD9943" stop-opacity="0.127511"/>
<stop offset="1" stop-color="#CD9943" stop-opacity="0"/>
</radialGradient>
<radialGradient id="paint67_radial_18_454" cx="0" cy="0" r="1" gradientUnits="userSpaceOnUse" gradientTransform="translate(8.3932 19.8988) rotate(155.008) scale(0.866594 1.80698)">
<stop stop-color="#FFE675"/>
<stop offset="0.65382" stop-color="#FFE675" stop-opacity="0.185004"/>
<stop offset="0.813038" stop-color="#FFE675" stop-opacity="0.107811"/>
<stop offset="1" stop-color="#FFE675" stop-opacity="0"/>
</radialGradient>
<radialGradient id="paint68_radial_18_454" cx="0" cy="0" r="1" gradientUnits="userSpaceOnUse" gradientTransform="translate(9.1314 20.6653) rotate(117.168) scale(0.715905 1.5525)">
<stop stop-color="#FFE675"/>
<stop offset="0.6685" stop-color="#FFE675" stop-opacity="0.185004"/>
<stop offset="0.831795" stop-color="#FFE675" stop-opacity="0.0637278"/>
<stop offset="1" stop-color="#FFE675" stop-opacity="0"/>
</radialGradient>
<radialGradient id="paint69_radial_18_454" cx="0" cy="0" r="1" gradientUnits="userSpaceOnUse" gradientTransform="translate(10.7717 21.3943) rotate(113.405) scale(0.78268 1.99996)">
<stop stop-color="#FFE675"/>
<stop offset="0.721175" stop-color="#FFE675" stop-opacity="0.185004"/>
<stop offset="1" stop-color="#FFE675" stop-opacity="0"/>
</radialGradient>
<radialGradient id="paint70_radial_18_454" cx="0" cy="0" r="1" gradientUnits="userSpaceOnUse" gradientTransform="translate(11.494 21.8502) rotate(154.938) scale(0.737402 1.88426)">
<stop stop-color="#FFE675"/>
<stop offset="0.721175" stop-color="#FFE675" stop-opacity="0.185004"/>
<stop offset="1" stop-color="#FFE675" stop-opacity="0"/>
</radialGradient>
<radialGradient id="paint71_radial_18_454" cx="0" cy="0" r="1" gradientUnits="userSpaceOnUse" gradientTransform="translate(7.8179 18.2879) rotate(165.272) scale(0.635572 2.74135)">
<stop offset="0.131615" stop-color="#FFE675"/>
<stop offset="0.665228" stop-color="#FFE675" stop-opacity="0.185004"/>
<stop offset="0.813948" stop-color="#FFE675" stop-opacity="0.0520478"/>
<stop offset="1" stop-color="#FFE675" stop-opacity="0"/>
</radialGradient>
<radialGradient id="paint72_radial_18_454" cx="0" cy="0" r="1" gradientUnits="userSpaceOnUse" gradientTransform="translate(7.38522 17.0947) rotate(147.095) scale(0.623608 2.68975)">
<stop offset="0.164689" stop-color="#FFE675"/>
<stop offset="0.719375" stop-color="#FFE675" stop-opacity="0.185004"/>
<stop offset="1" stop-color="#FFE675" stop-opacity="0"/>
</radialGradient>
</defs>
</svg>
