<svg width="48" height="48" viewBox="0 0 48 48" fill="none" xmlns="http://www.w3.org/2000/svg">
<g clip-path="url(#clip0_291_14113)">
<path d="M32.25 22.8141C31.7772 22.6065 31.2664 22.4996 30.75 22.5H17.25C16.7337 22.4995 16.2229 22.6063 15.75 22.8136C15.0817 23.1059 14.5129 23.5865 14.1134 24.1968C13.7138 24.8071 13.5006 25.5205 13.5 26.25V31.5C13.5 31.6989 13.579 31.8897 13.7197 32.0303C13.8603 32.171 14.0511 32.25 14.25 32.25C14.4489 32.25 14.6397 32.171 14.7803 32.0303C14.921 31.8897 15 31.6989 15 31.5V31.125C15.0012 31.0259 15.0411 30.9312 15.1112 30.8612C15.1812 30.7911 15.2759 30.7512 15.375 30.75H32.625C32.7241 30.7512 32.8188 30.7911 32.8888 30.8612C32.9589 30.9312 32.9988 31.0259 33 31.125V31.5C33 31.6989 33.079 31.8897 33.2197 32.0303C33.3603 32.171 33.5511 32.25 33.75 32.25C33.9489 32.25 34.1397 32.171 34.2803 32.0303C34.421 31.8897 34.5 31.6989 34.5 31.5V26.25C34.4993 25.5206 34.2861 24.8073 33.8865 24.1971C33.4869 23.5869 32.9183 23.1063 32.25 22.8141ZM29.625 15.75H18.375C17.6788 15.75 17.0111 16.0266 16.5188 16.5188C16.0266 17.0111 15.75 17.6788 15.75 18.375V21.75C15.75 21.7791 15.7568 21.8077 15.7698 21.8337C15.7828 21.8597 15.8016 21.8823 15.8249 21.8998C15.8481 21.9172 15.8751 21.929 15.9036 21.9343C15.9322 21.9395 15.9616 21.9381 15.9895 21.93C16.399 21.8102 16.8234 21.7496 17.25 21.75H17.4483C17.4946 21.7503 17.5393 21.7335 17.5739 21.7027C17.6085 21.672 17.6306 21.6296 17.6358 21.5836C17.6767 21.2171 17.8512 20.8786 18.1259 20.6326C18.4006 20.3866 18.7563 20.2504 19.125 20.25H21.75C22.119 20.25 22.475 20.3861 22.75 20.6321C23.025 20.8781 23.1997 21.2169 23.2406 21.5836C23.2458 21.6296 23.2679 21.672 23.3025 21.7027C23.3371 21.7335 23.3818 21.7503 23.4281 21.75H24.5747C24.621 21.7503 24.6657 21.7335 24.7003 21.7027C24.735 21.672 24.757 21.6296 24.7622 21.5836C24.8031 21.2174 24.9773 20.879 25.2517 20.633C25.5261 20.3871 25.8815 20.2507 26.25 20.25H28.875C29.244 20.25 29.6 20.3861 29.875 20.6321C30.15 20.8781 30.3247 21.2169 30.3656 21.5836C30.3708 21.6296 30.3929 21.672 30.4275 21.7027C30.4621 21.7335 30.5068 21.7503 30.5531 21.75H30.75C31.1766 21.7498 31.6011 21.8106 32.0105 21.9305C32.0384 21.9385 32.0679 21.94 32.0965 21.9347C32.1251 21.9295 32.1521 21.9176 32.1753 21.9001C32.1986 21.8826 32.2174 21.8599 32.2304 21.8339C32.2433 21.8078 32.2501 21.7791 32.25 21.75V18.375C32.25 17.6788 31.9734 17.0111 31.4812 16.5188C30.9889 16.0266 30.3212 15.75 29.625 15.75Z" fill="#112211"/>
</g>
<defs>
<clipPath id="clip0_291_14113">
<rect x="4" y="4" width="40" height="40" rx="20" fill="white"/>
</clipPath>
</defs>
</svg>
