<svg width="32" height="32" viewBox="0 0 32 32" fill="none" xmlns="http://www.w3.org/2000/svg">
<path d="M4.27734 15.6658C4.27734 11.3708 4.27734 9.22327 5.61164 7.88898C6.94593 6.55469 9.09344 6.55469 13.3885 6.55469H17.944C22.239 6.55469 24.3865 6.55469 25.7208 7.88898C27.0551 9.22327 27.0551 11.3708 27.0551 15.6658V17.9436C27.0551 22.2386 27.0551 24.3861 25.7208 25.7204C24.3865 27.0547 22.239 27.0547 17.944 27.0547H13.3885C9.09344 27.0547 6.94593 27.0547 5.61164 25.7204C4.27734 24.3861 4.27734 22.2386 4.27734 17.9436V15.6658Z" stroke="#4B4B4B" stroke-width="2.5"/>
<path d="M9.97266 6.55599V4.84766" stroke="#4B4B4B" stroke-width="2.5" stroke-linecap="round"/>
<path d="M21.3613 6.55599V4.84766" stroke="#4B4B4B" stroke-width="2.5" stroke-linecap="round"/>
<path d="M4.84766 12.25H26.4865" stroke="#4B4B4B" stroke-width="2.5" stroke-linecap="round"/>
</svg>
