<svg width="25" height="24" viewBox="0 0 25 24" fill="none" xmlns="http://www.w3.org/2000/svg">
<path d="M17.3103 6.05983L4.55422 18.8473L3.78125 20.7186L5.6525 19.9456L18.44 7.18952L17.3103 6.05983ZM19.8627 3.50795L19.31 4.06014L20.4397 5.18983L20.9923 4.63717C21.1374 4.49205 21.2188 4.29529 21.2188 4.09014C21.2188 3.88499 21.1374 3.68823 20.9923 3.54311L20.9572 3.50795C20.8853 3.43608 20.8 3.37907 20.7061 3.34017C20.6122 3.30127 20.5116 3.28125 20.4099 3.28125C20.3083 3.28125 20.2076 3.30127 20.1137 3.34017C20.0198 3.37907 19.9345 3.43608 19.8627 3.50795Z" stroke="white" stroke-width="2.0625" stroke-linecap="round" stroke-linejoin="round"/>
</svg>
