<svg width="18" height="18" viewBox="0 0 18 18" fill="none" xmlns="http://www.w3.org/2000/svg">
<path d="M6.86487 4.05628C7.81486 2.35209 8.28985 1.5 9 1.5C9.71015 1.5 10.1851 2.35209 11.1351 4.05628L11.3809 4.49717C11.6509 4.98145 11.7858 5.22359 11.9963 5.38336C12.2068 5.54312 12.4689 5.60243 12.9931 5.72104L13.4703 5.82902C15.3151 6.24642 16.2375 6.45511 16.4569 7.1608C16.6764 7.86648 16.0476 8.6018 14.7899 10.0724L14.4646 10.4529C14.1072 10.8708 13.9285 11.0798 13.8481 11.3383C13.7677 11.5968 13.7947 11.8756 13.8488 12.4332L13.898 12.9408C14.0881 14.9029 14.1832 15.884 13.6086 16.3202C13.0341 16.7563 12.1705 16.3587 10.4432 15.5634L9.99639 15.3576C9.50556 15.1316 9.26014 15.0186 9 15.0186C8.73986 15.0186 8.49444 15.1316 8.00362 15.3576L7.55676 15.5634C5.82951 16.3587 4.96588 16.7563 4.39136 16.3202C3.81684 15.884 3.91191 14.903 4.10205 12.9408L4.15124 12.4332C4.20527 11.8756 4.23229 11.5968 4.1519 11.3383C4.07151 11.0798 3.89282 10.8708 3.53544 10.4529L3.21007 10.0724C1.95244 8.6018 1.32362 7.86648 1.54307 7.1608C1.76251 6.45511 2.68489 6.24642 4.52965 5.82902L5.00692 5.72104C5.53114 5.60243 5.79325 5.54312 6.00371 5.38336C6.21417 5.22359 6.34914 4.98145 6.6191 4.49718L6.86487 4.05628Z" fill="#FFC23D"/>
</svg>
