<svg width="56" height="56" viewBox="0 0 56 56" fill="none" xmlns="http://www.w3.org/2000/svg">
<path d="M43.0913 51.4997L43.0892 51.4997C42.932 51.5003 42.7787 51.4516 42.6508 51.3604C42.6502 51.36 42.6496 51.3595 42.649 51.3591L28.5863 41.1638L27.9993 40.7383L27.4124 41.1638L13.3456 51.362L13.3455 51.3621C13.2167 51.4555 13.0615 51.5055 12.9024 51.505C12.7433 51.5044 12.5885 51.4532 12.4604 51.3589C12.3323 51.2645 12.2375 51.1319 12.1897 50.9801C12.1419 50.8283 12.1437 50.6653 12.1947 50.5146L12.1949 50.514L17.6811 34.2641L17.9231 33.5474L17.2992 33.1195L3.08049 23.3688L3.08006 23.3685C2.94807 23.278 2.84844 23.1478 2.79575 22.9967C2.74306 22.8456 2.74005 22.6817 2.78718 22.5288C2.8343 22.3759 2.92909 22.2421 3.05768 22.1469C3.18598 22.0519 3.34121 22.0004 3.50081 21.9997H21.0409H21.7674L21.9919 21.3087L27.2857 5.01735L27.2859 5.01673C27.3347 4.86599 27.4301 4.73461 27.5583 4.64142C27.6865 4.54824 27.8409 4.49805 27.9993 4.49805C28.1578 4.49805 28.3122 4.54824 28.4403 4.64142C28.5685 4.73461 28.6639 4.86599 28.7128 5.01673L28.7129 5.01725L34.0067 21.3141L34.2311 22.0052H34.9578H52.4993H52.4998C52.66 22.0051 52.816 22.0563 52.945 22.1513C53.074 22.2463 53.1691 22.3801 53.2166 22.5331L54.1717 22.2371L53.2166 22.5332C53.264 22.6862 53.2612 22.8503 53.2085 23.0016C53.1559 23.1529 53.0562 23.2834 52.924 23.3739L52.924 23.374L38.6997 33.1193L38.0754 33.547L38.3174 34.264L43.8004 50.5095L43.8005 50.5097C43.8386 50.6224 43.8493 50.7426 43.8317 50.8603C43.8142 50.9779 43.7689 51.0898 43.6996 51.1865C43.6303 51.2832 43.539 51.362 43.4332 51.4165C43.3275 51.471 43.2102 51.4995 43.0913 51.4997Z" stroke="#112211" stroke-width="2"/>
</svg>
